<svg id="Capa_1" data-name="Capa 1" xmlns="http://www.w3.org/2000/svg" viewBox="0 0 79.9985 80"><title>icon-workshop-3</title><path d="M44.783,36.087H20.435a2.60924,2.60924,0,0,1-1.844-.764l-7.826-7.826a2.608,2.608,0,0,1,0-3.689l7.826-7.826a2.60924,2.60924,0,0,1,1.844-.764H44.783a2.60953,2.60953,0,0,1,2.609,2.609V33.479A2.61,2.61,0,0,1,44.783,36.087Z" transform="translate(-10.00075 -10)" style="fill:#D8142A"/><path d="M44.783,72.609H20.435a2.60924,2.60924,0,0,1-1.844-.764l-7.826-7.826a2.608,2.608,0,0,1,0-3.689l7.826-7.826a2.60924,2.60924,0,0,1,1.844-.764H44.783a2.60953,2.60953,0,0,1,2.609,2.609V70A2.61017,2.61017,0,0,1,44.783,72.609Z" transform="translate(-10.00075 -10)" style="fill:#3E3089"/><path d="M79.565,56.957H55.217a2.60953,2.60953,0,0,1-2.609-2.609V38.696a2.60953,2.60953,0,0,1,2.609-2.609H79.565a2.60923,2.60923,0,0,1,1.844.764l7.826,7.826a2.608,2.608,0,0,1,0,3.689l-7.826,7.826A2.60846,2.60846,0,0,1,79.565,56.957Z" transform="translate(-10.00075 -10)" style="fill:#1654C6"/><path d="M55.217,90H44.783a2.60953,2.60953,0,0,1-2.609-2.609V17.826a7.826,7.826,0,1,1,15.652,0V87.391A2.60888,2.60888,0,0,1,55.217,90Z" transform="translate(-10.00075 -10)" style="fill:#eee"/><path d="M55.217,90a2.60953,2.60953,0,0,0,2.609-2.609V17.826A7.83521,7.83521,0,0,0,50,10V90Z" transform="translate(-10.00075 -10)" style="fill:#ccc"/><path d="M65.652,90H34.348a2.609,2.609,0,0,1,0-5.218H65.652a2.609,2.609,0,0,1,0,5.218Z" transform="translate(-10.00075 -10)" style="fill:#ccc"/></svg>