<svg xmlns="http://www.w3.org/2000/svg" xmlns:xlink="http://www.w3.org/1999/xlink" width="221" height="148" viewBox="0 0 221 148">
  <defs>
    <clipPath id="clip-path">
      <rect id="Rectangle_19334" data-name="Rectangle 19334" width="221" height="148" transform="translate(14545 12541)" fill="#fff" stroke="#707070" stroke-width="1"/>
    </clipPath>
  </defs>
  <g id="Mask_Group_819" data-name="Mask Group 819" transform="translate(-14545 -12541)" clip-path="url(#clip-path)">
    <g id="_5806787" data-name="5806787" transform="translate(14485.457 12494.939)">
      <g id="Background_Complete" transform="translate(66.15 232.709)">
        <g id="Group_95427" data-name="Group 95427" transform="translate(179.426 3.236)">
          <g id="Group_95426" data-name="Group 95426">
            <g id="Group_95425" data-name="Group 95425">
              <g id="Group_95418" data-name="Group 95418" transform="translate(5.154)">
                <g id="Group_95417" data-name="Group 95417">
                  <g id="Group_95416" data-name="Group 95416">
                    <g id="Group_95415" data-name="Group 95415">
                      <g id="Group_95414" data-name="Group 95414">
                        <g id="Group_95413" data-name="Group 95413">
                          <path id="Path_78320" data-name="Path 78320" d="M415.715,420.116h1.8l3.934-5.481v-3.6s2.783-.169,2.455,4.541.026,3.511.026,3.511,5.914.021,6.405.539c.359.375.517,6.247.581,9.436a3.446,3.446,0,0,1-2.445,3.474,2.655,2.655,0,0,1-.639.084c-1.473,0-9.014-1.2-9.014-1.2h-3.11v-11.31Z" transform="translate(-415.71 -411.039)" fill="#e0e0e0"/>
                        </g>
                      </g>
                    </g>
                  </g>
                </g>
              </g>
              <g id="Group_95424" data-name="Group 95424" transform="translate(0 8.09)">
                <g id="Group_95423" data-name="Group 95423">
                  <g id="Group_95422" data-name="Group 95422">
                    <g id="Group_95421" data-name="Group 95421">
                      <g id="Group_95420" data-name="Group 95420">
                        <g id="Group_95419" data-name="Group 95419">
                          <path id="Path_78321" data-name="Path 78321" d="M405.95,426.36l1.109,12.324h3.089V426.608Z" transform="translate(-405.95 -426.36)" fill="#e0e0e0"/>
                        </g>
                      </g>
                    </g>
                  </g>
                </g>
              </g>
            </g>
          </g>
        </g>
        <g id="Group_95433" data-name="Group 95433">
          <path id="Path_78325" data-name="Path 78325" d="M73.358,404.91H91.263a7.207,7.207,0,0,1,7.208,7.208v9.087a7.207,7.207,0,0,1-7.208,7.208H86.585l-3.295,4.715a1.993,1.993,0,0,1-3.3-.053l-3.031-4.657h-3.6a7.207,7.207,0,0,1-7.208-7.208v-9.087A7.208,7.208,0,0,1,73.358,404.91Z" transform="translate(-66.15 -404.91)" fill="#e0e0e0"/>
          <g id="Group_95432" data-name="Group 95432" transform="translate(8.887 7.223)">
            <path id="Path_78326" data-name="Path 78326" d="M89.617,418.59v9.272l-6.637-4.636Z" transform="translate(-82.98 -418.59)" fill="#fff"/>
            <path id="Path_78327" data-name="Path 78327" d="M104.257,431.555s-.438-6.59-5.708-6.685H95.18v2.83l3.316.048A7,7,0,0,1,104.257,431.555Z" transform="translate(-88.738 -421.554)" fill="#fff"/>
          </g>
        </g>
      </g>
      <g id="Character_3" transform="translate(101.123 75.228)">
        <g id="Group_95712" data-name="Group 95712" transform="translate(0)">
          <g id="Group_95668" data-name="Group 95668" transform="translate(-7.959 -19.168)">
            <g id="Group_95667" data-name="Group 95667" transform="translate(0)">
              <g id="Group_95666" data-name="Group 95666">
                <g id="Group_95661" data-name="Group 95661">
                  <g id="Group_95660" data-name="Group 95660">
                    <g id="Group_95659" data-name="Group 95659">
                      <g id="Group_95658" data-name="Group 95658">
                        <path id="Path_78363" data-name="Path 78363" d="M264.48,319.093l-88.2-.041c-10.611-.006-19.207-6.727-19.2-15.021l.042-172.871c0-8.3,8.61-15.021,19.221-15.021l88.2.041c10.611.006,19.2,6.733,19.2,15.021L283.7,304.072C283.7,312.377,275.1,319.1,264.48,319.093Z" transform="translate(-157.08 -116.14)" fill="#263238"/>
                      </g>
                    </g>
                  </g>
                </g>
                <g id="Group_95665" data-name="Group 95665" transform="translate(4.802 6.113)">
                  <g id="Group_95664" data-name="Group 95664">
                    <g id="Group_95663" data-name="Group 95663">
                      <g id="Group_95662" data-name="Group 95662" style="mix-blend-mode: normal;isolation: isolate">
                        <path id="Path_78364" data-name="Path 78364" d="M268.733,126.721l-17.412-.006c-2.332,0-4.233,1.519-4.225,3.393v2.424c0,1.873-1.893,3.393-4.225,3.393l-33.939-.017c-2.332,0-4.225-1.519-4.225-3.4v-2.424c0-1.873-1.893-3.393-4.225-3.4h-6.126l-15.238-.006c-7.565-.006-13.705,4.7-13.712,10.52l-.043,168.736c0,5.811,6.126,10.52,13.691,10.52l89.631.041c7.565.006,13.705-4.7,13.712-10.52l.036-168.73C282.431,131.436,276.3,126.726,268.733,126.721Z" transform="translate(-165.36 -126.68)" fill="#f8f8f8"/>
                      </g>
                    </g>
                  </g>
                </g>
              </g>
            </g>
          </g>
          <path id="Path_78409" data-name="Path 78409" d="M199.75,446.407l1.1-9.774,48.289-.533,1.23,10.307Z" transform="translate(-174.177 -267.15)" fill="#263238"/>
          <g id="Group_95708" data-name="Group 95708" transform="translate(18.925 178.253)">
            <path id="Path_78410" data-name="Path 78410" d="M253.608,453.857c0,.074-14.875.137-33.224.137s-33.224-.063-33.224-.137,14.875-.137,33.224-.137S253.608,453.783,253.608,453.857Z" transform="translate(-187.16 -453.72)" fill="#455a64"/>
          </g>
          <g id="Group_95709" data-name="Group 95709" transform="translate(43.887 -10.55)">
            <path id="Path_78411" data-name="Path 78411" d="M246.893,134.225h-19.73a1.184,1.184,0,0,1-1.183-1.183v-.858A1.184,1.184,0,0,1,227.163,131h19.73a1.184,1.184,0,0,1,1.183,1.183v.858A1.184,1.184,0,0,1,246.893,134.225Z" transform="translate(-225.98 -131)" fill="#455a64"/>
            <path id="Path_78412" data-name="Path 78412" d="M270.975,132.622a1.612,1.612,0,1,1-1.612-1.612A1.613,1.613,0,0,1,270.975,132.622Z" transform="translate(-243.526 -131.004)" fill="#455a64"/>
          </g>
          <path id="Path_78413" data-name="Path 78413" d="M156.342,198.6h-1.188a3.277,3.277,0,0,1-3.274-3.274V177.374a3.277,3.277,0,0,1,3.274-3.274h1.188Z" transform="translate(-151.584 -143.495)" fill="#263238"/>
          <path id="Path_78414" data-name="Path 78414" d="M155.782,266.021h-1.188a3.277,3.277,0,0,1-3.274-3.274V244.794a3.277,3.277,0,0,1,3.274-3.274h1.188Z" transform="translate(-151.32 -175.315)" fill="#263238"/>
          <g id="Group_95711" data-name="Group 95711" transform="translate(3.221 23.07)">
            <path id="Path_78415" data-name="Path 78415" d="M157.68,159.83v79.443" transform="translate(-157.543 -159.83)" fill="#ff725e"/>
            <g id="Group_95710" data-name="Group 95710">
              <path id="Path_78416" data-name="Path 78416" d="M157.557,239.273c-.074,0-.137-17.784-.137-39.719s.063-39.724.137-39.724.137,17.779.137,39.724S157.631,239.273,157.557,239.273Z" transform="translate(-157.42 -159.83)" fill="#455a64"/>
            </g>
          </g>
          <g id="Character" transform="translate(-186.656 -135.177)">
            <g id="Group_111259" data-name="Group 111259" transform="translate(156.893 128.406)">
              <g id="Group_111254" data-name="Group 111254" transform="translate(45.97 0)">
                <path id="Path_82301" data-name="Path 82301" d="M280.474,206.144c-3.387.4-5.732-1.447-6.3-3.6-.019.009-.047.009-.066.019l-.218,5.591a1.84,1.84,0,0,1,.6.066h0a48.3,48.3,0,0,1,5.1.757A9.365,9.365,0,0,1,280.474,206.144Z" transform="translate(-185.719 -148.503)" fill="none"/>
                <path id="Path_82302" data-name="Path 82302" d="M291.343,211.545a5.262,5.262,0,0,0-.407-2.819.153.153,0,0,0-.038-.066,10.033,10.033,0,0,1-.019,3.973l.132.038A5.527,5.527,0,0,0,291.343,211.545Z" transform="translate(-186.638 -148.834)" fill="none"/>
                <path id="Path_82303" data-name="Path 82303" d="M287.748,173.31l.019.558a55.35,55.35,0,0,1-.577,10.462,20.154,20.154,0,0,0,1.107-6.622A18.91,18.91,0,0,0,287.748,173.31Z" transform="translate(-186.438 -146.923)" fill="none"/>
                <path id="Path_82304" data-name="Path 82304" d="M282.129,424.754q.88.128,1.674.255v-.1l-2.384-.255C281.656,424.688,281.9,424.726,282.129,424.754Z" transform="translate(-186.126 -160.509)" fill="#b78876"/>
                <path id="Path_82305" data-name="Path 82305" d="M252.654,430.593c-.028-.227-.057-.482-.076-.7a37.107,37.107,0,0,1-.076-6.082,15.032,15.032,0,0,1,.2-1.646c.047-.274.085-.454.1-.53-3.538-.378-6.735-.7-9.355-.965-2.147-.218-3.907-.4-5.259-.53l.823,10.538Z" transform="translate(-183.789 -160.265)" fill="#b78876"/>
                <path id="Path_82306" data-name="Path 82306" d="M262.453,422.694c-3.084-.36-6.035-.681-8.778-.974.019.18-.057.936-.085,2.176a43.944,43.944,0,0,0,.274,6.026c.028.236.066.5.1.747l29.854-.2c-.889-2.828-1.438-4.626-1.513-5.014a2.2,2.2,0,0,1-.019-.3c-.549-.066-1.116-.142-1.722-.227C275.942,424.331,269.538,423.517,262.453,422.694Z" transform="translate(-184.621 -160.35)" fill="#b78876"/>
                <path id="Path_82307" data-name="Path 82307" d="M253.57,423.906c.028-1.249.1-2.005.085-2.176h-.038a4.14,4.14,0,0,0-.1.53c-.066.369-.142.927-.2,1.646a36.065,36.065,0,0,0,.076,6.082c.019.227.057.473.076.7h.482c-.028-.246-.076-.511-.1-.747A44.18,44.18,0,0,1,253.57,423.906Z" transform="translate(-184.602 -160.351)" fill="#a36957"/>
                <path id="Path_82308" data-name="Path 82308" d="M212.19,238.835l-4.805-5.458s.17-.17.464-.473c-3.481,2.686-6.073,4.323-6.309,3.462-4.181-15.3-3.67-34.972-3.273-42.52.4-.662.861-1.381,1.409-2.185a10.2,10.2,0,0,1,2.327-2.4,15.225,15.225,0,0,1,3.576-2.138c1.22-.388,1.381-2.034.293-2.4s-4.474.605-7.577,3.349-1.987-3.595-1.618-5.912,1.154-9.526.53-10.188c-.918-.965-2.147-.142-2.459,2.176-.312,2.346-1.731,9.223-2.951,9.005-1.2-.218.823-11.985.823-11.985s.842-2.459-.558-2.753c-2.516-.539-3.746,12.1-3.831,13.309-.057.842-1.391.643-1.277-.246.114-.927,2.289-11.7-.274-12.278-1.968-.445-1.107,10.4-2.8,12.411s.189-8.305-1.7-8.655c-.709-.132-1.249-.123-1.476,5.931a133.107,133.107,0,0,0,.936,14.586c-1.2,16.658-3.037,67.607,19.884,65.214,9.393-.984,16.2-4.219,21.095-8.031l-10.207-11.588Z" transform="translate(-180.681 -146.657)" fill="#f7a9a0"/>
                <path id="Path_82309" data-name="Path 82309" d="M270.17,305.133c7.066.2,13.546.388,19.118.558.085-5.827.17-11.5.255-16.97a7.58,7.58,0,0,1-.274-.785l.009-.842c-5.505-.132-11.824-.284-18.673-.454C270.444,292.59,270.3,298.767,270.17,305.133Z" transform="translate(-185.518 -153.049)" fill="#ea1c2d"/>
                <path id="Path_82310" data-name="Path 82310" d="M258.833,286.313c-3.774-.1-7.445-.2-10.982-.3-.218,5.969-.445,12.155-.681,18.5,3.264.085,6.65.17,10.112.265,3.831.1,7.558.208,11.153.3.132-6.366.284-12.553.454-18.512C265.644,286.492,262.277,286.407,258.833,286.313Z" transform="translate(-184.275 -153.015)" fill="#ea1c2d"/>
                <path id="Path_82311" data-name="Path 82311" d="M288.452,387.475c-5.193-.113-11.559-.265-18.692-.435.019,1.627.028,3.216.047,4.749.076,5.25.142,9.895.2,13.9,7.085.2,13.432.388,18.645.558-.057-3.557-.133-7.6-.151-12.061C288.471,392.035,288.461,389.793,288.452,387.475Z" transform="translate(-185.496 -158.476)" fill="#455a64"/>
                <path id="Path_82312" data-name="Path 82312" d="M290.133,416.762c.038,2.516.066,4.484.085,5.837,0,.653.01,1.154.01,1.523,0,.341-.01.52-.01.52s1.589-6.678,3.614-16.857c-1.192-.028-2.459-.047-3.812-.085C290.039,411.228,290.086,414.274,290.133,416.762Z" transform="translate(-186.591 -159.592)" fill="#455a64"/>
                <path id="Path_82313" data-name="Path 82313" d="M289.929,394.2c-.009,4.465.047,8.514.076,12.07,1.381.047,2.668.085,3.878.123,1.078-5.43,2.28-11.834,3.443-18.739-2.053-.038-4.54-.085-7.407-.151Q289.92,390.99,289.929,394.2Z" transform="translate(-186.586 -158.501)" fill="#455a64"/>
                <path id="Path_82314" data-name="Path 82314" d="M289.043,422.583c-.038-1.353-.1-3.32-.18-5.836-.076-2.5-.151-5.543-.2-9.072-5.2-.114-11.559-.265-18.645-.435.038,2.753.076,5.193.1,7.246.038,2.535.066,4.512.085,5.874,0,.653.009,1.164.009,1.532,0,.161,0,.284-.009.369,4.02.511,7.624,1.012,10.585,1.457l2.384.255,5.95.643s-.019-.17-.038-.52C289.09,423.737,289.071,423.236,289.043,422.583Z" transform="translate(-185.51 -159.568)" fill="#455a64"/>
                <path id="Path_82315" data-name="Path 82315" d="M298.961,306.13c-3.661-11.985-6.347-13.763-7.814-16.28q-.1,7.776-.227,16.024Z" transform="translate(-186.64 -153.222)" fill="#ea1c2d"/>
                <path id="Path_82316" data-name="Path 82316" d="M268.039,326.737c-3.973-.1-8.126-.208-12.411-.322-3.169-.085-6.272-.17-9.28-.255-.246,6.376-.482,12.562-.719,18.5,2.743.076,5.562.142,8.447.218,4.8.132,9.431.255,13.82.378C267.926,339.29,267.973,333.1,268.039,326.737Z" transform="translate(-184.192 -155.185)" fill="#455a64"/>
                <path id="Path_82317" data-name="Path 82317" d="M290.7,319.006c-.038,2.289-.066,4.559-.1,6.82,4.777.151,8.788.274,11.8.388a66.961,66.961,0,0,0-1.788-13.234c-.539-2.081-1.059-3.926-1.561-5.591-2.4-.047-5.136-.113-8.145-.18Q290.8,313.013,290.7,319.006Z" transform="translate(-186.622 -154.161)" fill="#ea1c2d"/>
                <path id="Path_82318" data-name="Path 82318" d="M268.384,306.658c-3.595-.095-7.322-.189-11.153-.293-3.462-.095-6.849-.189-10.112-.274q-.114,3.051-.227,6.139-.241,6.286-.482,12.364,4.512.113,9.27.246c4.285.113,8.438.227,12.411.34q.057-4.484.123-9.062Q268.3,311.321,268.384,306.658Z" transform="translate(-184.234 -154.1)" fill="#ea1c2d"/>
                <path id="Path_82319" data-name="Path 82319" d="M288.958,327.244c-5.515-.123-12.014-.284-19.127-.464-.076,6.366-.123,12.553-.161,18.522,7.123.2,13.574.388,19,.558C288.759,339.862,288.854,333.629,288.958,327.244Z" transform="translate(-185.491 -155.218)" fill="#455a64"/>
                <path id="Path_82320" data-name="Path 82320" d="M289.261,307.164c-5.562-.123-12.051-.284-19.118-.464q-.1,4.668-.17,9.45-.071,4.583-.123,9.072c7.114.2,13.612.388,19.127.558q.057-3.377.114-6.811C289.147,314.968,289.2,311.042,289.261,307.164Z" transform="translate(-185.501 -154.133)" fill="#ea1c2d"/>
                <path id="Path_82321" data-name="Path 82321" d="M290.757,215.723c.038,1.353.1,3.32.18,5.836.028.87.057,1.826.076,2.828.028.312.047.634.047.946,4.512.132,8.646.255,12.3.369-2.119-6.1-6.839-10.037-11.938-12.553a5.613,5.613,0,0,1-.719,1.2C290.719,214.711,290.738,215.155,290.757,215.723Z" transform="translate(-186.628 -149.076)" fill="#ea1c2d"/>
                <path id="Path_82322" data-name="Path 82322" d="M290.5,215.806c0-.53-.009-.965-.009-1.3a2.115,2.115,0,0,1-.18.227c-.085.095-.18.18-.274.274a9.542,9.542,0,0,1-2.318,3.15,9.6,9.6,0,0,1,2.885,4.881c-.009-.473-.019-.955-.028-1.391C290.548,219.126,290.52,217.159,290.5,215.806Z" transform="translate(-186.467 -149.15)" fill="#ea1c2d"/>
                <path id="Path_82323" data-name="Path 82323" d="M248.04,244.163c-5.931-.161-11.474-.322-16.459-.473q-.326,2.781-.653,5.676c-.2,1.722-.378,3.405-.568,5.07a28.372,28.372,0,0,0,2.072,9.45c4.5.1,9.5.227,14.832.369C247.538,257.009,247.8,250.264,248.04,244.163Z" transform="translate(-183.366 -150.727)" fill="#ea1c2d"/>
                <path id="Path_82324" data-name="Path 82324" d="M272.09,243.313c2.27.066,4.474.123,6.622.189a7.2,7.2,0,0,1,.993-.151c-.151-.218-.218-.407-.161-.454a.158.158,0,0,1,.132,0,4.132,4.132,0,0,1-1.258-2.876c.019-2.242,1.551-4.228,3.018-6.054a13.016,13.016,0,0,1-1.8-7.738c-2.2-.057-4.465-.114-6.764-.18-.189,4.124-.416,8.977-.672,14.473C272.175,241.431,272.137,242.368,272.09,243.313Z" transform="translate(-185.622 -149.774)" fill="#ea1c2d"/>
                <path id="Path_82325" data-name="Path 82325" d="M260.444,266.272c-4.087-.114-8.05-.218-11.843-.322-.218,5.865-.445,12.051-.681,18.5,3.538.095,7.208.189,10.973.284,3.443.095,6.811.18,10.055.274.189-6.461.388-12.657.605-18.5Q265.113,266.394,260.444,266.272Z" transform="translate(-184.315 -151.93)" fill="#ea1c2d"/>
                <path id="Path_82326" data-name="Path 82326" d="M290.871,212.86c-.047.218-.1.426-.161.634a5.812,5.812,0,0,0,.293-.6Z" transform="translate(-186.628 -149.061)" fill="#455a64"/>
                <path id="Path_82327" data-name="Path 82327" d="M264.93,262.164a12.431,12.431,0,0,1-5.865-2.431,9.722,9.722,0,0,1-1.419-1.305c-.3-.341-.445-.549-.416-.568.066-.057.728.691,2.043,1.6A13.36,13.36,0,0,0,265,261.681a13.08,13.08,0,0,0,4.749-.255c.227-5.978.464-11.569.7-16.668-3.7-.095-7.549-.2-11.5-.3-3.264-.085-6.451-.17-9.545-.255-.227,6.1-.473,12.846-.738,20.092q5.7.142,11.843.312c3.112.085,6.158.17,9.119.246.038-1.012.076-2.005.114-3A12.522,12.522,0,0,1,264.93,262.164Z" transform="translate(-184.355 -150.755)" fill="#ea1c2d"/>
                <path id="Path_82328" data-name="Path 82328" d="M291.08,226.69c.038,1.495.066,3.1.085,4.834.057,3.6.142,7.7.151,12.241v.1c6.414.2,11.654.369,15.2.492-.473-3.453-1.192-8.164-2.289-14.624a19.823,19.823,0,0,0-.719-2.932c-3.68-.085-7.861-.18-12.42-.293C291.089,226.567,291.08,226.624,291.08,226.69Z" transform="translate(-186.648 -149.799)" fill="#ea1c2d"/>
                <path id="Path_82329" data-name="Path 82329" d="M289.905,252.964c0-2.686,0-5.269-.009-7.728-2.27-.057-4.682-.114-7.208-.17a3.583,3.583,0,0,1-.955-.019c-.237-.009-.473-.009-.709-.019.057.085.095.151.076.189-.038.076-.246.038-.511-.085a1.142,1.142,0,0,1,.047.17c.076.095.161.2.255.331a4.8,4.8,0,0,1,.208,4.862,2.982,2.982,0,0,1-.445.624c-.123.132-.208.189-.236.17s0-.123.076-.274.18-.378.293-.662a5.777,5.777,0,0,0,.378-2.289,5.573,5.573,0,0,0-.312-1.6,7.92,7.92,0,0,1-.568,3.973,8.007,8.007,0,0,1-3.84,4.049c.161-.738.312-1.476.473-2.214a3.476,3.476,0,0,1-2.535,1.164,8.744,8.744,0,0,1,.842-2.885c-.568.227-1.145.464-1.712.691a6.787,6.787,0,0,1,1.826-4.815,6.68,6.68,0,0,1,2.1-1.485c-1.75-.047-3.557-.085-5.392-.132-.208,5.061-.426,10.614-.643,16.545.331-.085.643-.18.927-.284,1.5-.53,2.346-1.078,2.393-1,.019.028-.17.189-.558.445a9.837,9.837,0,0,1-1.712.889,10.716,10.716,0,0,1-1.069.378c-.038,1.031-.076,2.072-.113,3.131,6.669.18,12.874.359,18.323.53l.161-11.995h.028c-5.364-.482-9.308-.908-9.3-1.022S284.494,252.538,289.905,252.964Z" transform="translate(-185.578 -150.788)" fill="#ea1c2d"/>
                <path id="Path_82330" data-name="Path 82330" d="M291.377,253.018c.918.076,1.864.151,2.838.237,6.981.586,12.628,1.173,12.609,1.305a2.28,2.28,0,0,1-.719.019l1.192.085s.388-.672-.747-9.072c-3.547-.057-8.8-.17-15.23-.312C291.358,247.73,291.367,250.322,291.377,253.018Z" transform="translate(-186.661 -150.813)" fill="#ea1c2d"/>
                <path id="Path_82331" data-name="Path 82331" d="M249.45,242.7c3.093.076,6.281.161,9.545.246,3.964.1,7.814.208,11.512.312.047-.946.085-1.882.133-2.8.265-5.5.511-10.349.738-14.464l-4.314-.113c-5.978-.161-11.7-.322-17.018-.473-.123,3.566-.255,7.624-.416,12.118C249.582,239.192,249.516,240.933,249.45,242.7Z" transform="translate(-184.398 -149.739)" fill="#ea1c2d"/>
                <path id="Path_82332" data-name="Path 82332" d="M233.99,223.694c4.418.1,9.478.218,14.984.359.142-3.377.265-6.319.359-8.741.114-2.5.2-4.446.265-5.789.019-.3.028-.568.047-.8a35.262,35.262,0,0,0-14.085,2.743c-.255,1.977-.586,4.522-.974,7.539C234.406,220.45,234.2,222.029,233.99,223.694Z" transform="translate(-183.562 -148.837)" fill="#ea1c2d"/>
                <path id="Path_82333" data-name="Path 82333" d="M247.375,265.906c-5.241-.142-10.159-.284-14.605-.416.142.274.284.549.435.8,2.989,4.947,7.076,11.692,7.076,11.692l-1.154,6.243c2.422.057,4.938.123,7.53.189C246.9,277.967,247.148,271.781,247.375,265.906Z" transform="translate(-183.497 -151.906)" fill="#ea1c2d"/>
                <path id="Path_82334" data-name="Path 82334" d="M270.65,285.063c6.839.189,13.158.369,18.664.539l.246-18.588c-5.458-.132-11.663-.284-18.342-.454C271.019,272.4,270.83,278.592,270.65,285.063Z" transform="translate(-185.544 -151.963)" fill="#ea1c2d"/>
                <path id="Path_82335" data-name="Path 82335" d="M245.558,312.192c.076-2.062.161-4.105.236-6.13-3.793-.1-7.435-.208-10.859-.312a181.933,181.933,0,0,0-4.115,18.455c4.408.1,9.2.227,14.284.36Q245.331,318.478,245.558,312.192Z" transform="translate(-183.391 -154.082)" fill="#ea1c2d"/>
                <path id="Path_82336" data-name="Path 82336" d="M278.3,209.307a45.772,45.772,0,0,0-5.1-.757,2.964,2.964,0,0,1-.88.114c-.577.047-1.4.085-2.431.123-2.053.076-4.891.1-8.012.085-3.055-.019-5.827-.038-8.012-.057-1.854-.019-3.055-.038-3.273-.095-.009.236-.009.492-.019.795-.038,1.343-.095,3.292-.17,5.8-.085,2.422-.18,5.354-.293,8.741,5.316.132,11.039.284,17.018.435l4.323.113c.142-2.507.265-4.73.388-6.622.161-2.535.284-4.5.369-5.865.047-.653.085-1.163.1-1.523.028-.341.057-.52.057-.52s.009.18,0,.52c-.009.359-.038.87-.057,1.523-.066,1.362-.161,3.339-.274,5.865-.085,1.9-.189,4.124-.3,6.622,2.318.066,4.578.123,6.792.189a13.473,13.473,0,0,1,2.847-6.905A9.832,9.832,0,0,1,278.3,209.307Z" transform="translate(-184.434 -148.828)" fill="#ea1c2d"/>
                <path id="Path_82337" data-name="Path 82337" d="M290.617,243.867c.009-4.531-.057-8.637-.085-12.241-.009-1.126-.019-2.195-.028-3.216a9.983,9.983,0,0,1-3.462,5.714,8.888,8.888,0,0,1-.454,7.52,5.257,5.257,0,0,1-1.968,2.128c2.091.057,4.1.123,6,.18Z" transform="translate(-186.299 -149.901)" fill="#ea1c2d"/>
                <path id="Path_82338" data-name="Path 82338" d="M243.307,419.57c4.664.378,11.1.984,18.191,1.8q3.547.412,6.8.823a3.348,3.348,0,0,1-.019-.369c-.01-.359-.038-.87-.057-1.523-.038-1.362-.1-3.339-.18-5.874-.066-2.053-.123-4.493-.189-7.255-5.259-.132-10.926-.274-16.819-.435q-4.214-.114-8.249-.227c-.038.965-.076,1.9-.113,2.743-.113,2.5-.2,4.446-.265,5.789q-.057.965-.085,1.5c-.019.341-.047.511-.047.511s-.009-.17-.009-.511q.014-.539.028-1.5c.038-1.343.095-3.292.17-5.8.028-.851.057-1.778.095-2.743-2.649-.076-5.222-.142-7.71-.218,1.268,9.393,1.589,12.751,1.589,12.751l1,.1c.113.009.218.009.341.019C239.088,419.249,240.97,419.381,243.307,419.57Z" transform="translate(-183.609 -159.516)" fill="#455a64"/>
                <path id="Path_82339" data-name="Path 82339" d="M246.774,285.988c-2.62-.076-5.155-.142-7.6-.218l-2.658,14.378c-.322,1.022-.747,2.4-1.22,4.068,3.4.085,6.991.17,10.755.265C246.3,298.143,246.547,291.956,246.774,285.988Z" transform="translate(-183.633 -153.002)" fill="#ea1c2d"/>
                <path id="Path_82340" data-name="Path 82340" d="M290.015,367.43c-.057,6.678-.095,12.941-.095,18.654,2.885.095,5.392.18,7.445.246.993-5.969,1.958-12.3,2.772-18.7C297.573,367.591,294.139,367.525,290.015,367.43Z" transform="translate(-186.586 -157.416)" fill="#455a64"/>
                <path id="Path_82341" data-name="Path 82341" d="M242.423,404.929c.161-4.749.369-10.85.615-18.086.009-.17.009-.341.019-.511-3.85-.1-7.558-.208-11.077-.312,1.163,7.9,2.024,14.028,2.658,18.711C237.145,404.8,239.746,404.863,242.423,404.929Z" transform="translate(-183.454 -158.421)" fill="#455a64"/>
                <path id="Path_82342" data-name="Path 82342" d="M288.484,367.395c-5.316-.114-11.72-.265-18.834-.445.009,6.669.047,12.874.1,18.541,7.132.2,13.5.4,18.692.558C288.427,380.335,288.437,374.073,288.484,367.395Z" transform="translate(-185.49 -157.39)" fill="#455a64"/>
                <path id="Path_82343" data-name="Path 82343" d="M243.583,364.687c.218-5.818.445-12,.681-18.5-5.609-.151-10.888-.3-15.693-.445A126.565,126.565,0,0,0,229,364.318C233.509,364.432,238.409,364.555,243.583,364.687Z" transform="translate(-183.261 -156.243)" fill="#455a64"/>
                <path id="Path_82344" data-name="Path 82344" d="M242.919,384.76c.208-5.581.435-11.777.681-18.493-5.146-.142-10.018-.284-14.52-.407.17,1.636.369,3.273.624,4.909.776,5.07,1.457,9.62,2.053,13.716C235.3,384.561,239.041,384.656,242.919,384.76Z" transform="translate(-183.297 -157.331)" fill="#455a64"/>
                <path id="Path_82345" data-name="Path 82345" d="M252.423,366.5c-2.592-.066-5.137-.142-7.624-.208-.265,6.716-.5,12.922-.719,18.493q3.334.085,6.792.18c6.016.161,11.777.322,17.122.473-.076-5.666-.132-11.872-.17-18.54C262.97,366.782,257.8,366.64,252.423,366.5Z" transform="translate(-184.108 -157.354)" fill="#455a64"/>
                <path id="Path_82346" data-name="Path 82346" d="M267.959,386.994c-5.354-.132-11.124-.284-17.141-.445q-3.462-.1-6.792-.18c-.009.17-.009.35-.019.511-.3,7.227-.549,13.328-.747,18.077q4.03.1,8.239.218c5.893.161,11.541.312,16.8.464-.085-3.992-.18-8.637-.265-13.886C268.006,390.22,267.978,388.621,267.959,386.994Z" transform="translate(-184.064 -158.439)" fill="#455a64"/>
                <path id="Path_82347" data-name="Path 82347" d="M290.574,327.28c-.095,6.395-.189,12.619-.284,18.626,4.891.151,8.911.284,11.768.388a166.942,166.942,0,0,0,.322-18.768C299.381,327.469,295.36,327.384,290.574,327.28Z" transform="translate(-186.606 -155.245)" fill="#455a64"/>
                <path id="Path_82348" data-name="Path 82348" d="M290.276,347.35c-.066,4.4-.132,8.684-.189,12.818-.019,1.977-.038,3.907-.057,5.818,4.134.132,7.577.246,10.15.341.795-6.281,1.447-12.619,1.863-18.739C299.177,347.549,295.166,347.464,290.276,347.35Z" transform="translate(-186.592 -156.33)" fill="#455a64"/>
                <path id="Path_82349" data-name="Path 82349" d="M267.855,346.816c-4.4-.113-9.034-.227-13.839-.359q-4.328-.113-8.447-.227c-.255,6.489-.492,12.685-.719,18.493q3.732.1,7.615.2c5.373.142,10.538.284,15.391.426C267.846,359.492,267.837,353.287,267.855,346.816Z" transform="translate(-184.149 -156.27)" fill="#455a64"/>
                <path id="Path_82350" data-name="Path 82350" d="M244.284,344.619c.218-5.941.445-12.127.681-18.5-5.1-.142-9.914-.274-14.331-.407a163.34,163.34,0,0,0-2.034,18.522C233.405,344.345,238.684,344.478,244.284,344.619Z" transform="translate(-183.271 -155.161)" fill="#455a64"/>
                <path id="Path_82351" data-name="Path 82351" d="M288.672,347.314c-5.43-.123-11.881-.274-19-.454-.028,6.47-.038,12.676-.028,18.531,7.114.2,13.527.388,18.843.558.009-1.911.028-3.841.038-5.808C288.568,356.007,288.616,351.713,288.672,347.314Z" transform="translate(-185.489 -156.304)" fill="#455a64"/>
                <path id="Path_82352" data-name="Path 82352" d="M232.885,223.847c.227-1.684.445-3.264.653-4.73.416-2.97.785-5.468,1.078-7.4a25.894,25.894,0,0,0-9.091,6.641c-1.646,1.892-3.188,3.632-4.626,5.241C223.918,223.648,227.995,223.733,232.885,223.847Z" transform="translate(-182.855 -148.999)" fill="#455a64"/>
                <path id="Path_82353" data-name="Path 82353" d="M229.574,249.289q.326-2.866.653-5.638c-6.47-.189-11.947-.369-15.987-.5l10.207,11.588.9,1.012,3.973-4.162Q229.432,250.438,229.574,249.289Z" transform="translate(-182.495 -150.698)" fill="#455a64"/>
                <path id="Path_82354" data-name="Path 82354" d="M213.715,241.868c4.068.076,9.649.2,16.27.35.757-6.395,1.514-12.288,2.195-17.311-4.976-.151-9.11-.293-12.127-.4-5.515,6.139-9.4,10.15-10.68,11.436-.293.3-.464.473-.464.473Z" transform="translate(-182.207 -149.69)" fill="#455a64"/>
                <path id="Path_82355" data-name="Path 82355" d="M231.71,242.26c4.976.114,10.509.255,16.422.407.066-1.778.132-3.509.2-5.174.189-4.484.35-8.542.5-12.108-5.524-.161-10.585-.3-15.012-.445C233.186,229.972,232.457,235.866,231.71,242.26Z" transform="translate(-183.439 -149.714)" fill="#455a64"/>
                <path id="Path_82356" data-name="Path 82356" d="M269.8,326.779c-.161,0-.322-.009-.492-.009-.076,6.366-.123,12.553-.142,18.522.161,0,.312.009.473.009C269.681,339.332,269.728,333.146,269.8,326.779Z" transform="translate(-185.464 -155.218)" fill="#263238"/>
                <path id="Path_82357" data-name="Path 82357" d="M270.923,262.853c-.038.993-.076,1.987-.113,3,.142,0,.293.01.435.01.038-1.059.076-2.091.113-3.131C271.207,262.777,271.065,262.815,270.923,262.853Z" transform="translate(-185.553 -151.756)" fill="#263238"/>
                <path id="Path_82358" data-name="Path 82358" d="M270.755,266.54c-.218,5.846-.416,12.042-.605,18.5.161,0,.312.009.473.009.18-6.461.369-12.657.568-18.5C271.049,266.549,270.9,266.549,270.755,266.54Z" transform="translate(-185.517 -151.962)" fill="#263238"/>
                <path id="Path_82359" data-name="Path 82359" d="M270.114,286.61c-.17,5.959-.322,12.146-.454,18.512.161,0,.331.01.492.01.132-6.366.274-12.553.435-18.512C270.426,286.619,270.265,286.619,270.114,286.61Z" transform="translate(-185.491 -153.047)" fill="#263238"/>
                <path id="Path_82360" data-name="Path 82360" d="M273.511,212.2c.028-.653.047-1.164.057-1.523.009-.341,0-.52,0-.52s-.028.18-.057.52c-.028.359-.066.87-.1,1.523-.085,1.362-.208,3.33-.369,5.865-.113,1.9-.246,4.115-.388,6.622.095,0,.18.009.274.009.113-2.5.218-4.72.3-6.622C273.359,215.542,273.454,213.565,273.511,212.2Z" transform="translate(-185.652 -148.915)" fill="#263238"/>
                <path id="Path_82361" data-name="Path 82361" d="M271.71,243.3c.123,0,.246.009.36.009.038-.946.076-1.882.123-2.791.255-5.5.473-10.349.672-14.473-.095,0-.18-.009-.274-.009-.227,4.115-.473,8.968-.738,14.464C271.8,241.412,271.757,242.358,271.71,243.3Z" transform="translate(-185.601 -149.773)" fill="#263238"/>
                <path id="Path_82362" data-name="Path 82362" d="M270.115,306.7c-.161,0-.331-.009-.492-.009q-.1,4.668-.17,9.45-.071,4.583-.123,9.062c.161,0,.331.009.492.009.038-2.989.076-6.007.123-9.072Q270.03,311.372,270.115,306.7Z" transform="translate(-185.473 -154.133)" fill="#263238"/>
                <path id="Path_82363" data-name="Path 82363" d="M270.94,261.458c.151-.038.284-.076.426-.114.208-5.931.426-11.484.643-16.545-.123,0-.246-.009-.359-.009C271.413,249.889,271.176,255.479,270.94,261.458Z" transform="translate(-185.56 -150.787)" fill="#263238"/>
                <path id="Path_82364" data-name="Path 82364" d="M269.642,346.859c-.161,0-.312-.009-.473-.009-.019,6.47-.019,12.676.009,18.531.142,0,.293.009.435.009C269.6,359.535,269.614,353.33,269.642,346.859Z" transform="translate(-185.463 -156.303)" fill="#263238"/>
                <path id="Path_82365" data-name="Path 82365" d="M269.19,366.94c.028,6.669.095,12.874.17,18.541.123,0,.246.009.369.009-.047-5.666-.085-11.872-.1-18.541C269.474,366.94,269.332,366.94,269.19,366.94Z" transform="translate(-185.465 -157.389)" fill="#263238"/>
                <path id="Path_82366" data-name="Path 82366" d="M270.193,420.36c-.019-1.362-.047-3.339-.085-5.874-.028-2.062-.066-4.493-.1-7.246-.095,0-.189-.009-.274-.009.066,2.762.123,5.2.189,7.255.076,2.535.142,4.512.18,5.874.028.653.047,1.163.057,1.523.01.161.019.284.019.369h.019c0-.085.009-.208.009-.369C270.2,421.523,270.2,421.012,270.193,420.36Z" transform="translate(-185.494 -159.567)" fill="#263238"/>
                <path id="Path_82367" data-name="Path 82367" d="M269.739,387.039c-.123,0-.246-.009-.369-.009.019,1.627.047,3.226.066,4.758.085,5.25.17,9.895.265,13.886.095,0,.189.009.284.009-.057-4-.123-8.646-.2-13.9C269.767,390.256,269.748,388.657,269.739,387.039Z" transform="translate(-185.475 -158.475)" fill="#263238"/>
                <path id="Path_82368" data-name="Path 82368" d="M290.891,305.829c.085-5.486.161-10.841.227-16.024a7.64,7.64,0,0,1-.482-.965c-.085,5.477-.17,11.153-.255,16.97C290.55,305.82,290.721,305.82,290.891,305.829Z" transform="translate(-186.611 -153.168)" fill="#263238"/>
                <path id="Path_82369" data-name="Path 82369" d="M290.864,307.2c-.17,0-.341-.01-.511-.01q-.085,5.8-.18,11.8-.057,3.434-.113,6.811c.17.009.331.009.5.019.038-2.251.066-4.522.1-6.82Q290.779,313.008,290.864,307.2Z" transform="translate(-186.593 -154.16)" fill="#263238"/>
                <path id="Path_82370" data-name="Path 82370" d="M290.954,243.774v.085c.113,0,.236.009.35.009v-.1c-.019-4.531-.1-8.637-.151-12.241-.019-1.731-.057-3.339-.085-4.834a10.5,10.5,0,0,1-.218,1.627c.009,1.031.019,2.091.028,3.216C290.9,235.137,290.964,239.243,290.954,243.774Z" transform="translate(-186.636 -149.808)" fill="#263238"/>
                <path id="Path_82371" data-name="Path 82371" d="M290.97,252.988l.388.028c-.009-2.7-.019-5.288-.038-7.747-.113,0-.237-.009-.35-.009C290.97,247.719,290.979,250.3,290.97,252.988Z" transform="translate(-186.642 -150.812)" fill="#263238"/>
                <path id="Path_82372" data-name="Path 82372" d="M290.753,215.792q-.028-.851-.057-1.362c-.019.019-.038.047-.057.066,0,.341.009.766.009,1.3.019,1.353.047,3.32.085,5.837.009.445.019.918.028,1.391a10.486,10.486,0,0,1,.246,1.428c-.028-1-.047-1.958-.076-2.828C290.858,219.112,290.8,217.154,290.753,215.792Z" transform="translate(-186.625 -149.146)" fill="#263238"/>
                <path id="Path_82373" data-name="Path 82373" d="M290.546,327.279c-.17,0-.331-.009-.5-.009-.1,6.395-.2,12.619-.274,18.616.17.01.341.01.5.019C290.356,339.9,290.451,333.674,290.546,327.279Z" transform="translate(-186.577 -155.245)" fill="#263238"/>
                <path id="Path_82374" data-name="Path 82374" d="M290.2,422.6c-.019-1.353-.047-3.32-.085-5.837-.047-2.488-.095-5.534-.123-9.062a2.659,2.659,0,0,1-.274-.009c.047,3.528.123,6.574.2,9.072.076,2.516.132,4.484.18,5.837.028.653.047,1.154.057,1.513.019.341.038.52.038.52s.009-.18.009-.52S290.212,423.251,290.2,422.6Z" transform="translate(-186.575 -159.592)" fill="#263238"/>
                <path id="Path_82375" data-name="Path 82375" d="M289.993,367.429c-.142,0-.293-.009-.435-.009-.038,6.678-.057,12.94-.038,18.654.123,0,.255.009.378.009C289.9,380.37,289.936,374.108,289.993,367.429Z" transform="translate(-186.564 -157.415)" fill="#263238"/>
                <path id="Path_82376" data-name="Path 82376" d="M289.9,387.509c-.123,0-.255-.009-.378-.009.009,2.318.019,4.559.038,6.7.019,4.465.095,8.5.151,12.061.095,0,.18.009.274.009-.028-3.566-.085-7.605-.076-12.07Q289.894,390.991,289.9,387.509Z" transform="translate(-186.564 -158.501)" fill="#263238"/>
                <path id="Path_82377" data-name="Path 82377" d="M290.251,347.349c-.161,0-.331-.009-.5-.009-.057,4.4-.1,8.684-.151,12.827-.019,1.977-.028,3.907-.038,5.808.151,0,.293.009.445.009.019-1.911.038-3.841.057-5.818C290.118,356.033,290.184,351.748,290.251,347.349Z" transform="translate(-186.566 -156.33)" fill="#263238"/>
                <path id="Path_82378" data-name="Path 82378" d="M246.335,326.159c-.151,0-.312-.009-.464-.009-.236,6.376-.464,12.562-.681,18.5.142,0,.284.009.426.009Q245.956,335.737,246.335,326.159Z" transform="translate(-184.168 -155.184)" fill="#263238"/>
                <path id="Path_82379" data-name="Path 82379" d="M249.07,242.692c.123,0,.236.009.359.009.066-1.769.132-3.509.189-5.165.151-4.484.293-8.542.416-12.118-.085,0-.17-.009-.255-.009-.151,3.566-.312,7.624-.5,12.108C249.2,239.183,249.136,240.914,249.07,242.692Z" transform="translate(-184.378 -149.739)" fill="#263238"/>
                <path id="Path_82380" data-name="Path 82380" d="M247.389,286c-.227,5.969-.473,12.155-.719,18.5.161,0,.322.01.482.01.236-6.347.464-12.534.681-18.5C247.682,286.009,247.54,286.009,247.389,286Z" transform="translate(-184.248 -153.014)" fill="#263238"/>
                <path id="Path_82381" data-name="Path 82381" d="M248.169,265.93c-.227,5.865-.464,12.051-.719,18.5.142,0,.293.009.445.009.236-6.451.464-12.638.681-18.5C248.434,265.939,248.3,265.939,248.169,265.93Z" transform="translate(-184.29 -151.929)" fill="#263238"/>
                <path id="Path_82382" data-name="Path 82382" d="M250.2,215.313c-.1,2.422-.218,5.364-.359,8.741a2.309,2.309,0,0,1,.255.009c.114-3.377.218-6.319.293-8.741.076-2.5.132-4.455.17-5.8.009-.293.009-.558.019-.795-.028-.009-.047-.009-.047-.019H250.5c-.009.236-.028.5-.047.8C250.4,210.857,250.313,212.806,250.2,215.313Z" transform="translate(-184.419 -148.836)" fill="#263238"/>
                <path id="Path_82383" data-name="Path 82383" d="M249.006,244.19c-.236,6.1-.5,12.846-.776,20.092.132,0,.265.009.4.009.265-7.246.511-13.991.738-20.092C249.242,244.2,249.129,244.19,249.006,244.19Z" transform="translate(-184.332 -150.754)" fill="#263238"/>
                <path id="Path_82384" data-name="Path 82384" d="M247.093,306.089c-.161,0-.322-.009-.482-.009-.076,2.034-.161,4.068-.237,6.13q-.227,6.286-.454,12.373c.151,0,.312.009.464.009.161-4.049.312-8.173.482-12.364Q246.979,309.135,247.093,306.089Z" transform="translate(-184.207 -154.099)" fill="#263238"/>
                <path id="Path_82385" data-name="Path 82385" d="M244,386.359c-.114,0-.237-.009-.35-.009-.009.17-.009.35-.019.511-.246,7.227-.454,13.328-.615,18.086a1.668,1.668,0,0,1,.218.009c.2-4.749.445-10.85.747-18.077C243.994,386.709,243.994,386.53,244,386.359Z" transform="translate(-184.051 -158.438)" fill="#263238"/>
                <path id="Path_82386" data-name="Path 82386" d="M244.391,366.28c-.246,6.716-.473,12.922-.681,18.493.114,0,.236.009.35.009.218-5.581.454-11.777.719-18.493C244.646,366.289,244.523,366.289,244.391,366.28Z" transform="translate(-184.088 -157.353)" fill="#263238"/>
                <path id="Path_82387" data-name="Path 82387" d="M245.131,346.21c-.236,6.489-.464,12.685-.681,18.5.132,0,.255.009.388.009.227-5.818.464-12,.719-18.493C245.415,346.219,245.273,346.219,245.131,346.21Z" transform="translate(-184.128 -156.269)" fill="#263238"/>
                <path id="Path_82388" data-name="Path 82388" d="M242.9,409.273c-.076,2.5-.132,4.455-.17,5.8-.009.643-.028,1.145-.028,1.5,0,.341.009.511.009.511s.019-.17.047-.511q.028-.539.085-1.5c.066-1.343.151-3.292.265-5.789.038-.851.076-1.778.114-2.743a1.527,1.527,0,0,1-.208-.009C242.955,407.495,242.927,408.422,242.9,409.273Z" transform="translate(-184.033 -159.529)" fill="#263238"/>
                <path id="Path_82389" data-name="Path 82389" d="M233.57,223.842c.132,0,.265.009.4.009.208-1.665.416-3.235.6-4.692.388-3.027.719-5.572.974-7.539-.076.038-.161.066-.236.1-.293,1.92-.662,4.418-1.078,7.4C234.015,220.578,233.8,222.158,233.57,223.842Z" transform="translate(-183.54 -148.994)" fill="#263238"/>
                <path id="Path_82390" data-name="Path 82390" d="M231.57,243.689c-.161-.009-.322-.009-.492-.019-.218,1.845-.435,3.718-.653,5.638-.085.776-.17,1.542-.255,2.308l.095-.095s-.028,1.182.095,2.914c.18-1.665.369-3.349.568-5.07C231.135,247.444,231.362,245.543,231.57,243.689Z" transform="translate(-183.356 -150.726)" fill="#263238"/>
                <path id="Path_82391" data-name="Path 82391" d="M233.791,224.949c-.132,0-.265-.009-.407-.009-.681,5.032-1.438,10.916-2.195,17.311.161,0,.322.009.492.009C232.429,235.866,233.158,229.972,233.791,224.949Z" transform="translate(-183.411 -149.714)" fill="#263238"/>
                <path id="Path_82392" data-name="Path 82392" d="M291.089,226.485c4.569.113,8.75.208,12.42.293-.038-.123-.095-.246-.132-.369-3.642-.114-7.785-.236-12.3-.369A3.44,3.44,0,0,1,291.089,226.485Z" transform="translate(-186.648 -149.773)" fill="#263238"/>
                <path id="Path_82393" data-name="Path 82393" d="M232.817,224.895c.132,0,.265.009.407.009,4.427.132,9.5.284,15.012.445.085,0,.17.009.255.009,5.316.151,11.049.312,17.018.473l4.314.113c.095,0,.18.009.274.009,2.308.057,4.559.123,6.764.18.009-.161.038-.322.057-.482-2.213-.066-4.484-.123-6.792-.189-.095,0-.18-.009-.274-.009l-4.323-.114c-5.969-.161-11.7-.3-17.018-.435a2.309,2.309,0,0,1-.255-.009c-5.505-.142-10.566-.255-14.984-.359-.132,0-.265-.009-.4-.009-4.891-.113-8.968-.2-11.985-.246-.066.076-.132.151-.2.218C223.708,224.611,227.841,224.743,232.817,224.895Z" transform="translate(-182.844 -149.678)" fill="#263238"/>
                <path id="Path_82394" data-name="Path 82394" d="M257.058,244.393c3.964.1,7.814.208,11.5.3.123,0,.246.009.359.009,1.835.047,3.642.095,5.392.132a7.2,7.2,0,0,1,1.249-.426c-2.138-.057-4.351-.123-6.622-.189-.123,0-.236-.009-.359-.009-3.7-.1-7.549-.208-11.512-.312-3.264-.085-6.451-.17-9.545-.246-.123,0-.236-.009-.359-.009-5.912-.151-11.455-.293-16.422-.407-.161,0-.322-.009-.492-.009-6.612-.161-12.2-.274-16.27-.35l.236.265c4.039.142,9.516.312,15.987.5.161.009.322.009.492.019,4.976.151,10.528.3,16.459.473.123,0,.236.009.359.009C250.607,244.214,253.795,244.3,257.058,244.393Z" transform="translate(-182.481 -150.683)" fill="#263238"/>
                <path id="Path_82395" data-name="Path 82395" d="M281.551,245.02c.236.009.473.009.709.019a3.75,3.75,0,0,1-1.05-.369A2.828,2.828,0,0,1,281.551,245.02Z" transform="translate(-186.115 -150.78)" fill="#263238"/>
                <path id="Path_82396" data-name="Path 82396" d="M290.548,244.83c-1.9-.057-3.907-.114-6-.18a3.416,3.416,0,0,1-.814.331,2.808,2.808,0,0,1-.407.076c2.535.066,4.947.123,7.208.17.113,0,.236.009.35.009,6.432.151,11.683.255,15.23.312-.009-.076-.019-.142-.028-.218-3.547-.132-8.788-.3-15.2-.492C290.784,244.839,290.661,244.839,290.548,244.83Z" transform="translate(-186.229 -150.779)" fill="#263238"/>
                <path id="Path_82397" data-name="Path 82397" d="M247.761,265.9c3.8.1,7.766.218,11.843.322,3.112.085,6.158.161,9.109.236.142,0,.293.01.435.01,6.678.17,12.884.322,18.342.454l.01-.407c-5.458-.161-11.654-.341-18.323-.53-.142,0-.293-.009-.435-.009-2.961-.085-6.007-.161-9.119-.246-4.077-.114-8.041-.208-11.843-.312-.132,0-.265-.01-.4-.01-5.335-.132-10.32-.255-14.832-.369l.2.426c4.446.132,9.365.274,14.605.416C247.5,265.891,247.628,265.891,247.761,265.9Z" transform="translate(-183.485 -151.881)" fill="#263238"/>
                <path id="Path_82398" data-name="Path 82398" d="M247.441,285.982c3.538.095,7.208.2,10.982.3,3.443.095,6.811.18,10.055.265.161,0,.312.01.473.01,6.839.18,13.168.331,18.673.454l.009-.4c-5.505-.17-11.824-.35-18.664-.539-.161,0-.312-.009-.473-.009-3.254-.095-6.612-.18-10.055-.274-3.774-.1-7.445-.2-10.973-.284-.151,0-.293-.009-.445-.009-2.592-.066-5.108-.132-7.53-.189l-.085.454c2.441.066,4.985.142,7.6.218A3.36,3.36,0,0,1,247.441,285.982Z" transform="translate(-183.855 -152.977)" fill="#263238"/>
                <path id="Path_82399" data-name="Path 82399" d="M246.511,306.046c3.264.095,6.65.18,10.112.274,3.831.1,7.568.2,11.153.293.161,0,.331.009.492.009,7.066.18,13.555.341,19.118.464.17,0,.341.009.511.009,3.018.066,5.751.132,8.145.18-.028-.1-.066-.208-.095-.312l-8.05-.255c-.17-.009-.34-.009-.511-.019-5.562-.17-12.051-.359-19.118-.558-.161,0-.331-.009-.492-.009-3.585-.1-7.322-.2-11.153-.3-3.462-.095-6.839-.18-10.112-.265-.161,0-.322-.009-.482-.009-3.755-.095-7.359-.189-10.755-.265-.038.142-.085.293-.123.445,3.424.095,7.057.2,10.859.312C246.189,306.037,246.35,306.037,246.511,306.046Z" transform="translate(-183.625 -154.056)" fill="#263238"/>
                <path id="Path_82400" data-name="Path 82400" d="M245.553,326.111q4.512.128,9.28.255c4.285.113,8.438.227,12.411.322.161,0,.331.009.492.009,7.113.18,13.612.341,19.127.463.17,0,.331.009.5.009,4.777.1,8.807.189,11.805.246,0-.076-.009-.161-.009-.236-3.008-.1-7.019-.236-11.8-.388-.17-.009-.331-.009-.5-.019-5.515-.17-12.014-.359-19.127-.558-.161,0-.322-.009-.492-.009-3.973-.113-8.126-.227-12.411-.341q-4.753-.128-9.27-.246c-.151,0-.312-.009-.463-.009-5.07-.132-9.876-.246-14.284-.359-.028.142-.047.284-.076.435,4.418.132,9.242.265,14.331.407C245.241,326.1,245.393,326.1,245.553,326.111Z" transform="translate(-183.387 -155.136)" fill="#263238"/>
                <path id="Path_82401" data-name="Path 82401" d="M244.274,346.16c.142,0,.284.01.426.01q4.129.113,8.447.227c4.8.132,9.441.246,13.839.359.161,0,.312.009.473.009,7.114.18,13.574.331,19,.454.161,0,.341.009.5.009,4.891.114,8.9.189,11.758.237a1.533,1.533,0,0,0,.009-.208c-2.857-.1-6.868-.236-11.768-.388-.161-.009-.331-.009-.5-.019-5.43-.17-11.881-.359-19-.558-.161,0-.312-.009-.473-.009-4.4-.123-9.024-.246-13.82-.378q-4.313-.114-8.447-.218c-.142,0-.284-.009-.426-.009-5.6-.142-10.888-.274-15.684-.388-.009.142-.019.284-.019.426C233.376,345.858,238.664,346.009,244.274,346.16Z" transform="translate(-183.271 -156.219)" fill="#263238"/>
                <path id="Path_82402" data-name="Path 82402" d="M243.6,366.231c.132,0,.255.009.388.009q3.732.1,7.624.208c5.373.142,10.547.274,15.41.4.142,0,.293.009.435.009,7.114.18,13.527.331,18.834.445.151,0,.293.009.435.009,4.115.095,7.558.161,10.122.2.01-.076.019-.142.028-.218-2.563-.095-6.016-.208-10.15-.341-.142,0-.293-.009-.445-.009-5.316-.17-11.72-.359-18.843-.558-.142,0-.293-.009-.435-.009-4.853-.132-10.027-.284-15.391-.426-2.592-.066-5.136-.132-7.615-.2-.132,0-.255-.01-.388-.01-5.165-.132-10.074-.255-14.587-.369.019.151.038.293.047.445C233.57,365.956,238.451,366.089,243.6,366.231Z" transform="translate(-183.294 -157.304)" fill="#263238"/>
                <path id="Path_82403" data-name="Path 82403" d="M243.053,386.306c.113,0,.236.009.35.009,2.223.057,4.493.123,6.792.18,6.016.161,11.786.312,17.141.445.123,0,.246.009.369.009,7.133.18,13.5.331,18.692.435.123,0,.255.009.378.009,2.866.066,5.364.114,7.407.151.009-.076.028-.161.038-.236-2.062-.076-4.569-.161-7.445-.246-.123,0-.255-.009-.378-.009-5.193-.161-11.559-.359-18.692-.558-.123,0-.246-.009-.369-.009-5.345-.151-11.115-.312-17.122-.473q-3.462-.1-6.792-.18c-.114,0-.237-.009-.35-.009-3.878-.1-7.615-.2-11.162-.284.019.151.047.312.066.463C235.5,386.1,239.2,386.2,243.053,386.306Z" transform="translate(-183.45 -158.395)" fill="#263238"/>
                <path id="Path_82404" data-name="Path 82404" d="M242.555,406.481a1.528,1.528,0,0,1,.208.009q4.03.113,8.249.227c5.9.161,11.559.3,16.819.435.095,0,.189.01.274.01,7.085.18,13.432.322,18.645.435a2.642,2.642,0,0,1,.274.01c1.353.028,2.63.057,3.812.085.019-.095.038-.2.057-.3-1.211-.038-2.5-.085-3.878-.123-.095,0-.18-.009-.274-.009-5.2-.161-11.559-.35-18.645-.558-.095,0-.189-.01-.284-.01-5.259-.151-10.907-.3-16.8-.464q-4.214-.113-8.239-.218a1.679,1.679,0,0,1-.218-.009c-2.677-.066-5.278-.133-7.785-.2.019.151.047.312.066.464Q238.6,406.377,242.555,406.481Z" transform="translate(-183.605 -159.49)" fill="#263238"/>
                <path id="Path_82405" data-name="Path 82405" d="M253.89,208.809c2.185.019,4.947.038,8.012.057,3.131.009,5.969-.019,8.012-.085,1.022-.038,1.854-.076,2.431-.123a3.411,3.411,0,0,0,.88-.114h0a1.841,1.841,0,0,0-.6-.066v.047l-18.342-.076c-.132,0-.274.009-.407.009-1.022.038-1.854.076-2.431.123a3.811,3.811,0,0,0-.889.113h0c0,.009.019.009.047.019C250.834,208.772,252.036,208.791,253.89,208.809Z" transform="translate(-184.458 -148.822)" fill="#263238"/>
                <path id="Path_82406" data-name="Path 82406" d="M265.486,262.451a13.429,13.429,0,0,1-5.723-2.223c-1.315-.908-1.986-1.655-2.043-1.6-.019.019.114.227.416.568a10.846,10.846,0,0,0,1.419,1.305,12.293,12.293,0,0,0,10.661,2.119c.151-.038.293-.076.426-.123a10.718,10.718,0,0,0,1.069-.378,9.831,9.831,0,0,0,1.712-.889c.378-.255.568-.416.558-.445-.047-.076-.889.473-2.393,1-.284.1-.6.2-.927.284l-.426.114A12.875,12.875,0,0,1,265.486,262.451Z" transform="translate(-184.845 -151.535)" fill="#263238"/>
                <path id="Path_82407" data-name="Path 82407" d="M306.276,254.967c.01-.132-5.638-.719-12.609-1.305-.974-.085-1.93-.161-2.838-.237l-.388-.028c-5.42-.426-9.422-.662-9.431-.549s3.935.539,9.3,1.022c1.059.095,2.166.189,3.311.284,5.524.464,10.216.785,11.938.832A2.753,2.753,0,0,0,306.276,254.967Z" transform="translate(-186.104 -151.221)" fill="#263238"/>
                <path id="Path_82408" data-name="Path 82408" d="M274.19,201.775c.568,2.157,2.914,4,6.3,3.6a9.2,9.2,0,0,0-.889,2.828,9.9,9.9,0,0,0,3.055,8.589,13.522,13.522,0,0,0-2.847,6.905l-.057.482a13.016,13.016,0,0,0,1.8,7.738c-1.466,1.826-3,3.812-3.018,6.054a4.173,4.173,0,0,0,1.258,2.876,3.749,3.749,0,0,1,.757.53c.095.085.189.161.274.236a3.75,3.75,0,0,0,1.05.369,2.94,2.94,0,0,0,.955.019,3.195,3.195,0,0,0,1.22-.407,5.256,5.256,0,0,0,1.967-2.128,8.888,8.888,0,0,0,.454-7.52,9.983,9.983,0,0,0,3.462-5.714,10.5,10.5,0,0,0,.218-1.627,1.16,1.16,0,0,1,.019-.18,3.493,3.493,0,0,0-.009-.445c0-.322-.019-.634-.047-.946a10.49,10.49,0,0,0-.246-1.428,9.564,9.564,0,0,0-2.885-4.881,9.48,9.48,0,0,0,2.318-3.15,5.83,5.83,0,0,1-1.778,1.211,4.877,4.877,0,0,1-1.655.4,3.363,3.363,0,0,1-.463-.009c-.1-.009-.161-.028-.161-.038s.057-.038.151-.057.255-.028.445-.076a5.663,5.663,0,0,0,1.523-.52,5.916,5.916,0,0,0,1.854-1.457,4.977,4.977,0,0,0,.577-.851c.057-.208.114-.416.161-.634a9.862,9.862,0,0,0,.019-3.973,5.878,5.878,0,0,0-1.315-1.873,10.4,10.4,0,0,0-1.845-1.239c.009-.019.057-.009.161.009a3.03,3.03,0,0,1,.445.123,4.827,4.827,0,0,1,1.466.851,5.241,5.241,0,0,1,.681.691,9.2,9.2,0,0,0-2.232-3.462,14.906,14.906,0,0,0-1.485-14.464C284.368,194.283,281.1,200.11,274.19,201.775Zm10.85,15.239c-.038.132-.539.114-1.135.17s-1.1.142-1.145.009.416-.454,1.107-.5S285.078,216.882,285.04,217.014Zm-1.722,14.965c-.984-.151-1.807-.161-1.826-.3s.832-.35,1.892-.189,1.816.605,1.759.719C285.087,232.348,284.3,232.121,283.318,231.979Zm-.539-28.7a2.938,2.938,0,0,1,1.977-.114c.009.142-.842.293-1.835.586s-1.8.615-1.863.492S281.71,203.582,282.779,203.279Z" transform="translate(-185.735 -147.728)" fill="#263238"/>
                <path id="Path_82409" data-name="Path 82409" d="M258.5,160.9a16.551,16.551,0,0,0,1.665,4.285,16.175,16.175,0,0,0,1.514,2.251,15.188,15.188,0,0,0,4.408,3.755,17.322,17.322,0,0,0,2.459,1.145,16.631,16.631,0,0,0,4.493.974c.142.009.274.009.416.019l.028-3.178s-12.761-1.107-15.447-12.846c0,.151.009.312.028.511A16.288,16.288,0,0,0,258.5,160.9Z" transform="translate(-184.862 -146.058)" fill="#f7a9a0"/>
                <path id="Path_82410" data-name="Path 82410" d="M272.223,205.688l.218-5.591c-.028.009-.047.009-.076.019l.2-19.1-.038-.047a11.714,11.714,0,0,1,.066-2.762l.047-4.569H272.2a15.91,15.91,0,0,1-4.626-.889,16.237,16.237,0,0,1-2.545-1.145,17.255,17.255,0,0,1-2.469-1.712,15.981,15.981,0,0,1-2.081-2.166,15.465,15.465,0,0,1-1.532-2.337,16.256,16.256,0,0,1-1.608-4.427,13.783,13.783,0,0,1-.293-3.159,7.9,7.9,0,0,1,.057-.861c0-.038.009-.047.009-.076s-.009-.028-.009-.047l-.076.076c-.747,1.873-2.062,5.874-1.107,9.081l-11.588,3.2-1.286,1.239c.009,5.487.085,11.692.35,15.532.568,8.145,8.589,8.939,8.589,8.939a19.443,19.443,0,0,0,10.491-3.755s-2.327,6.016-10.292,5.761l-.2-2s.643,8.608.586,10.774l1.286.009,18.342.076ZM245.9,173.705a1.033,1.033,0,0,1-1.031-1.031,1.02,1.02,0,0,1,1-1.05,1.033,1.033,0,0,1,1.031,1.031A1.014,1.014,0,0,1,245.9,173.705Zm1.986-2.45c-.114.151-.946-.4-2.034-.312s-1.835.738-1.968.605c-.066-.057.038-.322.359-.624a2.651,2.651,0,0,1,1.561-.653,2.593,2.593,0,0,1,1.636.426C247.8,170.943,247.941,171.189,247.884,171.255Zm2,9.781a.7.7,0,0,1-.482-.407,1.835,1.835,0,0,1,.095-1.182c.218-.747.454-1.532.691-2.346a40.308,40.308,0,0,1,2.053-5.95,41.852,41.852,0,0,1-1.6,6.092c-.255.813-.492,1.589-.728,2.336a1.618,1.618,0,0,0-.151.9c.057.2.322.246.605.255a6.106,6.106,0,0,1,1.788.227,7,7,0,0,1-1.8.123A2.339,2.339,0,0,1,249.88,181.036Zm4.276,3.888a2.99,2.99,0,0,1-3.642-1.022c2.232-.019,6.376-2.7,5.269-1.92C255.792,181.982,256.482,183.884,254.155,184.924Zm3.528-11.342a1.033,1.033,0,0,1-1.031-1.031,1.02,1.02,0,0,1,1-1.05,1.033,1.033,0,0,1,1.031,1.031A1.02,1.02,0,0,1,257.684,173.582Zm2.337-2.45c-.114.151-.946-.4-2.034-.312s-1.835.738-1.968.605c-.066-.057.038-.322.359-.624a2.651,2.651,0,0,1,1.561-.653,2.593,2.593,0,0,1,1.636.426C259.935,170.811,260.077,171.056,260.02,171.132Z" transform="translate(-184.052 -146.032)" fill="#f7a9a0"/>
                <path id="Path_82411" data-name="Path 82411" d="M246.588,172.47a1.669,1.669,0,1,0,1.653,1.653A1.655,1.655,0,0,0,246.588,172.47Z" transform="translate(-184.399 -147.092)" fill="#263238"/>
                <path id="Path_82412" data-name="Path 82412" d="M247.486,171.455a2.646,2.646,0,0,0-3.2.227c-.322.3-.426.568-.359.624.132.132.88-.53,1.968-.605s1.92.464,2.034.312C247.987,171.957,247.845,171.711,247.486,171.455Z" transform="translate(-184.099 -146.799)" fill="#263238"/>
                <path id="Path_82413" data-name="Path 82413" d="M259.1,172.34a1.725,1.725,0,1,0,1.708,1.708A1.71,1.71,0,0,0,259.1,172.34Z" transform="translate(-185.332 -147.072)" fill="#263238"/>
                <path id="Path_82414" data-name="Path 82414" d="M260.316,171.325a2.646,2.646,0,0,0-3.2.227c-.322.3-.426.568-.359.624.132.132.88-.53,1.968-.605s1.92.464,2.034.312C260.817,171.817,260.675,171.571,260.316,171.325Z" transform="translate(-184.792 -146.792)" fill="#263238"/>
                <path id="Path_82415" data-name="Path 82415" d="M250.731,181.552c-.284-.009-.549-.057-.605-.255a1.618,1.618,0,0,1,.151-.9c.227-.738.473-1.523.728-2.336a43,43,0,0,0,1.6-6.092,42.536,42.536,0,0,0-2.053,5.95c-.236.823-.473,1.6-.691,2.346a1.84,1.84,0,0,0-.095,1.182.686.686,0,0,0,.482.407,1.726,1.726,0,0,0,.473.038,6.445,6.445,0,0,0,1.8-.123A6.815,6.815,0,0,0,250.731,181.552Z" transform="translate(-184.411 -146.851)" fill="#263238"/>
                <path id="Path_82416" data-name="Path 82416" d="M250.94,185.332a3,3,0,0,0,3.642,1.022c2.327-1.041,1.637-2.942,1.637-2.942C257.316,182.646,253.172,185.313,250.94,185.332Z" transform="translate(-184.479 -147.462)" fill="#263238"/>
                <path id="Path_82417" data-name="Path 82417" d="M263.011,193.08a19.443,19.443,0,0,1-10.491,3.755l.2,2C260.684,199.1,263.011,193.08,263.011,193.08Z" transform="translate(-184.564 -147.992)" fill="#a36957"/>
                <path id="Path_82418" data-name="Path 82418" d="M255.872,165.351c-.955-3.207.359-7.218,1.107-9.081l.076-.076c0,.019.009.028.009.047a.707.707,0,0,1,.047-.218c.019,0,.028.1.038.3.009.095.009.208.009.341,2.686,11.73,15.447,12.846,15.447,12.846l-.028,3.178a16.733,16.733,0,0,0,2.705-.066c.369-.028.653-.085.851-.095a1.046,1.046,0,0,1,.3-.009c0,.019-.095.047-.284.1a8.032,8.032,0,0,1-.842.189,13.806,13.806,0,0,1-2.734.208l-.047,4.569a6.012,6.012,0,0,1,.227-.88,3.418,3.418,0,0,1,2.573-2.355,2.885,2.885,0,0,1,3.046,2.327,3.571,3.571,0,0,1-1.722,3.585,4.367,4.367,0,0,1-2.8.539.931.931,0,0,1-.047.151,1.868,1.868,0,0,0,.265,1.324,1.947,1.947,0,0,0,1.353.88,2,2,0,0,0,1.542-.492,1.842,1.842,0,0,0,.605-1.2,3.986,3.986,0,0,0-.189-1.324c.028-.047.53.378.539,1.353a2.164,2.164,0,0,1-.643,1.514,2.265,2.265,0,0,1-3.585-.482,2.135,2.135,0,0,1-.218-1.627.477.477,0,0,1,.047-.123,5.294,5.294,0,0,1-.936-.265l-.085-.1-.2,19.1c.028-.009.047-.009.076-.019s.047-.009.066-.019c6.915-1.665,10.178-7.492,11.682-13.584.1-.407.189-.814.274-1.22-.057.123-.114.246-.18.359a16.119,16.119,0,0,1-1.466,2.346,3.226,3.226,0,0,1-.672.757c-.076-.057.832-1.182,1.816-3.254a19.291,19.291,0,0,0,.823-2.034,56.972,56.972,0,0,0,.577-10.462l-.019-.558a20.324,20.324,0,0,0-1.513-4.228c-1.022-2.062-1.939-3.178-1.863-3.226a3.742,3.742,0,0,1,.681.747,15.31,15.31,0,0,1,1.495,2.318,18.739,18.739,0,0,1,1.145,2.592l-.028-.908c.009.028,0,.019,0-.038v-.038c-.009-.057-.019-.132-.028-.255h0a29.95,29.95,0,0,0-.53-3.3c-4.512-16.961-19.108-19.978-21.984-19.95-3.093.028-8.514-1.655-16.3,6.83s-3.377,17.472-3.377,17.472l.028-.019,1.287-1.239Z" transform="translate(-183.981 -145.415)" fill="#263238"/>
                <path id="Path_82419" data-name="Path 82419" d="M280.213,244.793a2.108,2.108,0,0,1-.426-.463,6.988,6.988,0,0,0-.993.151,7.479,7.479,0,0,0-1.249.426,6.643,6.643,0,0,0-3.926,6.3c.568-.227,1.145-.464,1.712-.691a8.877,8.877,0,0,0-.842,2.885,3.476,3.476,0,0,0,2.535-1.163c-.161.738-.312,1.476-.473,2.214a7.908,7.908,0,0,0,4.408-8.022,5.3,5.3,0,0,0-.265-.643c-.265-.539-.5-.851-.445-.9.028-.028.236.095.492.4-.019-.057-.028-.113-.047-.17A3.552,3.552,0,0,1,280.213,244.793Z" transform="translate(-185.704 -150.762)" fill="#263238"/>
                <path id="Path_82420" data-name="Path 82420" d="M279.978,243.849c-.066.047,0,.236.161.454a2.339,2.339,0,0,0,.426.464,2.468,2.468,0,0,0,.492.312c.265.123.473.161.511.085.019-.038-.019-.114-.076-.189a2.816,2.816,0,0,0-.341-.35c-.085-.076-.18-.151-.274-.237a3.39,3.39,0,0,0-.757-.53A.153.153,0,0,0,279.978,243.849Z" transform="translate(-186.047 -150.735)" fill="#e8505b"/>
                <path id="Path_82421" data-name="Path 82421" d="M283.8,233.957c-1.059-.161-1.911.057-1.892.189s.842.151,1.826.3,1.778.369,1.835.236S284.861,234.118,283.8,233.957Z" transform="translate(-186.153 -150.198)" fill="#e8505b"/>
                <path id="Path_82422" data-name="Path 82422" d="M283.25,218.821c.057.132.549.028,1.145-.009s1.1-.028,1.135-.17c.038-.123-.482-.378-1.173-.322S283.193,218.7,283.25,218.821Z" transform="translate(-186.225 -149.355)" fill="#e8505b"/>
                <path id="Path_82423" data-name="Path 82423" d="M283.3,204.6c1-.293,1.845-.445,1.835-.586s-.908-.2-1.977.114-1.8.851-1.731.965S282.3,204.884,283.3,204.6Z" transform="translate(-186.126 -148.577)" fill="#e8505b"/>
                <path id="Path_82424" data-name="Path 82424" d="M276.173,173.421a8.032,8.032,0,0,0,.842-.189c.189-.057.284-.085.284-.1s-.1-.009-.3.009-.482.076-.851.095a16.7,16.7,0,0,1-2.705.066c-.142-.009-.274-.009-.416-.019a16.632,16.632,0,0,1-4.493-.974,15.076,15.076,0,0,1-2.459-1.145,15.623,15.623,0,0,1-5.922-6.007,16.546,16.546,0,0,1-1.665-4.285,17.168,17.168,0,0,1-.445-3.084c-.019-.189-.019-.359-.028-.511,0-.132,0-.255-.009-.341a.966.966,0,0,0-.038-.3.71.71,0,0,0-.047.218c0,.028-.009.047-.009.076a7.9,7.9,0,0,0-.057.861,13.822,13.822,0,0,0,.293,3.159,15.645,15.645,0,0,0,1.608,4.427,16.216,16.216,0,0,0,1.532,2.336,15.977,15.977,0,0,0,2.081,2.166,16.746,16.746,0,0,0,2.469,1.712,16.238,16.238,0,0,0,2.545,1.145,15.91,15.91,0,0,0,4.626.889c.151.009.284,0,.435,0A13.229,13.229,0,0,0,276.173,173.421Z" transform="translate(-184.852 -146.021)" fill="#263238"/>
                <path id="Path_82425" data-name="Path 82425" d="M284.881,166.177a3.425,3.425,0,0,0-.681-.747c-.076.057.851,1.163,1.863,3.226a20.33,20.33,0,0,1,1.514,4.228,19.176,19.176,0,0,1-.549,11.02,17.768,17.768,0,0,1-.823,2.034c-.984,2.081-1.892,3.207-1.816,3.254a3.515,3.515,0,0,0,.672-.757,16.989,16.989,0,0,0,1.466-2.346c.057-.113.114-.236.18-.359a18.7,18.7,0,0,0,1.22-13.432c-.123-.426-.255-.823-.388-1.22a18.727,18.727,0,0,0-1.145-2.592A17.766,17.766,0,0,0,284.881,166.177Z" transform="translate(-186.276 -146.497)" fill="#263238"/>
                <path id="Path_82426" data-name="Path 82426" d="M289.552,206.353a4.633,4.633,0,0,0-1.466-.851,3.03,3.03,0,0,0-.445-.123c-.1-.019-.161-.019-.161-.009a10.4,10.4,0,0,1,1.845,1.239,5.673,5.673,0,0,1,1.315,1.873.237.237,0,0,0,.038.066,5.339,5.339,0,0,1,.407,2.819,4.985,4.985,0,0,1-.331,1.126,4.343,4.343,0,0,1-.293.6,6.107,6.107,0,0,1-.577.851,5.78,5.78,0,0,1-1.854,1.457,5.666,5.666,0,0,1-1.523.52c-.189.047-.341.047-.445.076s-.151.038-.151.057.057.028.161.038a2.32,2.32,0,0,0,.464.009,4.7,4.7,0,0,0,1.655-.4,5.667,5.667,0,0,0,1.778-1.211,3.746,3.746,0,0,0,.274-.274,2.093,2.093,0,0,0,.18-.227c.019-.019.038-.047.057-.066a5.777,5.777,0,0,0,.719-1.2,5.367,5.367,0,0,0,.4-1.305,5.578,5.578,0,0,0-.473-3.074,6.129,6.129,0,0,0-.851-1.324C290.015,206.779,289.779,206.543,289.552,206.353Z" transform="translate(-186.369 -148.656)" fill="#263238"/>
                <path id="Path_82427" data-name="Path 82427" d="M280.639,244.91c-.057.057.18.359.445.9a5.3,5.3,0,0,1,.265.643,5.707,5.707,0,0,1,.312,1.6,5.81,5.81,0,0,1-.378,2.289,6.2,6.2,0,0,1-.293.662c-.076.161-.1.255-.076.274s.1-.038.236-.17a2.748,2.748,0,0,0,.445-.624,4.8,4.8,0,0,0-.208-4.862,3.349,3.349,0,0,0-.255-.331C280.876,245.014,280.668,244.881,280.639,244.91Z" transform="translate(-186.084 -150.793)" fill="#263238"/>
                <path id="Path_82428" data-name="Path 82428" d="M275.277,182.423c.284-.823.823-1.078.832-1.031a5.567,5.567,0,0,0-.492,1.078,4.491,4.491,0,0,0,2.8-.539,3.58,3.58,0,0,0,1.722-3.585,2.9,2.9,0,0,0-3.046-2.327,3.418,3.418,0,0,0-2.573,2.355,5.462,5.462,0,0,0-.227.88,11.719,11.719,0,0,0-.066,2.762l.038.047.085.1A5.81,5.81,0,0,0,275.277,182.423Zm1.845-4.834a1.438,1.438,0,0,1,1.239.208,1.691,1.691,0,0,1,.549,1.438,2.309,2.309,0,0,1-.511,1.391,1.709,1.709,0,0,1-1.069.605c-.719.095-1.069-.293-1.012-.341.047-.085.4.085.918-.085a1.643,1.643,0,0,0,1.059-1.589,1.246,1.246,0,0,0-.293-.974,1.124,1.124,0,0,0-.8-.218c-.549.066-.936.218-.965.132S276.469,177.8,277.122,177.589Z" transform="translate(-185.735 -147.068)" fill="#f7a9a0"/>
                <path id="Path_82429" data-name="Path 82429" d="M277.315,178.1a1.112,1.112,0,0,1,.8.218,1.283,1.283,0,0,1,.293.974,1.643,1.643,0,0,1-1.06,1.589c-.511.17-.87,0-.918.085-.057.047.284.426,1.012.341a1.732,1.732,0,0,0,1.069-.605,2.309,2.309,0,0,0,.511-1.391,1.7,1.7,0,0,0-.549-1.438,1.471,1.471,0,0,0-1.239-.208c-.653.208-.918.492-.889.558C276.388,178.329,276.766,178.168,277.315,178.1Z" transform="translate(-185.852 -147.156)" fill="#a36957"/>
                <path id="Path_82430" data-name="Path 82430" d="M275.333,182.73c-.019.038-.028.076-.047.123a2.134,2.134,0,0,0,.218,1.627,2.339,2.339,0,0,0,1.674,1.135,2.3,2.3,0,0,0,1.911-.653,2.124,2.124,0,0,0,.643-1.514c-.009-.965-.511-1.4-.539-1.353a4.115,4.115,0,0,1,.189,1.324,1.886,1.886,0,0,1-.606,1.2,1.886,1.886,0,0,1-2.895-.388,1.868,1.868,0,0,1-.265-1.324.926.926,0,0,1,.047-.151c.17-.7.558-1.031.492-1.078A1.61,1.61,0,0,0,275.333,182.73Z" transform="translate(-185.791 -147.375)" fill="#e8505b"/>
                <path id="Path_82431" data-name="Path 82431" d="M252.676,421.618h.038c2.743.293,5.685.615,8.778.974,7.085.823,13.489,1.636,18.124,2.242.605.076,1.173.151,1.722.227,1.495.2,2.772.359,3.774.492.605.066,1.1.132,1.495.18a1.883,1.883,0,0,0,.53.028,2.084,2.084,0,0,0-.511-.123c-.4-.066-.88-.161-1.485-.265-.965-.17-2.242-.369-3.793-.615q-.795-.128-1.674-.255c-.227-.038-.473-.066-.71-.1-2.961-.445-6.574-.946-10.585-1.457h-.019c-2.166-.274-4.436-.558-6.8-.823-7.095-.813-13.527-1.419-18.191-1.8-2.327-.189-4.219-.322-5.524-.4-.123-.009-.227-.009-.341-.019-.445-.019-.851-.047-1.164-.057a2.093,2.093,0,0,0-.53.009,2.181,2.181,0,0,0,.52.095c.4.047.889.1,1.495.17.076.009.17.019.255.028,1.343.132,3.112.312,5.259.53C245.941,420.919,249.138,421.24,252.676,421.618Z" transform="translate(-183.661 -160.249)" fill="#263238"/>
              </g>
              <g id="Group_111257" data-name="Group 111257" transform="translate(0 14.269)">
                <g id="Group_111256" data-name="Group 111256">
                  <g id="Group_111255" data-name="Group 111255">
                    <path id="Path_82432" data-name="Path 82432" d="M207.5,197.758s-11.489-2.2-28-17.2-24.64-35.3-26.6-35.141-10.661-3.588-25.991,32.406-8.661,44.064-5.411,43.9,25.147-6.939,38.974-5.757,31.748,7.859,31.748,7.859Z" transform="translate(-117.232 -145.374)" fill="#74858b"/>
                  </g>
                  <path id="Path_82434" data-name="Path 82434" d="M245.706,226.835l-3.689,7.513-1.654,3.368a9.661,9.661,0,0,1-12.476,4.634l-24.716-7.834L216.5,201.57l24.818,12.341A9.682,9.682,0,0,1,245.706,226.835Z" transform="translate(-130.626 -154.133)" fill="#455a64"/>
                  <path id="Path_82435" data-name="Path 82435" d="M229.171,245.108,221.8,260.615l-3.934-.971-24.885,21.441-7.513-13.734s14.865-6.914,17.5-12.358-.616-6.576-.616-6.576l6.854-8.247Z" transform="translate(-127.868 -160.149)" fill="#455a64"/>
                  <path id="Path_82436" data-name="Path 82436" d="M128.634,180.524c-8.146,19.491-11.278,36.745-7,38.535S136,206.5,144.141,187.007s11.278-36.745,7-38.535S136.789,161.033,128.634,180.524Z" transform="translate(-117.62 -145.833)" fill="#263238"/>
                </g>
                <path id="Path_82437" data-name="Path 82437" d="M255.166,242.287,248.48,240.4l3.883-7.926,5.056,2.954Z" transform="translate(-137.688 -158.949)" fill="#455a64"/>
                <path id="Path_82438" data-name="Path 82438" d="M210.81,243.52l18.149,10.864,2.1-4.423Z" transform="translate(-131.817 -160.671)" fill="#263238"/>
                <path id="Path_82439" data-name="Path 82439" d="M252.363,232.47,248.48,240.4l1.376.388,3.106-7.96Z" transform="translate(-137.688 -158.949)" fill="#263238"/>
                <path id="Path_82440" data-name="Path 82440" d="M203.511,232.518s-4.685-1.57-4.542-1.519,14.519-26.489,14.519-26.489l1.148.515-10.661,26.616" transform="translate(-129.971 -154.591)" fill="#263238"/>
                <path id="Path_82441" data-name="Path 82441" d="M245.019,233.625c-.093.219-3.436-.979-7.479-2.667s-7.243-3.233-7.15-3.453,3.436.979,7.479,2.667S245.111,233.406,245.019,233.625Z" transform="translate(-134.869 -158.171)" fill="#263238"/>
                <path id="Path_82442" data-name="Path 82442" d="M247.545,228.069c-.1.211-3.132-.962-6.77-2.634s-6.517-3.191-6.415-3.41,3.132.962,6.77,2.634S247.646,227.85,247.545,228.069Z" transform="translate(-135.487 -157.317)" fill="#263238"/>
                <path id="Path_82443" data-name="Path 82443" d="M242.379,239.6c-.034.118-.827-.042-2.093-.4-.633-.177-1.384-.4-2.22-.658s-1.688-.675-2.608-1.064c-3.68-1.579-6.491-3.149-6.407-3.351.1-.236,3.1,1,6.745,2.566.912.38,1.764.81,2.558,1.114s1.519.574,2.119.819C241.678,239.132,242.4,239.495,242.379,239.6Z" transform="translate(-134.66 -159.204)" fill="#263238"/>
                <path id="Path_82444" data-name="Path 82444" d="M148.079,180.576s-10.1-5.875-15.152,7.69,5.453,15.473,5.453,15.473A88.984,88.984,0,0,0,148.079,180.576Z" transform="translate(-119.464 -150.663)" fill="#9ba5a8"/>
                <path id="Path_82445" data-name="Path 82445" d="M158.152,161.52a15.4,15.4,0,0,1-.312,2.575c-.27,1.646-.642,4.035-1.2,6.973q-.57,2.178-1.241,4.727c-.228.853-.456,1.73-.7,2.634-.118.456-.245.912-.363,1.376-.135.464-.312.92-.473,1.384-.658,1.866-1.359,3.824-2.077,5.85-.177.507-.363,1.021-.549,1.536s-.439,1-.658,1.519c-.456,1.013-.92,2.043-1.393,3.081s-.937,2.068-1.393,3.081c-.236.5-.439,1.021-.709,1.494s-.523.954-.785,1.427c-1.047,1.882-2.051,3.7-3.014,5.428-.245.431-.464.861-.726,1.275s-.532.8-.794,1.19c-.523.777-1.03,1.536-1.519,2.271-.979,1.46-1.891,2.819-2.735,4.06-1.832,2.355-3.368,4.212-4.432,5.5a14.947,14.947,0,0,1-1.722,1.942,15.09,15.09,0,0,1,1.46-2.144c1.021-1.376,2.456-3.3,4.212-5.664q1.2-1.887,2.625-4.094c.473-.734.962-1.494,1.469-2.271.253-.388.506-.785.768-1.19s.464-.844.7-1.275c.937-1.73,1.925-3.537,2.946-5.419.253-.473.515-.945.777-1.418s.456-.988.692-1.486c.456-1,.912-2.026,1.376-3.064s.929-2.051,1.384-3.056c.219-.506.481-1,.658-1.5s.371-1.021.549-1.52q1.1-3.014,2.11-5.791c.16-.464.346-.912.49-1.368.127-.464.253-.912.38-1.367q.38-1.342.734-2.608c.481-1.68.92-3.242,1.334-4.677.608-2.879,1.106-5.225,1.46-6.9A16.251,16.251,0,0,1,158.152,161.52Z" transform="translate(-119.434 -147.89)" fill="#263238"/>
              </g>
              <g id="Group_111258" data-name="Group 111258" transform="translate(59.866 101.618)">
                <path id="Path_82446" data-name="Path 82446" d="M276.6,252.84s-10.926,20.215-13.849,20.527c-16.2,1.693-33.543-3.632-39.626-5.742-.615-.7-1.324-1.551-2.109-2.582a10.062,10.062,0,0,1-1.532-2.97,15.667,15.667,0,0,1-.88-4.1,1.262,1.262,0,0,0-2.185-1c-.7.936-.87,4.493.738,8.305s-4.058.823-6.149-.227-8.684-3.982-9.516-3.576c-1.211.6-.832,2.024,1.277,3.027,2.128,1.012,8.211,4.446,7.605,5.553-.6,1.088-11.134-4.4-11.134-4.4s-2.062-1.551-2.8-.293c-1.334,2.261,10.3,7.246,11.418,7.7.776.312.161,1.532-.653,1.154-.842-.388-10.387-5.723-11.758-3.434-1.059,1.759,9.526,4.191,10.9,6.432s-7.832-2.686-8.778-.965c-.35.643-.53,1.173,5.165,3.207a116.782,116.782,0,0,0,12.685,3.178l-.019.057s54.676,25.55,69.083.189c9.393-16.545,10.282-18.645,13.612-27.991" transform="translate(-195.371 -252.84)" fill="#f7a9a0"/>
              </g>
            </g>
          </g>
        </g>
      </g>
    </g>
  </g>
</svg>
