<svg xmlns="http://www.w3.org/2000/svg" xmlns:xlink="http://www.w3.org/1999/xlink" width="248" height="140" viewBox="0 0 248 140">
  <defs>
    <clipPath id="clip-path">
      <rect id="Rectangle_19564" data-name="Rectangle 19564" width="248" height="140" transform="translate(287.748 173.244)" fill="#fff" stroke="#707070" stroke-width="1"/>
    </clipPath>
  </defs>
  <g id="Mask_Group_898" data-name="Mask Group 898" transform="translate(-287.748 -173.244)" clip-path="url(#clip-path)">
    <g id="Group_119049" data-name="Group 119049">
      <g id="Device_1_" transform="translate(319.795 189.276)">
        <g id="Group_94293" data-name="Group 94293">
          <g id="Group_94292" data-name="Group 94292">
            <g id="Group_94291" data-name="Group 94291">
              <g id="Group_94281" data-name="Group 94281" style="mix-blend-mode: normal;isolation: isolate">
                <g id="Group_94280" data-name="Group 94280">
                  <g id="Group_94279" data-name="Group 94279">
                    <path id="Path_77921" data-name="Path 77921" d="M293.694,130.387v115.6a4.186,4.186,0,0,1-4.186,4.187H119.977a4.186,4.186,0,0,1-4.187-4.187v-115.6a4.186,4.186,0,0,1,4.187-4.187H289.507A4.186,4.186,0,0,1,293.694,130.387Z" transform="translate(-115.79 -126.2)" fill="#263238"/>
                  </g>
                </g>
              </g>
              <g id="Group_94284" data-name="Group 94284" transform="translate(12.171 3.909)">
                <g id="Group_94283" data-name="Group 94283">
                  <g id="Group_94282" data-name="Group 94282">
                    <rect id="Rectangle_18781" data-name="Rectangle 18781" width="116.15" height="148.569" transform="translate(0 116.15) rotate(-90)" fill="#ebebeb" style="mix-blend-mode: luminosity;isolation: isolate"/>
                    <g id="Group_117227" data-name="Group 117227" transform="translate(20.831 -17.357)">
                      <g id="Group_111002" data-name="Group 111002" transform="translate(9.527)">
                        <g id="Group_110877" data-name="Group 110877" transform="translate(0 38.574)">
                          <path id="Path_82190" data-name="Path 82190" d="M263.745,200.72c-.579,4.144-.137,7.62-2.608,10.884-.968,1.284-2.3,2.374-2.741,3.921-.308,1.079-.13,2.252-.419,3.339-.686,2.571-3.572,3.724-5.665,5.364a14.964,14.964,0,0,0-4.989,8.588,44.657,44.657,0,0,0-.72,10.079c.007,1.439.126,3.109,1.3,3.943a4.61,4.61,0,0,0,2.86.53q9.526-.317,19.056-.631a1.718,1.718,0,0,0,2.1-1.773q2.471-15.959,4.945-31.917Z" transform="translate(-246.599 -200.72)" fill="#263238"/>
                        </g>
                        <g id="Group_110878" data-name="Group 110878" transform="translate(40.589)">
                          <path id="Path_82191" data-name="Path 82191" d="M384.6,146.364c-2.478-10.2,2.074-8.9.738-19.312-.334-2.608-2.37-14.616-3.346-17.057-2.541-6.351-13.095-19.1-25.819-10.209-.645,1.692.872,7.453,2.192,8.692s7.293-2.83,8.413-1.4a37.172,37.172,0,0,1,2.111,3.687c.683,1.109,1.573,2.092,2.163,3.253a13.306,13.306,0,0,1,1.113,4.381,40.228,40.228,0,0,1-.345,14.419c-1.291,5.383-4.236,10.235-5.787,15.547a31.453,31.453,0,0,0-.534,15.462,7.572,7.572,0,0,0,1.142,2.927c1.365,1.847,4.055,2.293,6.258,1.64a15.983,15.983,0,0,0,5.754-3.691,19.422,19.422,0,0,0,4.04-4.433,20.373,20.373,0,0,0,2.066-6.2,17.118,17.118,0,0,0,.516-3.565A17.675,17.675,0,0,0,384.6,146.364Z" transform="translate(-356.016 -96.736)" fill="#263238"/>
                        </g>
                        <g id="Group_111001" data-name="Group 111001" transform="translate(15.341 2.567)">
                          <g id="Group_110879" data-name="Group 110879" transform="translate(12.099 3.579)">
                            <path id="Path_82192" data-name="Path 82192" d="M345.215,165.364h0c.037-3.917,0-4.826,0-4.789,0,0,8.261-1.391,9.953-12.179.838-5.364.553-14.159.082-21.345-.423-6.47-4.726-14.4-11.173-13.7l-20.121,5.134a3.8,3.8,0,0,0-3.387,3.854l2.255,43.25a3.123,3.123,0,0,0,.616,1.024c4.633,6.095,12.446,9.393,18.7,4.982A10.142,10.142,0,0,0,345.215,165.364Z" transform="translate(-320.568 -113.305)" fill="#ffbe9d"/>
                          </g>
                          <g id="Group_110892" data-name="Group 110892" transform="translate(39.876 23.402)">
                            <g id="Group_110891" data-name="Group 110891">
                              <g id="Group_110890" data-name="Group 110890">
                                <g id="Group_110889" data-name="Group 110889">
                                  <g id="Group_110888" data-name="Group 110888">
                                    <g id="Group_110887" data-name="Group 110887">
                                      <g id="Group_110886" data-name="Group 110886">
                                        <g id="Group_110885" data-name="Group 110885">
                                          <g id="Group_110884" data-name="Group 110884">
                                            <g id="Group_110883" data-name="Group 110883">
                                              <g id="Group_110882" data-name="Group 110882">
                                                <g id="Group_110881" data-name="Group 110881">
                                                  <g id="Group_110880" data-name="Group 110880">
                                                    <path id="Path_82193" data-name="Path 82193" d="M398.209,167.988a1.385,1.385,0,0,1-1.332,1.4,1.322,1.322,0,0,1-1.428-1.243,1.382,1.382,0,0,1,1.328-1.4A1.323,1.323,0,0,1,398.209,167.988Z" transform="translate(-395.448 -166.743)" fill="#263238"/>
                                                  </g>
                                                </g>
                                              </g>
                                            </g>
                                          </g>
                                        </g>
                                      </g>
                                    </g>
                                  </g>
                                </g>
                              </g>
                            </g>
                          </g>
                          <g id="Group_110931" data-name="Group 110931" transform="translate(23.855 20.732)">
                            <g id="Group_110904" data-name="Group 110904" transform="translate(1.913 2.978)">
                              <g id="Group_110903" data-name="Group 110903">
                                <g id="Group_110902" data-name="Group 110902">
                                  <g id="Group_110901" data-name="Group 110901">
                                    <g id="Group_110900" data-name="Group 110900">
                                      <g id="Group_110899" data-name="Group 110899">
                                        <g id="Group_110898" data-name="Group 110898">
                                          <g id="Group_110897" data-name="Group 110897">
                                            <g id="Group_110896" data-name="Group 110896">
                                              <g id="Group_110895" data-name="Group 110895">
                                                <g id="Group_110894" data-name="Group 110894">
                                                  <g id="Group_110893" data-name="Group 110893">
                                                    <path id="Path_82194" data-name="Path 82194" d="M360.178,168.818a1.385,1.385,0,0,1-1.332,1.4,1.322,1.322,0,0,1-1.428-1.243,1.382,1.382,0,0,1,1.328-1.4A1.318,1.318,0,0,1,360.178,168.818Z" transform="translate(-357.418 -167.572)" fill="#263238"/>
                                                  </g>
                                                </g>
                                              </g>
                                            </g>
                                          </g>
                                        </g>
                                      </g>
                                    </g>
                                  </g>
                                </g>
                              </g>
                            </g>
                            <g id="Group_110917" data-name="Group 110917" transform="translate(0 0.104)">
                              <g id="Group_110916" data-name="Group 110916">
                                <g id="Group_110915" data-name="Group 110915">
                                  <g id="Group_110914" data-name="Group 110914">
                                    <g id="Group_110913" data-name="Group 110913">
                                      <g id="Group_110912" data-name="Group 110912">
                                        <g id="Group_110911" data-name="Group 110911">
                                          <g id="Group_110910" data-name="Group 110910">
                                            <g id="Group_110909" data-name="Group 110909">
                                              <g id="Group_110908" data-name="Group 110908">
                                                <g id="Group_110907" data-name="Group 110907">
                                                  <g id="Group_110906" data-name="Group 110906">
                                                    <g id="Group_110905" data-name="Group 110905">
                                                      <path id="Path_82195" data-name="Path 82195" d="M358.273,161.937c-.23.067-1.213-.786-2.853-1.258s-3.016-.323-3.149-.5c-.07-.078.2-.241.8-.319a6.526,6.526,0,0,1,2.574.249,5.92,5.92,0,0,1,2.218,1.154C358.284,161.644,358.385,161.911,358.273,161.937Z" transform="translate(-352.26 -159.825)" fill="#263238"/>
                                                    </g>
                                                  </g>
                                                </g>
                                              </g>
                                            </g>
                                          </g>
                                        </g>
                                      </g>
                                    </g>
                                  </g>
                                </g>
                              </g>
                            </g>
                            <g id="Group_110930" data-name="Group 110930" transform="translate(14.958)">
                              <g id="Group_110929" data-name="Group 110929">
                                <g id="Group_110928" data-name="Group 110928">
                                  <g id="Group_110927" data-name="Group 110927">
                                    <g id="Group_110926" data-name="Group 110926">
                                      <g id="Group_110925" data-name="Group 110925">
                                        <g id="Group_110924" data-name="Group 110924">
                                          <g id="Group_110923" data-name="Group 110923">
                                            <g id="Group_110922" data-name="Group 110922">
                                              <g id="Group_110921" data-name="Group 110921">
                                                <g id="Group_110920" data-name="Group 110920">
                                                  <g id="Group_110919" data-name="Group 110919">
                                                    <g id="Group_110918" data-name="Group 110918">
                                                      <path id="Path_82196" data-name="Path 82196" d="M398.558,159.9c-.152.185-1.443.037-3.064.575s-2.667,1.439-2.879,1.373c-.1-.026.026-.312.479-.716a6.572,6.572,0,0,1,2.263-1.254,5.9,5.9,0,0,1,2.482-.3C398.4,159.654,398.632,159.817,398.558,159.9Z" transform="translate(-392.583 -159.544)" fill="#263238"/>
                                                    </g>
                                                  </g>
                                                </g>
                                              </g>
                                            </g>
                                          </g>
                                        </g>
                                      </g>
                                    </g>
                                  </g>
                                </g>
                              </g>
                            </g>
                          </g>
                          <g id="Group_110944" data-name="Group 110944" transform="translate(34.953 20.841)">
                            <g id="Group_110943" data-name="Group 110943">
                              <g id="Group_110942" data-name="Group 110942">
                                <g id="Group_110941" data-name="Group 110941">
                                  <g id="Group_110940" data-name="Group 110940">
                                    <g id="Group_110939" data-name="Group 110939">
                                      <g id="Group_110938" data-name="Group 110938">
                                        <g id="Group_110937" data-name="Group 110937">
                                          <g id="Group_110936" data-name="Group 110936">
                                            <g id="Group_110935" data-name="Group 110935">
                                              <g id="Group_110934" data-name="Group 110934">
                                                <g id="Group_110933" data-name="Group 110933">
                                                  <g id="Group_110932" data-name="Group 110932">
                                                    <path id="Path_82197" data-name="Path 82197" d="M382.9,172.236a9.877,9.877,0,0,1,2.415-.441c.378-.041.738-.115.8-.375a1.942,1.942,0,0,0-.256-1.128c-.36-.92-.734-1.881-1.131-2.89-1.569-4.118-2.708-7.5-2.541-7.564s1.573,3.224,3.146,7.341q.567,1.525,1.083,2.908a2.2,2.2,0,0,1,.2,1.491.952.952,0,0,1-.623.556,2.785,2.785,0,0,1-.646.093A9.969,9.969,0,0,1,382.9,172.236Z" transform="translate(-382.176 -159.838)" fill="#263238"/>
                                                  </g>
                                                </g>
                                              </g>
                                            </g>
                                          </g>
                                        </g>
                                      </g>
                                    </g>
                                  </g>
                                </g>
                              </g>
                            </g>
                          </g>
                          <g id="Group_110956" data-name="Group 110956" transform="translate(22.293 47.028)">
                            <g id="Group_110955" data-name="Group 110955">
                              <g id="Group_110954" data-name="Group 110954">
                                <g id="Group_110953" data-name="Group 110953">
                                  <g id="Group_110952" data-name="Group 110952">
                                    <g id="Group_110951" data-name="Group 110951">
                                      <g id="Group_110950" data-name="Group 110950">
                                        <g id="Group_110949" data-name="Group 110949">
                                          <g id="Group_110948" data-name="Group 110948">
                                            <g id="Group_110947" data-name="Group 110947">
                                              <g id="Group_110946" data-name="Group 110946">
                                                <g id="Group_110945" data-name="Group 110945">
                                                  <path id="Path_82198" data-name="Path 82198" d="M362.5,234.251a27.454,27.454,0,0,1-14.453-3.821s3.647,7.456,14.441,6.425Z" transform="translate(-348.05 -230.43)" fill="#eb996e"/>
                                                </g>
                                              </g>
                                            </g>
                                          </g>
                                        </g>
                                      </g>
                                    </g>
                                  </g>
                                </g>
                              </g>
                            </g>
                          </g>
                          <g id="Group_110965" data-name="Group 110965" transform="translate(23.479 17.56)">
                            <g id="Group_110964" data-name="Group 110964">
                              <g id="Group_110963" data-name="Group 110963">
                                <g id="Group_110962" data-name="Group 110962">
                                  <g id="Group_110961" data-name="Group 110961">
                                    <g id="Group_110960" data-name="Group 110960">
                                      <g id="Group_110959" data-name="Group 110959">
                                        <g id="Group_110958" data-name="Group 110958">
                                          <g id="Group_110957" data-name="Group 110957">
                                            <path id="Path_82199" data-name="Path 82199" d="M358.04,152.106c-.145.4-1.632.215-3.379.43-1.751.178-3.157.694-3.391.33-.1-.174.141-.556.709-.946a5.917,5.917,0,0,1,5.156-.582C357.781,151.6,358.1,151.913,358.04,152.106Z" transform="translate(-351.247 -150.995)" fill="#263238"/>
                                          </g>
                                        </g>
                                      </g>
                                    </g>
                                  </g>
                                </g>
                              </g>
                            </g>
                          </g>
                          <g id="Group_110974" data-name="Group 110974" transform="translate(39.538 16.979)">
                            <g id="Group_110973" data-name="Group 110973">
                              <g id="Group_110972" data-name="Group 110972">
                                <g id="Group_110971" data-name="Group 110971">
                                  <g id="Group_110970" data-name="Group 110970">
                                    <g id="Group_110969" data-name="Group 110969">
                                      <g id="Group_110968" data-name="Group 110968">
                                        <g id="Group_110967" data-name="Group 110967">
                                          <g id="Group_110966" data-name="Group 110966">
                                            <path id="Path_82200" data-name="Path 82200" d="M400.685,150.96c-.315.338-1.562-.011-3.057-.022-1.5-.056-2.76.234-3.053-.119-.13-.171.07-.512.623-.831a4.938,4.938,0,0,1,2.485-.56,4.854,4.854,0,0,1,2.441.675C400.652,150.448,400.826,150.793,400.685,150.96Z" transform="translate(-394.537 -149.426)" fill="#263238"/>
                                          </g>
                                        </g>
                                      </g>
                                    </g>
                                  </g>
                                </g>
                              </g>
                            </g>
                          </g>
                          <g id="Group_110975" data-name="Group 110975">
                            <path id="Path_82201" data-name="Path 82201" d="M318.192,107.045a1.882,1.882,0,0,0-.486-.571,12.486,12.486,0,0,0-11.989-2.155c-4.032,1.343-6.848,6.444-8.755,10.242-1.543,3.072-3.224,7.542-3.294,10.988a27.9,27.9,0,0,1-1.6,6.24c-1.139,3.439-2.771,6.889-2.437,10.5.223,2.382,1.3,4.7,1.009,7.078-.3,2.419-1.977,4.459-2.493,6.84a15.619,15.619,0,0,0-.022,4.685,41.082,41.082,0,0,0,.95,6.01,1.667,1.667,0,0,0,.378.794,2.1,2.1,0,0,0,.864.449c5.171,1.71,10.583,3.443,15.97,2.623a1.974,1.974,0,0,0,1.065-.4.493.493,0,0,0,.108-.152c1.506-3.294-4.158-7.575-4.325-11.24-.163-3.6-.467-7.575,1.94-10.253,2.063-2.3,2.545-4.941.375-11.1a13.144,13.144,0,0,1-.772-3.94q-.006-.256,0-.512c.148-4.077,3.858-6.933,6.636-9.923a26.924,26.924,0,0,0,6.967-15.128A2.048,2.048,0,0,0,318.192,107.045Z" transform="translate(-287.953 -103.657)" fill="#263238"/>
                          </g>
                          <g id="Group_110976" data-name="Group 110976" transform="translate(29.627 1.242)">
                            <path id="Path_82202" data-name="Path 82202" d="M368.224,109.864c.987,1.97,3.3,2.793,5.349,3.6a41.873,41.873,0,0,1,6.388,3.187,10.337,10.337,0,0,1,2.452,1.91,11.087,11.087,0,0,1,1.966,4.107q.885,2.866,1.614,5.776a18.741,18.741,0,0,0,.679-11.8,13.691,13.691,0,0,0-7.6-8.807A10.823,10.823,0,0,0,367.82,109.6" transform="translate(-367.82 -107.006)" fill="#263238"/>
                          </g>
                          <g id="Group_110978" data-name="Group 110978" transform="translate(2.399 2.312)">
                            <g id="Group_110977" data-name="Group 110977">
                              <path id="Path_82203" data-name="Path 82203" d="M294.535,145.9a10.892,10.892,0,0,1-.115-1.818,15.056,15.056,0,0,1,4.941-10.969c2.066-1.888,4.8-3.316,7.538-4.941a26.564,26.564,0,0,0,6.911-5.672,28.849,28.849,0,0,0,2.322-3.153,26.637,26.637,0,0,0,1.614-3.008,24.908,24.908,0,0,0,1.617-4.67c.152-.564.223-1.016.289-1.317.03-.141.056-.256.074-.345s.03-.115.03-.115a.476.476,0,0,1-.011.119c-.015.089-.03.2-.052.349-.052.3-.111.757-.252,1.328a24,24,0,0,1-1.565,4.711,26.448,26.448,0,0,1-1.6,3.038,28.177,28.177,0,0,1-2.322,3.187,25.019,25.019,0,0,1-3.1,3.06A28.766,28.766,0,0,1,307,128.345c-2.749,1.628-5.472,3.042-7.519,4.908a14.868,14.868,0,0,0-4.055,6.006,15.364,15.364,0,0,0-.927,4.834c-.011.582,0,1.039.022,1.347.007.145.015.26.018.349A.69.69,0,0,1,294.535,145.9Z" transform="translate(-294.42 -109.89)" fill="#455a64"/>
                            </g>
                          </g>
                          <g id="Group_110980" data-name="Group 110980" transform="translate(2.462 3.451)">
                            <g id="Group_110979" data-name="Group 110979">
                              <path id="Path_82204" data-name="Path 82204" d="M294.842,153.862a.764.764,0,0,1-.026-.13c-.015-.1-.03-.223-.052-.382-.048-.334-.1-.831-.137-1.473a19.006,19.006,0,0,1,.419-5.412,13.752,13.752,0,0,1,1.339-3.513,13.03,13.03,0,0,1,2.686-3.372,34.145,34.145,0,0,1,3.758-2.934c1.354-.946,2.778-1.888,4.136-2.986a36.207,36.207,0,0,0,6.662-7.2,61.929,61.929,0,0,0,4.2-6.863c1.079-2.022,1.892-3.691,2.452-4.845.275-.568.493-1.013.645-1.328.07-.145.13-.256.171-.345s.063-.115.063-.115a.46.46,0,0,1-.048.122c-.037.089-.089.2-.156.352-.145.319-.349.768-.612,1.343-.538,1.165-1.335,2.842-2.4,4.878a59.933,59.933,0,0,1-4.17,6.9,35.8,35.8,0,0,1-6.685,7.252c-1.369,1.1-2.8,2.048-4.147,2.99a34.862,34.862,0,0,0-3.747,2.908,12.8,12.8,0,0,0-2.667,3.32,13.886,13.886,0,0,0-1.347,3.468,19.755,19.755,0,0,0-.479,5.379c.03.638.067,1.135.1,1.473.015.16.026.286.033.382A.4.4,0,0,1,294.842,153.862Z" transform="translate(-294.59 -112.96)" fill="#455a64"/>
                            </g>
                          </g>
                          <g id="Group_110982" data-name="Group 110982" transform="translate(26.733 0.268)">
                            <g id="Group_110981" data-name="Group 110981">
                              <path id="Path_82205" data-name="Path 82205" d="M382.325,127.947a.282.282,0,0,1,.033-.085c.03-.067.071-.145.119-.245s.126-.234.189-.4.13-.352.208-.564a7.582,7.582,0,0,0,.163-3.773,10.869,10.869,0,0,0-2.515-5,18.1,18.1,0,0,0-5.624-4.006c-2.218-1.091-4.433-1.918-6.392-2.808a26.817,26.817,0,0,1-4.967-2.816,13.69,13.69,0,0,1-2.756-2.686c-.13-.185-.249-.349-.352-.493s-.171-.275-.234-.378-.1-.171-.137-.234a.317.317,0,0,1-.041-.082.357.357,0,0,1,.059.074c.041.059.093.134.152.223s.145.223.249.364.226.3.363.479a14.254,14.254,0,0,0,2.779,2.623,27.332,27.332,0,0,0,4.96,2.764c1.955.879,4.173,1.7,6.406,2.8a18.122,18.122,0,0,1,5.672,4.062,10.877,10.877,0,0,1,2.515,5.093,7.522,7.522,0,0,1-.226,3.825c-.085.208-.16.4-.226.564s-.152.286-.208.393-.1.174-.134.237S382.328,127.951,382.325,127.947Z" transform="translate(-360.018 -104.38)" fill="#455a64"/>
                            </g>
                          </g>
                          <g id="Group_110983" data-name="Group 110983" transform="translate(31.147 35.34)">
                            <path id="Path_82206" data-name="Path 82206" d="M375.549,199.727c-.753-.245-1.506-.493-2.259-.738a.683.683,0,0,0-.453-.041.649.649,0,0,0-.319.36,5.13,5.13,0,0,0-.586,1.717,2.083,2.083,0,0,0,.486,1.673,1.615,1.615,0,0,0,1.747.393,2.076,2.076,0,0,0,1.05-1.406,11.542,11.542,0,0,1,.564-1.673Z" transform="translate(-371.916 -198.923)" fill="#eb996e"/>
                          </g>
                          <g id="Group_110985" data-name="Group 110985" transform="translate(30.722 35.106)">
                            <g id="Group_110984" data-name="Group 110984">
                              <path id="Path_82207" data-name="Path 82207" d="M373.49,202.695c.011.019-.085.122-.326.211a1.6,1.6,0,0,1-1.068-.022,1.96,1.96,0,0,1-1.131-1.117,2.751,2.751,0,0,1-.033-1.936,3.858,3.858,0,0,1,.438-.905,1.316,1.316,0,0,1,.8-.616,1.564,1.564,0,0,1,.879.148l.645.286a5.155,5.155,0,0,1,1.239.645A5.089,5.089,0,0,1,373.59,199c-.208-.074-.427-.156-.657-.237a1.3,1.3,0,0,0-.69-.1.971.971,0,0,0-.553.475,3.678,3.678,0,0,0-.389.816,2.487,2.487,0,0,0,0,1.68,1.741,1.741,0,0,0,.9,1,1.673,1.673,0,0,0,.927.13C373.353,202.724,373.475,202.665,373.49,202.695Z" transform="translate(-370.771 -198.292)" fill="#263238"/>
                            </g>
                          </g>
                          <g id="Group_111000" data-name="Group 111000" transform="translate(19.882 17.742)">
                            <g id="Group_110987" data-name="Group 110987" transform="translate(13.78 4.423)">
                              <g id="Group_110986" data-name="Group 110986">
                                <path id="Path_82208" data-name="Path 82208" d="M382.712,164.046a5.027,5.027,0,0,1-.608-.237,3.4,3.4,0,0,0-1.517-.193,2.824,2.824,0,0,0-1.4.594c-.308.252-.46.453-.49.434a1.394,1.394,0,0,1,.4-.534,2.607,2.607,0,0,1,1.462-.683,3.046,3.046,0,0,1,1.6.256A1.574,1.574,0,0,1,382.712,164.046Z" transform="translate(-378.697 -163.406)" fill="#455a64"/>
                              </g>
                            </g>
                            <g id="Group_110989" data-name="Group 110989">
                              <g id="Group_110988" data-name="Group 110988">
                                <path id="Path_82209" data-name="Path 82209" d="M355.457,158.467a.513.513,0,0,1-.015-.111c-.007-.085-.015-.193-.026-.326a3.568,3.568,0,0,0-.063-.527,4.764,4.764,0,0,0-.148-.709,6.49,6.49,0,0,0-.772-1.821,6.834,6.834,0,0,0-8.209-2.9A6.487,6.487,0,0,0,344.5,153a7.153,7.153,0,0,0-.772.657,7.231,7.231,0,0,0-.668.79,6.784,6.784,0,0,0,0,8.054,7.235,7.235,0,0,0,.668.79,7.529,7.529,0,0,0,.772.657,6.442,6.442,0,0,0,1.725.931,6.89,6.89,0,0,0,3.583.3,6.876,6.876,0,0,0,4.626-3.205,6.718,6.718,0,0,0,.772-1.821,4.862,4.862,0,0,0,.148-.709,3.684,3.684,0,0,0,.063-.527c.011-.134.019-.241.026-.326a.377.377,0,0,1,.015-.126.511.511,0,0,1,0,.111c0,.085,0,.193-.007.33a3.026,3.026,0,0,1-.044.534,4.785,4.785,0,0,1-.134.72,6.617,6.617,0,0,1-.749,1.858,6.857,6.857,0,0,1-1.755,1.988,6.931,6.931,0,0,1-6.6,1.028,6.566,6.566,0,0,1-1.773-.95,7.578,7.578,0,0,1-.794-.675,7.988,7.988,0,0,1-.686-.809,6.954,6.954,0,0,1,0-8.276,8.058,8.058,0,0,1,.686-.809,8.5,8.5,0,0,1,.794-.675,6.567,6.567,0,0,1,1.773-.95,7.029,7.029,0,0,1,3.673-.293,6.89,6.89,0,0,1,2.931,1.321,6.978,6.978,0,0,1,1.758,1.988,6.5,6.5,0,0,1,.749,1.859,5.3,5.3,0,0,1,.134.72,3,3,0,0,1,.045.534c0,.137,0,.245.007.33A.667.667,0,0,1,355.457,158.467Z" transform="translate(-341.55 -151.483)" fill="#455a64"/>
                              </g>
                            </g>
                            <g id="Group_110991" data-name="Group 110991" transform="translate(0.528 5.556)">
                              <g id="Group_110990" data-name="Group 110990">
                                <path id="Path_82210" data-name="Path 82210" d="M346.833,173.163a1.006,1.006,0,0,1-.319-.085,4.9,4.9,0,0,1-.816-.39,5.545,5.545,0,0,1-2.719-5.019,4.754,4.754,0,0,1,.119-.894,1.034,1.034,0,0,1,.1-.315c.033.007-.085.464-.085,1.213a5.781,5.781,0,0,0,2.656,4.9C346.4,172.981,346.844,173.133,346.833,173.163Z" transform="translate(-342.972 -166.46)" fill="#fff"/>
                              </g>
                            </g>
                            <g id="Group_110993" data-name="Group 110993" transform="translate(5.519 12.693)">
                              <g id="Group_110992" data-name="Group 110992">
                                <path id="Path_82211" data-name="Path 82211" d="M356.856,185.826c-.007.052-.108.085-.226.071s-.208-.071-.2-.122.108-.085.226-.07S356.86,185.771,356.856,185.826Z" transform="translate(-356.429 -185.7)" fill="#fff"/>
                              </g>
                            </g>
                            <g id="Group_110995" data-name="Group 110995" transform="translate(17.428)">
                              <g id="Group_110994" data-name="Group 110994">
                                <path id="Path_82212" data-name="Path 82212" d="M402.441,158.467a.516.516,0,0,1-.015-.111c-.007-.085-.015-.193-.026-.326a3.577,3.577,0,0,0-.063-.527,4.772,4.772,0,0,0-.148-.709,6.488,6.488,0,0,0-.772-1.821,6.834,6.834,0,0,0-8.209-2.9,6.487,6.487,0,0,0-1.725.927,7.153,7.153,0,0,0-.772.657,7.225,7.225,0,0,0-.668.79,6.784,6.784,0,0,0,0,8.054,7.229,7.229,0,0,0,.668.79,7.529,7.529,0,0,0,.772.657,6.442,6.442,0,0,0,1.725.931,6.89,6.89,0,0,0,3.583.3,6.876,6.876,0,0,0,4.626-3.205,6.717,6.717,0,0,0,.772-1.821,4.87,4.87,0,0,0,.148-.709,3.693,3.693,0,0,0,.063-.527c.011-.134.019-.241.026-.326a.378.378,0,0,1,.015-.126.5.5,0,0,1,0,.111c0,.085,0,.193-.007.33a3.027,3.027,0,0,1-.045.534,4.783,4.783,0,0,1-.133.72,6.621,6.621,0,0,1-.749,1.858,6.82,6.82,0,0,1-1.758,1.988,6.931,6.931,0,0,1-6.6,1.028,6.565,6.565,0,0,1-1.773-.95,7.561,7.561,0,0,1-.794-.675,7.977,7.977,0,0,1-.686-.809,6.954,6.954,0,0,1,0-8.276,8.051,8.051,0,0,1,.686-.809,8.477,8.477,0,0,1,.794-.675,6.566,6.566,0,0,1,1.773-.95,7.029,7.029,0,0,1,3.672-.293,6.889,6.889,0,0,1,2.93,1.321,6.977,6.977,0,0,1,1.758,1.988,6.507,6.507,0,0,1,.749,1.859,5.293,5.293,0,0,1,.133.72,3,3,0,0,1,.045.534c0,.137,0,.245.007.33A.527.527,0,0,1,402.441,158.467Z" transform="translate(-388.53 -151.483)" fill="#455a64"/>
                              </g>
                            </g>
                            <g id="Group_110997" data-name="Group 110997" transform="translate(18.148 2.688)">
                              <g id="Group_110996" data-name="Group 110996">
                                <path id="Path_82213" data-name="Path 82213" d="M391.743,166.816c-.011.007-.089-.085-.211-.267a6,6,0,0,1-.453-.816,6.713,6.713,0,0,1,.189-5.965,5.668,5.668,0,0,1,.5-.786c.134-.174.219-.26.23-.252.03.019-.275.4-.612,1.1a7.122,7.122,0,0,0-.189,5.85C391.495,166.4,391.773,166.8,391.743,166.816Z" transform="translate(-390.472 -158.729)" fill="#fff"/>
                              </g>
                            </g>
                            <g id="Group_110999" data-name="Group 110999" transform="translate(19.836 11.26)">
                              <g id="Group_110998" data-name="Group 110998">
                                <path id="Path_82214" data-name="Path 82214" d="M395.411,182.272c-.041.033-.156-.033-.26-.148s-.156-.241-.115-.278.156.033.26.148S395.452,182.239,395.411,182.272Z" transform="translate(-395.022 -181.837)" fill="#fff"/>
                              </g>
                            </g>
                          </g>
                        </g>
                      </g>
                      <g id="Group_111090" data-name="Group 111090" transform="translate(0.001 55.99)">
                        <g id="Group_111003" data-name="Group 111003" transform="translate(21.55)">
                          <path id="Path_82215" data-name="Path 82215" d="M287.293,250.415l10.127-2.745s3.962,9.489,12.869,9.4c9.76-.1,8.8-8.87,8.8-8.87l18,2.908,2.545,30.812s-1.51,27.429-4.229,33.583l4.229,9.975H279.967l-.957-70.834Z" transform="translate(-279.01 -247.67)" fill="#1794c9"/>
                        </g>
                        <g id="Group_111005" data-name="Group 111005" transform="translate(53.406 43.29)">
                          <g id="Group_111004" data-name="Group 111004">
                            <path id="Path_82216" data-name="Path 82216" d="M376.984,365.178c.542-.326,1.128-.438,1.554-.682s1.1-.141,1.239.33c.156.534-.449.961-.957,1.191,1.168.56,2.764-.675,3.769.141a1.567,1.567,0,0,1-.108,2.244,3.943,3.943,0,0,1-2.337.868,6.569,6.569,0,0,0-2.459.564c-.389.215-.757.634-.619,1.057.23.716,1.565.564,1.729,1.3.111.5-.441.864-.905,1.076l-5.064,2.281a2.846,2.846,0,0,1-1.406.36.97.97,0,0,1-.924-.946c.048-.479.564-.772,1.039-.842a9.636,9.636,0,0,0,1.432-.145c.46-.141.879-.623.712-1.072-.211-.56-1.009-.512-1.591-.36l-5.375,1.424a2.314,2.314,0,0,1-1.206.1.782.782,0,0,1-.59-.92,1.082,1.082,0,0,1,.415-.471,10.87,10.87,0,0,1,4.34-1.948,5.685,5.685,0,0,0,1.74-.5,1.454,1.454,0,0,0,.8-1.495,15.612,15.612,0,0,1-3.431.816c-.419.052-.964,0-1.083-.4s.334-.753.723-.946q3.127-1.541,6.258-3.083a2.228,2.228,0,0,1,1.7-.326Z" transform="translate(-364.885 -364.369)" fill="#fff"/>
                          </g>
                        </g>
                        <g id="Group_111007" data-name="Group 111007" transform="translate(29.086 63.2)">
                          <g id="Group_111006" data-name="Group 111006">
                            <path id="Path_82217" data-name="Path 82217" d="M311.42,418.848c.542-.326,1.128-.438,1.554-.683s1.1-.141,1.239.33c.156.534-.449.961-.957,1.191,1.169.56,2.764-.675,3.769.141a1.566,1.566,0,0,1-.108,2.244,3.943,3.943,0,0,1-2.337.868,6.569,6.569,0,0,0-2.459.564c-.39.215-.757.634-.62,1.057.23.716,1.565.564,1.729,1.3.111.5-.441.864-.905,1.076l-5.064,2.281a2.8,2.8,0,0,1-1.406.356.97.97,0,0,1-.924-.946c.048-.479.564-.772,1.042-.842a9.655,9.655,0,0,0,1.432-.145c.46-.141.879-.623.712-1.072-.211-.56-1.009-.512-1.591-.36l-5.375,1.424a2.314,2.314,0,0,1-1.206.1.782.782,0,0,1-.59-.92,1.082,1.082,0,0,1,.415-.471,10.87,10.87,0,0,1,4.34-1.948,5.687,5.687,0,0,0,1.74-.5,1.455,1.455,0,0,0,.8-1.5,15.616,15.616,0,0,1-3.431.816c-.419.052-.964,0-1.083-.4s.334-.753.723-.946q3.127-1.541,6.258-3.083a2.227,2.227,0,0,1,1.7-.326Z" transform="translate(-299.325 -418.039)" fill="#fff"/>
                          </g>
                        </g>
                        <g id="Group_111009" data-name="Group 111009" transform="translate(57.067 65.911)">
                          <g id="Group_111008" data-name="Group 111008">
                            <path id="Path_82218" data-name="Path 82218" d="M386.85,426.158c.542-.326,1.128-.438,1.554-.683s1.1-.141,1.239.33c.156.534-.449.961-.957,1.191,1.169.56,2.764-.675,3.769.141a1.566,1.566,0,0,1-.108,2.244,3.942,3.942,0,0,1-2.337.868,6.57,6.57,0,0,0-2.459.564c-.389.215-.757.634-.62,1.057.23.716,1.565.564,1.729,1.3.111.5-.441.864-.905,1.076l-5.064,2.281a2.8,2.8,0,0,1-1.406.356.97.97,0,0,1-.924-.946c.048-.479.564-.772,1.042-.842a9.649,9.649,0,0,0,1.432-.145c.46-.141.879-.623.712-1.072-.211-.56-1.009-.512-1.591-.36l-5.375,1.424a2.314,2.314,0,0,1-1.206.1.782.782,0,0,1-.59-.92,1.082,1.082,0,0,1,.415-.471,10.871,10.871,0,0,1,4.34-1.947,5.688,5.688,0,0,0,1.74-.5,1.455,1.455,0,0,0,.8-1.5,15.619,15.619,0,0,1-3.431.816c-.419.052-.965,0-1.083-.4s.334-.753.723-.946q3.127-1.541,6.258-3.083a2.227,2.227,0,0,1,1.7-.326Z" transform="translate(-374.755 -425.349)" fill="#fff"/>
                          </g>
                        </g>
                        <g id="Group_111011" data-name="Group 111011" transform="translate(32.903 30.63)">
                          <g id="Group_111010" data-name="Group 111010">
                            <path id="Path_82219" data-name="Path 82219" d="M321.714,331.048c.542-.326,1.128-.438,1.554-.683s1.1-.141,1.239.33c.156.534-.449.961-.957,1.191,1.169.56,2.764-.675,3.769.141a1.566,1.566,0,0,1-.108,2.244,3.943,3.943,0,0,1-2.337.868,6.571,6.571,0,0,0-2.459.564c-.39.215-.757.634-.62,1.057.23.716,1.565.564,1.729,1.3.111.5-.441.864-.905,1.076l-5.064,2.281a2.8,2.8,0,0,1-1.406.356.97.97,0,0,1-.924-.946c.048-.479.564-.772,1.039-.842a9.648,9.648,0,0,0,1.432-.145c.46-.141.879-.623.712-1.072-.211-.56-1.009-.512-1.591-.36l-5.375,1.425a2.314,2.314,0,0,1-1.206.1.782.782,0,0,1-.59-.92,1.1,1.1,0,0,1,.412-.471,10.87,10.87,0,0,1,4.34-1.948,5.686,5.686,0,0,0,1.74-.5,1.455,1.455,0,0,0,.8-1.495,15.617,15.617,0,0,1-3.431.816c-.419.052-.965,0-1.083-.4s.334-.753.723-.946q3.127-1.541,6.258-3.083a2.227,2.227,0,0,1,1.7-.326Z" transform="translate(-309.615 -330.239)" fill="#fff"/>
                          </g>
                        </g>
                        <g id="Group_111013" data-name="Group 111013" transform="translate(57.121 38.364)" opacity="0.2">
                          <g id="Group_111012" data-name="Group 111012">
                            <path id="Path_82220" data-name="Path 82220" d="M396.531,376.753a10.694,10.694,0,0,0-1.1-2.489c-1.02-2.018-1.536-4.259-2.508-6.3-1.777-3.736-4.96-6.6-8.254-9.1s-6.811-4.767-9.652-7.772l-.119.071c3.083,4.982,6.288,10.231,9.489,15.131q3.511,5.37,7.019,10.739a6.819,6.819,0,0,0,1.8,2.074,2.333,2.333,0,0,0,2.593.122A2.422,2.422,0,0,0,396.531,376.753Z" transform="translate(-374.9 -351.09)"/>
                          </g>
                        </g>
                        <g id="Group_111014" data-name="Group 111014" transform="translate(56.806 3.327)">
                          <path id="Path_82221" data-name="Path 82221" d="M424.049,306.742c-2.1-7.434-6.948-19.145-8.888-23.634S406.206,265,406.206,265s-3.535-7.171-10-8.361l-2.374,27.473-6.774-6.4s-13.225,9.545-13,13.388l16.059,16.931a34.779,34.779,0,0,0,9.7,11.96c6.462,4.848,6.948,8.079,12.442,7.757s4.363,1.617,7.757-3.717S426.149,314.176,424.049,306.742Z" transform="translate(-374.053 -256.64)" fill="#1794c9"/>
                        </g>
                        <g id="Group_111016" data-name="Group 111016" transform="translate(59.015 37.619)">
                          <g id="Group_111015" data-name="Group 111015">
                            <path id="Path_82222" data-name="Path 82222" d="M386.915,356.918c-.03.019-.334-.486-.946-1.2a35.5,35.5,0,0,0-2.578-2.641,24.176,24.176,0,0,1-2.515-2.727c-.289-.375-.512-.69-.66-.912a1.668,1.668,0,0,1-.208-.356,1.867,1.867,0,0,1,.271.312c.163.208.4.508.7.872a31.33,31.33,0,0,0,2.545,2.675,26.242,26.242,0,0,1,2.552,2.693,9.91,9.91,0,0,1,.649.924A1.9,1.9,0,0,1,386.915,356.918Z" transform="translate(-380.007 -349.079)" fill="#263238"/>
                          </g>
                        </g>
                        <g id="Group_111018" data-name="Group 111018" transform="translate(61.49 35.972)">
                          <g id="Group_111017" data-name="Group 111017">
                            <path id="Path_82223" data-name="Path 82223" d="M394.439,353.505a2.2,2.2,0,0,1-.36-.293c-.223-.2-.542-.493-.924-.864-.768-.742-1.8-1.8-2.875-3.031s-1.988-2.389-2.623-3.25c-.319-.43-.568-.783-.734-1.031a2.251,2.251,0,0,1-.245-.4,2.183,2.183,0,0,1,.3.352c.208.267.471.6.783.994.66.838,1.588,1.981,2.66,3.205s2.085,2.3,2.827,3.06l.879.905A2.982,2.982,0,0,1,394.439,353.505Z" transform="translate(-386.677 -344.639)" fill="#263238"/>
                          </g>
                        </g>
                        <g id="Group_111020" data-name="Group 111020" transform="translate(63.761 34.543)">
                          <g id="Group_111019" data-name="Group 111019">
                            <path id="Path_82224" data-name="Path 82224" d="M401.454,349.381a2.237,2.237,0,0,1-.378-.3c-.234-.2-.571-.5-.979-.868-.82-.742-1.929-1.788-3.124-2.975s-2.248-2.293-3-3.1c-.375-.408-.671-.738-.876-.972a2.894,2.894,0,0,1-.3-.375,2.29,2.29,0,0,1,.356.326l.92.931c.772.786,1.84,1.873,3.034,3.06s2.289,2.244,3.083,3.012q.562.545.935.913A2.061,2.061,0,0,1,401.454,349.381Z" transform="translate(-392.799 -340.789)" fill="#263238"/>
                          </g>
                        </g>
                        <g id="Group_111022" data-name="Group 111022" transform="translate(66.446 32.324)">
                          <g id="Group_111021" data-name="Group 111021">
                            <path id="Path_82225" data-name="Path 82225" d="M407.421,342.124a1.789,1.789,0,0,1-.308-.271l-.794-.783c-.7-.7-1.6-1.6-2.6-2.593s-1.914-1.884-2.619-2.574c-.308-.308-.571-.571-.79-.786-.185-.189-.282-.3-.271-.308a1.627,1.627,0,0,1,.323.252c.2.171.486.423.831.742.694.634,1.64,1.528,2.66,2.537s1.922,1.944,2.563,2.634c.319.345.575.627.749.824A2.026,2.026,0,0,1,407.421,342.124Z" transform="translate(-400.038 -334.808)" fill="#263238"/>
                          </g>
                        </g>
                        <g id="Group_111024" data-name="Group 111024" transform="translate(68.223 29.242)">
                          <g id="Group_111023" data-name="Group 111023">
                            <path id="Path_82226" data-name="Path 82226" d="M411.184,333.532a1.049,1.049,0,0,1,.089.3l.033.134-.089-.108c-.434-.519-1.577-1.985-3.012-3.632-.909-1.046-1.762-1.97-2.385-2.634-.289-.308-.534-.571-.735-.786a1.832,1.832,0,0,1-.256-.3,1.485,1.485,0,0,1,.308.252c.189.171.456.427.779.746.649.642,1.521,1.551,2.434,2.6a42.927,42.927,0,0,1,2.919,3.717l-.059.026A1.042,1.042,0,0,1,411.184,333.532Z" transform="translate(-404.829 -326.497)" fill="#263238"/>
                          </g>
                        </g>
                        <g id="Group_111026" data-name="Group 111026" transform="translate(69.34 26.586)">
                          <g id="Group_111025" data-name="Group 111025">
                            <path id="Path_82227" data-name="Path 82227" d="M415.711,327.833a2.26,2.26,0,0,1-.275-.367c-.163-.245-.408-.594-.716-1.024a32.119,32.119,0,0,0-5.572-6.009c-.4-.338-.734-.608-.964-.79a2.082,2.082,0,0,1-.345-.3,2.039,2.039,0,0,1,.389.241c.245.163.59.419,1.005.746a26.085,26.085,0,0,1,3.034,2.8,26.5,26.5,0,0,1,2.563,3.238c.293.441.519.8.668,1.061A1.723,1.723,0,0,1,415.711,327.833Z" transform="translate(-407.839 -319.337)" fill="#263238"/>
                          </g>
                        </g>
                        <g id="Group_111028" data-name="Group 111028" transform="translate(83.316 43.984)">
                          <g id="Group_111027" data-name="Group 111027">
                            <path id="Path_82228" data-name="Path 82228" d="M457.61,367.048c.542-.326,1.128-.438,1.554-.683s1.1-.141,1.239.33c.156.534-.449.961-.957,1.191,1.168.56,2.764-.675,3.769.141a1.567,1.567,0,0,1-.108,2.244,3.944,3.944,0,0,1-2.337.868,6.568,6.568,0,0,0-2.459.564c-.389.215-.757.634-.62,1.057.23.716,1.566.564,1.729,1.3.111.5-.441.864-.905,1.076l-5.064,2.281a2.8,2.8,0,0,1-1.406.356.97.97,0,0,1-.924-.946c.048-.479.564-.772,1.042-.842a9.643,9.643,0,0,0,1.432-.145c.46-.141.879-.623.712-1.072-.211-.56-1.009-.512-1.591-.36l-5.375,1.424a2.314,2.314,0,0,1-1.206.1.782.782,0,0,1-.59-.92,1.1,1.1,0,0,1,.412-.471,10.871,10.871,0,0,1,4.34-1.947,5.689,5.689,0,0,0,1.74-.5,1.455,1.455,0,0,0,.8-1.5,15.617,15.617,0,0,1-3.431.816c-.419.052-.965,0-1.083-.4s.334-.753.723-.946q3.127-1.541,6.258-3.083a2.227,2.227,0,0,1,1.7-.326Z" transform="translate(-445.515 -366.239)" fill="#fff"/>
                          </g>
                        </g>
                        <g id="Group_111030" data-name="Group 111030" transform="translate(56.238 24.342)">
                          <g id="Group_111029" data-name="Group 111029">
                            <path id="Path_82229" data-name="Path 82229" d="M406.971,362.605s-.13-.1-.371-.3-.6-.5-1.072-.89c-.939-.786-2.311-1.936-4.062-3.4-.875-.735-1.847-1.551-2.9-2.437a41.4,41.4,0,0,1-3.328-3,33.02,33.02,0,0,1-3.25-3.936,33.477,33.477,0,0,1-2.9-4.878l.015.022c-4.815-4.978-10.468-10.817-16.545-17.1l-.037-.037.011-.048a7.407,7.407,0,0,1,1.51-2.812,27.359,27.359,0,0,1,2.215-2.441c1.558-1.536,3.2-2.942,4.845-4.27s3.3-2.582,4.945-3.75l.063-.044.056.052c2.27,2.17,4.448,4.288,6.573,6.284.53.5,1.057.99,1.591,1.458a11.666,11.666,0,0,1,1.488,1.51c.119.126.237.252.36.367s.256.208.4.319a7.642,7.642,0,0,1,.772.69c.479.49.905,1.009,1.321,1.521s.827,1.013,1.276,1.469a7.412,7.412,0,0,0,1.465,1.165c.527.323,1.076.6,1.591.912a8.573,8.573,0,0,1,1.417,1.083c.43.4.824.809,1.213,1.206s.768.8,1.12,1.206a9.261,9.261,0,0,1,1.651,2.6,13.611,13.611,0,0,1,.868,5.16c-.007,1.54-.119,2.853-.171,3.925s-.07,1.9-.063,2.456c.007.275.015.486.019.634s0,.215,0,.215-.033-.289-.056-.85-.019-1.391.03-2.463.145-2.385.141-3.921a13.514,13.514,0,0,0-.887-5.115c-.72-1.829-2.33-3.339-3.969-4.952a8.459,8.459,0,0,0-1.4-1.061c-.512-.312-1.057-.582-1.6-.909a7.574,7.574,0,0,1-1.495-1.183c-.453-.46-.872-.964-1.287-1.476s-.842-1.028-1.313-1.506a7.728,7.728,0,0,0-.757-.675c-.13-.1-.278-.2-.408-.326s-.252-.249-.371-.375a11.244,11.244,0,0,0-1.476-1.495c-.542-.471-1.065-.964-1.6-1.462-2.126-2-4.307-4.11-6.581-6.277l.119.007c-1.64,1.169-3.29,2.422-4.934,3.747s-3.279,2.727-4.83,4.259a25.855,25.855,0,0,0-2.2,2.422,7.163,7.163,0,0,0-1.473,2.727l-.026-.082c6.069,6.288,11.715,12.134,16.522,17.12l.007.011.007.015a35.221,35.221,0,0,0,6.1,8.792,41.554,41.554,0,0,0,3.305,3q1.58,1.341,2.89,2.456c1.736,1.48,3.1,2.641,4.032,3.435.46.4.812.7,1.057.909S406.971,362.605,406.971,362.605Z" transform="translate(-372.52 -313.29)" fill="#263238"/>
                          </g>
                        </g>
                        <g id="Group_111032" data-name="Group 111032" transform="translate(92.384 47.081)">
                          <g id="Group_111031" data-name="Group 111031">
                            <path id="Path_82230" data-name="Path 82230" d="M477.8,386.719a3.88,3.88,0,0,1-.1-.616c-.056-.43-.126-1-.215-1.688-.085-.723-.185-1.569-.293-2.5-.056-.471-.1-.968-.193-1.469a3.756,3.756,0,0,0-.553-1.447,7.481,7.481,0,0,0-2.318-1.944c-.8-.5-1.536-.942-2.155-1.3-.6-.341-1.1-.627-1.476-.842a4.23,4.23,0,0,1-.534-.319,3.554,3.554,0,0,1,.571.256c.36.178.879.441,1.51.786s1.373.771,2.181,1.272a7.387,7.387,0,0,1,2.385,1.988,3.974,3.974,0,0,1,.575,1.521c.1.516.134,1.013.185,1.484.093.935.178,1.784.252,2.508.063.69.115,1.261.152,1.692A3.433,3.433,0,0,1,477.8,386.719Z" transform="translate(-469.959 -374.588)" fill="#263238"/>
                          </g>
                        </g>
                        <g id="Group_111034" data-name="Group 111034" transform="translate(84.828 32.088)">
                          <g id="Group_111033" data-name="Group 111033">
                            <path id="Path_82231" data-name="Path 82231" d="M457.859,334.169a1.8,1.8,0,0,1-.256.341c-.174.211-.438.512-.772.872a37.324,37.324,0,0,1-2.745,2.678,36.1,36.1,0,0,1-3,2.393,2.891,2.891,0,0,1-1.065.493,1.383,1.383,0,0,1-.319.026c-.074-.007-.111-.011-.111-.019s.156-.007.415-.082a3.111,3.111,0,0,0,1-.53c.775-.59,1.833-1.439,2.953-2.426s2.089-1.933,2.775-2.63c.319-.326.593-.6.812-.827A1.834,1.834,0,0,1,457.859,334.169Z" transform="translate(-449.59 -334.169)" fill="#263238"/>
                          </g>
                        </g>
                        <g id="Group_111036" data-name="Group 111036" transform="translate(82.767 19.323)">
                          <g id="Group_111035" data-name="Group 111035">
                            <path id="Path_82232" data-name="Path 82232" d="M447.409,299.76a.706.706,0,0,1-.037.189c-.03.122-.074.3-.137.53-.126.46-.323,1.117-.575,1.929-.493,1.625-1.265,3.843-1.851,6.358a26.075,26.075,0,0,0-.6,6.562,18.442,18.442,0,0,0,.182,2,5.519,5.519,0,0,1,.1.731.7.7,0,0,1-.056-.182c-.03-.122-.082-.3-.119-.534a14.751,14.751,0,0,1-.241-2,24.367,24.367,0,0,1,.549-6.614c.586-2.534,1.38-4.745,1.907-6.358.26-.783.475-1.428.631-1.907.07-.208.126-.378.174-.519A.648.648,0,0,1,447.409,299.76Z" transform="translate(-444.034 -299.76)" fill="#263238"/>
                          </g>
                        </g>
                        <g id="Group_111058" data-name="Group 111058" transform="translate(0 2.745)">
                          <g id="Group_111037" data-name="Group 111037">
                            <path id="Path_82233" data-name="Path 82233" d="M250.751,255.07s-9.359,2.812-13.173,7.1c-2.879,3.238-6.859,18.607-6.859,18.607s-10.042,37.964-9.8,40.905,5.39,7.913,9.063,9.8,9.8,3.917,16.9-4.9c3.947-4.9,7.794-9.534,9.649-13.8a18.439,18.439,0,0,0,1.376-7.026l12-13.792-12.5-13.392-11.021,14.208Z" transform="translate(-220.918 -255.07)" fill="#1794c9"/>
                          </g>
                          <g id="Group_111039" data-name="Group 111039" transform="translate(29.358 27.053)">
                            <g id="Group_111038" data-name="Group 111038">
                              <path id="Path_82234" data-name="Path 82234" d="M308.324,328a2.275,2.275,0,0,1-.308.386c-.211.237-.508.59-.872,1.028-.731.872-1.692,2.114-2.771,3.476a38.03,38.03,0,0,1-2.931,3.357c-.4.4-.746.716-.99.92a2.358,2.358,0,0,1-.393.3,2.644,2.644,0,0,1,.341-.36c.23-.219.553-.545.946-.957.786-.82,1.8-2.018,2.879-3.383s2.059-2.593,2.819-3.446c.378-.427.694-.764.92-.99A2.461,2.461,0,0,1,308.324,328Z" transform="translate(-300.059 -327.998)" fill="#263238"/>
                            </g>
                          </g>
                          <g id="Group_111041" data-name="Group 111041" transform="translate(31.505 29.517)">
                            <g id="Group_111040" data-name="Group 111040">
                              <path id="Path_82235" data-name="Path 82235" d="M312.915,334.639a1.837,1.837,0,0,1-.23.375c-.156.234-.4.568-.7.972-.6.812-1.465,1.9-2.452,3.083s-1.9,2.226-2.574,2.983l-.8.887a2.166,2.166,0,0,1-.312.308,1.968,1.968,0,0,1,.256-.356c.174-.223.43-.538.753-.927.675-.805,1.554-1.855,2.53-3.016.987-1.18,1.866-2.255,2.489-3.042l.742-.931A2.573,2.573,0,0,1,312.915,334.639Z" transform="translate(-305.848 -334.639)" fill="#263238"/>
                            </g>
                          </g>
                          <g id="Group_111043" data-name="Group 111043" transform="translate(33.92 32.139)">
                            <g id="Group_111042" data-name="Group 111042">
                              <path id="Path_82236" data-name="Path 82236" d="M318.884,341.709a1.736,1.736,0,0,1-.241.33c-.189.237-.423.523-.694.861-.586.727-1.376,1.744-2.252,2.871s-1.684,2.133-2.3,2.838c-.308.352-.56.634-.742.824s-.286.289-.3.278a1.541,1.541,0,0,1,.241-.33c.189-.237.423-.523.694-.861.586-.727,1.376-1.744,2.252-2.871s1.684-2.133,2.3-2.838c.308-.352.56-.634.742-.824A1.88,1.88,0,0,1,318.884,341.709Z" transform="translate(-312.357 -341.709)" fill="#263238"/>
                            </g>
                          </g>
                          <g id="Group_111045" data-name="Group 111045" transform="translate(36.817 35.044)">
                            <g id="Group_111044" data-name="Group 111044">
                              <path id="Path_82237" data-name="Path 82237" d="M326.222,349.539a1.3,1.3,0,0,1-.2.293c-.141.182-.352.438-.62.749-.534.623-1.291,1.469-2.14,2.389-.831.9-1.58,1.714-2.17,2.356a10.482,10.482,0,0,1-.92.957,1.3,1.3,0,0,1,.2-.293c.141-.182.352-.438.616-.753.53-.627,1.284-1.476,2.133-2.4.835-.9,1.588-1.71,2.178-2.348A9.754,9.754,0,0,1,326.222,349.539Z" transform="translate(-320.167 -349.539)" fill="#263238"/>
                            </g>
                          </g>
                          <g id="Group_111047" data-name="Group 111047" transform="translate(39.339 36.453)">
                            <g id="Group_111046" data-name="Group 111046">
                              <path id="Path_82238" data-name="Path 82238" d="M332.22,353.339a6.919,6.919,0,0,1-.712,1.013c-.464.608-1.131,1.428-1.87,2.33s-1.406,1.721-1.881,2.318a9.573,9.573,0,0,1-.79.953,6.683,6.683,0,0,1,.683-1.035c.449-.62,1.1-1.454,1.84-2.356.727-.875,1.387-1.666,1.914-2.292A8.143,8.143,0,0,1,332.22,353.339Z" transform="translate(-326.966 -353.338)" fill="#263238"/>
                            </g>
                          </g>
                          <g id="Group_111049" data-name="Group 111049" transform="translate(11.912 26.495)">
                            <g id="Group_111048" data-name="Group 111048">
                              <path id="Path_82239" data-name="Path 82239" d="M266.67,336.093c-.019,0-.063-.237-.2-.653a6.158,6.158,0,0,0-.857-1.625,10.916,10.916,0,0,0-1.877-1.985,19.592,19.592,0,0,0-2.764-1.907,40.324,40.324,0,0,0-5.553-2.571c-.735-.278-1.335-.482-1.751-.623a4.793,4.793,0,0,1-.642-.234.507.507,0,0,1,.174.033c.111.026.278.07.49.13.423.119,1.031.3,1.773.568a35.861,35.861,0,0,1,5.605,2.53,18.351,18.351,0,0,1,2.782,1.94,10.817,10.817,0,0,1,1.873,2.044,5.842,5.842,0,0,1,.816,1.68,3.766,3.766,0,0,1,.108.5A.562.562,0,0,1,266.67,336.093Z" transform="translate(-253.03 -326.494)" fill="#263238"/>
                            </g>
                          </g>
                          <g id="Group_111051" data-name="Group 111051" transform="translate(14.314 11.284)">
                            <g id="Group_111050" data-name="Group 111050">
                              <path id="Path_82240" data-name="Path 82240" d="M271.6,286.3c.542-.327,1.128-.438,1.554-.683s1.1-.141,1.239.33c.156.534-.449.961-.957,1.191,1.169.56,2.764-.675,3.769.141a1.567,1.567,0,0,1-.108,2.244,3.943,3.943,0,0,1-2.337.868,6.567,6.567,0,0,0-2.459.564c-.389.215-.757.634-.62,1.057.23.716,1.565.564,1.729,1.3.111.5-.441.864-.905,1.076l-5.064,2.281a2.845,2.845,0,0,1-1.406.36.97.97,0,0,1-.924-.946c.048-.479.564-.772,1.042-.842a9.657,9.657,0,0,0,1.432-.145c.46-.141.879-.623.712-1.072-.211-.56-1.009-.512-1.591-.36l-5.375,1.424a2.314,2.314,0,0,1-1.206.1.782.782,0,0,1-.59-.92,1.1,1.1,0,0,1,.412-.471,10.871,10.871,0,0,1,4.34-1.948,5.688,5.688,0,0,0,1.74-.5,1.455,1.455,0,0,0,.8-1.495,15.628,15.628,0,0,1-3.431.816c-.419.052-.964,0-1.083-.4s.334-.753.723-.946q3.127-1.541,6.258-3.083a2.227,2.227,0,0,1,1.7-.326Z" transform="translate(-259.505 -285.489)" fill="#fff"/>
                            </g>
                          </g>
                          <g id="Group_111053" data-name="Group 111053" transform="translate(4.45 49.274)">
                            <g id="Group_111052" data-name="Group 111052">
                              <path id="Path_82241" data-name="Path 82241" d="M245.014,388.708c.542-.326,1.128-.438,1.554-.682s1.1-.141,1.239.33c.156.534-.449.961-.957,1.191,1.168.56,2.764-.675,3.769.141a1.567,1.567,0,0,1-.108,2.244,3.943,3.943,0,0,1-2.337.868,6.569,6.569,0,0,0-2.46.564c-.389.215-.757.634-.62,1.057.23.716,1.565.564,1.729,1.3.111.5-.441.864-.905,1.076l-5.064,2.281a2.8,2.8,0,0,1-1.406.356.97.97,0,0,1-.924-.946c.048-.479.564-.772,1.039-.842A9.66,9.66,0,0,0,241,397.5c.46-.141.879-.623.712-1.072-.211-.56-1.009-.512-1.591-.36l-5.375,1.424a2.315,2.315,0,0,1-1.206.1.782.782,0,0,1-.59-.92,1.1,1.1,0,0,1,.412-.471,10.872,10.872,0,0,1,4.34-1.948,5.685,5.685,0,0,0,1.74-.5,1.455,1.455,0,0,0,.8-1.495,15.617,15.617,0,0,1-3.431.816c-.419.052-.965,0-1.083-.4s.334-.753.723-.946q3.127-1.541,6.258-3.083a2.227,2.227,0,0,1,1.7-.326Z" transform="translate(-232.915 -387.899)" fill="#fff"/>
                            </g>
                          </g>
                          <g id="Group_111055" data-name="Group 111055" transform="translate(19.572 13.558)">
                            <g id="Group_111054" data-name="Group 111054">
                              <path id="Path_82242" data-name="Path 82242" d="M279.815,314.883a1.166,1.166,0,0,1-.071-.234c-.041-.174-.1-.4-.167-.683-.145-.616-.345-1.469-.586-2.511-.5-2.118-1.206-5.045-2.051-8.254s-1.673-6.106-2.285-8.194c-.3-1.028-.549-1.866-.727-2.474-.078-.278-.145-.5-.193-.675a1.913,1.913,0,0,1-.056-.237,1.161,1.161,0,0,1,.093.226c.059.171.134.389.226.664.193.579.464,1.417.786,2.456.646,2.081,1.491,4.971,2.341,8.187s1.536,6.147,2,8.276c.234,1.065.412,1.929.527,2.526.052.282.1.512.13.69A.944.944,0,0,1,279.815,314.883Z" transform="translate(-273.679 -291.62)" fill="#263238"/>
                            </g>
                          </g>
                          <g id="Group_111057" data-name="Group 111057" transform="translate(9.523 23.359)">
                            <g id="Group_111056" data-name="Group 111056">
                              <path id="Path_82243" data-name="Path 82243" d="M246.59,354.053s.019-.074.067-.215.122-.352.215-.627c.193-.549.479-1.361.9-2.393a18.806,18.806,0,0,1,1.918-3.591,24.864,24.864,0,0,1,3.754-3.921,37.4,37.4,0,0,0,4.351-4.978c1.465-1.892,3-3.954,4.63-6.132s3.342-4.477,5.167-6.852,3.758-4.819,5.894-7.226l.07-.078.07.078c2.207,2.382,4.5,4.86,6.848,7.393,1.877,2.029,3.724,4.021,5.483,5.924l.059.063-.059.067c-2.255,2.463-4.411,4.886-6.432,7.252-1.009,1.187-1.985,2.359-2.9,3.531-.23.293-.456.586-.675.883a8.717,8.717,0,0,0-.612.9,9.494,9.494,0,0,0-.846,1.959c-.419,1.347-.649,2.712-.976,4.014a15.864,15.864,0,0,1-.594,1.9c-.241.608-.534,1.172-.794,1.743a53.41,53.41,0,0,1-3.42,6.043,42.39,42.39,0,0,1-6.392,7.616c-.215.2-.415.386-.6.564s-.378.326-.545.475c-.338.3-.627.542-.868.727l-.542.434c-.122.1-.189.141-.189.141s.059-.056.178-.156.3-.252.53-.445.523-.441.857-.742c.167-.148.349-.308.542-.482s.386-.367.6-.568a43.205,43.205,0,0,0,6.332-7.634,53.294,53.294,0,0,0,3.391-6.035c.256-.568.549-1.139.786-1.736a14.946,14.946,0,0,0,.582-1.877c.323-1.295.549-2.663.968-4.025a9.413,9.413,0,0,1,.857-2,10.2,10.2,0,0,1,.623-.916c.219-.3.441-.594.675-.887.92-1.18,1.9-2.356,2.9-3.543,2.022-2.374,4.177-4.8,6.432-7.263v.13c-1.758-1.9-3.606-3.891-5.483-5.92-2.344-2.534-4.641-5.012-6.844-7.4h.141c-2.133,2.4-4.062,4.845-5.895,7.211s-3.546,4.663-5.179,6.84-3.172,4.233-4.644,6.125a37.267,37.267,0,0,1-4.385,4.982,25.131,25.131,0,0,0-3.761,3.884,18.94,18.94,0,0,0-1.936,3.557c-.434,1.024-.727,1.833-.931,2.378-.1.271-.178.475-.23.62S246.59,354.053,246.59,354.053Z" transform="translate(-246.59 -318.04)" fill="#263238"/>
                            </g>
                          </g>
                        </g>
                        <g id="Group_111060" data-name="Group 111060" transform="translate(37.92 1.113)">
                          <g id="Group_111059" data-name="Group 111059">
                            <path id="Path_82244" data-name="Path 82244" d="M323.139,252.128a1.127,1.127,0,0,1,.067.152c.044.115.1.26.171.445a9,9,0,0,0,.924,1.543,21.491,21.491,0,0,0,4.648,4.4l-.019-.011c1.206.419,2.537.838,3.966,1.187a21.852,21.852,0,0,0,4.567.672,14.559,14.559,0,0,0,6.636-1.387,10.413,10.413,0,0,0,4.166-3.613,9.071,9.071,0,0,0,1.4-3.468c.041-.219.067-.415.082-.586a4.318,4.318,0,0,0,.033-.434c.007-.108.011-.2.015-.267a.325.325,0,0,1,.011-.093,6.256,6.256,0,0,1-.067,1.391,8.9,8.9,0,0,1-1.361,3.532,10.458,10.458,0,0,1-4.2,3.7,14.618,14.618,0,0,1-6.718,1.421,21.648,21.648,0,0,1-4.607-.683c-1.439-.356-2.771-.783-3.977-1.209l-.011,0-.007-.007a20.865,20.865,0,0,1-4.63-4.485,8.179,8.179,0,0,1-.89-1.58q-.089-.284-.145-.456A.631.631,0,0,1,323.139,252.128Z" transform="translate(-323.139 -250.67)" fill="#263238"/>
                          </g>
                        </g>
                        <g id="Group_111064" data-name="Group 111064" transform="translate(36.566 12.242)">
                          <g id="Group_111061" data-name="Group 111061" transform="translate(16.743 8.439)">
                            <path id="Path_82245" data-name="Path 82245" d="M364.961,306.933a2.73,2.73,0,0,0,.234,2.979,18.678,18.678,0,0,0,3.023-2.682c.078-.082.156-.16.234-.241l.775-2.207-2.066-1.109-1.918-.252Z" transform="translate(-364.626 -303.42)" fill="#eb996e"/>
                          </g>
                          <g id="Group_111062" data-name="Group 111062" transform="translate(19.139 10.569)">
                            <path id="Path_82246" data-name="Path 82246" d="M372.24,309.16a9.02,9.02,0,0,0-1.042,2.626,4.894,4.894,0,0,0,.2,2.79.427.427,0,0,0,.13.2.445.445,0,0,0,.171.059c.338.071.675.145,1.013.215a8.625,8.625,0,0,0,.59-1.4" transform="translate(-371.084 -309.16)" fill="#eb996e"/>
                          </g>
                          <g id="Group_111063" data-name="Group 111063">
                            <path id="Path_82247" data-name="Path 82247" d="M324.717,304.831s2.675-3.94,3.42-4.763a3.682,3.682,0,0,1,1.565-1.046s3.954-2.311,5.223-3.88,3.209-4.4,3.209-4.4l.968-.3.968.968s-.375,4.477,1.565,5l1.046-.3v-8.58l-6.265-4.251-4.923-2.612s-3.58,6.418-4.626,7.386-6.763,7-7.378,7.668C319.49,295.724,319.9,299.259,324.717,304.831Z" transform="translate(-319.49 -280.67)" fill="#ffbe9d"/>
                          </g>
                        </g>
                        <g id="Group_111074" data-name="Group 111074" transform="translate(42.783 6.481)">
                          <g id="Group_111065" data-name="Group 111065" transform="translate(0.078 0.07)">
                            <path id="Path_82248" data-name="Path 82248" d="M336.471,268.683l8.506-3.353,10.587,4.036s4.418,10.891,4.952,11.73,2.893,3.435,2.893,3.435a7.126,7.126,0,0,1-1.458,3.072,19.658,19.658,0,0,1-3.112,3.435s-4.426-2.1-4.952-4.229-2.374-6.855-2.374-6.855l-1.573-2.971-3.031-2.055-3.227.456s-.427,2.055-2,1.525l-1.577-.838,1.781-2.211s-2.244,2.667-3.687,1.373l-.53-.608,1.751-1.525s-1.677,1.22-2.211.3l1.677-3.046S336.267,270.434,336.471,268.683Z" transform="translate(-336.459 -265.33)" fill="#ffbe9d"/>
                          </g>
                          <g id="Group_111067" data-name="Group 111067">
                            <g id="Group_111066" data-name="Group 111066">
                              <path id="Path_82249" data-name="Path 82249" d="M363.277,284.415s-.078-.074-.215-.223-.349-.378-.612-.671-.593-.664-.972-1.1c-.189-.219-.39-.456-.6-.716a5.642,5.642,0,0,1-.619-.868c-.66-1.354-1.354-3.038-2.177-4.978s-1.729-4.151-2.719-6.577l.045.045c-3.187-1.209-6.755-2.567-10.595-4.025h.067c-2.678,1.057-5.538,2.185-8.5,3.357l.059-.078a1.338,1.338,0,0,0,.126.731,1.37,1.37,0,0,0,.571.512,3.646,3.646,0,0,0,1.614.326h.167l-.078.141c-.312.568-.649,1.176-.987,1.792l-.69,1.257v-.1a.586.586,0,0,0,.434.282,1.389,1.389,0,0,0,.571-.067,4.142,4.142,0,0,0,1.065-.549l.119.152q-.885.768-1.751,1.525l.011-.134.53.608-.007-.007a1.3,1.3,0,0,0,.946.319,2.347,2.347,0,0,0,.991-.323,6.551,6.551,0,0,0,1.617-1.358l.145.119q-.907,1.124-1.784,2.207l-.03-.137c.53.282,1.057.564,1.577.838l-.015-.007a1.373,1.373,0,0,0,.679.059,1.169,1.169,0,0,0,.582-.315,2.523,2.523,0,0,0,.627-1.2l.015-.059.059-.007c1.113-.156,2.185-.308,3.227-.453l.033,0,.026.018c1.057.72,2.063,1.4,3.027,2.063l.015.011.007.018q.824,1.564,1.569,2.975l0,0v0c.772,2.007,1.436,3.836,1.955,5.464.126.408.249.8.349,1.191a4.523,4.523,0,0,0,.174.549,4.01,4.01,0,0,0,.263.482,7.049,7.049,0,0,0,1.376,1.428,17.768,17.768,0,0,0,2.3,1.532c.275.156.49.271.631.349s.215.119.215.119-.078-.03-.226-.1-.364-.178-.642-.33a17.061,17.061,0,0,1-2.33-1.506,7.1,7.1,0,0,1-1.406-1.436,4,4,0,0,1-.275-.5,4.912,4.912,0,0,1-.182-.56c-.1-.382-.226-.775-.353-1.18-.527-1.621-1.2-3.446-1.981-5.446l0,.007c-.5-.942-1.024-1.929-1.58-2.968l.026.026q-1.452-.979-3.034-2.051l.059.015-3.227.46.074-.067a2.713,2.713,0,0,1-.675,1.295,1.351,1.351,0,0,1-.675.363,1.584,1.584,0,0,1-.768-.067h0l-.007,0q-.779-.412-1.577-.838l-.1-.052.071-.085q.874-1.085,1.781-2.211l.145.119a6.683,6.683,0,0,1-1.666,1.4,2.475,2.475,0,0,1-1.072.349,1.507,1.507,0,0,1-1.087-.367l0,0,0,0-.53-.608-.063-.07.07-.063q.868-.757,1.751-1.525l.119.152a4.268,4.268,0,0,1-1.12.575,1.6,1.6,0,0,1-.653.074.787.787,0,0,1-.575-.375l-.026-.048.026-.048q.345-.623.69-1.258c.338-.612.671-1.224.987-1.792l.089.145a3.812,3.812,0,0,1-1.71-.349,1.556,1.556,0,0,1-.649-.59,1.505,1.505,0,0,1-.152-.846l0-.056.056-.022c2.964-1.169,5.828-2.292,8.506-3.346l.033-.011.033.011c3.836,1.469,7.4,2.83,10.583,4.051l.03.011.011.03c.99,2.426,1.892,4.637,2.689,6.588s1.5,3.639,2.14,4.986a5.624,5.624,0,0,0,.6.861c.208.26.408.5.594.723.375.438.694.812.953,1.117s.456.523.594.686C363.21,284.333,363.277,284.415,363.277,284.415Z" transform="translate(-336.248 -265.14)" fill="#eb996e"/>
                            </g>
                          </g>
                          <g id="Group_111069" data-name="Group 111069" transform="translate(2.37 0.576)">
                            <g id="Group_111068" data-name="Group 111068">
                              <path id="Path_82250" data-name="Path 82250" d="M342.638,271.329a.988.988,0,0,1,.186-.312,3.433,3.433,0,0,1,.712-.7c.686-.486,1.654-1.091,2.723-1.773s2.033-1.295,2.775-1.7a1.224,1.224,0,0,1,.994-.085c.226.1.293.23.286.234a1.573,1.573,0,0,0-.312-.159,1.183,1.183,0,0,0-.909.137c-.7.419-1.658,1.072-2.73,1.74-1.05.657-2,1.254-2.749,1.721A5.968,5.968,0,0,0,342.638,271.329Z" transform="translate(-342.636 -266.693)" fill="#eb996e"/>
                            </g>
                          </g>
                          <g id="Group_111071" data-name="Group 111071" transform="translate(2.137 3.273)">
                            <g id="Group_111070" data-name="Group 111070">
                              <path id="Path_82251" data-name="Path 82251" d="M355.027,275.776a3.278,3.278,0,0,1-.586-.108c-.375-.085-.909-.223-1.565-.419s-1.428-.456-2.274-.783a2.579,2.579,0,0,0-1.321-.3,9.848,9.848,0,0,0-1.469.319,4.7,4.7,0,0,0-1.339.638,8.743,8.743,0,0,0-1.039.939c-.638.638-1.209,1.22-1.706,1.688s-.92.831-1.224,1.065c-.152.115-.275.2-.36.256s-.13.082-.134.074.16-.141.449-.389.694-.623,1.176-1.105,1.046-1.068,1.677-1.714a8.883,8.883,0,0,1,1.054-.964,4.741,4.741,0,0,1,1.391-.671,9.728,9.728,0,0,1,1.5-.323,1.772,1.772,0,0,1,.753.071c.234.074.445.171.653.252.835.334,1.6.6,2.248.82s1.176.367,1.543.479A3.635,3.635,0,0,1,355.027,275.776Z" transform="translate(-342.009 -273.963)" fill="#eb996e"/>
                            </g>
                          </g>
                          <g id="Group_111073" data-name="Group 111073" transform="translate(5.327 6.492)">
                            <g id="Group_111072" data-name="Group 111072">
                              <path id="Path_82252" data-name="Path 82252" d="M361.526,284.644a2.418,2.418,0,0,1-.453-.115c-.323-.1-.727-.226-1.209-.378l-1.784-.582c-.338-.111-.69-.23-1.054-.352a9.429,9.429,0,0,0-1.128-.338,3.7,3.7,0,0,0-2.17.4c-.653.289-1.269.464-1.747.683a4.6,4.6,0,0,0-1.373,1s.015-.041.063-.1a2.631,2.631,0,0,1,.219-.267,3.46,3.46,0,0,1,1.035-.753c.486-.241,1.1-.43,1.736-.723a6.426,6.426,0,0,1,1.057-.386,2.81,2.81,0,0,1,1.22-.045,9.149,9.149,0,0,1,1.154.349c.364.126.712.245,1.05.36l1.773.623q.712.262,1.191.434A2.2,2.2,0,0,1,361.526,284.644Z" transform="translate(-350.609 -282.641)" fill="#eb996e"/>
                            </g>
                          </g>
                        </g>
                        <g id="Group_111076" data-name="Group 111076" transform="translate(36.49 26.256)">
                          <g id="Group_111075" data-name="Group 111075">
                            <path id="Path_82253" data-name="Path 82253" d="M331.624,331.76a.91.91,0,0,1-.2.03c-.134.011-.326.026-.579.03a10.725,10.725,0,0,1-2.129-.171,7.039,7.039,0,0,1-1.424-.412,4.766,4.766,0,0,1-1.421-.942,18.159,18.159,0,0,1-2.541-2.931c-.809-1.109-1.573-2.174-2.2-3.194a15.047,15.047,0,0,1-1.387-2.849,8.13,8.13,0,0,1-.445-2.088,4.827,4.827,0,0,1-.015-.582,1.3,1.3,0,0,1,.011-.2c.019,0,.022.278.078.775a8.766,8.766,0,0,0,.5,2.051,15.452,15.452,0,0,0,1.41,2.8c.627,1.005,1.391,2.063,2.2,3.172a18.623,18.623,0,0,0,2.5,2.912,5.228,5.228,0,0,0,2.752,1.354,12.073,12.073,0,0,0,2.1.23C331.342,331.756,331.62,331.745,331.624,331.76Z" transform="translate(-319.284 -318.45)" fill="#263238"/>
                          </g>
                        </g>
                        <g id="Group_111078" data-name="Group 111078" transform="translate(56.868 24.424)">
                          <g id="Group_111077" data-name="Group 111077">
                            <path id="Path_82254" data-name="Path 82254" d="M387.144,313.51a.814.814,0,0,1,.048.2,3.2,3.2,0,0,1,.056.575,4.812,4.812,0,0,1-.49,2.063,11.968,11.968,0,0,1-1.747,2.615c-.749.913-1.625,1.877-2.593,2.842s-1.94,1.825-2.86,2.571a19.2,19.2,0,0,1-2.552,1.836,4.8,4.8,0,0,1-2.011.671,3.052,3.052,0,0,1-.579-.011.986.986,0,0,1-.2-.037c0-.022.278.03.768-.022a5.031,5.031,0,0,0,1.947-.716,21.063,21.063,0,0,0,2.508-1.855c.909-.749,1.87-1.614,2.838-2.571s1.836-1.914,2.593-2.816a12.408,12.408,0,0,0,1.762-2.56,5.022,5.022,0,0,0,.538-2C387.188,313.785,387.122,313.514,387.144,313.51Z" transform="translate(-374.22 -313.51)" fill="#263238"/>
                          </g>
                        </g>
                        <g id="Group_111080" data-name="Group 111080" transform="translate(23.575 40.256)" opacity="0.2">
                          <g id="Group_111079" data-name="Group 111079">
                            <path id="Path_82255" data-name="Path 82255" d="M301.872,364.633c-1.625,1.9-2.986,2.86-3.624,5.271a36.339,36.339,0,0,1-3.227,9.485c-3.016,5.494-6.544,10.4-10.55,13.481,6.952-1.276,12.687-6.744,14.913-13.455,1.165-3.509,1.335-7.3,2.612-10.773a24.791,24.791,0,0,1,5.023-7.872,7.5,7.5,0,0,0,2.337-4.581C307.065,358.438,304.346,361.743,301.872,364.633Z" transform="translate(-284.47 -356.19)"/>
                          </g>
                        </g>
                        <g id="Group_111082" data-name="Group 111082" transform="translate(6.138 44.89)" opacity="0.2">
                          <g id="Group_111081" data-name="Group 111081">
                            <path id="Path_82256" data-name="Path 82256" d="M241.51,384.223a20.219,20.219,0,0,1-3.075,5.757,3.923,3.923,0,0,1-.909-3.372,9.12,9.12,0,0,1,1.417-3.309c3.632-5.813,8.907-10.483,14.371-14.619a76.891,76.891,0,0,1-5.468,6.447c-2.478,2.574-5.145,5.316-6.336,9.1" transform="translate(-237.465 -368.68)"/>
                          </g>
                        </g>
                        <g id="Group_111084" data-name="Group 111084" transform="translate(43.139 45.327)">
                          <g id="Group_111083" data-name="Group 111083">
                            <path id="Path_82257" data-name="Path 82257" d="M351.365,369.86a.8.8,0,0,1-.093.2c-.078.145-.178.323-.3.545-.26.471-.664,1.143-1.187,1.951s-1.18,1.758-1.944,2.778-1.658,2.107-2.645,3.205-1.981,2.088-2.912,2.964-1.807,1.621-2.563,2.222-1.376,1.076-1.818,1.384l-.508.356a.852.852,0,0,1-.185.111.975.975,0,0,1,.163-.145c.13-.1.289-.226.49-.386.427-.326,1.039-.812,1.777-1.428s1.6-1.373,2.526-2.244,1.907-1.873,2.89-2.964,1.866-2.177,2.645-3.183,1.439-1.944,1.974-2.745.957-1.458,1.239-1.914c.134-.215.245-.386.33-.527A1.054,1.054,0,0,1,351.365,369.86Z" transform="translate(-337.21 -369.86)" fill="#263238"/>
                          </g>
                        </g>
                        <g id="Group_111086" data-name="Group 111086" transform="translate(85.874 39.637)" opacity="0.2">
                          <g id="Group_111085" data-name="Group 111085">
                            <path id="Path_82258" data-name="Path 82258" d="M459.247,372.218c.278.382.56.764.838,1.146a15.131,15.131,0,0,0,.1-11.225,14.252,14.252,0,0,0-7.772-7.619,20.164,20.164,0,0,1,3.791,3.12c3.06,2.886,3.862,6.573,3.045,14.579" transform="translate(-452.41 -354.52)"/>
                          </g>
                        </g>
                        <g id="Group_111088" data-name="Group 111088" transform="translate(67.027 8.257)">
                          <g id="Group_111087" data-name="Group 111087">
                            <path id="Path_82259" data-name="Path 82259" d="M413.7,270.738c.542-.326,1.128-.438,1.554-.683s1.1-.141,1.239.33c.156.534-.449.961-.957,1.191,1.169.56,2.764-.675,3.769.141a1.566,1.566,0,0,1-.108,2.244,3.943,3.943,0,0,1-2.337.868,6.57,6.57,0,0,0-2.459.564c-.39.215-.757.634-.62,1.057.23.716,1.565.564,1.729,1.3.111.5-.441.864-.905,1.076l-5.064,2.281a2.845,2.845,0,0,1-1.406.36.97.97,0,0,1-.924-.946c.048-.479.564-.772,1.042-.842a9.654,9.654,0,0,0,1.432-.145c.46-.141.879-.623.712-1.072-.211-.56-1.009-.512-1.591-.36l-5.375,1.424a2.313,2.313,0,0,1-1.206.1.782.782,0,0,1-.59-.92,1.082,1.082,0,0,1,.415-.471,10.87,10.87,0,0,1,4.34-1.948,5.689,5.689,0,0,0,1.74-.5,1.455,1.455,0,0,0,.8-1.495,15.618,15.618,0,0,1-3.431.816c-.419.052-.965,0-1.083-.4s.334-.753.723-.946q3.127-1.541,6.258-3.083a2.227,2.227,0,0,1,1.7-.326Z" transform="translate(-401.605 -269.929)" fill="#fff"/>
                          </g>
                        </g>
                        <g id="Group_111089" data-name="Group 111089" transform="translate(44.212 9.437)">
                          <path id="Path_82260" data-name="Path 82260" d="M340.1,273.11" transform="translate(-340.1 -273.11)" fill="none" stroke="#263238" stroke-width="0.05"/>
                        </g>
                      </g>
                    </g>
                  </g>
                </g>
              </g>
              <g id="Group_94287" data-name="Group 94287" transform="translate(164.206 57.227)">
                <g id="Group_94286" data-name="Group 94286" transform="translate(0)">
                  <g id="Group_94285" data-name="Group 94285">
                    <path id="Path_77922" data-name="Path 77922" d="M573.566,284.08a4.756,4.756,0,1,1-4.756,4.756A4.756,4.756,0,0,1,573.566,284.08Z" transform="translate(-568.81 -284.08)" fill="#455a64"/>
                  </g>
                </g>
              </g>
              <g id="Group_94290" data-name="Group 94290" transform="translate(5.122 43.315)">
                <g id="Group_94289" data-name="Group 94289">
                  <g id="Group_94288" data-name="Group 94288">
                    <path id="Path_77923" data-name="Path 77923" d="M131.888,246.142V282.6a.442.442,0,0,1-.442.442h-1.084a.442.442,0,0,1-.442-.442V246.142a.442.442,0,0,1,.442-.442h1.084A.442.442,0,0,1,131.888,246.142Z" transform="translate(-129.92 -245.7)" fill="#455a64"/>
                  </g>
                </g>
              </g>
            </g>
          </g>
        </g>
      </g>
      <g id="Character_1_" transform="translate(336.755 178.596)">
        <g id="Group_94546" data-name="Group 94546" transform="translate(0)">
          <g id="Group_94542" data-name="Group 94542">
            <g id="Group_94539" data-name="Group 94539" transform="translate(0 21.399)">
              <g id="Group_94513" data-name="Group 94513" transform="translate(0 97.044)">
                <g id="Group_94509" data-name="Group 94509">
                  <path id="Path_77995" data-name="Path 77995" d="M164.414,425.526v.37h-1.74V425.6l.939-.892a.648.648,0,0,0,.268-.489c0-.217-.149-.341-.439-.341a.669.669,0,0,0-.555.247l-.308-.236a1.092,1.092,0,0,1,.9-.391c.511,0,.845.261.845.678a.955.955,0,0,1-.391.747l-.631.6Z" transform="translate(-162.58 -423.5)" fill="#263238"/>
                </g>
                <g id="Group_94510" data-name="Group 94510" transform="translate(2.073 0.576)">
                  <path id="Path_77996" data-name="Path 77996" d="M168.3,425.369a.276.276,0,1,1,.551,0,.276.276,0,1,1-.551,0Zm0,1.287a.276.276,0,1,1,.551,0,.276.276,0,1,1-.551,0Z" transform="translate(-168.3 -425.09)" fill="#263238"/>
                </g>
                <g id="Group_94511" data-name="Group 94511" transform="translate(2.784 0.036)">
                  <path id="Path_77997" data-name="Path 77997" d="M171.2,423.6v2.363h-.439V423.97h-.5v-.37Z" transform="translate(-170.26 -423.6)" fill="#263238"/>
                </g>
                <g id="Group_94512" data-name="Group 94512" transform="translate(4.161 0.033)">
                  <path id="Path_77998" data-name="Path 77998" d="M176.195,425.417h-.417v.536h-.424v-.536H174.06v-.3l1.164-1.522h.468l-1.1,1.454h.772v-.475h.413v.475h.417Z" transform="translate(-174.06 -423.59)" fill="#263238"/>
                </g>
              </g>
              <g id="Group_94515" data-name="Group 94515" transform="translate(9.707 98.421)">
                <g id="Group_94514" data-name="Group 94514">
                  <rect id="Rectangle_18782" data-name="Rectangle 18782" width="114.725" height="0.58" fill="#fff"/>
                </g>
              </g>
              <g id="Group_94517" data-name="Group 94517" transform="translate(8.297 97.797)">
                <g id="Group_94516" data-name="Group 94516">
                  <rect id="Rectangle_18783" data-name="Rectangle 18783" width="60.641" height="3" transform="translate(0 -0.498)" fill="#ac1e2d"/>
                </g>
              </g>
              <g id="Group_94519" data-name="Group 94519" transform="translate(45.736 95.738)">
                <g id="Group_94518" data-name="Group 94518" transform="translate(20.224 -1.034)">
                  <path id="Path_77999" data-name="Path 77999" d="M299.6,426.75a3.99,3.99,0,1,1-3.99-3.99A3.989,3.989,0,0,1,299.6,426.75Z" transform="translate(-291.62 -422.76)" fill="#ac1e2d"/>
                </g>
              </g>
              <g id="Group_94524" data-name="Group 94524" transform="translate(125.668 97.163)">
                <g id="Group_94520" data-name="Group 94520">
                  <path id="Path_78000" data-name="Path 78000" d="M511.226,425.552a.812.812,0,0,1-.892.79c-.663,0-1.055-.428-1.055-1.214a1.157,1.157,0,0,1,1.2-1.3,1.22,1.22,0,0,1,.642.156l-.167.341a.838.838,0,0,0-.464-.12c-.46,0-.75.286-.75.841v0a.834.834,0,0,1,.652-.254A.767.767,0,0,1,511.226,425.552Zm-.439.018c0-.254-.192-.413-.489-.413a.445.445,0,0,0-.5.417c0,.228.181.41.5.41A.421.421,0,0,0,510.788,425.57Z" transform="translate(-509.28 -423.83)" fill="#263238"/>
                </g>
                <g id="Group_94521" data-name="Group 94521" transform="translate(2.168 0.594)">
                  <path id="Path_78001" data-name="Path 78001" d="M515.26,425.76a.286.286,0,1,1,.573,0,.286.286,0,1,1-.573,0Zm0,1.327a.286.286,0,1,1,.573,0,.286.286,0,1,1-.573,0Z" transform="translate(-515.26 -425.47)" fill="#263238"/>
                </g>
                <g id="Group_94522" data-name="Group 94522" transform="translate(3.03 0.004)">
                  <path id="Path_78002" data-name="Path 78002" d="M517.64,425.094c0-.8.439-1.254,1.019-1.254s1.022.453,1.022,1.254-.439,1.254-1.022,1.254S517.64,425.9,517.64,425.094Zm1.58,0c0-.587-.228-.859-.565-.859s-.562.272-.562.859.228.859.562.859S519.22,425.681,519.22,425.094Z" transform="translate(-517.64 -423.84)" fill="#263238"/>
                </g>
                <g id="Group_94523" data-name="Group 94523" transform="translate(5.372 0.004)">
                  <path id="Path_78003" data-name="Path 78003" d="M524.1,425.094c0-.8.439-1.254,1.019-1.254s1.022.453,1.022,1.254-.439,1.254-1.022,1.254S524.1,425.9,524.1,425.094Zm1.58,0c0-.587-.228-.859-.565-.859s-.562.272-.562.859.228.859.562.859S525.68,425.681,525.68,425.094Z" transform="translate(-524.1 -423.84)" fill="#263238"/>
                </g>
              </g>
              <g id="Group_94533" data-name="Group 94533" transform="translate(136.593 96.812)">
                <g id="Group_94526" data-name="Group 94526">
                  <g id="Group_94525" data-name="Group 94525">
                    <path id="Path_78004" data-name="Path 78004" d="M539.906,424.256h-.486v-1.4h1.4v.482h-.91Z" transform="translate(-539.42 -422.86)" fill="#263238"/>
                  </g>
                </g>
                <g id="Group_94528" data-name="Group 94528" transform="translate(0 1.827)">
                  <g id="Group_94527" data-name="Group 94527">
                    <path id="Path_78005" data-name="Path 78005" d="M540.815,429.292h-1.4V427.9h.486v.906h.91Z" transform="translate(-539.42 -427.9)" fill="#263238"/>
                  </g>
                </g>
                <g id="Group_94530" data-name="Group 94530" transform="translate(2.226 1.823)">
                  <g id="Group_94529" data-name="Group 94529">
                    <path id="Path_78006" data-name="Path 78006" d="M546.956,429.286h-1.4V428.8h.91v-.91h.486Z" transform="translate(-545.56 -427.89)" fill="#263238"/>
                  </g>
                </g>
                <g id="Group_94532" data-name="Group 94532" transform="translate(2.226)">
                  <g id="Group_94531" data-name="Group 94531">
                    <path id="Path_78007" data-name="Path 78007" d="M546.959,424.252h-.486v-.91h-.913v-.482h1.4Z" transform="translate(-545.56 -422.86)" fill="#263238"/>
                  </g>
                </g>
              </g>
              <g id="Group_94538" data-name="Group 94538" transform="translate(2.808 0)">
                <g id="Group_94537" data-name="Group 94537" transform="translate(0)">
                  <g id="Group_94534" data-name="Group 94534">
                    <circle id="Ellipse_2355" data-name="Ellipse 2355" cx="2.972" cy="2.972" r="2.972" transform="matrix(0.678, -0.735, 0.735, 0.678, 0, 4.37)" fill="#e0e0e0"/>
                  </g>
                  <g id="Group_94536" data-name="Group 94536" transform="translate(1.136 1.152)">
                    <g id="Group_94535" data-name="Group 94535">
                      <path id="Path_78008" data-name="Path 78008" d="M179.5,162c-.022,0-.007-.265-.127-.718a2.965,2.965,0,0,0-1.087-1.595,2.9,2.9,0,0,0-2.744-.4A2.914,2.914,0,0,0,174.2,160.3a2.871,2.871,0,0,0-.558,1.7,2.9,2.9,0,0,0,.558,1.7,2.914,2.914,0,0,0,1.338,1.008,2.9,2.9,0,0,0,2.744-.4,2.973,2.973,0,0,0,1.087-1.595c.116-.453.105-.721.127-.718a.653.653,0,0,1,.011.192,2.363,2.363,0,0,1-.065.544,2.94,2.94,0,0,1-1.077,1.682,2.978,2.978,0,0,1-1.276.58,3.056,3.056,0,0,1-3.632-3,3.093,3.093,0,0,1,.6-1.812,3.046,3.046,0,0,1,1.425-1.062,3.025,3.025,0,0,1,2.882.457,2.94,2.94,0,0,1,1.077,1.682,2.194,2.194,0,0,1,.065.544A.6.6,0,0,1,179.5,162Z" transform="translate(-173.46 -158.95)" fill="#263238"/>
                    </g>
                  </g>
                </g>
              </g>
            </g>
            <g id="Group_94541" data-name="Group 94541" transform="translate(13.401 25.081)">
              <g id="Group_94540" data-name="Group 94540">
                <path id="Path_78009" data-name="Path 78009" d="M244.3,166.024c0,.051-10.019.094-22.375.094s-22.375-.044-22.375-.094,10.015-.094,22.375-.094S244.3,165.97,244.3,166.024Z" transform="translate(-199.55 -165.93)" fill="#263238"/>
              </g>
            </g>
          </g>
          <g id="Group_94543" data-name="Group 94543" transform="translate(108.09 20.631)">
            <circle id="Ellipse_2356" data-name="Ellipse 2356" cx="3.045" cy="3.045" r="3.045" transform="translate(0 4.306) rotate(-45)" fill="#e0e0e0"/>
          </g>
          <g id="Group_94544" data-name="Group 94544" transform="translate(117.383 20.63)">
            <circle id="Ellipse_2357" data-name="Ellipse 2357" cx="3.045" cy="3.045" r="3.045" transform="translate(0 4.306) rotate(-45)" fill="#e0e0e0"/>
          </g>
          <g id="Group_94545" data-name="Group 94545" transform="translate(127.008 20.969)">
            <circle id="Ellipse_2358" data-name="Ellipse 2358" cx="3.045" cy="3.045" r="3.045" transform="translate(0 2.318) rotate(-22.377)" fill="#e0e0e0"/>
          </g>
        </g>
      </g>
      <g id="Speech_Bubble" transform="translate(336.755 176.18)">
        <g id="Group_89760" data-name="Group 89760" transform="translate(0)">
          <g id="Group_89740" data-name="Group 89740">
            <g id="Group_89739" data-name="Group 89739">
              <g id="Group_89738" data-name="Group 89738">
                <g id="Group_89737" data-name="Group 89737">
                  <g id="Group_89731" data-name="Group 89731" transform="translate(0.11 0.102)">
                    <g id="Group_89730" data-name="Group 89730">
                      <g id="Group_89729" data-name="Group 89729">
                        <g id="Group_89728" data-name="Group 89728">
                          <path id="Path_76716" data-name="Path 76716" d="M473.539,144.908l-4.251-7.494a20.079,20.079,0,1,0-4.812,5.355l0,.01Z" transform="translate(-432.16 -106.87)" fill="#fafafa"/>
                        </g>
                      </g>
                    </g>
                  </g>
                  <g id="Group_89736" data-name="Group 89736">
                    <g id="Group_89735" data-name="Group 89735">
                      <g id="Group_89734" data-name="Group 89734">
                        <g id="Group_89733" data-name="Group 89733">
                          <g id="Group_89732" data-name="Group 89732">
                            <path id="Path_76717" data-name="Path 76717" d="M473.648,144.8c-.431-.1-3.3-.755-9.082-2.077l-.092-.019.058-.077,0-.01.087.087a20.633,20.633,0,0,1-4.125,2.488,20.072,20.072,0,0,1-5.5,1.569,18,18,0,0,1-3.176.16c-.547-.029-1.1-.044-1.665-.092-.557-.082-1.123-.169-1.694-.257a20.244,20.244,0,0,1-12.534-8.041,20.063,20.063,0,0,1-3.389-7.746,20.459,20.459,0,0,1,.237-8.923,19.786,19.786,0,0,1,4.3-8.245l.818-.9c.271-.305.591-.552.881-.833.305-.261.581-.562.91-.794l.963-.721a8.06,8.06,0,0,1,1-.658c.339-.208.678-.412,1.017-.62.358-.174.712-.344,1.065-.518a10.109,10.109,0,0,1,1.075-.479,20.414,20.414,0,0,1,8.99-1.38,19.709,19.709,0,0,1,8.25,2.44,20.342,20.342,0,0,1,9.518,11.711,21.592,21.592,0,0,1,.871,6.521,19.872,19.872,0,0,1-.983,5.63,20.313,20.313,0,0,1-2.009,4.314v-.058c2.687,4.812,4,7.16,4.207,7.528-.213-.368-1.554-2.7-4.3-7.465l-.019-.029.019-.029a20.4,20.4,0,0,0,1.975-4.3,19.85,19.85,0,0,0,.949-5.592,21.5,21.5,0,0,0-.886-6.458,20.157,20.157,0,0,0-9.441-11.571,19.539,19.539,0,0,0-8.158-2.4,20.271,20.271,0,0,0-8.879,1.37,8.98,8.98,0,0,0-1.06.474c-.349.169-.7.339-1.051.513-.334.2-.668.407-1.007.61a7.87,7.87,0,0,0-.983.654l-.949.712a11.4,11.4,0,0,0-.9.784c-.286.276-.605.523-.871.823l-.809.891a19.53,19.53,0,0,0-4.246,8.143,20.273,20.273,0,0,0-.242,8.816,19.778,19.778,0,0,0,3.34,7.659,20.075,20.075,0,0,0,12.384,7.983c.566.087,1.128.174,1.675.257.557.048,1.109.063,1.646.1a17.677,17.677,0,0,0,3.147-.15,20.005,20.005,0,0,0,5.461-1.535,20.717,20.717,0,0,0,4.11-2.445l.373-.286-.286.373,0,.01-.034-.1C470.356,144,473.218,144.7,473.648,144.8Z" transform="translate(-432.16 -106.659)" fill="#263238"/>
                          </g>
                        </g>
                      </g>
                    </g>
                  </g>
                </g>
              </g>
            </g>
          </g>
          <g id="Group_89759" data-name="Group 89759" transform="translate(10.824 17.352)">
            <g id="Group_89746" data-name="Group 89746" transform="translate(0)">
              <g id="Group_89745" data-name="Group 89745">
                <g id="Group_89744" data-name="Group 89744">
                  <g id="Group_89743" data-name="Group 89743">
                    <g id="Group_89742" data-name="Group 89742">
                      <g id="Group_89741" data-name="Group 89741">
                        <path id="Path_76718" data-name="Path 76718" d="M491.321,144.461a1.961,1.961,0,1,1-1.961-1.961A1.962,1.962,0,0,1,491.321,144.461Z" transform="translate(-487.4 -142.5)" fill="#263238"/>
                      </g>
                    </g>
                  </g>
                </g>
              </g>
            </g>
            <g id="Group_89752" data-name="Group 89752" transform="translate(7.838)">
              <g id="Group_89751" data-name="Group 89751" transform="translate(0)">
                <g id="Group_89750" data-name="Group 89750">
                  <g id="Group_89749" data-name="Group 89749">
                    <g id="Group_89748" data-name="Group 89748">
                      <g id="Group_89747" data-name="Group 89747">
                        <path id="Path_76719" data-name="Path 76719" d="M475.131,144.461a1.961,1.961,0,1,1-1.961-1.961A1.962,1.962,0,0,1,475.131,144.461Z" transform="translate(-471.21 -142.5)" fill="#263238"/>
                      </g>
                    </g>
                  </g>
                </g>
              </g>
            </g>
            <g id="Group_89758" data-name="Group 89758" transform="translate(15.922 0.002)">
              <g id="Group_89757" data-name="Group 89757" transform="translate(0)">
                <g id="Group_89756" data-name="Group 89756">
                  <g id="Group_89755" data-name="Group 89755">
                    <g id="Group_89754" data-name="Group 89754">
                      <g id="Group_89753" data-name="Group 89753">
                        <path id="Path_76720" data-name="Path 76720" d="M458.174,143.485a1.96,1.96,0,1,1-2.677-.717A1.961,1.961,0,0,1,458.174,143.485Z" transform="translate(-454.517 -142.505)" fill="#263238"/>
                      </g>
                    </g>
                  </g>
                </g>
              </g>
            </g>
          </g>
        </g>
      </g>
    </g>
  </g>
</svg>
