<svg xmlns="http://www.w3.org/2000/svg" xmlns:xlink="http://www.w3.org/1999/xlink" width="42" height="42" viewBox="0 0 42 42">
  <defs>
    <clipPath id="clip-path">
      <rect id="Rectangle_13430" data-name="Rectangle 13430" width="42" height="42" transform="translate(1095 321)" fill="#fff" stroke="#707070" stroke-width="1"/>
    </clipPath>
  </defs>
  <g id="Mask_Group_559" data-name="Mask Group 559" transform="translate(-1095 -321)" clip-path="url(#clip-path)">
    <g id="construction" transform="translate(1099 313)">
      <path id="Path_22298" data-name="Path 22298" d="M32.631,42.939V26.066H27.576v8.207H24.03l-3.152-3.152H17.2V42.939H11.5v-21.8h1.11v-1.1H23.111v3.2h1.97v-3.2h4.933l-5.9-5.922H12.606V13H4.465v1.116H.394v5.922H4.465v1.1h1.11v21.8H0v1.97H33.616v-1.97ZM23.307,16.1h0l1.962,1.967H21.34Zm-2.771-.015-1.923,1.923-1.923-1.923Zm-7.93,0h1.3l1.982,1.982H12.606ZM4.465,18.068h-2.1V16.086h2.1ZM9.526,42.939H7.545v-4.53H9.526Zm0-6.5H7.545V31.975H9.526Zm0-6.434H7.545V25.54H9.526Zm0-6.434H7.545V21.141H9.526ZM23.243,41.035h-1.97V37.95h1.97Zm6.04,0h-1.97V37.95h1.97Z" fill="#a861ad"/>
    </g>
  </g>
</svg>
