<svg xmlns="http://www.w3.org/2000/svg" xmlns:xlink="http://www.w3.org/1999/xlink" width="240" height="140" viewBox="0 0 240 140">
  <defs>
    <clipPath id="clip-path">
      <rect id="Rectangle_19537" data-name="Rectangle 19537" width="240" height="140" transform="translate(68 8)" fill="#fff" stroke="#707070" stroke-width="1"/>
    </clipPath>
    <clipPath id="clip-path-2">
      <rect id="Rectangle_19333" data-name="Rectangle 19333" width="169.719" height="252.72" fill="none"/>
    </clipPath>
    <clipPath id="clip-path-4">
      <rect id="Rectangle_19327" data-name="Rectangle 19327" width="62.526" height="42.307" fill="none"/>
    </clipPath>
    <clipPath id="clip-path-5">
      <rect id="Rectangle_19328" data-name="Rectangle 19328" width="2.623" height="12.046" fill="none"/>
    </clipPath>
  </defs>
  <g id="Mask_Group_856" data-name="Mask Group 856" transform="translate(-68 -8)" clip-path="url(#clip-path)">
    <g id="Group_117346" data-name="Group 117346" transform="translate(93.685 14.64)">
      <g id="Group_117345" data-name="Group 117345" clip-path="url(#clip-path-2)">
        <g id="Group_117344" data-name="Group 117344">
          <g id="Group_117343" data-name="Group 117343" clip-path="url(#clip-path-2)">
            <path id="Path_86621" data-name="Path 86621" d="M39.423,316.519l-15.9,14.546,18,19.879c1.794-1.835-3.7-15.571-3.7-15.571l9.935-9.608Z" transform="translate(-7.387 -99.413)" fill="#455a64"/>
            <path id="Path_86622" data-name="Path 86622" d="M36.764,333.837a1.094,1.094,0,0,0-1.434.277,1.053,1.053,0,0,0,.262,1.425,1.155,1.155,0,0,0,1.518-.3,1.092,1.092,0,0,0-.438-1.451" transform="translate(-11.043 -104.803)" fill="#fff"/>
            <path id="Path_86623" data-name="Path 86623" d="M23.52,337.022l1.661-1.536,16.576,19.775s.408,1.237-.309,1.7Z" transform="translate(-7.387 -105.37)" fill="#263238"/>
            <path id="Path_86624" data-name="Path 86624" d="M43.667,343.848c-.1.085-.584-.361-1.328-.556-.739-.215-1.383-.08-1.425-.2-.062-.106.65-.487,1.547-.235s1.315.936,1.207,1" transform="translate(-12.849 -107.657)" fill="#fff"/>
            <path id="Path_86625" data-name="Path 86625" d="M45.208,348.256c-.074.108-.619-.163-1.329-.121-.71.021-1.229.34-1.313.239-.1-.077.365-.654,1.247-.689s1.485.486,1.394.571" transform="translate(-13.365 -109.201)" fill="#fff"/>
            <path id="Path_86626" data-name="Path 86626" d="M44.335,353.094c-.123-.085.164-.614,1.019-.876.756-.237,1.38.031,1.336.145s-.582.091-1.2.291c-.623.185-1.058.528-1.154.44" transform="translate(-13.916 -110.596)" fill="#fff"/>
            <path id="Path_86627" data-name="Path 86627" d="M47.2,340.079c-.126.039-.394-.527-.929-1.042s-1.094-.786-1.056-.912c.019-.119.756-.028,1.376.587s.728,1.346.609,1.367" transform="translate(-14.202 -106.185)" fill="#fff"/>
            <path id="Path_86628" data-name="Path 86628" d="M50.112,335.264c-.039.038-.447-.292-.9-1a6.07,6.07,0,0,1-.623-1.331,6.279,6.279,0,0,1-.214-.846,1.638,1.638,0,0,1-.038-.512.57.57,0,0,1,.476-.512.715.715,0,0,1,.606.224,1.741,1.741,0,0,1,.287.42,4.751,4.751,0,0,1,.577,2.275,2.245,2.245,0,0,1-.278,1.318c-.072-.015.029-.515-.044-1.3a5.359,5.359,0,0,0-.3-1.341,5.024,5.024,0,0,0-.342-.731c-.135-.261-.3-.442-.438-.411-.054.013-.07.023-.092.123a1.334,1.334,0,0,0,.029.376,6.93,6.93,0,0,0,.176.8,7.439,7.439,0,0,0,.5,1.3,9.245,9.245,0,0,1,.615,1.158" transform="translate(-15.181 -103.978)" fill="#fff"/>
            <path id="Path_86629" data-name="Path 86629" d="M50.554,336.12c-.046-.021.128-.528.724-1.133a4.336,4.336,0,0,1,2.047-1.144,1.108,1.108,0,0,1,1.078.18.627.627,0,0,1,.1.667,1.832,1.832,0,0,1-.273.432,2.972,2.972,0,0,1-.67.608,3.087,3.087,0,0,1-1.413.506,1.734,1.734,0,0,1-1.324-.26,11.12,11.12,0,0,0,1.277-.059,3.089,3.089,0,0,0,1.22-.532,2.748,2.748,0,0,0,.559-.539c.183-.222.282-.455.189-.515a.768.768,0,0,0-.641-.053,4.412,4.412,0,0,0-.763.241,4.828,4.828,0,0,0-1.168.706c-.608.5-.878.934-.94.895" transform="translate(-15.876 -104.835)" fill="#fff"/>
            <path id="Path_86630" data-name="Path 86630" d="M41.107,336.947l.2,21.551,26.814-.114c-.168-2.561-14.061-7.645-14.061-7.645l.437-13.813Z" transform="translate(-12.911 -105.822)" fill="#455a64"/>
            <path id="Path_86631" data-name="Path 86631" d="M47.542,355.4a1.1,1.1,0,0,0-.752,1.253,1.053,1.053,0,0,0,1.236.756,1.155,1.155,0,0,0,.788-1.331,1.091,1.091,0,0,0-1.372-.643" transform="translate(-14.688 -111.61)" fill="#fff"/>
            <path id="Path_86632" data-name="Path 86632" d="M41.383,367.384l-.032-2.307,25.788.875s1.193.522,1.056,1.362Z" transform="translate(-12.988 -114.664)" fill="#263238"/>
            <path id="Path_86633" data-name="Path 86633" d="M59.509,356.808c0,.131-.658.193-1.3.617-.654.407-.984.976-1.1.925-.121-.025.071-.809.858-1.308s1.574-.353,1.547-.233" transform="translate(-17.925 -112.03)" fill="#fff"/>
            <path id="Path_86634" data-name="Path 86634" d="M63.922,358.517c.031.127-.536.352-.978.908-.458.543-.568,1.142-.7,1.137-.123.021-.217-.745.346-1.425s1.327-.744,1.331-.619" transform="translate(-19.521 -112.587)" fill="#fff"/>
            <path id="Path_86635" data-name="Path 86635" d="M67.009,362.4c-.119.029-.3-.625.03-1.344s.944-1.006,1-.9c.074.107-.322.494-.586,1.088s-.314,1.139-.444,1.153" transform="translate(-20.996 -113.113)" fill="#fff"/>
            <path id="Path_86636" data-name="Path 86636" d="M58.985,352.044c-.054.119-.656-.058-1.4-.005s-1.316.289-1.384.178c-.076-.095.484-.581,1.356-.632s1.488.357,1.424.46" transform="translate(-17.651 -110.424)" fill="#fff"/>
            <path id="Path_86637" data-name="Path 86637" d="M37.054,157.731a38.265,38.265,0,0,0-5.6,7.879c-1.846,3.856-4.683,12.069-4.683,12.069s-3.532,12.545-2.744,18.458S30.1,242.491,30.1,242.491s-1.039,32.061,3.482,46.325l.835,3.784,15.116-2.684,3.349-79.363L62.1,158.081Z" transform="translate(-7.51 -49.54)" fill="#263238"/>
            <path id="Path_86638" data-name="Path 86638" d="M70,162.032c-.064.023-.043-.494-.582-.87a1.116,1.116,0,0,0-1.036-.1,1.074,1.074,0,0,0,.034,2.006,1.118,1.118,0,0,0,1.032-.141c.525-.394.487-.91.551-.89.021,0,.059.11.036.319a1.232,1.232,0,0,1-.427.774,1.353,1.353,0,0,1-1.3.257,1.4,1.4,0,0,1-.046-2.639,1.358,1.358,0,0,1,1.309.211,1.234,1.234,0,0,1,.453.759c.031.208,0,.32-.025.32" transform="translate(-21.152 -50.46)" fill="#455a64"/>
            <path id="Path_86639" data-name="Path 86639" d="M79.649,168.779s5.544,50.312,6.342,58.951-30.565,54.718-30.565,54.718L42.194,266.814l20.189-37.53-6.8-37.382,8.952-33.728,13.916.166Z" transform="translate(-13.252 -49.68)" fill="#263238"/>
            <path id="Path_86640" data-name="Path 86640" d="M34.633,289.855a10.623,10.623,0,0,0,.108,1.1c.092.721.27,1.781.52,3.15.5,2.738,1.319,6.709,2.413,11.67l.023.1.1-.018,15.122-2.65.115-.02,0-.117C53.463,292.7,53.966,280.3,54.5,267c.558-14.309,1.076-27.577,1.5-38.462v.012c1.134-8.744,2.071-15.975,2.727-21.035.316-2.513.565-4.487.736-5.847q.117-.994.182-1.536c.039-.348.049-.528.049-.528s-.038.177-.092.523-.127.87-.223,1.531c-.189,1.358-.464,3.328-.812,5.837-.685,5.057-1.663,12.282-2.846,21.02v.012c-.442,10.885-.98,24.151-1.561,38.459-.519,13.3-1,25.7-1.409,36.076l.119-.137-15.11,2.717.128.084c-1.124-4.952-1.972-8.914-2.51-11.643-.27-1.364-.466-2.42-.578-3.137-.062-.358-.1-.631-.121-.815s-.047-.276-.047-.276" transform="translate(-10.878 -62.692)" fill="#455a64"/>
            <path id="Path_86641" data-name="Path 86641" d="M68.01,179.408a5.282,5.282,0,0,1,.827.041,3.794,3.794,0,0,0,2.127-.364,1.971,1.971,0,0,0,.855-1.144,8,8,0,0,0,.26-1.732c.108-1.255.215-2.635.311-4.086.194-2.9.3-5.532.366-7.437.032-.894.06-1.65.082-2.257a3.7,3.7,0,0,1,.071-.828,3.754,3.754,0,0,1,.069.829c.019.534.033,1.306.032,2.261,0,1.909-.068,4.548-.262,7.456-.1,1.453-.214,2.836-.34,4.093a7.893,7.893,0,0,1-.307,1.8,2.22,2.22,0,0,1-1.008,1.268,2.833,2.833,0,0,1-1.284.335,5.507,5.507,0,0,1-.984-.052,2.877,2.877,0,0,1-.814-.179" transform="translate(-21.361 -50.756)" fill="#455a64"/>
            <path id="Path_86642" data-name="Path 86642" d="M92.624,169.944a5.311,5.311,0,0,1-1.445-.765,14.987,14.987,0,0,1-5.164-5.882,5.3,5.3,0,0,1-.571-1.531,26.921,26.921,0,0,0,3.031,4.581,26.932,26.932,0,0,0,4.148,3.6" transform="translate(-26.835 -50.807)" fill="#455a64"/>
            <path id="Path_86643" data-name="Path 86643" d="M26.526,87.824,32.55,109.7l2.663,11.64c0,10.029-2.663,14.6-2.663,14.6L73.56,133.9s.673-27.752,0-33l-4.995-18.17L55.56,79.533l-16.236.311Z" transform="translate(-8.331 -24.98)" fill="#ea1c2d"/>
            <path id="Path_86644" data-name="Path 86644" d="M108.594,133.415a2.607,2.607,0,0,1-.154-1.08,7.424,7.424,0,0,1,1.8-4.869,2.6,2.6,0,0,1,.818-.722,9.84,9.84,0,0,0-2.461,6.671" transform="translate(-34.059 -39.807)" fill="#263238"/>
            <path id="Path_86645" data-name="Path 86645" d="M111.462,105.564l-10.653,6.363L94.766,96.446a71.864,71.864,0,0,0-3.491-6.638c-3.539-6.21-8.031-5.884-8.031-5.884l-5.419,8.047L83.579,104.3s3.5,22.86,10.289,24.633c10.362,2.707,17.594-23.364,17.594-23.364" transform="translate(-24.444 -26.358)" fill="#ea1c2d"/>
            <g id="Group_117339" data-name="Group 117339" transform="translate(20.503 82.344)" opacity="0.3">
              <g id="Group_117338" data-name="Group 117338">
                <g id="Group_117337" data-name="Group 117337" clip-path="url(#clip-path-4)">
                  <path id="Path_86646" data-name="Path 86646" d="M29.891,162.358c4.826-.191,9.841-2.244,13.993-4.71s7.917-5.524,11.833-8.352c9.381-6.773,28-21.617,36.7-29.245l-2.521.568-58.562,37.9Z" transform="translate(-29.891 -120.05)"/>
                </g>
              </g>
            </g>
            <path id="Path_86647" data-name="Path 86647" d="M92.653,132.231a1.712,1.712,0,0,1-.032-.4c-.007-.3-.014-.688-.024-1.159,0-1.054-.012-2.5-.02-4.261.018-3.641.042-8.589.069-14.057.007-1.375.051-2.711-.035-3.993a23.379,23.379,0,0,0-.5-3.666,19.077,19.077,0,0,0-2.519-5.711c-.917-1.545-1.648-2.812-2.082-3.723-.218-.455-.372-.815-.468-1.063a1.765,1.765,0,0,1-.126-.385,1.711,1.711,0,0,1,.192.357c.116.238.29.586.526,1.029.47.887,1.228,2.125,2.175,3.657a18.808,18.808,0,0,1,2.624,5.767,23.256,23.256,0,0,1,.532,3.718c.093,1.3.049,2.649.043,4.019-.067,5.467-.128,10.415-.174,14.056-.038,1.763-.07,3.206-.093,4.26-.018.471-.032.855-.043,1.159a1.75,1.75,0,0,1-.04.4" transform="translate(-27.296 -29.463)" fill="#263238"/>
            <path id="Path_86648" data-name="Path 86648" d="M79.995,45.553A2.74,2.74,0,0,1,77.42,44.4a3.267,3.267,0,0,0,1.978-.109c.6-.305.938-1.187.468-1.668-.366-.375-.97-.311-1.493-.349a3.229,3.229,0,0,1-2.746-2.107c-.442-1.272-.038-2.659.121-4a11.006,11.006,0,0,0-4.607-10.158l-8.376-4.842C59.727,25.061,58.78,30.3,59.41,35.2a36.931,36.931,0,0,0,5.2,13.751,16.346,16.346,0,0,0,2.527,3.478A6.474,6.474,0,0,0,70.9,54.355a3.885,3.885,0,0,0-.62-3.506,8.449,8.449,0,0,0,6.229-2.231l-1.8-1.377a6.557,6.557,0,0,0,5.277-1.689" transform="translate(-18.602 -6.65)" fill="#263238"/>
            <path id="Path_86649" data-name="Path 86649" d="M42.462,32.017a7.849,7.849,0,0,1,5.7-7.393l10.5-3c4.557-.624,7.77,4.913,8.2,9.492.478,5.088.836,10.462.349,14.284-.979,7.686-6.812,8.839-6.812,8.839s.1,3.485.159,5.719l-.1,17.064L44.96,60.283,42.438,32.111c-.006-.131.017.081.025-.094" transform="translate(-13.329 -6.776)" fill="#ffc09d"/>
            <path id="Path_86650" data-name="Path 86650" d="M75.212,43.612a.98.98,0,0,1-.916,1.019.939.939,0,0,1-1.038-.854.981.981,0,0,1,.914-1.019.938.938,0,0,1,1.039.853" transform="translate(-23.008 -13.428)" fill="#263238"/>
            <path id="Path_86651" data-name="Path 86651" d="M74.718,39.454c-.117.132-.877-.4-1.933-.36-1.055.02-1.812.587-1.932.461-.058-.056.06-.29.388-.546a2.7,2.7,0,0,1,1.542-.527,2.586,2.586,0,0,1,1.543.447c.333.239.449.467.391.526" transform="translate(-22.249 -12.086)" fill="#263238"/>
            <path id="Path_86652" data-name="Path 86652" d="M61.736,43.629a.981.981,0,0,1-.916,1.019.939.939,0,0,1-1.038-.853.982.982,0,0,1,.914-1.019.939.939,0,0,1,1.039.854" transform="translate(-18.776 -13.434)" fill="#263238"/>
            <path id="Path_86653" data-name="Path 86653" d="M60.1,39.871c-.118.132-.879-.4-1.934-.36-1.055.02-1.813.587-1.932.461-.058-.055.058-.289.389-.546a2.7,2.7,0,0,1,1.541-.527,2.587,2.587,0,0,1,1.543.447c.331.239.449.467.392.526" transform="translate(-17.659 -12.217)" fill="#263238"/>
            <path id="Path_86654" data-name="Path 86654" d="M66.685,48.246a7.005,7.005,0,0,1,1.705-.362c.268-.036.522-.1.562-.283a1.376,1.376,0,0,0-.2-.794q-.411-.966-.86-2.028a35.3,35.3,0,0,1-1.956-5.314A35.311,35.311,0,0,1,68.31,44.61q.433,1.069.827,2.041a1.557,1.557,0,0,1,.172,1.054.676.676,0,0,1-.431.408,1.866,1.866,0,0,1-.456.078,6.867,6.867,0,0,1-1.737.056" transform="translate(-20.705 -12.396)" fill="#263238"/>
            <path id="Path_86655" data-name="Path 86655" d="M53.718,65.649s2.639,5.183,10.272,4.231l-.049-1.8a19.276,19.276,0,0,1-10.224-2.432" transform="translate(-16.872 -20.619)" fill="#6f4439"/>
            <path id="Path_86656" data-name="Path 86656" d="M59.038,35.018c-.1.29-1.153.187-2.387.374-1.238.163-2.225.556-2.4.3-.078-.121.088-.4.484-.686a4.2,4.2,0,0,1,3.645-.516c.46.169.7.388.656.525" transform="translate(-17.034 -10.769)" fill="#263238"/>
            <path id="Path_86657" data-name="Path 86657" d="M74.209,34.731c-.178.246-.913.019-1.788.034-.875-.016-1.61.211-1.787-.035-.079-.119.031-.363.347-.6a2.589,2.589,0,0,1,2.882,0c.316.237.425.481.347.6" transform="translate(-22.177 -10.582)" fill="#263238"/>
            <path id="Path_86658" data-name="Path 86658" d="M61.252,54.773a1.377,1.377,0,0,1,1.392-1.086,1.438,1.438,0,0,1,1.13.756,1.767,1.767,0,0,1,.1,1.376l-.019.1a1.569,1.569,0,0,1-1.755.426,1.464,1.464,0,0,1-.851-1.571" transform="translate(-19.231 -16.861)" fill="#6f4439"/>
            <path id="Path_86659" data-name="Path 86659" d="M64.8,55.6c0-.161-1.069-.079-1.9-.931s-.8-2-.95-1.994c-.068-.01-.187.27-.163.75a2.66,2.66,0,0,0,.733,1.669,2.317,2.317,0,0,0,1.586.713c.449.005.7-.134.691-.206" transform="translate(-19.406 -16.544)" fill="#263238"/>
            <path id="Path_86660" data-name="Path 86660" d="M47.621,17.027a10.653,10.653,0,0,1,6.157-4.218A5.8,5.8,0,0,1,59.407,14.3a6.2,6.2,0,0,0,2.469,1.462c1.194.233,2.193.036,3.618.764,1.946,1,2.8,3.6,3.7,5.59,1.121,2.475,2.718,4.752,3.448,7.369s.342,5.831-1.863,7.418c.422-2.233.769-4.718-.458-6.631-.936-1.459-2.6-2.267-3.8-3.518-1.447-1.509-1.637-3.528-3.153-4.967-3.461-3.288-9.558,2.5-15.747-4.755" transform="translate(-14.957 -3.972)" fill="#263238"/>
            <path id="Path_86661" data-name="Path 86661" d="M70.529,29.531a22.349,22.349,0,0,0-3.413-6.181A12.019,12.019,0,0,0,51.136,21.3l-.6.051a10.14,10.14,0,0,0,7.884,3.8c1.8-.008,3.75-.47,5.293.455,1.483.889,2.045,2.756,3.265,3.98.831.833,1.945,1.346,2.752,2.2a9.012,9.012,0,0,1,1.7,3.3c.537-1.839-.17-3.788-.9-5.559" transform="translate(-15.872 -6.017)" fill="#263238"/>
            <path id="Path_86662" data-name="Path 86662" d="M48.146,22.485l-4.9-4.312c-3.822-.2-6.275,3.413-7.587,6.2-.975,2.073-1.279,4.392-2.013,6.561-.755,2.229-1.96,4.288-2.646,6.537s-.781,4.865.573,6.787l.856-1.572A9.5,9.5,0,0,0,35,48.558q.165-.819.329-1.639a9.226,9.226,0,0,0,3.69,3.975l2.3,6.14C44.7,46.7,35.97,45.917,48.146,22.485" transform="translate(-9.582 -5.705)" fill="#263238"/>
            <path id="Path_86663" data-name="Path 86663" d="M48.552,23.465a22.249,22.249,0,0,1-1.152,4.1,7.887,7.887,0,0,1-2.523,3.377c-1.678,1.217-3.838,1.467-5.853,1.951s-4.161,1.415-4.991,3.314a47.544,47.544,0,0,1,1.719-8.226c.9-2.959,2.194-5.975,4.661-7.841a8.542,8.542,0,0,1,8.051-1.2" transform="translate(-10.689 -5.786)" fill="#263238"/>
            <path id="Path_86664" data-name="Path 86664" d="M45.407,45.276c-.1-.257-4.861-1.822-4.78,3.186.078,4.865,4.958,3.768,4.964,3.628s-.184-6.814-.184-6.814" transform="translate(-12.76 -14.085)" fill="#ffc09d"/>
            <path id="Path_86665" data-name="Path 86665" d="M44.614,51.01c-.023-.015-.084.061-.226.13a.846.846,0,0,1-.633.025A2.1,2.1,0,0,1,42.748,49.3a2.814,2.814,0,0,1,.214-1.218.978.978,0,0,1,.626-.663.43.43,0,0,1,.5.223c.069.134.04.232.065.24s.1-.084.06-.283a.533.533,0,0,0-.2-.3.634.634,0,0,0-.471-.115,1.193,1.193,0,0,0-.871.771,2.9,2.9,0,0,0-.268,1.362,2.2,2.2,0,0,0,1.276,2.078.907.907,0,0,0,.772-.144c.149-.123.173-.233.156-.241" transform="translate(-13.319 -14.818)" fill="#6f4439"/>
            <path id="Path_86666" data-name="Path 86666" d="M44.349,54.035a.958.958,0,1,0,.229.066" transform="translate(-13.582 -16.968)" fill="#fff"/>
            <path id="Path_86667" data-name="Path 86667" d="M44.532,54.084a1.31,1.31,0,0,1,.457.641.825.825,0,0,1-.169.769.85.85,0,0,1-1.508-.433.824.824,0,0,1,.265-.741,1.311,1.311,0,0,1,.726-.3c0-.012-.076-.048-.229-.047a.99.99,0,0,0-.6.229.972.972,0,0,0-.366.888,1.045,1.045,0,0,0,1.868.537.972.972,0,0,0,.162-.947.991.991,0,0,0-.387-.514c-.13-.082-.215-.093-.219-.082" transform="translate(-13.536 -16.952)" fill="#263238"/>
            <path id="Path_86668" data-name="Path 86668" d="M53.48,23.743a14.247,14.247,0,0,0-1.9-3.141,14.212,14.212,0,0,0-2.855-2.308,2.712,2.712,0,0,1,1.026.411,7.892,7.892,0,0,1,3.462,3.966,2.706,2.706,0,0,1,.269,1.072" transform="translate(-15.303 -5.744)" fill="#455a64"/>
            <path id="Path_86669" data-name="Path 86669" d="M221.484,48.437a3.781,3.781,0,0,1,.145.592c.073.392.222.964.324,1.717a40.606,40.606,0,0,1,.51,6.405,43.741,43.741,0,0,1-.984,9.479,39.741,39.741,0,0,1-1.542,5.423A35.439,35.439,0,0,1,214.061,82.6a42.465,42.465,0,0,1-3.869,4.106,39.145,39.145,0,0,1-7.771,5.518,30.956,30.956,0,0,1-5.939,2.455c-.722.239-1.305.338-1.692.436a3.948,3.948,0,0,1-.6.115,3.928,3.928,0,0,1,.582-.185c.379-.119.956-.241,1.668-.5A33.112,33.112,0,0,0,202.3,92a39.935,39.935,0,0,0,7.669-5.537,43.064,43.064,0,0,0,3.821-4.084,35.607,35.607,0,0,0,5.819-10.441,40.166,40.166,0,0,0,1.549-5.374,45.857,45.857,0,0,0,.658-15.795c-.08-.752-.207-1.327-.257-1.724a3.833,3.833,0,0,1-.074-.6" transform="translate(-60.992 -15.213)" fill="#263238"/>
            <path id="Path_86670" data-name="Path 86670" d="M201.8,27.627a43.656,43.656,0,0,0-77.616,3.035,43.83,43.83,0,0,0,1.542,39.9,43.385,43.385,0,0,0,26.319,20.608,43.879,43.879,0,0,0,11.785,1.622,43.715,43.715,0,0,0,37.97-65.16m-27.424-16.64a39.294,39.294,0,0,1,23.836,18.665,39.69,39.69,0,0,1,1.4,36.133A39.534,39.534,0,1,1,163.7,9.519a39.764,39.764,0,0,1,10.674,1.468" transform="translate(-37.727 -1.695)" fill="#263238"/>
            <path id="Path_86671" data-name="Path 86671" d="M133.338,73.491a1.4,1.4,0,0,1-.175-.322c-.117-.254-.262-.569-.439-.952a14.1,14.1,0,0,1-.621-1.539c-.212-.611-.492-1.3-.69-2.089q-.166-.592-.345-1.233c-.116-.43-.192-.888-.295-1.357-.222-.935-.341-1.955-.49-3.024a38.086,38.086,0,0,1-.09-7.014A38.065,38.065,0,0,1,131.5,49.07c.333-1.027.628-2.01,1.01-2.893.183-.443.337-.881.527-1.284l.554-1.154c.333-.745.728-1.371,1.044-1.936a14.059,14.059,0,0,1,.88-1.407l.6-.862a1.373,1.373,0,0,1,.228-.285,1.416,1.416,0,0,1-.169.326l-.54.9a16.429,16.429,0,0,0-.824,1.431c-.3.571-.674,1.2-.99,1.947L133.294,45c-.182.4-.329.84-.5,1.281-.367.879-.648,1.857-.97,2.877a39.514,39.514,0,0,0-1.272,6.831,39.555,39.555,0,0,0,.061,6.946c.139,1.06.246,2.072.453,3,.1.466.165.921.273,1.35s.217.836.32,1.229c.182.791.442,1.477.636,2.091a16.236,16.236,0,0,0,.562,1.553c.151.392.275.715.376.975a1.445,1.445,0,0,1,.109.351" transform="translate(-40.853 -12.327)" fill="#263238"/>
            <path id="Path_86672" data-name="Path 86672" d="M142.475,99.053c-.043.084-.742-.209-1.418-.835s-1.027-1.3-.947-1.348.545.495,1.189,1.085,1.227,1.009,1.176,1.1" transform="translate(-44.002 -30.424)" fill="#263238"/>
            <path id="Path_86673" data-name="Path 86673" d="M124.149,25.906a43.051,43.051,0,1,1,60.179,55.669,43.045,43.045,0,0,1-60.179-55.669M199.573,61.03a40.141,40.141,0,1,0-16.662,18.033A40.151,40.151,0,0,0,199.573,61.03" transform="translate(-37.727 -0.314)" fill="#455a64"/>
            <path id="Path_86674" data-name="Path 86674" d="M162.93,87.525a43.962,43.962,0,0,1-11.8-1.624,43.455,43.455,0,0,1-26.359-20.641A43.9,43.9,0,0,1,123.222,25.3,43.737,43.737,0,1,1,184.36,81.859a43.509,43.509,0,0,1-21.431,5.666M162.8,1.373a42.405,42.405,0,0,0-36.836,63.214,42.371,42.371,0,1,0,73.8-41.648A42.093,42.093,0,0,0,174.231,2.944,42.59,42.59,0,0,0,162.8,1.373m.128,83.268A41.034,41.034,0,0,1,151.9,83.124a40.859,40.859,0,0,1-9.117-74.945,40.86,40.86,0,0,1,55.665,15.5A41,41,0,0,1,199.89,61,40.882,40.882,0,0,1,162.926,84.64M162.8,4.257A39.5,39.5,0,0,0,128.474,63.17a39.468,39.468,0,0,0,70.171-2.742,39.622,39.622,0,0,0-1.392-36.072,39.227,39.227,0,0,0-23.8-18.633A39.691,39.691,0,0,0,162.8,4.257" transform="translate(-37.422 0)" fill="#455a64"/>
            <path id="Path_86675" data-name="Path 86675" d="M7,154.189l-.774-1.228c-1.659-2.628.224-6.795,2.057-7.952L89.525,93.738c.409-.258,1.041.008,1.411.594l5.441,8.622a1.119,1.119,0,0,1-.071,1.53L15.538,155.459c-1.833,1.157-6.875,1.359-8.534-1.27" transform="translate(-1.756 -29.41)" fill="#455a64"/>
            <path id="Path_86676" data-name="Path 86676" d="M118,114.29l2.464-2.609s-.289-5.943.725-7.392l.529-.876s-.527-2.89,1.027-3.558c.44-1.092,1.006-1.536,1.778-.929,0,0-.435-2.174,1.594-2.464s2.609,8.914,2.609,8.914,1.015,4.131-1.3,4.131a5.2,5.2,0,0,1-2.754,1.594s-.435,2.465-2.464,2.319Z" transform="translate(-37.061 -30.295)" fill="#ffc09d"/>
            <path id="Path_86677" data-name="Path 86677" d="M124.239,116.246c.013-.011.121.075.232.294a1.664,1.664,0,0,1,.117,1.019,2.29,2.29,0,0,1-.761,1.32,4.72,4.72,0,0,1-1.618.885,11.551,11.551,0,0,1-3.229.641,4,4,0,0,1-1.361-.072,20.984,20.984,0,0,0,4.482-.872,4.774,4.774,0,0,0,1.53-.805,2.152,2.152,0,0,0,.734-1.143,2.054,2.054,0,0,0-.126-1.267" transform="translate(-36.942 -36.51)" fill="#6f4439"/>
            <path id="Path_86678" data-name="Path 86678" d="M129.169,107.795c-.1,0-.1-1.849-.548-4.07s-1.128-3.936-1.037-3.974a3.834,3.834,0,0,1,.538,1.092,16.92,16.92,0,0,1,1.13,5.737,3.843,3.843,0,0,1-.083,1.214" transform="translate(-40.069 -31.33)" fill="#6f4439"/>
            <path id="Path_86679" data-name="Path 86679" d="M126.58,109.329c-.1.007-.27-1.8-.735-3.98s-1.024-3.9-.934-3.937a19.495,19.495,0,0,1,1.669,7.917" transform="translate(-39.229 -31.851)" fill="#6f4439"/>
            <path id="Path_86680" data-name="Path 86680" d="M131.794,112.849c.073-.047.377.523.179,1.241s-.74,1.059-.781.982c-.061-.07.313-.455.47-1.065.172-.606.044-1.127.132-1.157" transform="translate(-41.203 -35.443)" fill="#6f4439"/>
            <path id="Path_86681" data-name="Path 86681" d="M123.664,111.382a12.426,12.426,0,0,1-.186-2.257,12.466,12.466,0,0,1-.093-2.264,9.456,9.456,0,0,1,.279,4.521" transform="translate(-38.742 -33.563)" fill="#6f4439"/>
            <path id="Path_86682" data-name="Path 86682" d="M42.3,142.393a7.454,7.454,0,0,1,2.383-2.181c1.617-.955,4.851-1.331,5.461-2.419s1.605.026,1.068,1.422c-.342.89-2.681,2.955-2.681,2.955a5.941,5.941,0,0,0,3.762.384c1.638-.582,7.109-1.164,7.53-.337.477.936-.932.96-1.576,1.184-.49.17-4.251,1.248-4.251,1.248s6.906,1.025,7.71,1.51c.875.527-.24,1.181-.676,1.119a11.312,11.312,0,0,0-2.618,1.418,3.169,3.169,0,0,1-2.233.453l-1.6-.27,4.752,1.4s.7.919-.542,1.1c-.552.083-15.627-.5-16.778-.639-1.99-.246-5.2-.336-5.2-.336l2.47-9Z" transform="translate(-11.564 -43.141)" fill="#ffc09d"/>
            <path id="Path_86683" data-name="Path 86683" d="M69.125,151.952a10.7,10.7,0,0,1-3.445.391,10.682,10.682,0,0,1-3.441-.425c.014-.094,1.546.1,3.442.1s3.43-.163,3.443-.069" transform="translate(-19.548 -47.707)" fill="#6f4439"/>
            <path id="Path_86684" data-name="Path 86684" d="M18.826,123.032l6.9-14.233-6.1-18.482A12.4,12.4,0,0,0,15.042,94.3c-2.176,2.949-4.525,9.22-4.525,9.22s-7.526,17.217-8.763,19.787-3.235,7.328,0,9.992,24.891,2.753,24.891,2.753l2.3-9.574Z" transform="translate(0 -28.367)" fill="#ea1c2d"/>
            <path id="Path_86685" data-name="Path 86685" d="M28.629,104.409c.094-.03,1.707,4.782,3.6,10.746s3.356,10.827,3.262,10.856-1.707-4.781-3.6-10.748-3.356-10.825-3.262-10.855" transform="translate(-8.991 -32.793)" fill="#263238"/>
            <path id="Path_86686" data-name="Path 86686" d="M32.948,141.1a3.678,3.678,0,0,1-.8-.176l-2.15-.6c-1.813-.517-4.308-1.268-7.086-1.993a28.662,28.662,0,0,0-7.2-1.207,9.285,9.285,0,0,0-2.947.582,2.762,2.762,0,0,1,.73-.384,6.975,6.975,0,0,1,2.207-.451A25.689,25.689,0,0,1,23,137.98c2.79.729,5.275,1.518,7.07,2.1.9.289,1.62.537,2.118.712a3.628,3.628,0,0,1,.762.309" transform="translate(-4.007 -42.981)" fill="#263238"/>
            <g id="Group_117342" data-name="Group 117342" transform="translate(21.147 76.321)" opacity="0.3">
              <g id="Group_117341" data-name="Group 117341">
                <g id="Group_117340" data-name="Group 117340" clip-path="url(#clip-path-5)">
                  <path id="Path_86687" data-name="Path 86687" d="M30.891,111.269a71.292,71.292,0,0,0,.62,12.046l1.943-3.9a58.168,58.168,0,0,0-2.457-7.9" transform="translate(-30.831 -111.269)"/>
                </g>
              </g>
            </g>
            <rect id="Rectangle_19329" data-name="Rectangle 19329" width="8.966" height="32.312" transform="translate(133.199 29.584)" fill="#fff4c1"/>
            <path id="Path_86824" data-name="Path 86824" d="M0,0H8.966V14.669H0Z" transform="translate(105.11 48.599)" fill="#fff4c1"/>
            <rect id="Rectangle_19331" data-name="Rectangle 19331" width="8.966" height="22.645" transform="translate(118.965 40.623)" fill="#fff4c1"/>
            <path id="Path_86688" data-name="Path 86688" d="M186.1,27.564a1.592,1.592,0,0,1-.215.285l-.665.785-2.53,2.9L173.9,41.446l-.1.11-.124-.082-5.5-3.594.234-.034-.21.248L156.563,51.744l-.077.09-.094-.069-4.375-3.249-1.178-.9a2.878,2.878,0,0,1-.4-.333,2.708,2.708,0,0,1,.439.274l1.218.844,4.442,3.157-.171.02,11.555-13.716.21-.248.1-.121.132.087,5.494,3.6-.222.029,8.887-9.827,2.605-2.834.707-.748a1.62,1.62,0,0,1,.26-.245" transform="translate(-47.251 -8.657)" fill="#263238"/>
            <path id="Path_86689" data-name="Path 86689" d="M199.49,34.179a11.986,11.986,0,0,1-.125-2.062c-.032-1.276-.053-3.041-.054-5l.207.176-.178.029c-1.973.326-3.764.6-5.062.783a12.521,12.521,0,0,1-2.114.22,12.668,12.668,0,0,1,2.073-.47c1.288-.246,3.072-.56,5.046-.886l.178-.029.208-.034v.211c0,1.959-.021,3.725-.054,5a11.986,11.986,0,0,1-.125,2.062" transform="translate(-60.355 -8.451)" fill="#263238"/>
          </g>
        </g>
      </g>
    </g>
  </g>
</svg>
