<svg xmlns="http://www.w3.org/2000/svg" xmlns:xlink="http://www.w3.org/1999/xlink" width="419" height="222" viewBox="0 0 419 222">
  <defs>
    <clipPath id="clip-path">
      <rect id="Rectangle_19534" data-name="Rectangle 19534" width="419" height="222" transform="translate(887 307)" fill="#fff" stroke="#707070" stroke-width="1"/>
    </clipPath>
    <clipPath id="clip-path-2">
      <rect id="Rectangle_19059" data-name="Rectangle 19059" width="105.551" height="73.206" transform="translate(0 0)" fill="none"/>
    </clipPath>
    <clipPath id="clip-path-3">
      <rect id="Rectangle_19055" data-name="Rectangle 19055" width="17.325" height="26.551" fill="none"/>
    </clipPath>
    <clipPath id="clip-path-4">
      <rect id="Rectangle_19063" data-name="Rectangle 19063" width="127.105" height="65.303" fill="none"/>
    </clipPath>
    <clipPath id="clip-path-5">
      <rect id="Rectangle_19062" data-name="Rectangle 19062" width="34.358" height="64.374" fill="none"/>
    </clipPath>
    <clipPath id="clip-path-6">
      <rect id="Rectangle_19061" data-name="Rectangle 19061" width="34.357" height="64.374" fill="none"/>
    </clipPath>
    <clipPath id="clip-path-7">
      <rect id="Rectangle_19060" data-name="Rectangle 19060" width="22.296" height="3.2" fill="none"/>
    </clipPath>
  </defs>
  <g id="Mask_Group_853" data-name="Mask Group 853" transform="translate(-887 -307)" clip-path="url(#clip-path)">
    <g id="Group_119045" data-name="Group 119045">
      <g id="Group_110849" data-name="Group 110849" transform="translate(1192.515 456)">
        <g id="Group_110848" data-name="Group 110848" clip-path="url(#clip-path-2)">
          <path id="Path_82121" data-name="Path 82121" d="M97.81,31.826H33.887a1.83,1.83,0,0,0-1.83,1.83V47.6a1.83,1.83,0,0,0,1.83,1.83H97.81a1.83,1.83,0,0,0,1.83-1.83V33.656a1.83,1.83,0,0,0-1.83-1.83" fill="#263238"/>
          <path id="Path_82122" data-name="Path 82122" d="M91.734,36.026H63.182a.708.708,0,0,0-.707.708v8.522a.708.708,0,0,0,.707.707H91.734a.708.708,0,0,0,.708-.707V36.734a.708.708,0,0,0-.708-.708" fill="#fff"/>
          <path id="Path_82125" data-name="Path 82125" d="M65.611,37.725a17.773,17.773,0,0,1,.157,3.331,17.773,17.773,0,0,1-.157,3.331,17.773,17.773,0,0,1-.157-3.331,17.773,17.773,0,0,1,.157-3.331" fill="#e0e0e0"/>
          <path id="Path_82126" data-name="Path 82126" d="M68.526,37.725a17.773,17.773,0,0,1,.157,3.331,17.773,17.773,0,0,1-.157,3.331,17.773,17.773,0,0,1-.157-3.331,17.773,17.773,0,0,1,.157-3.331" fill="#e0e0e0"/>
          <path id="Path_82127" data-name="Path 82127" d="M71.442,37.725a17.773,17.773,0,0,1,.157,3.331,17.773,17.773,0,0,1-.157,3.331,17.773,17.773,0,0,1-.157-3.331,17.773,17.773,0,0,1,.157-3.331" fill="#e0e0e0"/>
          <path id="Path_82128" data-name="Path 82128" d="M74.357,37.725a17.773,17.773,0,0,1,.157,3.331,17.773,17.773,0,0,1-.157,3.331,17.772,17.772,0,0,1-.157-3.331,17.772,17.772,0,0,1,.157-3.331" fill="#e0e0e0"/>
          <path id="Path_82129" data-name="Path 82129" d="M77.272,37.725a17.773,17.773,0,0,1,.157,3.331,17.773,17.773,0,0,1-.157,3.331,17.772,17.772,0,0,1-.157-3.331,17.772,17.772,0,0,1,.157-3.331" fill="#e0e0e0"/>
          <path id="Path_82130" data-name="Path 82130" d="M80.188,37.725a17.773,17.773,0,0,1,.157,3.331,17.773,17.773,0,0,1-.157,3.331,17.772,17.772,0,0,1-.157-3.331,17.772,17.772,0,0,1,.157-3.331" fill="#e0e0e0"/>
          <path id="Path_82131" data-name="Path 82131" d="M83.1,37.725a17.772,17.772,0,0,1,.157,3.331,17.772,17.772,0,0,1-.157,3.331,17.773,17.773,0,0,1-.157-3.331,17.773,17.773,0,0,1,.157-3.331" fill="#e0e0e0"/>
          <path id="Path_82132" data-name="Path 82132" d="M86.018,37.725a17.772,17.772,0,0,1,.157,3.331,17.772,17.772,0,0,1-.157,3.331,17.773,17.773,0,0,1-.157-3.331,17.773,17.773,0,0,1,.157-3.331" fill="#e0e0e0"/>
          <path id="Path_82133" data-name="Path 82133" d="M88.934,37.725a17.772,17.772,0,0,1,.157,3.331,17.772,17.772,0,0,1-.157,3.331,17.773,17.773,0,0,1-.157-3.331,17.773,17.773,0,0,1,.157-3.331" fill="#e0e0e0"/>
          <path id="Path_82134" data-name="Path 82134" d="M98.256,14.88H33.441a1.384,1.384,0,0,0-1.384,1.384V31.095a1.384,1.384,0,0,0,1.384,1.384H98.256a1.384,1.384,0,0,0,1.384-1.384V16.264a1.384,1.384,0,0,0-1.384-1.384" fill="#455a64"/>
          <path id="Path_82135" data-name="Path 82135" d="M91.734,19.081H63.183a.708.708,0,0,0-.708.708v8.522a.708.708,0,0,0,.707.707H91.734a.708.708,0,0,0,.708-.707V19.789a.708.708,0,0,0-.708-.708" fill="#fff"/>
          <path id="Path_82138" data-name="Path 82138" d="M65.611,20.779a17.782,17.782,0,0,1,.157,3.331,17.773,17.773,0,0,1-.157,3.331,17.773,17.773,0,0,1-.157-3.331,17.782,17.782,0,0,1,.157-3.331" fill="#e0e0e0"/>
          <path id="Path_82139" data-name="Path 82139" d="M68.526,20.779a17.782,17.782,0,0,1,.157,3.331,17.773,17.773,0,0,1-.157,3.331,17.773,17.773,0,0,1-.157-3.331,17.782,17.782,0,0,1,.157-3.331" fill="#e0e0e0"/>
          <path id="Path_82140" data-name="Path 82140" d="M71.442,20.779A17.782,17.782,0,0,1,71.6,24.11a17.773,17.773,0,0,1-.157,3.331,17.773,17.773,0,0,1-.157-3.331,17.782,17.782,0,0,1,.157-3.331" fill="#e0e0e0"/>
          <path id="Path_82141" data-name="Path 82141" d="M74.357,20.779a17.782,17.782,0,0,1,.157,3.331,17.773,17.773,0,0,1-.157,3.331A17.772,17.772,0,0,1,74.2,24.11a17.781,17.781,0,0,1,.157-3.331" fill="#e0e0e0"/>
          <path id="Path_82142" data-name="Path 82142" d="M77.272,20.779a17.782,17.782,0,0,1,.157,3.331,17.773,17.773,0,0,1-.157,3.331,17.772,17.772,0,0,1-.157-3.331,17.781,17.781,0,0,1,.157-3.331" fill="#e0e0e0"/>
          <path id="Path_82143" data-name="Path 82143" d="M80.188,20.779a17.782,17.782,0,0,1,.157,3.331,17.773,17.773,0,0,1-.157,3.331,17.772,17.772,0,0,1-.157-3.331,17.781,17.781,0,0,1,.157-3.331" fill="#e0e0e0"/>
          <path id="Path_82144" data-name="Path 82144" d="M83.1,20.779a17.781,17.781,0,0,1,.157,3.331,17.772,17.772,0,0,1-.157,3.331,17.773,17.773,0,0,1-.157-3.331,17.782,17.782,0,0,1,.157-3.331" fill="#e0e0e0"/>
          <path id="Path_82145" data-name="Path 82145" d="M86.018,20.779a17.781,17.781,0,0,1,.157,3.331,17.772,17.772,0,0,1-.157,3.331,17.773,17.773,0,0,1-.157-3.331,17.782,17.782,0,0,1,.157-3.331" fill="#e0e0e0"/>
          <path id="Path_82146" data-name="Path 82146" d="M88.934,20.779a17.781,17.781,0,0,1,.157,3.331,17.772,17.772,0,0,1-.157,3.331,17.773,17.773,0,0,1-.157-3.331,17.782,17.782,0,0,1,.157-3.331" fill="#e0e0e0"/>
          <path id="Path_82147" data-name="Path 82147" d="M97.928,49.519H33.769a1.711,1.711,0,0,0-1.712,1.712V65.406a1.711,1.711,0,0,0,1.712,1.712H97.928a1.712,1.712,0,0,0,1.712-1.712V51.231a1.712,1.712,0,0,0-1.712-1.712" fill="#e0e0e0"/>
          <path id="Path_82148" data-name="Path 82148" d="M91.734,53.719H63.183a.708.708,0,0,0-.708.708v8.521a.708.708,0,0,0,.708.708H91.734a.708.708,0,0,0,.708-.707V54.427a.708.708,0,0,0-.708-.708" fill="#fff"/>
          <path id="Path_82151" data-name="Path 82151" d="M65.611,55.418a17.782,17.782,0,0,1,.157,3.331,17.773,17.773,0,0,1-.157,3.331,17.773,17.773,0,0,1-.157-3.331,17.782,17.782,0,0,1,.157-3.331" fill="#e0e0e0"/>
          <path id="Path_82152" data-name="Path 82152" d="M68.526,55.418a17.782,17.782,0,0,1,.157,3.331,17.773,17.773,0,0,1-.157,3.331,17.773,17.773,0,0,1-.157-3.331,17.782,17.782,0,0,1,.157-3.331" fill="#e0e0e0"/>
          <path id="Path_82153" data-name="Path 82153" d="M71.442,55.418a17.782,17.782,0,0,1,.157,3.331,17.773,17.773,0,0,1-.157,3.331,17.773,17.773,0,0,1-.157-3.331,17.782,17.782,0,0,1,.157-3.331" fill="#e0e0e0"/>
          <path id="Path_82154" data-name="Path 82154" d="M74.357,55.418a17.782,17.782,0,0,1,.157,3.331,17.773,17.773,0,0,1-.157,3.331,17.772,17.772,0,0,1-.157-3.331,17.781,17.781,0,0,1,.157-3.331" fill="#e0e0e0"/>
          <path id="Path_82155" data-name="Path 82155" d="M77.272,55.418a17.782,17.782,0,0,1,.157,3.331,17.773,17.773,0,0,1-.157,3.331,17.772,17.772,0,0,1-.157-3.331,17.781,17.781,0,0,1,.157-3.331" fill="#e0e0e0"/>
          <path id="Path_82156" data-name="Path 82156" d="M80.188,55.418a17.782,17.782,0,0,1,.157,3.331,17.773,17.773,0,0,1-.157,3.331,17.772,17.772,0,0,1-.157-3.331,17.781,17.781,0,0,1,.157-3.331" fill="#e0e0e0"/>
          <path id="Path_82157" data-name="Path 82157" d="M83.1,55.418a17.781,17.781,0,0,1,.157,3.331A17.772,17.772,0,0,1,83.1,62.08a17.773,17.773,0,0,1-.157-3.331,17.782,17.782,0,0,1,.157-3.331" fill="#e0e0e0"/>
          <path id="Path_82158" data-name="Path 82158" d="M86.018,55.418a17.781,17.781,0,0,1,.157,3.331,17.772,17.772,0,0,1-.157,3.331,17.773,17.773,0,0,1-.157-3.331,17.782,17.782,0,0,1,.157-3.331" fill="#e0e0e0"/>
          <path id="Path_82159" data-name="Path 82159" d="M88.934,55.418a17.781,17.781,0,0,1,.157,3.331,17.772,17.772,0,0,1-.157,3.331,17.773,17.773,0,0,1-.157-3.331,17.782,17.782,0,0,1,.157-3.331" fill="#e0e0e0"/>
          <path id="Path_82160" data-name="Path 82160" d="M26.49,67.77,35.03,3.52a1.384,1.384,0,0,0-1.189-1.554L19.138.012A1.384,1.384,0,0,0,17.584,1.2l-8.54,64.25A1.384,1.384,0,0,0,10.234,67l14.7,1.954A1.383,1.383,0,0,0,26.49,67.77" fill="#a1373f"/>
          <path id="Path_82161" data-name="Path 82161" d="M23.185,60.752l3.762-28.3a.708.708,0,0,0-.608-.8l-8.448-1.123a.708.708,0,0,0-.8.608l-3.761,28.3a.706.706,0,0,0,.608.794L22.39,61.36a.707.707,0,0,0,.8-.608" fill="#fff"/>
          <path id="Path_82164" data-name="Path 82164" d="M24.944,34.633a17.832,17.832,0,0,1-3.323-.283,17.753,17.753,0,0,1-3.281-.595,17.832,17.832,0,0,1,3.323.283,17.853,17.853,0,0,1,3.281.6" fill="#e0e0e0"/>
          <path id="Path_82165" data-name="Path 82165" d="M24.56,37.523a17.828,17.828,0,0,1-3.323-.283,17.731,17.731,0,0,1-3.281-.6,17.832,17.832,0,0,1,3.323.283,17.853,17.853,0,0,1,3.281.595" fill="#e0e0e0"/>
          <path id="Path_82166" data-name="Path 82166" d="M24.176,40.413a17.832,17.832,0,0,1-3.323-.283,17.753,17.753,0,0,1-3.281-.6,17.828,17.828,0,0,1,3.323.283,17.831,17.831,0,0,1,3.281.595" fill="#e0e0e0"/>
          <path id="Path_82167" data-name="Path 82167" d="M23.792,43.3a17.828,17.828,0,0,1-3.323-.283,17.753,17.753,0,0,1-3.281-.6,17.815,17.815,0,0,1,3.322.283,17.9,17.9,0,0,1,3.282.6" fill="#e0e0e0"/>
          <path id="Path_82168" data-name="Path 82168" d="M23.407,46.192a17.833,17.833,0,0,1-3.323-.283,17.753,17.753,0,0,1-3.281-.6,17.833,17.833,0,0,1,3.323.283,17.853,17.853,0,0,1,3.281.6" fill="#e0e0e0"/>
          <path id="Path_82169" data-name="Path 82169" d="M23.023,49.082A17.828,17.828,0,0,1,19.7,48.8a17.753,17.753,0,0,1-3.281-.6,17.833,17.833,0,0,1,3.323.283,17.853,17.853,0,0,1,3.281.6" fill="#e0e0e0"/>
          <path id="Path_82170" data-name="Path 82170" d="M22.639,51.972a17.833,17.833,0,0,1-3.323-.283,17.754,17.754,0,0,1-3.281-.595,17.827,17.827,0,0,1,3.323.283,17.831,17.831,0,0,1,3.281.6" fill="#e0e0e0"/>
          <path id="Path_82171" data-name="Path 82171" d="M22.255,54.862a17.832,17.832,0,0,1-3.323-.283,17.753,17.753,0,0,1-3.281-.595,17.828,17.828,0,0,1,3.323.283,17.853,17.853,0,0,1,3.281.6" fill="#e0e0e0"/>
          <path id="Path_82172" data-name="Path 82172" d="M21.871,57.752a17.832,17.832,0,0,1-3.323-.283,17.753,17.753,0,0,1-3.281-.6,17.832,17.832,0,0,1,3.323.283,17.853,17.853,0,0,1,3.281.595" fill="#e0e0e0"/>
          <rect id="Rectangle_19058" data-name="Rectangle 19058" width="105.551" height="6.961" transform="translate(0 66.245)" fill="#455a64"/>
        </g>
      </g>
      <g id="Group_110847" data-name="Group 110847" transform="translate(1002.936 328.767)">
        <g id="Group_110860" data-name="Group 110860">
          <g id="Group_110845" data-name="Group 110845">
            <g id="Group_110861" data-name="Group 110861">
              <path id="Path_82081" data-name="Path 82081" d="M41.307,53.107A100.451,100.451,0,0,0,47.874,37.06,35.09,35.09,0,0,0,48.792,19.9c-.193-.855-2.041-6.67-2.917-6.7-.628-.022.278,5.292-.106,5.787-3.674,4.724-5.313,10.778-5.631,16.754a78.393,78.393,0,0,0,1.169,17.363" transform="translate(80.178 0.29)" fill="#263238"/>
              <path id="Path_82082" data-name="Path 82082" d="M57.224,102.313C66.14,103.321,87.6,93.956,88.8,85.064l7.228-53.51C98.431,17.24,92.1,3.913,77.726,1.911L76.386,1.8A25.947,25.947,0,0,0,48.694,23.524C46.684,35.94,44.622,49.68,44.168,56.39c-.942,13.9,12.769,17.169,12.769,17.169.031,0-.353,3.208-.855,7.263-1.127,9.112.318,19.105,1.143,21.492" transform="translate(28.96 0.038)" fill="#d3766a"/>
              <path id="Path_82083" data-name="Path 82083" d="M65.191,72.1a33.635,33.635,0,0,0,18.5-3.894S78.509,78.29,64.757,75.928Z" transform="translate(20.706 1.5)" fill="#a2655d"/>
              <path id="Path_82084" data-name="Path 82084" d="M82.013,34.908a1.988,1.988,0,0,0,1.751,2.153,1.9,1.9,0,0,0,2.187-1.624A1.989,1.989,0,0,0,84.2,33.283a1.9,1.9,0,0,0-2.189,1.625" transform="translate(0.811 0.732)" fill="#263238"/>
              <path id="Path_82085" data-name="Path 82085" d="M80.866,29.314c.225.278,1.816-.713,3.949-.537,2.133.146,3.611,1.369,3.862,1.126.124-.106-.09-.593-.732-1.144a5.447,5.447,0,0,0-3.066-1.221,5.238,5.238,0,0,0-3.169.749c-.7.451-.956.9-.844,1.026" transform="translate(-0.751 0.605)" fill="#263238"/>
              <path id="Path_82086" data-name="Path 82086" d="M62.391,36.445A1.989,1.989,0,0,0,64.143,38.6a1.9,1.9,0,0,0,2.186-1.624A1.99,1.99,0,0,0,64.58,34.82a1.9,1.9,0,0,0-2.189,1.625" transform="translate(40.487 0.766)" fill="#263238"/>
              <path id="Path_82087" data-name="Path 82087" d="M60.443,31.439c.226.278,1.818-.712,3.95-.536,2.132.146,3.61,1.368,3.862,1.126.123-.107-.088-.593-.732-1.144a5.454,5.454,0,0,0-3.067-1.222,5.249,5.249,0,0,0-3.169.749c-.694.452-.956.9-.844,1.026" transform="translate(40.543 0.652)" fill="#263238"/>
              <path id="Path_82088" data-name="Path 82088" d="M79.818,47.219a14.176,14.176,0,0,0-3.414-.9c-.541-.1-1.048-.249-1.109-.629a2.777,2.777,0,0,1,.493-1.585l1.944-4.018c2.711-5.726,4.72-10.452,4.489-10.559S79.6,33.971,76.892,39.7q-.983,2.12-1.877,4.049a3.163,3.163,0,0,0-.455,2.115,1.373,1.373,0,0,0,.832.869,3.7,3.7,0,0,0,.915.2,13.944,13.944,0,0,0,3.512.286" transform="translate(12.201 0.649)" fill="#263238"/>
              <path id="Path_82089" data-name="Path 82089" d="M57.7,23.654c.246.568,2.362.161,4.886.31,2.528.1,4.594.706,4.894.166.133-.259-.252-.783-1.1-1.3a8.51,8.51,0,0,0-7.451-.361c-.9.426-1.333.912-1.224,1.181" transform="translate(44.112 0.479)" fill="#263238"/>
              <path id="Path_82090" data-name="Path 82090" d="M79.253,24.473c.4.526,2.18.189,4.268.364,2.092.113,3.821.692,4.275.225.2-.229-.03-.74-.757-1.271a6.745,6.745,0,0,0-3.391-1.123,6.639,6.639,0,0,0-3.493.649c-.785.426-1.074.9-.9,1.157" transform="translate(1.767 0.498)" fill="#263238"/>
              <path id="Path_82091" data-name="Path 82091" d="M39.563,40.885c.245-.084,9.764-2.056,8.7,7.411s-10.349,6.444-10.334,6.171,1.634-13.581,1.634-13.581" transform="translate(83.47 0.894)" fill="#d3766a"/>
              <path id="Path_82092" data-name="Path 82092" d="M40.352,51.136c.045-.026.152.133.416.293a1.661,1.661,0,0,0,1.23.164c1.04-.256,2.061-1.749,2.3-3.449a5.482,5.482,0,0,0-.2-2.412A1.917,1.917,0,0,0,43,44.327a.843.843,0,0,0-1.024.341c-.156.251-.118.447-.17.458-.029.019-.185-.183-.064-.564a1.06,1.06,0,0,1,.438-.551,1.246,1.246,0,0,1,.939-.138,2.328,2.328,0,0,1,1.558,1.661,5.632,5.632,0,0,1,.275,2.7c-.275,1.9-1.452,3.575-2.865,3.817a1.775,1.775,0,0,1-1.48-.42c-.267-.267-.293-.483-.259-.5" transform="translate(84.34 0.964)" fill="#a2655d"/>
              <path id="Path_82093" data-name="Path 82093" d="M40.8,8.624c-1.428-1.03,3.766-5.429,7.734-6.679,6-1.889,14.87-2.423,19.93-.3C74.553,4.2,79.414,7.975,81.885,14.1a37.47,37.47,0,0,1,1.869,19.5,11.385,11.385,0,0,1-2.034,5.615c-1.575,1.931-4.269,2.94-4.508,5.837a3.987,3.987,0,0,1-1.333,2.768c-1.953,1.631-3.86-.356-4.622-2.208-1.629-3.956-1.323-8.406-.991-12.672a27.82,27.82,0,0,1,1.69-8.92c.653-1.52,1.577-2.919,2.146-4.473a5.723,5.723,0,0,0-.1-4.8,5.914,5.914,0,0,0-.674-.87,9.933,9.933,0,0,0-9.558-3.051c-5.554,1.238-14.989,2.947-17.145.852-3.1-3.015-3.712-4.81-3.712-4.81Z" transform="translate(44.879 0.006)" fill="#263238"/>
              <path id="Path_82094" data-name="Path 82094" d="M77.689,48.65c.127.035.14.559-.142,1.354A5.312,5.312,0,0,1,75.5,52.573a8.782,8.782,0,0,1-2.953,1.26c-.789.182-1.294.2-1.337.076s.39-.4,1.1-.743a19.9,19.9,0,0,0,2.621-1.418c1.9-1.244,2.46-3.2,2.756-3.1" transform="translate(20.028 1.07)" fill="#263238"/>
              <path id="Path_82095" data-name="Path 82095" d="M47.055,42.087c-.078.166-.155.339-.232.531,0,0,.087-.189.232-.531" transform="translate(75.672 0.926)" fill="#ff725e"/>
              <path id="Path_82096" data-name="Path 82096" d="M63,41.56s-1.589-2.093-3.244,1.453C61.728,38.37,74.844,4.82,38.886.393c0,0,12.987-2.291,20.822,4.169,0,0,15.916,9.522,3.291,37" transform="translate(62.97 0)" fill="#263238"/>
              <path id="Path_82097" data-name="Path 82097" d="M25.019,93.429s10.391,5.986,12.5,13.019c1.279,4.27,10.972,58.9,12.505,69.674,1.548,10.876-1.7,18.753-6.3,22.326s-18.52,8.334-18.52,8.334L5.615,213.127,0,198.836l18.649-26.791L16.845,154Z" transform="translate(120.168 2.055)" fill="#1794c9"/>
              <path id="Path_82098" data-name="Path 82098" d="M149.607,84.314l-6.479-4.779s-8.443,8.64-18.14,7.619-15.442-8.443-15.442-8.443L80.624,84.6c-1.941.389-5.48,1.615-8.864,6.45-3.776,5.4-21.671,29.316-21.671,29.316H37.555a9.3,9.3,0,0,0-8.234,4.968c-2.14,4.073-4.708,9.521-4.458,11.779.424,3.815-.312,14.293,4.806,17.564,1.623,1.037,7.43,4.149,11.936,3.937,6.649-.313,14.372-3.775,18.821-6.887,3.768-2.634,12.531-11.741,15.9-15.3l0,.055,2.164,75.871,75.83-2.159L170.033,93.753s-19.66-9.439-20.426-9.439" transform="translate(-24.846 1.731)" fill="#1794c9"/>
              <path id="Path_82099" data-name="Path 82099" d="M116.314,104.085c.107,0,.306,9.4.443,21s.16,21.008.053,21.009-.306-9.4-.443-21-.16-21.006-.053-21.007" transform="translate(-65.102 2.29)" fill="#263238"/>
              <path id="Path_82100" data-name="Path 82100" d="M51.792,164.1c0,.039-.643.1-1.79.321a22.106,22.106,0,0,0-4.7,1.5,30.541,30.541,0,0,0-6.252,3.776,54.617,54.617,0,0,0-6.586,6.091c-2.171,2.34-4.149,4.658-6.011,6.715a72.506,72.506,0,0,1-5.165,5.261,36.707,36.707,0,0,1-3.883,3.108c-.476.343-.875.567-1.134.735a2.148,2.148,0,0,1-.413.228,2.182,2.182,0,0,1,.37-.294c.244-.188.629-.431,1.089-.792a43.3,43.3,0,0,0,3.784-3.187c1.531-1.423,3.245-3.231,5.084-5.3s3.813-4.391,5.993-6.741a52.782,52.782,0,0,1,6.653-6.111,29.668,29.668,0,0,1,6.361-3.744,20.329,20.329,0,0,1,4.777-1.392,12.89,12.89,0,0,1,1.345-.154,2.133,2.133,0,0,1,.471-.017" transform="translate(102.576 3.61)" fill="#263238"/>
              <path id="Path_82101" data-name="Path 82101" d="M31.609,159.07c.01.071-1.148.23-2.955.731a27.447,27.447,0,0,0-12.419,7.4c-1.3,1.35-1.992,2.292-2.049,2.249a3.337,3.337,0,0,1,.439-.695,18.051,18.051,0,0,1,1.408-1.742,24.931,24.931,0,0,1,12.551-7.477,18.329,18.329,0,0,1,2.2-.409,3.311,3.311,0,0,1,.821-.055" transform="translate(124.475 3.499)" fill="#263238"/>
              <path id="Path_86617" data-name="Path 86617" d="M25.062,2.415A7.66,7.66,0,0,0,20.453,8.8c-.245,2.488.489,4.962.856,7.435s.306,5.108-1.346,7.289c-1.509,1.991-4.221,3.4-7.178,4.186a38.318,38.318,0,0,1-9.3,1.054,15.226,15.226,0,0,0,5.649,1.961C6.1,31.629,3.059,32.551,0,33.458c5.241,2.093,11.827,1.522,17.435-.029a30.261,30.261,0,0,0,11.7-5.723c3.038-2.649,4.792-6.147,4.119-9.543-.53-2.678-2.508-5.123-3.1-7.8C29.3,6.513,31.587,2.371,35.91,0" transform="matrix(0.809, 0.588, -0.588, 0.809, 2.849, 43.317)" fill="#18a94f"/>
              <g id="Group_110843" data-name="Group 110843" transform="translate(14.951 122.836)" opacity="0.3">
                <g id="Group_110842" data-name="Group 110842">
                  <g id="Group_110841" data-name="Group 110841" clip-path="url(#clip-path-3)">
                    <path id="Path_82102" data-name="Path 82102" d="M135.327,146.608c4.013,1.095,8.835-4.682,12.481-8.3,1.9-1.88,3.868-3.886,4.566-6.464a10.255,10.255,0,0,0-.631-6.47,23.789,23.789,0,0,0-2.668-5.185c.336,3.115,1.1,7.891.054,11.807-.874,3.267-2.944,5.866-5.14,8.331-2.324,2.609-5.071,5.348-8.662,6.276" transform="translate(-135.327 -120.192)"/>
                  </g>
                </g>
              </g>
              <path id="Path_82103" data-name="Path 82103" d="M137.7,143.308c-.076-.023.39-1.322.767-3.5a26.8,26.8,0,0,0,.368-3.853,26.485,26.485,0,0,0-1.472-9.314,26.507,26.507,0,0,0-1.537-3.552c-1.029-1.955-1.871-3.047-1.807-3.093a4.589,4.589,0,0,1,.616.745,9.745,9.745,0,0,1,.651.93c.236.375.525.79.782,1.287a23.94,23.94,0,0,1,1.633,3.563,25.111,25.111,0,0,1,1.492,9.445,24.061,24.061,0,0,1-.457,3.893c-.09.551-.238,1.035-.346,1.465a10.149,10.149,0,0,1-.332,1.085,4.587,4.587,0,0,1-.358.9" transform="translate(-105.589 2.64)" fill="#263238"/>
              <path id="Path_82104" data-name="Path 82104" d="M84.364,81.578c.052.1-.837.618-1.767,1.453s-1.552,1.649-1.647,1.586a5.7,5.7,0,0,1,3.414-3.039" transform="translate(3.495 1.794)" fill="#263238"/>
              <path id="Path_82105" data-name="Path 82105" d="M75.51,86.065c.082.082-.682.9-1.295,2.111s-.848,2.3-.963,2.282a5.578,5.578,0,0,1,2.258-4.394" transform="translate(20.239 1.893)" fill="#263238"/>
              <path id="Path_82106" data-name="Path 82106" d="M61.627,90.817a12.2,12.2,0,0,1-.869-2.262,12.2,12.2,0,0,1-.774-2.3,8.818,8.818,0,0,1,1.642,4.558" transform="translate(47.632 1.897)" fill="#263238"/>
              <path id="Path_82107" data-name="Path 82107" d="M54.537,86.807c-.115.026-.412-1.3-1.267-2.694s-1.875-2.283-1.8-2.374a6.616,6.616,0,0,1,3.066,5.068" transform="translate(63.416 1.798)" fill="#263238"/>
              <path id="Path_82108" data-name="Path 82108" d="M33.185,110.739c.106.014-1.177,10.377-2.867,23.144s-3.147,23.11-3.254,23.1,1.177-10.375,2.868-23.147,3.147-23.107,3.253-23.093" transform="translate(109.735 2.436)" fill="#263238"/>
              <path id="Path_82109" data-name="Path 82109" d="M133.569,98.663c-.524-.445,1.772-9.286,1.772-9.286s-6.083-9.926-6.243-13.128,2.4-9.766,2.4-9.766L148.951,62s5.606,10.407,6.726,14.089-1.922,16.17-1.922,16.17l-2.957,6.4s-8.914,7.045-17.228,0" transform="translate(-117.275 1.364)" fill="#d3766a"/>
              <path id="Path_82110" data-name="Path 82110" d="M132.23,78.624a38.519,38.519,0,0,1-1.839-3.875c-1.1-2.62-2.461-5.19,0-6.655a3.215,3.215,0,0,1,2.63-.415s-.377-2.205.94-3.033a2.84,2.84,0,0,1,2.588-.225s-.416-3.11,1.481-4.43a4.606,4.606,0,0,1,4.833-.138s.206-4.763,2.84-4.11c.965.24,4.249,3.128,4.249,3.128s3.065,5.326,4.512,8.215,4.31,9.465,4.548,11.207c.616,4.5-2.022,10.469-2.022,10.469l-18.551,1.076s-5.5-9.922-6.21-11.213" transform="translate(-120.373 0.903)" fill="#d3766a"/>
              <g id="Group_117311" data-name="Group 117311" transform="matrix(0.809, 0.588, -0.588, 0.809, 27.169, 9.844)">
                <g id="Group_69233" data-name="Group 69233" transform="translate(22.981 3.091)">
                  <g id="Group_69225" data-name="Group 69225" transform="translate(0 0)">
                    <g id="Group_69222" data-name="Group 69222" transform="translate(0.55 0.144)">
                      <path id="Path_67993" data-name="Path 67993" d="M12.6,2.841,0,85.419C3.2,90.424,9.441,91,18.149,87.878L30.4,3.251C25.49-1.228,19.413-.8,12.6,2.841Z" transform="translate(0 0)" fill="#fafafa"/>
                    </g>
                    <g id="Group_69224" data-name="Group 69224" transform="translate(0)">
                      <g id="Group_69223" data-name="Group 69223">
                        <path id="Path_67994" data-name="Path 67994" d="M13.153,2.985c-.02,0,.061-.059.245-.161.224-.117.469-.263.8-.439A26.223,26.223,0,0,1,17.578.936a16.034,16.034,0,0,1,6.26-.907,12.5,12.5,0,0,1,7.341,3.235l.061.059-.02.073c-2.3,16.963-6.729,48.256-11.909,83.968l-.1.673-.041.22-.265.088A27.913,27.913,0,0,1,8.32,90.261a11.558,11.558,0,0,1-5.1-1.464,9.522,9.522,0,0,1-3.161-3.1L0,85.607l.02-.1C3.671,62.072,6.892,41.42,9.2,26.579c1.183-7.347,2.141-13.246,2.814-17.373q.52-2.986.8-4.654c.1-.5.163-.893.224-1.2.061-.234.1-.381.122-.366a1.667,1.667,0,0,1-.02.424c-.041.307-.082.717-.143,1.229-.143,1.127-.367,2.693-.632,4.713-.591,4.142-1.448,10.055-2.508,17.432C7.647,41.6,4.568,62.2,1.081,85.592l-.041-.2a8.624,8.624,0,0,0,2.9,2.839,10.226,10.226,0,0,0,4.527,1.288A26.636,26.636,0,0,0,18.5,87.67l-.286.307.1-.673c5.18-35.712,9.808-66.99,12.419-83.924l.061.146A11.808,11.808,0,0,0,23.838.351a16.027,16.027,0,0,0-6.1.79A42.986,42.986,0,0,0,13.153,2.985Z" fill="#d5d0d0"/>
                      </g>
                    </g>
                  </g>
                  <g id="Group_69227" data-name="Group 69227" transform="translate(0.396 82.145)">
                    <g id="Group_69226" data-name="Group 69226" transform="translate(0 0)">
                      <path id="Path_67995" data-name="Path 67995" d="M18,6.111c-.184.029-.428-.907-1.57-2.122a10.949,10.949,0,0,0-6.321-3.1A13.622,13.622,0,0,0,2.6,2.012C.889,2.817.155,3.622.012,3.549c-.1-.029.428-.981,2.162-1.976A13.332,13.332,0,0,1,10.33.124,10.485,10.485,0,0,1,17.1,3.7C18.12,5.1,18.1,6.111,18,6.111Z" fill="#d5d0d0"/>
                    </g>
                  </g>
                  <g id="Group_69229" data-name="Group 69229" transform="translate(3.866 84.055)">
                    <g id="Group_69228" data-name="Group 69228" transform="translate(0 0)">
                      <path id="Path_67996" data-name="Path 67996" d="M12.692,1.962c.1.044-.734,1-2.936,1.786a12.6,12.6,0,0,1-4.14.688A12.588,12.588,0,0,1,3.088,4.2,5.022,5.022,0,0,1,.641,3.118,1.551,1.551,0,0,1,.314.952,3.373,3.373,0,0,1,2.8,0c1.774-.029,3.3.864,3.426,1.9a1.276,1.276,0,0,1-.714,1.215,1.922,1.922,0,0,1-1.366.146c-.734-.22-.755-.615-.673-.6.082-.029.224.249.8.322a1.339,1.339,0,0,0,.877-.176.817.817,0,0,0,.347-.834C5.372,1.333,4.169.645,2.843.718a2.169,2.169,0,0,0-1.611.615A.971.971,0,0,0,1.5,2.665C2.415,3.5,4.23,3.7,5.637,3.748a13.873,13.873,0,0,0,3.834-.483A30.967,30.967,0,0,0,12.692,1.962Z" fill="#d5d0d0"/>
                    </g>
                  </g>
                  <g id="Group_69231" data-name="Group 69231" transform="translate(10.792 1.01)">
                    <g id="Group_69230" data-name="Group 69230" transform="translate(0 0)">
                      <path id="Path_67997" data-name="Path 67997" d="M16.452,0a2.589,2.589,0,0,1-.082.834c-.122.629-.245,1.42-.428,2.386-.428,2.166-1,5.137-1.692,8.738-1.427,7.479-3.344,17.637-5.485,28.863C6.643,52.09,4.6,62.292,2.973,69.654c-.816,3.688-1.509,6.659-2.039,8.709C.689,79.314.465,80.1.3,80.719a3.118,3.118,0,0,1-.286.82A2.587,2.587,0,0,1,.1,80.7c.122-.629.245-1.42.428-2.386.428-2.166,1-5.123,1.693-8.738C3.646,62.1,5.563,51.944,7.7,40.718c2.121-11.27,4.16-21.471,5.791-28.833C14.311,8.2,15,5.225,15.534,3.176c.245-.951.469-1.742.632-2.356A3.117,3.117,0,0,1,16.452,0Z" transform="translate(0)" fill="#d5d0d0"/>
                    </g>
                  </g>
                  <g id="Group_69232" data-name="Group 69232" transform="translate(6.933 36.06)">
                    <path id="Path_67998" data-name="Path 67998" d="M0,10.072s10.155-5.2,17.15,1.566l1.162-8.665S11.2-3.188,1.122,2.227Z" transform="translate(0 0)" fill="#18a94f"/>
                  </g>
                </g>
              </g>
              <path id="Path_82111" data-name="Path 82111" d="M153.276,67.681a15.382,15.382,0,0,1,1.436,2l1.467,2.232a9.48,9.48,0,0,1,.8,1.394,2.834,2.834,0,0,1,.219,1.769,1.779,1.779,0,0,1-1.172,1.374,2.323,2.323,0,0,1-1.662-.2,7.454,7.454,0,0,1-1.239-.766c-.365-.262-.7-.513-1-.749-.6-.47-1.07-.873-1.384-1.161s-.475-.462-.459-.482c.038-.044.773.544,2.007,1.423a16.312,16.312,0,0,0,2.221,1.408,2,2,0,0,0,1.4.17,1.407,1.407,0,0,0,.909-1.1,2.491,2.491,0,0,0-.19-1.535,9.731,9.731,0,0,0-.749-1.35l-1.4-2.277a15.522,15.522,0,0,1-1.2-2.151" transform="translate(-140.262 1.489)" fill="#eb996e"/>
              <path id="Path_82115" data-name="Path 82115" d="M143.851,67.911c1.952,2.964,3.674,6.222,5.32,9.367a5.818,5.818,0,0,0,1.864,2.423c.7.433,2.45-.354,3.232-.621l-5.359-12.194" transform="translate(-130.702 1.471)" fill="#d3766a"/>
              <path id="Path_82116" data-name="Path 82116" d="M148.654,66.885a5.583,5.583,0,0,1,.476.909l1.187,2.554c.992,2.174,2.354,5.213,3.873,8.654l.084.19-.2.071a19.6,19.6,0,0,1-1.87.635,3.787,3.787,0,0,1-.82.123,1.429,1.429,0,0,1-.439-.046,1.2,1.2,0,0,1-.4-.2,4.182,4.182,0,0,1-1.079-1.154c-.551-.865-.939-1.733-1.375-2.539-.842-1.622-1.614-3.073-2.283-4.281s-1.232-2.174-1.623-2.839a7.984,7.984,0,0,1-.585-1.051,6.3,6.3,0,0,1,.713.97c.432.642,1.033,1.588,1.733,2.783s1.5,2.637,2.361,4.25c.441.8.851,1.683,1.376,2.495a3.839,3.839,0,0,0,.982,1.048,1.614,1.614,0,0,0,1.348.063c.635-.159,1.237-.41,1.839-.623l-.113.261c-1.507-3.446-2.826-6.5-3.756-8.705L149,67.85a5.559,5.559,0,0,1-.347-.965" transform="translate(-130.449 1.471)" fill="#eb996e"/>
              <path id="Path_82117" data-name="Path 82117" d="M139.3,63.391l5.168,12.96a8.854,8.854,0,0,0,1.389,2.6,3.008,3.008,0,0,0,2.6,1.134,3.075,3.075,0,0,0,2.3-2.988,9.67,9.67,0,0,0-.968-3.934,81.965,81.965,0,0,1-3.706-12.128" transform="translate(-122.535 1.343)" fill="#d3766a"/>
              <path id="Path_86619" data-name="Path 86619" d="M139.3,63.391l5.168,12.96a8.854,8.854,0,0,0,1.389,2.6,3.008,3.008,0,0,0,2.6,1.134,3.075,3.075,0,0,0,2.3-2.988,9.67,9.67,0,0,0-.968-3.934c-1.546-3.939-3.514-11.42-3.514-11.42" transform="translate(-113.721 -9.708) rotate(3)" fill="#d3766a"/>
              <path id="Path_82118" data-name="Path 82118" d="M145.89,61.034a1.668,1.668,0,0,1,.13.394c.082.3.183.683.307,1.146.268.994.656,2.431,1.2,4.187s1.249,3.83,2.139,6.091a12.573,12.573,0,0,1,1.082,3.708,4,4,0,0,1-.39,2.058,3.019,3.019,0,0,1-1.553,1.522,2.614,2.614,0,0,1-2.171-.176,4.082,4.082,0,0,1-1.526-1.437,22.881,22.881,0,0,1-1.563-3.522l-2.359-6.026-1.558-4.075c-.165-.451-.3-.82-.406-1.116a1.66,1.66,0,0,1-.117-.4,1.658,1.658,0,0,1,.189.37c.126.288.282.649.474,1.088l1.673,4.029c.7,1.722,1.524,3.751,2.435,6a23.4,23.4,0,0,0,1.548,3.445,3.707,3.707,0,0,0,1.385,1.3,2.226,2.226,0,0,0,1.851.157,2.643,2.643,0,0,0,1.348-1.33,3.636,3.636,0,0,0,.357-1.865,12.446,12.446,0,0,0-1.035-3.6c-.876-2.279-1.555-4.37-2.069-6.142s-.864-3.224-1.086-4.231c-.108-.5-.189-.9-.236-1.164a1.691,1.691,0,0,1-.053-.412" transform="translate(-122.35 1.343)" fill="#eb996e"/>
              <path id="Path_82119" data-name="Path 82119" d="M131.071,129.715c.467-1.713,11.987-32.841,11.987-32.841l19.815-6.09L154.9,120.839s1.246,7.63,0,12.146-11.211,16.817-16.351,13.858-7.941-15.416-7.474-17.129" transform="translate(-126.197 1.997)" fill="#d3766a"/>
              <g id="Group_117310" data-name="Group 117310" transform="translate(-9.488 7.968)">
                <g id="Group_68885" data-name="Group 68885" transform="translate(75.347 -17.425)">
                  <path id="Path_67854" data-name="Path 67854" d="M337.72,162.938l.127-2.781a2.705,2.705,0,0,1,2.891-2.563c14.053,1.036,77.008,5.726,78.426,6.472,1.691.891,1.127,3.909,1.127,3.909-.109.836-1.763,2.763-1.763,2.763Z" transform="translate(-337.72 -157.586)" fill="#1794c9"/>
                </g>
                <path id="Path_86616" data-name="Path 86616" d="M417.35,164.614l-76.808-5.69a2.628,2.628,0,0,0-2.345,4.127l10,14.416a2.7,2.7,0,0,0,1.909,1.127l57.265,5.526a2.639,2.639,0,0,0,2.436-1.145l9.544-14.271A2.644,2.644,0,0,0,417.35,164.614Z" transform="translate(-262.378 -173.923)" fill="#1794c9"/>
                <path id="Path_67856" data-name="Path 67856" d="M417.35,164.614l-76.808-5.69a2.628,2.628,0,0,0-2.345,4.127l10,14.416a2.7,2.7,0,0,0,1.909,1.127l57.265,5.526a2.639,2.639,0,0,0,2.436-1.145l9.544-14.271A2.644,2.644,0,0,0,417.35,164.614Z" transform="translate(-262.379 -173.924)" fill="#082836" opacity="0.58"/>
                <path id="Path_67857" data-name="Path 67857" d="M346.05,180.537c0,.182.454-3.436.454-3.581.346-8.326,7.254-14.6,16.016-14.525a95.545,95.545,0,0,1,21.561,2.618,17.7,17.7,0,0,1,13.671,15.707l.491,5.217Z" transform="translate(-257.617 -171.05)" fill="#1794c9"/>
                <g id="Group_68890" data-name="Group 68890" transform="translate(66.911 -19.57)">
                  <g id="Group_68889" data-name="Group 68889" transform="translate(0 0)">
                    <path id="Path_67858" data-name="Path 67858" d="M333.08,175.792c.036-.073.6.164,1.654.309a8.668,8.668,0,0,0,4.4-.654,13,13,0,0,0,5.236-4.036,72.285,72.285,0,0,0,4.618-6.963,21.072,21.072,0,0,1,5.726-6.345,9.053,9.053,0,0,1,6.817-1.545,6.733,6.733,0,0,1,4.127,2.272,3.05,3.05,0,0,1,.8,1.545c-.073.036-.327-.527-1.073-1.291a6.793,6.793,0,0,0-3.963-1.854,8.555,8.555,0,0,0-6.217,1.618,20.84,20.84,0,0,0-5.418,6.126,60.524,60.524,0,0,1-4.745,7.017,12.982,12.982,0,0,1-5.672,4.09,8.491,8.491,0,0,1-4.708.382A3.108,3.108,0,0,1,333.08,175.792Z" transform="translate(-333.08 -156.406)" fill="#263238"/>
                  </g>
                </g>
                <g id="Group_68891" data-name="Group 68891" transform="translate(55.84 -6.619)">
                  <path id="Path_67859" data-name="Path 67859" d="M338.625,170.093c-2.418-2.872-6.545-3.781-9.053-6.563a4.731,4.731,0,0,0,1.509,2.909c-.473.2-.982-.109-1.4-.364-.436-.254-1-.509-1.418-.218a1.383,1.383,0,0,0-.418.6,10.236,10.236,0,0,0-.854,3.818c2.381.327,4.763.527,7.144.618,1.473.055,3.8.709,4.436-.745" transform="translate(-326.99 -163.53)" fill="#263238"/>
                </g>
              </g>
              <path id="Path_86618" data-name="Path 86618" d="M148.755,77.479a6.279,6.279,0,0,0,2.28,2.221c.7.433,2.7.754,2.771-1.2s-2.771-4.964-2.771-4.964" transform="translate(-137.178 -2.24)" fill="#d3766a"/>
            </g>
          </g>
        </g>
      </g>
      <g id="Group_110858" data-name="Group 110858" transform="translate(934.863 463.647)">
        <g id="Group_110857" data-name="Group 110857" transform="translate(0 0)" clip-path="url(#clip-path-4)">
          <path id="Path_82183" data-name="Path 82183" d="M4.79.106H74.26c2.3,0,4.5,1.2,4.847,3.669l9.255,56.739h36.554a2.32,2.32,0,0,1,0,4.624H8.165L.186,5.915A4.934,4.934,0,0,1,4.79.106" transform="translate(-0.091 0.013)" fill="#e0e0e0"/>
          <path id="Path_82184" data-name="Path 82184" d="M4.7.119A5.861,5.861,0,0,0,3.5.311,4.663,4.663,0,0,0,.808,2.47,5.247,5.247,0,0,0,.092,4.941a8.108,8.108,0,0,0,.117,1.5q.108.783.224,1.629c.309,2.26.664,4.863,1.065,7.789C3.088,27.569,5.38,44.449,8.189,65.135l-.117-.1L120.949,65h3.861a1.875,1.875,0,0,0,.695-.134,2.018,2.018,0,0,0,1.032-.947,2.306,2.306,0,0,0-.368-2.663,1.869,1.869,0,0,0-1.256-.573l-1.515,0H111.366l-23.1,0h-.125l-.02-.122c-3.1-19.036-5.987-36.8-8.581-52.733l-.481-2.967c-.083-.487-.153-.989-.249-1.454a3.873,3.873,0,0,0-.58-1.3A4.235,4.235,0,0,0,75.954.506,6.07,6.07,0,0,0,74.568.251C74.1.229,73.619.241,73.146.237L62.141.229,42.581.211,14.727.168,7.274.145,5.35.132C4.918.128,4.7.119,4.7.119S4.918.11,5.35.106L7.274.093,14.727.07,42.581.026,62.141.009,73.146,0c.477,0,.946-.011,1.437.012a6.3,6.3,0,0,1,1.442.263A4.485,4.485,0,0,1,78.434,1.96a4.161,4.161,0,0,1,.618,1.378c.1.5.171.983.255,1.476q.241,1.473.485,2.966C82.4,23.712,85.3,41.471,88.413,60.5l-.144-.122,23.1,0H123.4l1.529.006a2.164,2.164,0,0,1,1.455.662,2.607,2.607,0,0,1,.421,3.016,2.323,2.323,0,0,1-1.187,1.086,2.182,2.182,0,0,1-.807.156h-3.861L8.072,65.269h-.1l-.013-.1C5.19,44.475,2.933,27.591,1.366,15.874.977,12.947.632,10.341.332,8.08Q.219,7.233.117,6.45a8,8,0,0,1-.11-1.513,5.3,5.3,0,0,1,.742-2.5A4.676,4.676,0,0,1,3.494.277a3.75,3.75,0,0,1,.9-.148c.2-.01.306-.01.306-.01" transform="translate(0.001 0)" fill="#263238"/>
          <path id="Path_82185" data-name="Path 82185" d="M81.166,30.967a4.82,4.82,0,1,1-4.82-4.82,4.82,4.82,0,0,1,4.82,4.82" transform="translate(-34.318 3.192)" fill="#fff"/>
          <path id="Path_82186" data-name="Path 82186" d="M48.32,64.5c-.109.018-2.559-14.271-5.472-31.911S37.66.634,37.768.616s2.558,14.267,5.474,31.913S48.429,64.487,48.32,64.5" transform="translate(36.406 0.075)" fill="#263238"/>
        </g>
      </g>
      <g id="Group_110856" data-name="Group 110856" transform="translate(891.047 464.647)">
        <g id="Group_110855" data-name="Group 110855" clip-path="url(#clip-path-5)">
          <g id="Group_110854" data-name="Group 110854" transform="translate(0 0)">
            <g id="Group_110853" data-name="Group 110853" clip-path="url(#clip-path-6)">
              <path id="Path_82174" data-name="Path 82174" d="M21.292,31.7a3.319,3.319,0,0,1,4.189-.1,5.708,5.708,0,0,1,2.1,4.681,12.784,12.784,0,0,1-4.767,9.446,13.137,13.137,0,0,1-5.142,2.65,1.285,1.285,0,0,0,.682,2.476,16.192,16.192,0,0,0,10.065-8.024c2.23-4.24,2.78-10.382-1.639-13.446a5.876,5.876,0,0,0-7.3.5c-1.2,1.145.622,2.959,1.815,1.815" transform="translate(4.252 7.194)" fill="#455a64"/>
              <path id="Path_82175" data-name="Path 82175" d="M.161,24.7c-.6.206.4,20.109,4.264,33.922H22.838s3.186-11.216,3.6-20.215a114.108,114.108,0,0,0,0-13.707S13.484,20.131.161,24.7" transform="translate(0 5.752)" fill="#455a64"/>
              <path id="Path_82176" data-name="Path 82176" d="M26.571,24.521a1.039,1.039,0,0,1-.255.1l-.747.234c-.325.1-.723.221-1.194.333s-1,.266-1.6.381a42.072,42.072,0,0,1-4.218.687,46.093,46.093,0,0,1-5.227.256,47.327,47.327,0,0,1-5.221-.381c-1.595-.216-3.02-.485-4.2-.762s-2.135-.533-2.782-.74L.383,24.39a1.093,1.093,0,0,1-.255-.1,1.246,1.246,0,0,1,.27.05c.2.051.451.115.759.192.653.178,1.609.407,2.793.661s2.607.5,4.2.7a50.767,50.767,0,0,0,5.194.359,49.287,49.287,0,0,0,5.2-.233c1.592-.169,3.019-.392,4.206-.631.6-.1,1.128-.241,1.6-.342s.873-.2,1.2-.291l.759-.188a1.1,1.1,0,0,1,.27-.049" transform="translate(0.032 6.163)" fill="#263238"/>
              <g id="Group_110852" data-name="Group 110852" transform="translate(2.173 29.438)" opacity="0.3">
                <g id="Group_110851" data-name="Group 110851">
                  <g id="Group_110850" data-name="Group 110850" clip-path="url(#clip-path-7)">
                    <path id="Path_82177" data-name="Path 82177" d="M24.029,25.211c-6.814-2.375-15.393-2.205-22.3-.105,0,0,6.588,1.573,10.3,1.575a44.464,44.464,0,0,0,12-1.469" transform="translate(-1.733 -23.48)"/>
                  </g>
                </g>
              </g>
              <path id="Path_82178" data-name="Path 82178" d="M19.271,52.139a.96.96,0,0,1,.028-.253c.034-.192.078-.429.129-.715.125-.657.292-1.545.5-2.624.415-2.215.964-5.281,1.374-8.693.2-1.708.341-3.339.433-4.824.07-1.487.119-2.827.1-3.953,0-.563-.018-1.072-.033-1.518s-.028-.832-.05-1.147c-.015-.291-.026-.529-.038-.725a1,1,0,0,1,.006-.255.984.984,0,0,1,.046.249c.023.194.05.433.083.722.039.315.069.7.094,1.147s.063.958.071,1.523c.045,1.13.015,2.475-.043,3.968-.079,1.492-.214,3.129-.415,4.842-.41,3.423-.989,6.491-1.449,8.7-.231,1.1-.431,2-.579,2.609-.07.283-.128.517-.176.706a.936.936,0,0,1-.078.242" transform="translate(4.889 6.961)" fill="#263238"/>
              <path id="Path_82179" data-name="Path 82179" d="M18.8,35.1a2.36,2.36,0,0,1-.292.475c-.2.3-.5.718-.881,1.235-.757,1.032-1.837,2.434-3.08,3.94s-2.416,2.833-3.286,3.774c-.434.47-.791.845-1.044,1.1A2.427,2.427,0,0,1,9.809,46a2.284,2.284,0,0,1,.337-.444l.984-1.152c.834-.969,1.981-2.311,3.223-3.815S16.695,37.7,17.488,36.7l.945-1.184A2.376,2.376,0,0,1,18.8,35.1" transform="translate(2.489 8.906)" fill="#263238"/>
              <path id="Path_82180" data-name="Path 82180" d="M16.675,34.938c.054.045-1.41,1.851-3.27,4.031s-3.411,3.912-3.464,3.867,1.41-1.851,3.27-4.032,3.41-3.91,3.464-3.865" transform="translate(2.522 8.865)" fill="#263238"/>
              <path id="Path_82181" data-name="Path 82181" d="M9.717,0s.025.013.065.048a1.505,1.505,0,0,1,.171.162,2.572,2.572,0,0,1,.485.766,4.34,4.34,0,0,1-.127,3.274A13.383,13.383,0,0,1,9.227,6.273,14.678,14.678,0,0,0,7.991,8.554a4.34,4.34,0,0,0-.263,2.753,11.14,11.14,0,0,0,1.4,2.719,8.461,8.461,0,0,1,.726,1.424,3.323,3.323,0,0,1,.216,1.558,3.032,3.032,0,0,1-.555,1.415,8.036,8.036,0,0,1-.938,1.088c-.325.328-.644.642-.927.967a5.453,5.453,0,0,0-.7,1.027,5.574,5.574,0,0,0-.573,2.15,5.721,5.721,0,0,0,.7,3.141,11.149,11.149,0,0,0,.682.992,3.793,3.793,0,0,1-.767-.942,5.66,5.66,0,0,1-.795-3.2,5.717,5.717,0,0,1,.564-2.237,5.655,5.655,0,0,1,.718-1.077c.288-.337.609-.657.93-.985a4.185,4.185,0,0,0,1.412-2.368,4.567,4.567,0,0,0-.911-2.821,11.217,11.217,0,0,1-1.427-2.788,4.562,4.562,0,0,1,.287-2.9A14.606,14.606,0,0,1,9.048,6.161a13.647,13.647,0,0,0,1.1-1.98,4.32,4.32,0,0,0,.2-3.169A3.5,3.5,0,0,0,9.717,0" transform="translate(1.572 0)" fill="#263238"/>
              <path id="Path_82182" data-name="Path 82182" d="M13.952,0s.025.013.065.048a1.505,1.505,0,0,1,.171.162,2.572,2.572,0,0,1,.485.766,4.34,4.34,0,0,1-.127,3.274,13.383,13.383,0,0,1-1.084,2.024,14.678,14.678,0,0,0-1.236,2.282,4.34,4.34,0,0,0-.263,2.753,11.14,11.14,0,0,0,1.4,2.719,8.461,8.461,0,0,1,.726,1.424,3.308,3.308,0,0,1,.216,1.558,3.032,3.032,0,0,1-.555,1.415,8.118,8.118,0,0,1-.937,1.088c-.326.328-.646.642-.928.967a5.453,5.453,0,0,0-.7,1.027,5.574,5.574,0,0,0-.573,2.15,5.721,5.721,0,0,0,.7,3.141,11.149,11.149,0,0,0,.682.992,3.793,3.793,0,0,1-.767-.942,5.66,5.66,0,0,1-.795-3.2A5.717,5.717,0,0,1,11,21.411a5.655,5.655,0,0,1,.718-1.077c.288-.337.609-.657.93-.985a4.185,4.185,0,0,0,1.412-2.368,4.567,4.567,0,0,0-.911-2.821,11.217,11.217,0,0,1-1.427-2.788,4.562,4.562,0,0,1,.287-2.9,14.606,14.606,0,0,1,1.275-2.306,13.647,13.647,0,0,0,1.1-1.98,4.32,4.32,0,0,0,.2-3.169A3.5,3.5,0,0,0,13.952,0" transform="translate(2.646 0)" fill="#263238"/>
            </g>
          </g>
        </g>
      </g>
    </g>
  </g>
</svg>
