<svg xmlns="http://www.w3.org/2000/svg" xmlns:xlink="http://www.w3.org/1999/xlink" width="42" height="42" viewBox="0 0 42 42">
  <defs>
    <clipPath id="clip-path">
      <rect id="Rectangle_13432" data-name="Rectangle 13432" width="42" height="42" transform="translate(431 500)" fill="#fff" stroke="#707070" stroke-width="1"/>
    </clipPath>
  </defs>
  <g id="Mask_Group_560" data-name="Mask Group 560" transform="translate(-431 -500)" clip-path="url(#clip-path)">
    <g id="marketing" transform="translate(434.973 504)">
      <path id="Path_13417" data-name="Path 13417" d="M234.763,0a9.809,9.809,0,1,0,9.843,9.843A9.845,9.845,0,0,0,234.763,0Zm1.027,14.288V14.5a1.025,1.025,0,1,1-2.051,0v-.1a3.716,3.716,0,0,1-1.449-.616,1.025,1.025,0,1,1,1.123-1.716,1.817,1.817,0,0,0,1.345.348.974.974,0,0,0,.974-.827.684.684,0,0,0-.514-.818,8.487,8.487,0,0,1-2.343-1.131,2.568,2.568,0,0,1,.864-4.3V5.2a1.025,1.025,0,0,1,2.051,0v.057a2.707,2.707,0,0,1,1.192.685,1.025,1.025,0,0,1-1.461,1.439,1.034,1.034,0,0,0-1.057-.113.569.569,0,0,0-.362.45.4.4,0,0,0,.04.316,7.052,7.052,0,0,0,1.761.812,2.88,2.88,0,0,1-.111,5.448Z" transform="translate(-209.583)" fill="#e557a3"/>
      <path id="Path_13418" data-name="Path 13418" d="M11.591,329.638l1.558-1.626L5.137,320l-3.453,3.384a5.755,5.755,0,0,0,0,8.081,5.746,5.746,0,0,0,8.081,0l.377-.377,1.736,1.736a1.025,1.025,0,0,0,1.45-1.45Z" transform="translate(0 -298.126)" fill="#e557a3"/>
      <path id="Path_13419" data-name="Path 13419" d="M105.37,197.332,93.339,185.3a1.026,1.026,0,0,0-1.7.4l-2.21,6.629,8.909,8.909,6.629-2.21A1.026,1.026,0,0,0,105.37,197.332Z" transform="translate(-83.293 -172.355)" fill="#e557a3"/>
    </g>
  </g>
</svg>
