<svg xmlns="http://www.w3.org/2000/svg" xmlns:xlink="http://www.w3.org/1999/xlink" width="42" height="42" viewBox="0 0 42 42">
  <defs>
    <clipPath id="clip-path">
      <rect id="Rectangle_13433" data-name="Rectangle 13433" width="42" height="42" transform="translate(-0.076)" fill="#fff" stroke="#707070" stroke-width="1"/>
    </clipPath>
  </defs>
  <g id="Mask_Group_561" data-name="Mask Group 561" transform="translate(0.076)" clip-path="url(#clip-path)">
    <g id="mental-health" transform="translate(7 5)">
      <path id="Path_22480" data-name="Path 22480" d="M136.544,128.106q.527.439,1.1.919.568-.48,1.1-.919c2.8-2.339,4.494-3.752,4.494-5.537A2.4,2.4,0,0,0,140.9,120a2.807,2.807,0,0,0-2.4,1.665l0,0h-1.714a2.81,2.81,0,0,0-2.4-1.669,2.4,2.4,0,0,0-2.329,2.569C132.05,124.354,133.741,125.767,136.544,128.106Z" transform="translate(-125.529 -112.547)" fill="#f5c353"/>
      <path id="Path_22481" data-name="Path 22481" d="M43.819,31.8V26.085h4.658a2.8,2.8,0,0,0,2.795-2.795V20.14l4.217-2.078-4.221-6.238A12.111,12.111,0,1,0,30.776,20.85V31.8ZM35.9,5.59a4.28,4.28,0,0,1,3.261,1.5,4.228,4.228,0,0,1,7.453,2.933c0,2.657-2.054,4.372-5.163,6.967-.529.442-2.29,1.939-2.29,1.939s-1.76-1.5-2.29-1.939c-3.109-2.6-5.163-4.31-5.163-6.967A4.271,4.271,0,0,1,35.9,5.59Z" transform="translate(-27.05)" fill="#f5c353"/>
    </g>
  </g>
</svg>
