<svg xmlns="http://www.w3.org/2000/svg" xmlns:xlink="http://www.w3.org/1999/xlink" width="240" height="140" viewBox="0 0 240 140">
  <defs>
    <clipPath id="clip-path">
      <rect id="Rectangle_19539" data-name="Rectangle 19539" width="240" height="140" transform="translate(68 8)" fill="#fff" stroke="#707070" stroke-width="1"/>
    </clipPath>
  </defs>
  <g id="Mask_Group_858" data-name="Mask Group 858" transform="translate(-68 -8)" clip-path="url(#clip-path)">
    <g id="_2895012" data-name="2895012" transform="translate(-17.316 -39.945)">
      <g id="Character_3" transform="translate(251.244 94.655)">
        <g id="Group_85710" data-name="Group 85710">
          <path id="Path_73450" data-name="Path 73450" d="M0,0H57.131V95.451H0Z" fill="#f5f5f5"/>
          <g id="Group_85644" data-name="Group 85644" transform="translate(13.177 56.207)">
            <path id="Path_73344" data-name="Path 73344" d="M492.668,238.27l.612,1.244,1.371.194-.992.967.233,1.366-1.225-.646-1.225.646.238-1.366-.992-.967,1.366-.194Z" transform="translate(-490.69 -238.27)" fill="#83c124"/>
            <path id="Path_73345" data-name="Path 73345" d="M506.663,238.27l.612,1.244,1.366.194-.987.967.233,1.366-1.225-.646-1.225.646.233-1.366-.992-.967,1.371-.194Z" transform="translate(-497.88 -238.27)" fill="#83c124"/>
            <path id="Path_73346" data-name="Path 73346" d="M520.658,238.27l.612,1.244,1.371.194-.992.967.233,1.366-1.225-.646-1.225.646.238-1.366-.992-.967,1.366-.194Z" transform="translate(-505.075 -238.27)" fill="#83c124"/>
            <path id="Path_73347" data-name="Path 73347" d="M534.653,238.27l.612,1.244,1.371.194-.992.967.233,1.366-1.225-.646-1.225.646.233-1.366-.991-.967,1.371-.194Z" transform="translate(-512.266 -238.27)" fill="#c4ccd2"/>
            <path id="Path_73348" data-name="Path 73348" d="M548.648,238.27l.612,1.244,1.371.194-.992.967.233,1.366-1.225-.646-1.22.646.233-1.366-.992-.967,1.366-.194Z" transform="translate(-519.461 -238.27)" fill="#c4ccd2"/>
          </g>
          <g id="Group_85651" data-name="Group 85651" transform="translate(6.858 67.27)">
            <g id="Group_85645" data-name="Group 85645">
              <path id="Path_73349" data-name="Path 73349" d="M497.064,261.156c0,.068-4.336.126-9.687.126s-9.687-.058-9.687-.126,4.336-.126,9.687-.126S497.064,261.088,497.064,261.156Z" transform="translate(-477.69 -261.03)" fill="#1581af"/>
            </g>
            <g id="Group_85646" data-name="Group 85646" transform="translate(0.51 4.209)">
              <path id="Path_73350" data-name="Path 73350" d="M521.95,269.816c0,.068-9.672.126-21.605.126s-21.605-.058-21.605-.126,9.672-.126,21.605-.126S521.95,269.743,521.95,269.816Z" transform="translate(-478.74 -269.69)" fill="#263238"/>
            </g>
            <g id="Group_85647" data-name="Group 85647" transform="translate(0.51 7.821)">
              <path id="Path_73351" data-name="Path 73351" d="M521.95,277.246c0,.068-9.672.126-21.605.126s-21.605-.058-21.605-.126,9.672-.126,21.605-.126S521.95,277.178,521.95,277.246Z" transform="translate(-478.74 -277.12)" fill="#263238"/>
            </g>
            <g id="Group_85648" data-name="Group 85648" transform="translate(0.51 11.437)">
              <path id="Path_73352" data-name="Path 73352" d="M521.95,284.686c0,.068-9.672.126-21.605.126s-21.605-.058-21.605-.126,9.672-.126,21.605-.126S521.95,284.613,521.95,284.686Z" transform="translate(-478.74 -284.56)" fill="#263238"/>
            </g>
            <g id="Group_85649" data-name="Group 85649" transform="translate(0.51 15.048)">
              <path id="Path_73353" data-name="Path 73353" d="M521.95,292.116c0,.068-9.672.126-21.605.126s-21.605-.058-21.605-.126,9.672-.126,21.605-.126S521.95,292.048,521.95,292.116Z" transform="translate(-478.74 -291.99)" fill="#263238"/>
            </g>
            <g id="Group_85650" data-name="Group 85650" transform="translate(0.51 18.664)">
              <path id="Path_73354" data-name="Path 73354" d="M521.95,299.556c0,.068-9.672.126-21.605.126s-21.605-.058-21.605-.126,9.672-.126,21.605-.126S521.95,299.483,521.95,299.556Z" transform="translate(-478.74 -299.43)" fill="#263238"/>
            </g>
          </g>
          <g id="Group_85709" data-name="Group 85709" transform="translate(3.757 4.846)">
            <rect id="Rectangle_18625" data-name="Rectangle 18625" width="49.213" height="47.244" fill="#fff"/>
            <g id="Group_85708" data-name="Group 85708" transform="translate(0.948 4.126)">
              <path id="Path_73355" data-name="Path 73355" d="M550.865,212.86l3.2,8.239h-7.748l-1.745-4.486Z" transform="translate(-509.91 -177.975)" fill="#ffbe9d"/>
              <g id="Group_85661" data-name="Group 85661" transform="translate(6.674 20.59)">
                <g id="Group_85656" data-name="Group 85656" transform="translate(0 0.286)">
                  <g id="Group_85655" data-name="Group 85655">
                    <g id="Group_85654" data-name="Group 85654">
                      <g id="Group_85653" data-name="Group 85653">
                        <g id="Group_85652" data-name="Group 85652">
                          <path id="Path_73356" data-name="Path 73356" d="M491.773,206.286h20.983c.331-3.1.53-6.027.53-6.027l1.079,2.926,8.812-4.409s-3.2-8.54-5.886-11.437c-3.388-3.655-9.483-3.291-9.483-3.291l-7.913.126a18.319,18.319,0,0,0-5.857,1.706l-.194.058v.039c-1.711,1.468-6.853,8.346-6.853,8.346l1.9,1.847,3.884,3.621a.126.126,0,0,0-.01.073C492.828,200.245,491.773,206.286,491.773,206.286Z" transform="translate(-486.99 -184.039)" fill="#0092ca"/>
                        </g>
                      </g>
                    </g>
                  </g>
                </g>
                <g id="Group_85657" data-name="Group 85657" transform="translate(12.627)">
                  <path id="Path_73357" data-name="Path 73357" d="M521.383,183.45c.01,0,.024.049.044.141a2.7,2.7,0,0,1,.054.418,4.183,4.183,0,0,1-.214,1.536,4.4,4.4,0,0,1-1.283,1.91,4.342,4.342,0,0,1-5.322.151,4.36,4.36,0,0,1-1.39-1.837,4.086,4.086,0,0,1-.3-1.521,3.538,3.538,0,0,1,.029-.418c.015-.1.024-.146.034-.141a5.3,5.3,0,0,0,.4,2.017,4.342,4.342,0,0,0,1.366,1.721,4.182,4.182,0,0,0,5.035-.141,4.357,4.357,0,0,0,1.269-1.794A5.544,5.544,0,0,0,521.383,183.45Z" transform="translate(-512.97 -183.45)" fill="#263238"/>
                </g>
                <g id="Group_85658" data-name="Group 85658" transform="translate(25.514 1.857)">
                  <path id="Path_73358" data-name="Path 73358" d="M542.5,187.289c0,.024-.214.019-.559.146a2.7,2.7,0,0,0-1.22.924,4.39,4.39,0,0,0-.792,2.143c-.117.87-.141,1.852-.18,2.873-.054,2.051.024,3.9.117,5.244.049.627.087,1.162.121,1.589a3.183,3.183,0,0,1,.024.588,2.629,2.629,0,0,1-.122-.574c-.058-.374-.136-.914-.2-1.585a41.578,41.578,0,0,1-.195-5.269,27.851,27.851,0,0,1,.2-2.9,4.5,4.5,0,0,1,.885-2.221,2.713,2.713,0,0,1,1.332-.909,2.1,2.1,0,0,1,.437-.068C542.45,187.275,542.5,187.28,542.5,187.289Z" transform="translate(-539.481 -187.27)" fill="#263238"/>
                </g>
                <g id="Group_85659" data-name="Group 85659" transform="translate(5.816 0.991)">
                  <path id="Path_73359" data-name="Path 73359" d="M502.871,185.49a3.325,3.325,0,0,1-.146.6c-.126.428-.287.962-.476,1.6-.4,1.346-.948,3.213-1.487,5.293s-.977,3.971-1.278,5.347c-.146.646-.263,1.191-.36,1.628a3.262,3.262,0,0,1-.16.593,2.609,2.609,0,0,1,.063-.612c.058-.389.151-.953.282-1.648.258-1.385.666-3.291,1.21-5.376s1.113-3.947,1.56-5.283c.224-.671.413-1.205.554-1.575A2.864,2.864,0,0,1,502.871,185.49Z" transform="translate(-498.957 -185.49)" fill="#263238"/>
                </g>
                <path id="Path_73360" data-name="Path 73360" d="M539.647,200.97l2.9,10.333-1.162.583-1.079-2.926S539.253,202.832,539.647,200.97Z" transform="translate(-514.007 -192.454)" opacity="0.2"/>
                <g id="Group_85660" data-name="Group 85660" transform="translate(9.671 0.374)" opacity="0.2">
                  <path id="Path_73361" data-name="Path 73361" d="M507.282,184.847c-1.687.855,2.455,3.072,4.345,3.052l-1.3-3.679A19.426,19.426,0,0,0,507.282,184.847Z" transform="translate(-506.887 -184.22)"/>
                </g>
              </g>
              <g id="Group_85704" data-name="Group 85704" transform="translate(13.066)">
                <g id="Group_85690" data-name="Group 85690" transform="translate(2.613 2.781)">
                  <g id="Group_85689" data-name="Group 85689">
                    <g id="Group_85682" data-name="Group 85682">
                      <g id="Group_85681" data-name="Group 85681">
                        <g id="Group_85663" data-name="Group 85663">
                          <g id="Group_85662" data-name="Group 85662">
                            <path id="Path_73362" data-name="Path 73362" d="M513.7,169.377h0a4.191,4.191,0,0,1-4.467-4.336c.049-1.351.1-2.45.1-2.45a3.974,3.974,0,0,1-3.6-3.592c-.262-3.3-.2-10.927-.2-10.927h0a11.519,11.519,0,0,1,11.636.671l.515.345-.063,16.127A4.2,4.2,0,0,1,513.7,169.377Z" transform="translate(-505.519 -146.809)" fill="#ffbe9d"/>
                            <path id="Path_86870" data-name="Path 86870" d="M7.874,19.852a.5.5,0,1,0-.707.013.5.5,0,0,0,.707-.013" transform="translate(-5.002 -13.005)" fill="#263238"/>
                            <path id="Path_86871" data-name="Path 86871" d="M5.689,18.123c.058.056.377-.226.85-.261s.833.187.881.123c.024-.029-.037-.132-.195-.236a1.168,1.168,0,0,0-1.382.11c-.139.127-.182.239-.155.264" transform="translate(-4.342 -12.298)" fill="#263238"/>
                            <path id="Path_86872" data-name="Path 86872" d="M17.045,19.1a.5.5,0,1,0,.7.117.5.5,0,0,0-.7-.117" transform="translate(-9.86 -13.005)" fill="#263238"/>
                            <path id="Path_86873" data-name="Path 86873" d="M15.6,18.145c.058.056.377-.226.851-.261s.832.187.881.123c.023-.029-.037-.132-.195-.236a1.168,1.168,0,0,0-1.382.11c-.139.127-.183.239-.155.264" transform="translate(-9.242 -12.307)" fill="#263238"/>
                            <path id="Path_86874" data-name="Path 86874" d="M11.391,22.887a2.3,2.3,0,0,0-.776-.111c-.124-.005-.223-.026-.237-.092a.669.669,0,0,1,.065-.36c.1-.321.2-.646.309-.986a13.167,13.167,0,0,0,.64-2.582,13.209,13.209,0,0,0-.9,2.5l-.289.992a.793.793,0,0,0-.033.519.323.323,0,0,0,.227.183.788.788,0,0,0,.213.014,2.3,2.3,0,0,0,.78-.08" transform="translate(-6.548 -12.883)" fill="#263238"/>
                            <path id="Path_86875" data-name="Path 86875" d="M12.1,28.019c0,.031.13.087.361.084a1.489,1.489,0,0,0,1.366-1.027c.068-.221.051-.366.02-.37-.068-.018-.187.528-.689.9a3.476,3.476,0,0,1-1.058.412" transform="translate(-7.518 -16.816)" fill="#fff"/>
                          </g>
                        </g>
                        <g id="Group_85680" data-name="Group 85680" transform="translate(3.802 14.222)">
                          <g id="Group_85679" data-name="Group 85679">
                            <path id="Path_73368" data-name="Path 73368" d="M513.34,177.587a7.689,7.689,0,0,0,4.224-1.516,4.08,4.08,0,0,1-4.175,2.372Z" transform="translate(-513.34 -176.07)" fill="#eb996e"/>
                          </g>
                        </g>
                      </g>
                    </g>
                    <g id="Group_85688" data-name="Group 85688" transform="translate(11.564 5.778)">
                      <g id="Group_85684" data-name="Group 85684">
                        <g id="Group_85683" data-name="Group 85683">
                          <path id="Path_73369" data-name="Path 73369" d="M529.752,158.717c.063-.024,2.7-.311,2.289,2.241-.36,2.207-2.732,1.531-2.732,1.458S529.752,158.717,529.752,158.717Z" transform="translate(-529.31 -158.696)" fill="#ffbe9d"/>
                        </g>
                      </g>
                      <g id="Group_85687" data-name="Group 85687" transform="translate(0.92 1.041)">
                        <g id="Group_85686" data-name="Group 85686">
                          <g id="Group_85685" data-name="Group 85685">
                            <path id="Path_73370" data-name="Path 73370" d="M531.207,162.545c.01,0,.034.029.1.063a.38.38,0,0,0,.287.029.948.948,0,0,0,.5-.817,1.21,1.21,0,0,0-.068-.554.44.44,0,0,0-.267-.316.2.2,0,0,0-.233.087c-.034.058-.024.1-.034.107s-.044-.039-.019-.131a.265.265,0,0,1,.1-.131.287.287,0,0,1,.214-.039.539.539,0,0,1,.374.369,1.3,1.3,0,0,1,.088.622.99.99,0,0,1-.627.9.423.423,0,0,1-.345-.083C531.207,162.6,531.2,162.55,531.207,162.545Z" transform="translate(-531.203 -160.839)" fill="#eb996e"/>
                          </g>
                        </g>
                      </g>
                    </g>
                  </g>
                </g>
                <g id="Group_85691" data-name="Group 85691">
                  <path id="Path_73371" data-name="Path 73371" d="M514.208,151.962a1.134,1.134,0,0,1-1.473-.608,4.34,4.34,0,0,1-.258-1.755,8.886,8.886,0,0,0-.418-2.391,1.676,1.676,0,0,0-2.571-1.225,4.1,4.1,0,0,1-1.721.423c-.783-.068-1.429-.685-2.212-.792a5.371,5.371,0,0,0-2.119.447,3.223,3.223,0,0,1-2.148-.049,1.827,1.827,0,0,1-1.142-1.711,1.3,1.3,0,0,1,1.512-1.181,1.054,1.054,0,0,1-.175-1.594,1.683,1.683,0,0,1,1.721-.345,4.389,4.389,0,0,1,1.536,1.006,1.23,1.23,0,0,1,1.176-.992,2.581,2.581,0,0,1,1.555.53c.462.311.88.69,1.371.958a10.486,10.486,0,0,0,3.227.8,3.841,3.841,0,0,1,2.795,1.619c.471.86.155,1.9.112,2.877-.044,1.021-.039,1.249-.092,2.207C514.893,150.2,514.956,151.53,514.208,151.962Z" transform="translate(-500.142 -141.089)" fill="#263238"/>
                </g>
                <g id="Group_85695" data-name="Group 85695" transform="translate(1.898 2.712)">
                  <g id="Group_85694" data-name="Group 85694">
                    <path id="Path_73373" data-name="Path 73373" d="M504.248,146.669a.451.451,0,0,0-.2.457.846.846,0,0,0,.272.54.936.936,0,0,0,.773.185,2.53,2.53,0,0,0,.9-.365,3.764,3.764,0,0,1,.982-.481,1.648,1.648,0,0,1,1.152.175c.374.185.729.452,1.113.685a2.133,2.133,0,0,0,1.259.4,2.021,2.021,0,0,0,1.113-.525,2.818,2.818,0,0,1,.933-.549,1.607,1.607,0,0,1,.928.058,1.78,1.78,0,0,1,1,.894,2,2,0,0,1,.141.486,1.159,1.159,0,0,0-.107-.5,1.793,1.793,0,0,0-1.011-.943,1.706,1.706,0,0,0-.972-.073,2.917,2.917,0,0,0-.967.559,1.974,1.974,0,0,1-1.064.5,2.082,2.082,0,0,1-1.2-.394c-.379-.233-.734-.5-1.123-.69a1.761,1.761,0,0,0-1.215-.18,3.824,3.824,0,0,0-1,.5,2.439,2.439,0,0,1-.875.365.887.887,0,0,1-.729-.16.821.821,0,0,1-.272-.506A.511.511,0,0,1,504.248,146.669Z" transform="translate(-504.048 -146.669)" fill="#455a64"/>
                  </g>
                </g>
                <g id="Group_85697" data-name="Group 85697" transform="translate(2.818 0.847)">
                  <g id="Group_85696" data-name="Group 85696">
                    <path id="Path_73374" data-name="Path 73374" d="M506.684,142.957a.2.2,0,0,0-.1-.083.42.42,0,0,0-.365,0,.449.449,0,0,0-.277.486.707.707,0,0,0,.481.578,1.458,1.458,0,0,0,.928-.039,5.043,5.043,0,0,1,1.006-.3,1.243,1.243,0,0,1,1.021.4,4.135,4.135,0,0,0,.982.8,1.619,1.619,0,0,0,1.254-.073,4.575,4.575,0,0,1,1.1-.345,2.764,2.764,0,0,1,1.867.418,2.842,2.842,0,0,1,.894.962,3.982,3.982,0,0,1,.209.442,1.916,1.916,0,0,0-.18-.457,2.746,2.746,0,0,0-2.8-1.453,4.767,4.767,0,0,0-1.128.345,1.526,1.526,0,0,1-1.186.073,4.243,4.243,0,0,1-.958-.783,1.336,1.336,0,0,0-1.089-.418,5.244,5.244,0,0,0-1.021.316,1.4,1.4,0,0,1-.885.053.649.649,0,0,1-.452-.525.41.41,0,0,1,.243-.447.419.419,0,0,1,.34-.015C506.655,142.928,506.679,142.962,506.684,142.957Z" transform="translate(-505.94 -142.831)" fill="#455a64"/>
                  </g>
                </g>
                <g id="Group_85699" data-name="Group 85699" transform="translate(13.305 2.513)">
                  <g id="Group_85698" data-name="Group 85698">
                    <path id="Path_73375" data-name="Path 73375" d="M527.533,147.3c.063.024.238-.369.671-.632s.856-.262.86-.331c0-.029-.1-.078-.292-.083a1.3,1.3,0,0,0-.7.209,1.345,1.345,0,0,0-.491.535C527.508,147.178,527.5,147.3,527.533,147.3Z" transform="translate(-527.516 -146.259)" fill="#263238"/>
                  </g>
                </g>
                <g id="Group_85701" data-name="Group 85701" transform="translate(13.417 1.113)">
                  <g id="Group_85700" data-name="Group 85700">
                    <path id="Path_73376" data-name="Path 73376" d="M528.04,143.379c-.068.019.029.515-.053,1.123s-.292,1.064-.229,1.1a1.567,1.567,0,0,0,.467-1.069A1.547,1.547,0,0,0,528.04,143.379Z" transform="translate(-527.747 -143.378)" fill="#263238"/>
                  </g>
                </g>
                <g id="Group_85703" data-name="Group 85703" transform="translate(12.471 4.635)">
                  <g id="Group_85702" data-name="Group 85702">
                    <path id="Path_73377" data-name="Path 73377" d="M527.812,155.964a1.139,1.139,0,0,0,.136-.938,2.128,2.128,0,0,0-.525-.9,1.1,1.1,0,0,1-.253-.525,1.607,1.607,0,0,1,.078-.632,2.53,2.53,0,0,0,.073-1.283,1.387,1.387,0,0,0-.588-.865,1.093,1.093,0,0,0-.68-.19.646.646,0,0,0-.253.063c.005.01.092-.024.253-.024a1.144,1.144,0,0,1,.641.209,1.332,1.332,0,0,1,.539.826,2.436,2.436,0,0,1-.083,1.239,1.853,1.853,0,0,0-.078.671,1.227,1.227,0,0,0,.277.569,2.184,2.184,0,0,1,.53.865,1.553,1.553,0,0,1,.01.685A1.163,1.163,0,0,1,527.812,155.964Z" transform="translate(-525.8 -150.624)" fill="#455a64"/>
                  </g>
                </g>
              </g>
              <g id="Group_85707" data-name="Group 85707" transform="translate(25.032 33.383)">
                <g id="Group_85705" data-name="Group 85705">
                  <path id="Path_73378" data-name="Path 73378" d="M524.867,209.882a1.812,1.812,0,0,1,.024.311c.01.228.015.51.029.841.019.719.044,1.73.054,2.945l-.034-.078c.457.428.967.9,1.5,1.395l-.126-.024c.8-.326,1.672-.676,2.576-1.04l-.078.1c.015-.078.029-.16.044-.243.282-1.531.549-2.975.778-4.229l.112.131c-1.434-.01-2.634-.034-3.495-.058q-.6-.015-1.006-.029a1.794,1.794,0,0,1-.379-.019,1.554,1.554,0,0,1,.331-.024c.267-.01.593-.019.982-.029.851-.019,2.085-.044,3.568-.058h.131l-.024.131c-.224,1.254-.476,2.7-.748,4.234-.015.083-.029.165-.044.243l-.015.068-.063.024c-.909.36-1.779.71-2.581,1.03l-.073.029-.053-.053c-.53-.505-1.031-.982-1.483-1.419l-.034-.034v-.044c.01-1.264.034-2.3.054-3.014q.015-.481.029-.817A1.063,1.063,0,0,1,524.867,209.882Z" transform="translate(-524.76 -209.77)" fill="#263238"/>
                </g>
                <g id="Group_85706" data-name="Group 85706" transform="translate(0.097 1.319)">
                  <path id="Path_73379" data-name="Path 73379" d="M529.553,212.545a8.618,8.618,0,0,1-2.294.194,8.74,8.74,0,0,1-2.3-.175,38.794,38.794,0,0,1,4.593-.019Z" transform="translate(-524.96 -212.483)" fill="#263238"/>
                </g>
              </g>
              <path id="Path_73380" data-name="Path 73380" d="M481.042,207.39c.1.1-7.782,10.892-7.782,10.892h7.723l4.734-6.494Z" transform="translate(-473.26 -175.164)" fill="#ffbe9d"/>
            </g>
          </g>
        </g>
      </g>
      <g id="Character_2" transform="translate(166.651 76.905)">
        <g id="Group_85750" data-name="Group 85750">
          <rect id="Rectangle_18626" data-name="Rectangle 18626" width="81.434" height="136.051" fill="#f5f5f5"/>
          <g id="Group_85711" data-name="Group 85711" transform="translate(18.776 80.116)">
            <path id="Path_73381" data-name="Path 73381" d="M330.994,250.94l.875,1.764,1.949.287-1.41,1.376.335,1.944-1.75-.919-1.745.919.335-1.944-1.414-1.376,1.954-.287Z" transform="translate(-328.17 -250.94)" fill="#83c124"/>
            <path id="Path_73382" data-name="Path 73382" d="M350.944,250.94l.875,1.764,1.949.287-1.41,1.376.331,1.944-1.745-.919-1.745.919.335-1.944-1.414-1.376,1.954-.287Z" transform="translate(-338.423 -250.94)" fill="#83c124"/>
            <path id="Path_73383" data-name="Path 73383" d="M370.894,250.94l.875,1.764,1.949.287-1.41,1.376.331,1.944-1.745-.919-1.745.919.335-1.944-1.414-1.376,1.954-.287Z" transform="translate(-348.676 -250.94)" fill="#83c124"/>
            <path id="Path_73384" data-name="Path 73384" d="M390.844,250.94l.875,1.764,1.949.287-1.414,1.376.335,1.944-1.745-.919-1.745.919.331-1.944-1.41-1.376,1.949-.287Z" transform="translate(-358.93 -250.94)" fill="#83c124"/>
            <path id="Path_73385" data-name="Path 73385" d="M410.794,250.94l.87,1.764,1.954.287-1.414,1.376.335,1.944-1.745-.919-1.745.919.331-1.944-1.41-1.376,1.949-.287Z" transform="translate(-369.183 -250.94)" fill="#83c124"/>
          </g>
          <g id="Group_85718" data-name="Group 85718" transform="translate(9.775 95.937)">
            <g id="Group_85712" data-name="Group 85712">
              <path id="Path_73386" data-name="Path 73386" d="M337.268,283.616c0,.068-6.183.126-13.809.126s-13.809-.058-13.809-.126,6.183-.126,13.809-.126S337.268,283.543,337.268,283.616Z" transform="translate(-309.65 -283.49)" fill="#1581af"/>
            </g>
            <g id="Group_85713" data-name="Group 85713" transform="translate(0.729 5.993)">
              <path id="Path_73387" data-name="Path 73387" d="M372.738,295.946c0,.068-13.789.126-30.792.126s-30.8-.058-30.8-.126,13.785-.126,30.8-.126S372.738,295.878,372.738,295.946Z" transform="translate(-311.15 -295.82)" fill="#263238"/>
            </g>
            <g id="Group_85714" data-name="Group 85714" transform="translate(0.729 11.145)">
              <path id="Path_73388" data-name="Path 73388" d="M372.738,306.546c0,.068-13.789.126-30.792.126s-30.8-.058-30.8-.126,13.785-.126,30.8-.126S372.738,306.478,372.738,306.546Z" transform="translate(-311.15 -306.42)" fill="#263238"/>
            </g>
            <g id="Group_85715" data-name="Group 85715" transform="translate(0.729 16.297)">
              <path id="Path_73389" data-name="Path 73389" d="M372.738,317.146c0,.068-13.789.126-30.792.126s-30.8-.058-30.8-.126,13.785-.126,30.8-.126S372.738,317.074,372.738,317.146Z" transform="translate(-311.15 -317.02)" fill="#263238"/>
            </g>
            <g id="Group_85716" data-name="Group 85716" transform="translate(0.729 21.45)">
              <path id="Path_73390" data-name="Path 73390" d="M372.738,327.746c0,.068-13.789.126-30.792.126s-30.8-.058-30.8-.126,13.785-.126,30.8-.126S372.738,327.674,372.738,327.746Z" transform="translate(-311.15 -327.62)" fill="#263238"/>
            </g>
            <g id="Group_85717" data-name="Group 85717" transform="translate(0.729 26.597)">
              <path id="Path_73391" data-name="Path 73391" d="M372.738,338.336c0,.068-13.789.126-30.792.126s-30.8-.058-30.8-.126,13.785-.126,30.8-.126S372.738,338.268,372.738,338.336Z" transform="translate(-311.15 -338.21)" fill="#263238"/>
            </g>
          </g>
          <g id="Group_85749" data-name="Group 85749" transform="translate(5.356 6.907)">
            <rect id="Rectangle_18627" data-name="Rectangle 18627" width="70.147" height="67.343" fill="#c4ccd2"/>
            <g id="Group_85729" data-name="Group 85729" transform="translate(14.343 5.416)">
              <path id="Path_73392" data-name="Path 73392" d="M362.065,117.206a7.513,7.513,0,0,1,5.487-4.9c2.5-.6,5.6-1.414,7.889-.248a6.574,6.574,0,0,1,3.364,3.291c.666,1.784-.36,5.108-.87,6.941s-.894,3.922.117,5.536c.982,1.57,2.984,2.178,4.229,3.553a4.95,4.95,0,0,1-.515,6.873c2.212-.131,4.073,2.124,4,4.336a6.372,6.372,0,0,1-3.67,5.157,14.286,14.286,0,0,1-6.465,1.215,39.451,39.451,0,0,1-8.171-.846c-2.212-.467-4.52-1.215-5.959-2.955a9.137,9.137,0,0,1-1.691-5.872c-.015-7.354,3.845-14.645,2.173-21.809" transform="translate(-345.354 -111.462)" fill="#ffeaa3"/>
              <path id="Path_73393" data-name="Path 73393" d="M348.573,118.474a7.277,7.277,0,0,0-11.354,6.878c.18,1.444.787,2.9.418,4.306-.7,2.634-4.413,3.665-4.9,6.348a7.25,7.25,0,0,0,.467,3.159,4.168,4.168,0,0,1-.073,3.14,9.178,9.178,0,0,1-1.677,1.687,5.587,5.587,0,0,0-.262,7.043,8.075,8.075,0,0,0,6.761,2.97,14.9,14.9,0,0,0,7.189-2.455" transform="translate(-330.068 -114.422)" fill="#ffeaa3"/>
              <g id="Group_85723" data-name="Group 85723" transform="translate(13.134 5.799)">
                <g id="Group_85722" data-name="Group 85722">
                  <g id="Group_85721" data-name="Group 85721">
                    <g id="Group_85719" data-name="Group 85719">
                      <path id="Path_73394" data-name="Path 73394" d="M357.09,124.6l.034,1.75.35,26.184a5.616,5.616,0,0,0,5.94,5.356h0a5.933,5.933,0,0,0,5.964-5.687c.01-3.223.078-6.615.078-6.615s4.151-.69,5.011-6.11a57.818,57.818,0,0,0,.063-10.722,5.716,5.716,0,0,0-6.309-5.332Z" transform="translate(-357.09 -123.393)" fill="#ffc09d"/>
                      <path id="Path_86844" data-name="Path 86844" d="M30.058,16.666a.65.65,0,0,1-.627.656.622.622,0,0,1-.67-.586.65.65,0,0,1,.626-.656.623.623,0,0,1,.671.587" transform="translate(-15.204 -6.761)" fill="#263238"/>
                      <path id="Path_86845" data-name="Path 86845" d="M30.85,14.95c-.081.085-.573-.28-1.273-.278s-1.213.352-1.289.266c-.037-.038.045-.191.269-.354a1.785,1.785,0,0,1,1.031-.318,1.715,1.715,0,0,1,1.013.327c.215.165.288.319.248.357" transform="translate(-14.943 -5.772)" fill="#263238"/>
                      <path id="Path_86846" data-name="Path 86846" d="M15.239,16.666a.65.65,0,0,1-.627.656.621.621,0,0,1-.67-.586.65.65,0,0,1,.626-.656.623.623,0,0,1,.671.587" transform="translate(-7.126 -6.761)" fill="#263238"/>
                      <path id="Path_86847" data-name="Path 86847" d="M15.728,15.237c-.081.085-.574-.28-1.273-.278s-1.213.352-1.289.266c-.037-.038.044-.191.269-.354a1.784,1.784,0,0,1,1.031-.318,1.717,1.717,0,0,1,1.013.327c.215.165.288.319.248.357" transform="translate(-6.699 -5.929)" fill="#263238"/>
                      <path id="Path_86848" data-name="Path 86848" d="M24,20.477a4.611,4.611,0,0,1,1.137-.205c.179-.018.347-.054.378-.176a.91.91,0,0,0-.12-.529l-.528-1.36a23.327,23.327,0,0,1-1.187-3.559A23.456,23.456,0,0,1,25.15,18.1c.176.478.346.933.506,1.369a1.031,1.031,0,0,1,.093.7.449.449,0,0,1-.294.262,1.194,1.194,0,0,1-.3.042,4.571,4.571,0,0,1-1.152,0" transform="translate(-12.431 -5.979)" fill="#263238"/>
                      <path id="Path_86850" data-name="Path 86850" d="M21.239,30.6a1.26,1.26,0,0,0-1.13-.468,1.149,1.149,0,0,0-.8.426.731.731,0,0,0-.055.834.847.847,0,0,0,.917.232,2.648,2.648,0,0,0,.894-.534.772.772,0,0,0,.2-.207.234.234,0,0,0,0-.261" transform="translate(-9.966 -14.42)" fill="#aa6550"/>
                      <path id="Path_86851" data-name="Path 86851" d="M19.728,28.529c.114-.006.115.753.765,1.292s1.459.456,1.465.562c.01.047-.181.147-.522.156a1.89,1.89,0,0,1-1.223-.426,1.648,1.648,0,0,1-.593-1.083c-.029-.317.056-.506.108-.5" transform="translate(-10.219 -13.548)" fill="#263238"/>
                      <path id="Path_86852" data-name="Path 86852" d="M15.378,9.4c-.069.19-.768.1-1.589.2-.823.082-1.485.322-1.594.152-.049-.081.067-.261.334-.445a2.784,2.784,0,0,1,2.425-.267c.3.121.453.271.423.361" transform="translate(-6.168 -2.833)" fill="#263238"/>
                      <path id="Path_86853" data-name="Path 86853" d="M30.509,10.448c-.123.159-.6-.006-1.185-.014-.579-.028-1.07.106-1.183-.06-.05-.081.028-.24.242-.39a1.714,1.714,0,0,1,1.908.059c.205.163.272.327.218.4" transform="translate(-14.859 -3.296)" fill="#263238"/>
                    </g>
                    <g id="Group_85720" data-name="Group 85720" transform="translate(5.113 20.262)">
                      <path id="Path_73395" data-name="Path 73395" d="M374.867,167.015a13.81,13.81,0,0,1-7.257-1.935s1.76,3.723,7.184,3.213Z" transform="translate(-367.61 -165.08)" fill="#aa6550"/>
                    </g>
                  </g>
                </g>
              </g>
              <g id="Group_85724" data-name="Group 85724" transform="translate(17.528 4.387)">
                <path id="Path_73396" data-name="Path 73396" d="M366.144,120.572a.115.115,0,0,1,.136-.078.117.117,0,0,1,.034.151.115.115,0,0,1-.136.078A.108.108,0,0,1,366.144,120.572Z" transform="translate(-366.129 -120.489)" fill="#263238"/>
              </g>
              <path id="Path_73397" data-name="Path 73397" d="M354.682,148.83a5.9,5.9,0,0,0,3.461-3.5,8,8,0,0,0,.117-4.992,3.36,3.36,0,0,1-.185-2.289,4.383,4.383,0,0,1,1.181-1.215,5.051,5.051,0,0,0,1.536-3.417,8.806,8.806,0,0,0-.685-3.747,2.985,2.985,0,0,1-.331-2.037,3.176,3.176,0,0,1,.943-1.142,8.845,8.845,0,0,0,1.881-2.518,2.514,2.514,0,0,0,.258-2.148,2.647,2.647,0,0,0-2.314-1.137c-2.143-.165-4.515.311-5.881,1.973-1.225,1.492-1.366,3.568-1.453,5.492-.272,6.071-.544,12.2.506,18.183" transform="translate(-341.834 -116.188)" fill="#ffeaa3"/>
              <g id="Group_85725" data-name="Group 85725" transform="translate(19.464 4.017)">
                <path id="Path_73398" data-name="Path 73398" d="M383.288,122.115a8.541,8.541,0,0,1-.928.5,5.8,5.8,0,0,0-.783.68c-.141.136-.292.282-.428.437-.034.039-.058.078-.1.122l-.151.156c-.122.117-.248.233-.374.355a8.9,8.9,0,0,1-1.162.914,6.082,6.082,0,0,1-2.017.88,6.26,6.26,0,0,1-4.112-.5,6.425,6.425,0,0,1-2.255-1.808c-.924-1.23-1.064-2.226-.642-2.766.437-.559,1.492-.462,2.693-.17a15.021,15.021,0,0,0,1.774.35,4.182,4.182,0,0,0,1.41-.039,3.309,3.309,0,0,0,.656-.233c.3-.136.68-.335,1.118-.544.219-.1.452-.209.7-.3.122-.049.253-.092.379-.136s.287-.1.428-.131a4.715,4.715,0,0,1,1.623-.131,2.931,2.931,0,0,1,2.216,1.157A.9.9,0,0,1,383.288,122.115Z" transform="translate(-370.112 -119.727)" fill="#ffeaa3"/>
              </g>
              <g id="Group_85726" data-name="Group 85726" transform="translate(4.256 5.17)">
                <path id="Path_73399" data-name="Path 73399" d="M339.823,153.3s-.029-.024-.078-.078a3.105,3.105,0,0,1-.2-.248,3.643,3.643,0,0,1-.549-1.118,4.27,4.27,0,0,1-.1-1.964,3.909,3.909,0,0,1,1.312-2.236c.719-.661,1.672-1.152,2.542-1.842a4.969,4.969,0,0,0,1.142-1.259,2.5,2.5,0,0,0,.365-1.7c-.165-1.22-1.171-2.3-1.259-3.767a3.846,3.846,0,0,1,2.09-3.616,9.485,9.485,0,0,0,1.852-1.06,2.213,2.213,0,0,0,.739-1.784,4.878,4.878,0,0,0-.5-1.905c-.282-.588-.622-1.147-.914-1.716a5.567,5.567,0,0,1-.612-1.779,3.545,3.545,0,0,1,.219-1.769,5,5,0,0,1,2.056-2.382,6.686,6.686,0,0,1,2.459-.855,11.426,11.426,0,0,1,1.959-.126c.54.01.953.039,1.235.063.126.015.233.024.321.034a.359.359,0,0,1,.107.019,3.257,3.257,0,0,1-.433,0c-.282-.01-.7-.019-1.235-.015a12.1,12.1,0,0,0-1.935.165,6.673,6.673,0,0,0-2.391.87,4.854,4.854,0,0,0-1.959,2.3,3.316,3.316,0,0,0-.194,1.667,5.523,5.523,0,0,0,.6,1.706c.287.559.632,1.113.924,1.721a4.974,4.974,0,0,1,.525,2,2.455,2.455,0,0,1-.821,1.978,9.768,9.768,0,0,1-1.9,1.094,3.607,3.607,0,0,0-1.964,3.378c.063,1.351,1.055,2.425,1.244,3.747a2.749,2.749,0,0,1-.4,1.847,5.18,5.18,0,0,1-1.2,1.307c-.9.7-1.847,1.181-2.557,1.813a3.8,3.8,0,0,0-1.293,2.129,4.18,4.18,0,0,0,.053,1.91A4.929,4.929,0,0,0,339.823,153.3Z" transform="translate(-338.824 -122.098)" fill="#455a64"/>
              </g>
              <g id="Group_85727" data-name="Group 85727" transform="translate(31.397 18.527)">
                <path id="Path_73400" data-name="Path 73400" d="M398.754,166.383a1,1,0,0,0,.467-.593,1.4,1.4,0,0,0-.058-.88,2.116,2.116,0,0,0-.807-.865c-.374-.258-.836-.462-1.293-.778a2.049,2.049,0,0,1-.982-1.468,2.884,2.884,0,0,1,.612-1.857c.394-.559.894-1.03,1.283-1.6a2.513,2.513,0,0,0,.5-1.847,3.966,3.966,0,0,0-.744-1.682c-.7-.977-1.565-1.682-2.119-2.44a4.232,4.232,0,0,1-.928-1.988,2.178,2.178,0,0,1,0-.6.655.655,0,0,1,.049-.2,6.3,6.3,0,0,0,.044.792,4.314,4.314,0,0,0,.972,1.891c.554.724,1.429,1.41,2.168,2.411a4.113,4.113,0,0,1,.8,1.779,2.586,2.586,0,0,1-.058,1.055,3.162,3.162,0,0,1-.471.972c-.408.593-.919,1.069-1.288,1.6a2.683,2.683,0,0,0-.583,1.7,1.83,1.83,0,0,0,.87,1.317c.428.306.894.525,1.273.8a2.249,2.249,0,0,1,.836.958,1.46,1.46,0,0,1,.024.962.92.92,0,0,1-.365.486A.422.422,0,0,1,398.754,166.383Z" transform="translate(-394.663 -149.58)" fill="#455a64"/>
              </g>
              <g id="Group_85728" data-name="Group 85728" transform="translate(19.768 3.375)">
                <path id="Path_73401" data-name="Path 73401" d="M383.975,119.22c.01,0,.015.058.02.17a2.675,2.675,0,0,1-.049.486,3.156,3.156,0,0,1-.841,1.575,3.163,3.163,0,0,1-3.971.365,6.471,6.471,0,0,1-1.205-1.186,6.091,6.091,0,0,0-1.171-1.128,5.135,5.135,0,0,0-1.351-.666,4.782,4.782,0,0,0-2.532-.092,5.205,5.205,0,0,0-1.6.671c-.35.224-.525.374-.535.36a2.022,2.022,0,0,1,.481-.442,4.864,4.864,0,0,1,4.253-.719,5.046,5.046,0,0,1,1.424.685,6.149,6.149,0,0,1,1.225,1.162,6.388,6.388,0,0,0,1.152,1.142,2.988,2.988,0,0,0,1.385.5,2.919,2.919,0,0,0,2.323-.787,3.163,3.163,0,0,0,.87-1.468C383.951,119.453,383.951,119.22,383.975,119.22Z" transform="translate(-370.739 -118.406)" fill="#455a64"/>
              </g>
            </g>
            <g id="Group_85748" data-name="Group 85748" transform="translate(7.32 36.653)">
              <g id="Group_85735" data-name="Group 85735" transform="translate(0 1.541)">
                <g id="Group_85734" data-name="Group 85734">
                  <g id="Group_85733" data-name="Group 85733">
                    <g id="Group_85732" data-name="Group 85732">
                      <g id="Group_85731" data-name="Group 85731">
                        <g id="Group_85730" data-name="Group 85730">
                          <path id="Path_73402" data-name="Path 73402" d="M330.824,208.267c.262.452-1.662-6.012-1.662-6.012l-1.609,5.91-11.933.087s6.742-22.043,9.945-25.119c4.18-4.015,12.015-4.234,12.015-4.234l4.69,4,7.407-3.806.267.029a14.834,14.834,0,0,1,11.461,8.107l8.035,20.818H358.835l-2.26-6.144.753,6.144" transform="translate(-315.62 -178.9)" fill="#ea1c2d"/>
                        </g>
                      </g>
                    </g>
                  </g>
                </g>
              </g>
              <path id="Path_73403" data-name="Path 73403" d="M352.96,179.284l10.747,24.453,5.434-24.711s-1.507-.087-3.66-.17c-1.191-.044-2.581,4.661-4.02,4.637-.919-.015-1.862-4.773-2.785-4.773-1.171,0-2.314.024-3.354.078C354.443,178.846,353.645,179.221,352.96,179.284Z" transform="translate(-334.811 -177.267)" fill="#fafafa"/>
              <path id="Path_73404" data-name="Path 73404" d="M357.16,177.976V175.73s6.411.087,6.518,5.215c0,0,.909-5.055,6.081-5.215l.331,1.721-1.458,5.9L364.9,185.83h-5.031l-2.08-2.737Z" transform="translate(-336.969 -175.73)" fill="#fafafa"/>
              <g id="Group_85736" data-name="Group 85736" transform="translate(28.826 2.1)">
                <path id="Path_73405" data-name="Path 73405" d="M374.928,205.077a1.1,1.1,0,0,1,.063-.272,4.2,4.2,0,0,1,.311-.749,4.993,4.993,0,0,1,.758-1.035c.34-.369.749-.758,1.162-1.22a18.2,18.2,0,0,0,2.673-3.441,5.726,5.726,0,0,0,.685-2.435,3.824,3.824,0,0,0-.744-2.547l-.17-.219.282.015a1.493,1.493,0,0,0,.326-.015,1.859,1.859,0,0,0,1.118-.71,2.491,2.491,0,0,0,.51-1.225,8.492,8.492,0,0,0-.2-2.61c-.277-1.667-.53-3.174-.739-4.452-.2-1.244-.36-2.265-.476-3-.049-.335-.088-.6-.117-.821a1.164,1.164,0,0,1-.024-.287,1.208,1.208,0,0,1,.073.282c.044.214.1.481.165.812.136.739.326,1.755.559,2.994.228,1.273.5,2.78.792,4.443a8.639,8.639,0,0,1,.214,2.683,2.74,2.74,0,0,1-.559,1.346,2.106,2.106,0,0,1-1.278.807,1.749,1.749,0,0,1-.389.015l.107-.2a4.03,4.03,0,0,1,.792,2.717,5.976,5.976,0,0,1-.729,2.532,17.537,17.537,0,0,1-2.746,3.456c-.428.462-.846.846-1.191,1.2a5.214,5.214,0,0,0-.778.987C375.044,204.7,374.957,205.087,374.928,205.077Z" transform="translate(-374.926 -180.05)" fill="#263238"/>
              </g>
              <g id="Group_85737" data-name="Group 85737" transform="translate(17.162 2.003)">
                <path id="Path_73406" data-name="Path 73406" d="M362.595,204.765a1.393,1.393,0,0,1-.2-.224c-.141-.17-.321-.389-.544-.656-.476-.569-1.181-1.376-2.071-2.357s-1.959-2.153-3.028-3.553a12.164,12.164,0,0,1-1.5-2.333,3.867,3.867,0,0,1-.18-2.97,3.451,3.451,0,0,1,.185-.379l.068.185a5.712,5.712,0,0,1-2.4-1.667,7.638,7.638,0,0,1-1.38-2.333,10.987,10.987,0,0,1-.6-4.5,26.981,26.981,0,0,1,.365-3.033c.063-.331.112-.6.151-.812a1.21,1.21,0,0,1,.073-.282,1.27,1.27,0,0,1-.019.287c-.029.214-.063.486-.107.821-.087.71-.238,1.745-.282,3.023a11.061,11.061,0,0,0,.637,4.409,7.525,7.525,0,0,0,1.351,2.255,5.459,5.459,0,0,0,2.294,1.589l.141.053-.078.131a3.168,3.168,0,0,0-.17.34,3.637,3.637,0,0,0,.175,2.775,12.362,12.362,0,0,0,1.458,2.294c1.05,1.395,2.109,2.571,2.975,3.572s1.56,1.828,2.017,2.416c.224.3.4.525.51.69A1.545,1.545,0,0,1,362.595,204.765Z" transform="translate(-350.929 -179.85)" fill="#263238"/>
              </g>
              <g id="Group_85738" data-name="Group 85738" transform="translate(28.63 26.485)">
                <path id="Path_73407" data-name="Path 73407" d="M374.6,234.59a9.593,9.593,0,0,1-.068-2.187,9.194,9.194,0,0,1,.185-2.182,9.513,9.513,0,0,1,.068,2.187A9.755,9.755,0,0,1,374.6,234.59Z" transform="translate(-374.523 -230.22)" fill="#263238"/>
              </g>
              <g id="Group_85739" data-name="Group 85739" transform="translate(9.925 6.316)">
                <path id="Path_73408" data-name="Path 73408" d="M339.35,208.758a5.944,5.944,0,0,1,.209-.841c.141-.539.34-1.322.54-2.294a31.861,31.861,0,0,0,.583-7.728,20.194,20.194,0,0,0-.574-4.219,8.179,8.179,0,0,0-1.512-3.086,5.958,5.958,0,0,0-1.774-1.5c-.491-.258-.787-.345-.783-.365a.726.726,0,0,1,.219.049,3.709,3.709,0,0,1,.6.233,5.693,5.693,0,0,1,1.866,1.468,8.155,8.155,0,0,1,1.6,3.14,19.6,19.6,0,0,1,.6,4.272,29.692,29.692,0,0,1-.661,7.777c-.219.977-.447,1.755-.617,2.289-.088.267-.16.471-.214.608S339.36,208.763,339.35,208.758Z" transform="translate(-336.04 -188.725)" fill="#263238"/>
              </g>
              <g id="Group_85740" data-name="Group 85740" transform="translate(38.248 2.527)">
                <path id="Path_73409" data-name="Path 73409" d="M397.11,200.79a4.67,4.67,0,0,1-.034-.812c0-.52-.019-1.278-.049-2.212a66.045,66.045,0,0,0-.637-7.257,72.045,72.045,0,0,0-2.046-9.454l-.034-.126.1.078a4.12,4.12,0,0,1,.481.408,3.657,3.657,0,0,1-.53-.34l.068-.049a53.118,53.118,0,0,1,2.216,9.444,55.352,55.352,0,0,1,.564,7.286c.01.933,0,1.691-.029,2.216A5.272,5.272,0,0,1,397.11,200.79Z" transform="translate(-394.31 -180.93)" fill="#263238"/>
              </g>
              <g id="Group_85741" data-name="Group 85741" transform="translate(20.16 1.89)">
                <path id="Path_73410" data-name="Path 73410" d="M362.455,180.037c0,.024-.121.015-.287.126a1.741,1.741,0,0,0-.51.69,7.865,7.865,0,0,0-.851,2.834l-.029.321-.194-.258c-.112-.151-.233-.306-.355-.467-.812-1.055-1.6-1.959-2.192-2.605a9.387,9.387,0,0,1-.938-1.06,6.361,6.361,0,0,1,1.069.933,25.839,25.839,0,0,1,2.265,2.571c.122.16.243.321.355.471l-.224.063a7.228,7.228,0,0,1,.953-2.892,1.661,1.661,0,0,1,.612-.685C362.323,179.983,362.46,180.027,362.455,180.037Z" transform="translate(-357.097 -179.618)" fill="#263238"/>
              </g>
              <g id="Group_85742" data-name="Group 85742" transform="translate(27.869 1.827)">
                <path id="Path_73411" data-name="Path 73411" d="M378.125,179.489a7.982,7.982,0,0,1-.86,1.2c-.554.719-1.337,1.7-2.212,2.771-.16.194-.316.384-.462.564l-.214.262,0-.34a10.283,10.283,0,0,0-.122-1.667,3.439,3.439,0,0,0-.457-1.23,3.382,3.382,0,0,0-.836-.86.681.681,0,0,1,.311.126,2.318,2.318,0,0,1,.666.637,3.427,3.427,0,0,1,.535,1.283,9.3,9.3,0,0,1,.156,1.706l-.224-.078c.146-.185.3-.374.462-.569.875-1.074,1.677-2.037,2.27-2.727A8.358,8.358,0,0,1,378.125,179.489Z" transform="translate(-372.957 -179.488)" fill="#263238"/>
              </g>
              <g id="Group_85743" data-name="Group 85743" transform="translate(26.785 5.181)">
                <path id="Path_73412" data-name="Path 73412" d="M372.556,207.12a5.024,5.024,0,0,1-.121-.812c-.058-.569-.141-1.312-.233-2.216-.19-1.876-.433-4.462-.68-7.325s-.467-5.458-.608-7.335c-.063-.909-.117-1.657-.156-2.226a6.076,6.076,0,0,1-.024-.817,5.018,5.018,0,0,1,.121.812c.058.569.141,1.312.238,2.216.19,1.876.433,4.462.681,7.325s.467,5.454.608,7.33c.063.909.117,1.657.156,2.226A4.807,4.807,0,0,1,372.556,207.12Z" transform="translate(-370.726 -186.39)" fill="#263238"/>
              </g>
              <g id="Group_85744" data-name="Group 85744" transform="translate(28.19 9.56)">
                <path id="Path_73413" data-name="Path 73413" d="M374.056,195.463c-.024-.024.18-.146.442.029a.584.584,0,0,1,.253.462.567.567,0,1,1-1.1-.18c.112-.3.345-.316.34-.287.015.034-.131.112-.165.331a.434.434,0,0,0,.078.331.37.37,0,0,0,.612-.2.436.436,0,0,0-.131-.316C374.227,195.472,374.061,195.5,374.056,195.463Z" transform="translate(-373.618 -195.399)" fill="#263238"/>
              </g>
              <g id="Group_85745" data-name="Group 85745" transform="translate(29.014 15.629)">
                <path id="Path_73414" data-name="Path 73414" d="M375.861,207.922c-.019-.029.209-.107.433.126a.572.572,0,0,1,.141.515.587.587,0,0,1-1.094.049.567.567,0,0,1,.1-.525c.2-.253.437-.194.423-.165s-.17.058-.277.262a.426.426,0,0,0-.029.345.33.33,0,0,0,.335.18.341.341,0,0,0,.321-.209.427.427,0,0,0-.058-.345C376.031,207.966,375.861,207.956,375.861,207.922Z" transform="translate(-375.312 -207.886)" fill="#263238"/>
              </g>
              <g id="Group_85746" data-name="Group 85746" transform="translate(16.491 2.309)" opacity="0.3">
                <path id="Path_73415" data-name="Path 73415" d="M350.594,180.48c-.909,3.237-1.774,6.892-.078,9.8.51.875,1.225,1.619,1.706,2.513.821,1.531.875,3.349,1.38,5.011a11.138,11.138,0,0,0,8.166,7.135c-1.794-2.187-4.569-5.026-6.221-7.5a6.24,6.24,0,0,1-1.137-2.187,2.84,2.84,0,0,1,.243-2.557c-2.323-.36-3.645-2.766-4.063-5.074a17.151,17.151,0,0,1,.292-6.994" transform="translate(-349.548 -180.48)"/>
              </g>
              <g id="Group_85747" data-name="Group 85747" transform="translate(40.903 18.407)" opacity="0.3">
                <path id="Path_73416" data-name="Path 73416" d="M400.014,214.694c-.578,3.47-.19,8.02,1.939,10.824.783-3.811.394-8.8-1.925-11.918" transform="translate(-399.773 -213.6)"/>
              </g>
            </g>
          </g>
        </g>
      </g>
      <g id="Character_1" transform="translate(106.541 97.411)">
        <g id="Group_85789" data-name="Group 85789" transform="translate(0 0)">
          <rect id="Rectangle_18628" data-name="Rectangle 18628" width="57.131" height="95.451" fill="#f5f5f5"/>
          <g id="Group_85751" data-name="Group 85751" transform="translate(13.177 56.207)">
            <path id="Path_73417" data-name="Path 73417" d="M194.958,243.94l.612,1.239,1.371.2-.992.962.233,1.366-1.225-.642-1.225.642.238-1.366-.992-.962,1.366-.2Z" transform="translate(-192.98 -243.94)" fill="#83c124"/>
            <path id="Path_73418" data-name="Path 73418" d="M208.953,243.94l.612,1.239,1.371.2-.992.962.233,1.366-1.225-.642-1.225.642.233-1.366-.992-.962,1.371-.2Z" transform="translate(-200.17 -243.94)" fill="#83c124"/>
            <path id="Path_73419" data-name="Path 73419" d="M222.948,243.94l.612,1.239,1.371.2-.992.962.233,1.366-1.225-.642-1.22.642.233-1.366-.992-.962,1.366-.2Z" transform="translate(-207.365 -243.94)" fill="#83c124"/>
            <path id="Path_73420" data-name="Path 73420" d="M236.943,243.94l.612,1.239,1.371.2-.992.962.233,1.366-1.225-.642-1.225.642.233-1.366-.992-.962,1.371-.2Z" transform="translate(-214.555 -243.94)" fill="#83c124"/>
            <path id="Path_73421" data-name="Path 73421" d="M250.938,243.94l.612,1.239,1.371.2-.992.962.233,1.366-1.225-.642-1.22.642.233-1.366-.992-.962,1.371-.2Z" transform="translate(-221.751 -243.94)" fill="#c4ccd2"/>
          </g>
          <g id="Group_85758" data-name="Group 85758" transform="translate(6.858 67.27)">
            <g id="Group_85752" data-name="Group 85752">
              <path id="Path_73422" data-name="Path 73422" d="M199.354,266.826c0,.068-4.336.126-9.687.126s-9.687-.058-9.687-.126,4.336-.126,9.687-.126S199.354,266.753,199.354,266.826Z" transform="translate(-179.98 -266.7)" fill="#e8505b"/>
            </g>
            <g id="Group_85753" data-name="Group 85753" transform="translate(0.51 4.204)">
              <path id="Path_73423" data-name="Path 73423" d="M224.24,275.476c0,.068-9.672.126-21.605.126s-21.605-.058-21.605-.126,9.672-.126,21.605-.126S224.24,275.408,224.24,275.476Z" transform="translate(-181.03 -275.35)" fill="#263238"/>
            </g>
            <g id="Group_85754" data-name="Group 85754" transform="translate(0.51 7.82)">
              <path id="Path_73424" data-name="Path 73424" d="M224.24,282.916c0,.068-9.672.126-21.605.126s-21.605-.058-21.605-.126,9.672-.126,21.605-.126S224.24,282.843,224.24,282.916Z" transform="translate(-181.03 -282.789)" fill="#263238"/>
            </g>
            <g id="Group_85755" data-name="Group 85755" transform="translate(0.51 11.432)">
              <path id="Path_73425" data-name="Path 73425" d="M224.24,290.346c0,.068-9.672.126-21.605.126s-21.605-.058-21.605-.126,9.672-.126,21.605-.126S224.24,290.278,224.24,290.346Z" transform="translate(-181.03 -290.22)" fill="#263238"/>
            </g>
            <g id="Group_85756" data-name="Group 85756" transform="translate(0.51 15.048)">
              <path id="Path_73426" data-name="Path 73426" d="M224.24,297.786c0,.068-9.672.126-21.605.126s-21.605-.058-21.605-.126,9.672-.126,21.605-.126S224.24,297.713,224.24,297.786Z" transform="translate(-181.03 -297.66)" fill="#263238"/>
            </g>
            <g id="Group_85757" data-name="Group 85757" transform="translate(0.51 18.66)">
              <path id="Path_73427" data-name="Path 73427" d="M224.24,305.216c0,.068-9.672.126-21.605.126s-21.605-.058-21.605-.126,9.672-.126,21.605-.126S224.24,305.148,224.24,305.216Z" transform="translate(-181.03 -305.09)" fill="#263238"/>
            </g>
          </g>
          <g id="Group_85788" data-name="Group 85788" transform="translate(3.67 4.846)">
            <rect id="Rectangle_18629" data-name="Rectangle 18629" width="49.213" height="47.244" fill="#fff"/>
            <g id="Group_85787" data-name="Group 85787" transform="translate(5.23 4)">
              <g id="Group_85777" data-name="Group 85777" transform="translate(14.134 3.857)">
                <path id="Path_73428" data-name="Path 73428" d="M230.26,183.259c.01,1.23.112,1.954.122,3.184a1.064,1.064,0,0,0,.267.851.7.7,0,0,0,.734.034,1.872,1.872,0,0,0,.574-.515,10.69,10.69,0,0,0,2.357-5.891.705.705,0,0,0-.1-.53c-.194-.224-.554-.141-.821-.019a6.659,6.659,0,0,0-3.13,2.887" transform="translate(-221.997 -167.703)" fill="#263238"/>
                <g id="Group_85776" data-name="Group 85776">
                  <g id="Group_85775" data-name="Group 85775">
                    <g id="Group_85774" data-name="Group 85774">
                      <g id="Group_85759" data-name="Group 85759">
                        <path id="Path_73429" data-name="Path 73429" d="M213.26,155.292l.024,1.225.248,18.368a3.94,3.94,0,0,0,4.17,3.757h0a4.162,4.162,0,0,0,4.185-3.99c0-2.26.053-4.642.053-4.642s2.911-.486,3.519-4.287a40.466,40.466,0,0,0,.044-7.524,4.016,4.016,0,0,0-4.428-3.743Z" transform="translate(-213.26 -154.434)" fill="#ffbe9d"/>
                        <path id="Path_86835" data-name="Path 86835" d="M21.239,11.76a.532.532,0,0,1-.513.537.509.509,0,0,1-.548-.479.532.532,0,0,1,.512-.537.509.509,0,0,1,.549.48" transform="translate(-10.399 -5.42)" fill="#263238"/>
                        <path id="Path_86836" data-name="Path 86836" d="M21.943,10.568c-.066.069-.469-.229-1.042-.228s-.992.288-1.054.218c-.03-.031.037-.156.22-.29a1.46,1.46,0,0,1,.844-.26,1.4,1.4,0,0,1,.829.267c.176.135.235.26.2.292" transform="translate(-10.241 -4.824)" fill="#263238"/>
                        <path id="Path_86837" data-name="Path 86837" d="M10.842,11.76a.532.532,0,0,1-.513.537.509.509,0,0,1-.548-.479.532.532,0,0,1,.512-.537.509.509,0,0,1,.549.48" transform="translate(-5.516 -5.42)" fill="#263238"/>
                        <path id="Path_86838" data-name="Path 86838" d="M11.334,10.769c-.066.07-.469-.229-1.042-.228s-.992.288-1.054.218c-.03-.031.036-.156.22-.289a1.464,1.464,0,0,1,.844-.26,1.4,1.4,0,0,1,.829.268c.176.135.235.261.2.291" transform="translate(-5.259 -4.918)" fill="#263238"/>
                        <path id="Path_86839" data-name="Path 86839" d="M16.876,15.045a3.806,3.806,0,0,1,.93-.168c.146-.015.285-.044.309-.144a.741.741,0,0,0-.1-.433l-.432-1.113a19.2,19.2,0,0,1-.971-2.911,19.075,19.075,0,0,1,1.2,2.826l.414,1.12a.846.846,0,0,1,.076.574.367.367,0,0,1-.24.214,1.038,1.038,0,0,1-.248.034,3.755,3.755,0,0,1-.942,0" transform="translate(-8.723 -4.949)" fill="#263238"/>
                        <path id="Path_86840" data-name="Path 86840" d="M15.144,21.526a1.031,1.031,0,0,0-.924-.383.942.942,0,0,0-.651.348.6.6,0,0,0-.045.683.693.693,0,0,0,.75.19,2.171,2.171,0,0,0,.731-.437.629.629,0,0,0,.164-.169.192.192,0,0,0,0-.213" transform="translate(-7.233 -10.05)" fill="#eb996e"/>
                        <path id="Path_86841" data-name="Path 86841" d="M13.854,20.015c.093-.005.094.616.626,1.057s1.193.372,1.2.459c.009.039-.147.121-.427.128a1.544,1.544,0,0,1-1-.348,1.347,1.347,0,0,1-.485-.886c-.024-.26.046-.414.088-.41" transform="translate(-7.386 -9.523)" fill="#263238"/>
                        <path id="Path_86842" data-name="Path 86842" d="M11.394.683a1.883,1.883,0,0,1,1.048.8,9.384,9.384,0,0,0,.792,1.089,2.4,2.4,0,0,0,2.788.422c.335.322.775.671,1.216.521a.792.792,0,0,0,.49-.606,1.377,1.377,0,0,0-.117-.8A3.459,3.459,0,0,0,14.981.352a7.433,7.433,0,0,0-3.949.307" transform="translate(-6.104 -0.224)" fill="#263238"/>
                      </g>
                      <g id="Group_85770" data-name="Group 85770" transform="translate(3.592 14.225)">
                        <path id="Path_73435" data-name="Path 73435" d="M225.739,185.056a9.668,9.668,0,0,1-5.089-1.356s1.235,2.61,5.04,2.255Z" transform="translate(-220.65 -183.7)" fill="#eb996e"/>
                      </g>
                    </g>
                  </g>
                </g>
              </g>
              <g id="Group_85783" data-name="Group 85783" transform="translate(0 22.801)">
                <g id="Group_85782" data-name="Group 85782">
                  <g id="Group_85781" data-name="Group 85781">
                    <g id="Group_85780" data-name="Group 85780">
                      <g id="Group_85779" data-name="Group 85779">
                        <g id="Group_85778" data-name="Group 85778">
                          <path id="Path_73439" data-name="Path 73439" d="M194.844,214.009c.185.316-1.167-4.219-1.167-4.219l-1.128,4.146-8.37.063s4.729-15.461,6.98-17.619c2.931-2.819,8.428-2.97,8.428-2.97l8.487.136s.068,0,.19.019a10.4,10.4,0,0,1,8.039,5.687l5.638,14.606H214.5l-1.585-4.311.53,4.311" transform="translate(-184.18 -193.41)" fill="#263238"/>
                        </g>
                      </g>
                    </g>
                  </g>
                </g>
              </g>
              <g id="Group_85786" data-name="Group 85786" transform="translate(8.876)">
                <path id="Path_73440" data-name="Path 73440" d="M221.295,168.931c-.258-.608-1.191-.588-1.6-1.108-.447-.569-.053-1.38.282-2.027,1.609-3.1,1.448-6.8,1.152-10.275a12.41,12.41,0,0,0-.924-4.365,8.653,8.653,0,0,0-8.282-4.647c-3.154.122-5.556,2.97-7.262,5.624a15.288,15.288,0,0,0-2.056,9.935c.282,1.555,1.959,2.756,1.653,4.306-.194.977-1.215,2.148-1.016,3.125.272,1.332,2.207,1.8,3.339,2.552a25.767,25.767,0,0,1,3.154,2.761,9.913,9.913,0,0,0,3.466,2.314,4.222,4.222,0,0,0,3.986-.525c1.764-1.448,1.594-4.34,3.2-5.964C220.872,170.141,221.562,169.563,221.295,168.931Zm-2.489-16.808a7.853,7.853,0,0,1,.851,3.393,20.115,20.115,0,0,1,.068,5.915,9.29,9.29,0,0,1-2.581,5.235,6.1,6.1,0,0,1-5.454,1.653c-2.163-.51-2.858-2.411-3.47-4.545s.753-4.078,1.361-6.217c.467-1.648.646-3.971,1.706-5.313a4.25,4.25,0,0,1,3.354-1.41S217.508,150.169,218.806,152.123Z" transform="translate(-202.441 -146.499)" fill="#0092ca"/>
                <g id="Group_85784" data-name="Group 85784" transform="translate(1.015 19.603)" opacity="0.3">
                  <path id="Path_73441" data-name="Path 73441" d="M204.53,188.653a15.745,15.745,0,0,1,3.334,2.824,8.465,8.465,0,0,0,3.621,2.377,3.425,3.425,0,0,0,3.84-1.346,9.033,9.033,0,0,1-9.7-5.677" transform="translate(-204.53 -186.83)"/>
                </g>
                <g id="Group_85785" data-name="Group 85785" transform="translate(14.311 20.517)" opacity="0.3">
                  <path id="Path_73442" data-name="Path 73442" d="M234.619,188.71a3.729,3.729,0,0,1-1.9,2.367,2.568,2.568,0,0,0-.612.36.515.515,0,0,0,.505.894,1.714,1.714,0,0,0,.651-.452,4.934,4.934,0,0,0,1.628-2.357" transform="translate(-231.884 -188.71)"/>
                </g>
              </g>
            </g>
          </g>
        </g>
      </g>
      <g id="Arrows" transform="translate(94.514 139.549)">
        <g id="Group_85794" data-name="Group 85794" transform="translate(0)">
          <g id="Group_85791" data-name="Group 85791" transform="translate(209.233)">
            <circle id="Ellipse_2318" data-name="Ellipse 2318" cx="7.121" cy="7.121" r="7.121" transform="matrix(0.231, -0.973, 0.973, 0.231, 0, 13.855)" fill="#e0e0e0"/>
            <g id="Group_85790" data-name="Group 85790" transform="translate(7.495 5.539)">
              <path id="Path_73443" data-name="Path 73443" d="M587.019,232.455a7.045,7.045,0,0,1,1-.923c.637-.549,1.531-1.293,2.532-2.1l0,.194c-.015-.015-.034-.029-.049-.044-.982-.855-1.866-1.638-2.494-2.216a8.089,8.089,0,0,1-.987-.972,7.8,7.8,0,0,1,1.1.836c.661.544,1.56,1.3,2.542,2.158a.428.428,0,0,1,.049.044l.112.1-.117.1c-1,.812-1.915,1.531-2.581,2.046A7.918,7.918,0,0,1,587.019,232.455Z" transform="translate(-587.019 -226.387)" fill="#263238"/>
            </g>
          </g>
          <g id="Group_85793" data-name="Group 85793" transform="translate(0 0.017)">
            <circle id="Ellipse_2319" data-name="Ellipse 2319" cx="7.121" cy="7.121" r="7.121" transform="translate(0 13.86) rotate(-76.714)" fill="#e0e0e0"/>
            <g id="Group_85792" data-name="Group 85792" transform="translate(5.844 5.521)">
              <path id="Path_73444" data-name="Path 73444" d="M156.956,226.388a7.043,7.043,0,0,1-1,.923c-.637.549-1.531,1.293-2.532,2.1l0-.194c.015.015.034.029.049.044.982.855,1.866,1.638,2.493,2.216a8.082,8.082,0,0,1,.987.972,7.79,7.79,0,0,1-1.1-.836c-.661-.544-1.56-1.3-2.542-2.158a.437.437,0,0,1-.049-.044l-.112-.1.117-.1c1-.812,1.915-1.531,2.581-2.046A6.872,6.872,0,0,1,156.956,226.388Z" transform="translate(-153.15 -226.386)" fill="#263238"/>
            </g>
          </g>
        </g>
      </g>
    </g>
  </g>
</svg>
