<svg xmlns="http://www.w3.org/2000/svg" xmlns:xlink="http://www.w3.org/1999/xlink" width="347" height="214" viewBox="0 0 347 214">
  <defs>
    <clipPath id="clip-path">
      <rect id="Rectangle_19533" data-name="Rectangle 19533" width="347" height="214" transform="translate(88 315)" fill="#fff" stroke="#707070" stroke-width="1"/>
    </clipPath>
  </defs>
  <g id="Mask_Group_852" data-name="Mask Group 852" transform="translate(-88 -315)" clip-path="url(#clip-path)">
    <g id="Group_119044" data-name="Group 119044">
      <g id="_3647050" data-name="3647050" transform="translate(159.721 181.181)">
        <g id="Character" transform="translate(22.984 145.586)">
          <g id="Group_93995" data-name="Group 93995">
            <g id="Group_93671" data-name="Group 93671" transform="translate(11.357)">
              <g id="Group_93667" data-name="Group 93667" transform="translate(43.096)">
                <path id="Path_77721" data-name="Path 77721" d="M90.49,186.585a39.871,39.871,0,0,1,14.8-13.487c6.042-3,13.253-3.952,19.649-1.807s11.769,7.631,13.019,14.261c.992,5.259.137,13.438,4.065,17.068,8.042,7.421,6.824,21.48,2.089,29.514,0,0-7.308,8.841.581,17.028,0,0,4.662,3.3,2.331,12.253-3.638,13.963,12.261,21.714,2.654,19.545l-32.144-3.549-3.606-36.435" transform="translate(-90.49 -170.129)" fill="#263238"/>
              </g>
              <g id="Group_93668" data-name="Group 93668" transform="translate(0 36.114)">
                <path id="Path_77722" data-name="Path 77722" d="M61.179,214.9c-2.017,1.484-2.718,4.227-2.533,6.719s1.113,4.864,1.75,7.276.984,5.049.04,7.364c-1.613,3.952-6.2,5.566-9.688,8.026a19.425,19.425,0,0,0-7.986,17.173c.161,1.928.613,3.952-.1,5.751-.807,2.065-2.92,3.3-4.194,5.106-2,2.831-1.7,6.8-.161,9.905s4.13,5.55,6.663,7.913a172.147,172.147,0,0,1,39.3-25.651" transform="translate(-37.063 -214.9)" fill="#263238"/>
              </g>
            </g>
            <g id="Group_93756" data-name="Group 93756" transform="translate(30.278 21.531)">
              <g id="Group_93687" data-name="Group 93687" transform="translate(139.898 7)">
                <g id="Group_93674" data-name="Group 93674">
                  <g id="Group_93672" data-name="Group 93672" transform="translate(0 11.132)">
                    <path id="Path_77724" data-name="Path 77724" d="M216.03,272.336l15.737,5.082s10.93-6.719,11.551-9.179c.645-2.573-.524-2.839-.944-2.791,0,0,3.9-3.4,1.831-6.518,0,0,3.477-3.67,1.137-5.856l-1.266-1.032s1.686-3.38.339-5.937a1.908,1.908,0,0,0-2.371-.855l-12.874,4.8-8.236,5.517Z" transform="translate(-216.03 -245.121)" fill="#ffbe9d"/>
                  </g>
                  <g id="Group_93673" data-name="Group 93673" transform="translate(19.238)">
                    <path id="Path_77725" data-name="Path 77725" d="M239.88,247.63l4.4-15.963,3.63-.347-3.436,12.672Z" transform="translate(-239.88 -231.32)" fill="#263238"/>
                  </g>
                </g>
                <g id="Group_93678" data-name="Group 93678" transform="translate(1.337 9.776)">
                  <g id="Group_93675" data-name="Group 93675" transform="translate(0.01 0.315)">
                    <path id="Path_77726" data-name="Path 77726" d="M217.7,267.117l3.864-12.866L235.5,243.83a4.687,4.687,0,0,1-.016,4.783,44.971,44.971,0,0,1-4.073,5.5c-.476.734-2.468,4.533-2.468,4.533a16.436,16.436,0,0,1,.444,10.623" transform="translate(-217.7 -243.83)" fill="#ffbe9d"/>
                  </g>
                  <g id="Group_93677" data-name="Group 93677">
                    <g id="Group_93676" data-name="Group 93676">
                      <path id="Path_77727" data-name="Path 77727" d="M229.4,269.2a4.859,4.859,0,0,1,.129-.75c.056-.242.113-.54.161-.9a11.182,11.182,0,0,0,.153-1.234,17.4,17.4,0,0,0,0-3.38,14.91,14.91,0,0,0-1.041-4.3l-.032-.081.032-.064q.823-1.537,1.758-3.267c.153-.29.315-.581.476-.879.081-.145.153-.3.242-.444a4.42,4.42,0,0,1,.323-.419c.436-.532.887-1.073,1.339-1.621a23.256,23.256,0,0,0,2.484-3.654,4.5,4.5,0,0,0-.1-4.332l.3.048c-.379.282-.782.589-1.194.9-4.711,3.509-9.091,6.768-12.769,9.5l.065-.089c-1.186,3.84-2.17,7.034-2.88,9.317-.347,1.081-.621,1.952-.831,2.589-.089.274-.169.492-.234.678a.97.97,0,0,1-.1.226.9.9,0,0,1,.048-.242c.048-.186.1-.411.177-.694.186-.645.428-1.525.734-2.622.669-2.3,1.613-5.509,2.734-9.365l.016-.056.048-.032,12.729-9.559c.411-.307.815-.613,1.194-.9l.186-.137.113.186a4.888,4.888,0,0,1,.113,4.751,23.222,23.222,0,0,1-2.549,3.719c-.46.549-.911,1.089-1.355,1.613-.1.129-.21.266-.3.4s-.161.29-.242.436c-.161.29-.323.581-.476.871q-.944,1.706-1.783,3.235V258.5a14.968,14.968,0,0,1,1.008,4.412,16.563,16.563,0,0,1-.073,3.42,10.38,10.38,0,0,1-.2,1.234,8.326,8.326,0,0,1-.21.9A3.713,3.713,0,0,1,229.4,269.2Z" transform="translate(-217.688 -243.44)" fill="#eb996e"/>
                    </g>
                  </g>
                </g>
                <g id="Group_93680" data-name="Group 93680" transform="translate(16.123 11.501)">
                  <g id="Group_93679" data-name="Group 93679">
                    <path id="Path_77728" data-name="Path 77728" d="M247.925,252.17a5.423,5.423,0,0,1-.928.629c-.686.411-1.565.944-2.613,1.573-1.137.661-2.452,1.436-3.9,2.283a4.34,4.34,0,0,1-2.638.774,2.026,2.026,0,0,1-1.355-.71,2.273,2.273,0,0,1-.468-1.492,4.72,4.72,0,0,1,1.226-2.678,23.232,23.232,0,0,1,1.775-2.025,24.905,24.905,0,0,1,3.468-2.936,22.044,22.044,0,0,1,2.63-1.565,5.445,5.445,0,0,1,1.033-.444,7.529,7.529,0,0,1-.952.589,28.638,28.638,0,0,0-2.533,1.662,25.686,25.686,0,0,0-3.364,2.96,24.039,24.039,0,0,0-1.726,2.009,4.418,4.418,0,0,0-1.129,2.436,1.9,1.9,0,0,0,.379,1.226,1.619,1.619,0,0,0,1.081.565,3.952,3.952,0,0,0,2.4-.7c1.468-.823,2.8-1.565,3.944-2.21,1.073-.589,1.976-1.073,2.678-1.46A5.629,5.629,0,0,1,247.925,252.17Z" transform="translate(-236.018 -245.578)" fill="#eb996e"/>
                  </g>
                </g>
                <g id="Group_93682" data-name="Group 93682" transform="translate(17.793 18.187)">
                  <g id="Group_93681" data-name="Group 93681">
                    <path id="Path_77729" data-name="Path 77729" d="M248.471,260.613a4.912,4.912,0,0,1-.823.661c-.548.4-1.347.96-2.363,1.629a39.667,39.667,0,0,1-3.662,2.178,3.661,3.661,0,0,1-1.21.452,1.839,1.839,0,0,1-1.355-.355,2.741,2.741,0,0,1-.928-2.63,5.113,5.113,0,0,1,1.347-2.42,20.5,20.5,0,0,1,1.831-1.75,32.333,32.333,0,0,1,3.436-2.533c1.016-.661,1.863-1.153,2.452-1.492a4.815,4.815,0,0,1,.936-.484,5.41,5.41,0,0,1-.847.621c-.629.427-1.42.96-2.371,1.605a38.921,38.921,0,0,0-3.348,2.573,21.017,21.017,0,0,0-1.775,1.734,4.774,4.774,0,0,0-1.242,2.226,2.337,2.337,0,0,0,.758,2.218,1.4,1.4,0,0,0,1.057.282,3.431,3.431,0,0,0,1.081-.4c1.428-.71,2.654-1.452,3.686-2.089l2.428-1.516A5.825,5.825,0,0,1,248.471,260.613Z" transform="translate(-238.088 -253.867)" fill="#eb996e"/>
                  </g>
                </g>
                <g id="Group_93684" data-name="Group 93684" transform="translate(17.093 27.237)">
                  <g id="Group_93683" data-name="Group 93683">
                    <path id="Path_77730" data-name="Path 77730" d="M246.472,269.3a3.345,3.345,0,0,1-.661.484c-.444.29-1.081.71-1.9,1.194a22.065,22.065,0,0,1-2.976,1.508,9.238,9.238,0,0,1-1.92.581,1.961,1.961,0,0,1-1.137-.153,1.3,1.3,0,0,1-.637-1.032,2.725,2.725,0,0,1,.1-1.145,2.25,2.25,0,0,1,.565-.96,10.769,10.769,0,0,1,1.452-1.355,26.324,26.324,0,0,1,2.734-1.9c.807-.492,1.476-.863,1.952-1.105a2.815,2.815,0,0,1,.758-.331,3.253,3.253,0,0,1-.678.468c-.524.339-1.145.742-1.871,1.21-.782.524-1.7,1.162-2.654,1.944-.887.807-2.17,1.694-1.944,3.1a.884.884,0,0,0,.419.718,1.536,1.536,0,0,0,.887.113,9.3,9.3,0,0,0,1.823-.532,25.336,25.336,0,0,0,2.968-1.4A24.15,24.15,0,0,1,246.472,269.3Z" transform="translate(-237.22 -265.086)" fill="#eb996e"/>
                  </g>
                </g>
                <g id="Group_93686" data-name="Group 93686" transform="translate(18.153 33.683)">
                  <g id="Group_93685" data-name="Group 93685">
                    <path id="Path_77731" data-name="Path 77731" d="M247.525,273.822a2.2,2.2,0,0,1-.363.653,12.849,12.849,0,0,1-1.274,1.6,17.639,17.639,0,0,1-2.259,2.025c-.452.347-.944.694-1.46,1.041a5.507,5.507,0,0,1-1.767.887,1.534,1.534,0,0,1-1.081-.129,1.47,1.47,0,0,1-.678-.823,2.5,2.5,0,0,1,.194-1.871,9.866,9.866,0,0,1,1.694-2.541,6.91,6.91,0,0,1,1.605-1.291,2.125,2.125,0,0,1,.694-.29,9.31,9.31,0,0,0-3.63,4.275,2.161,2.161,0,0,0-.161,1.581,1.037,1.037,0,0,0,1.291.678,5.311,5.311,0,0,0,1.621-.823c.516-.331,1-.669,1.452-1a20.547,20.547,0,0,0,2.275-1.928C246.879,274.677,247.46,273.781,247.525,273.822Z" transform="translate(-238.534 -273.077)" fill="#eb996e"/>
                  </g>
                </g>
              </g>
              <g id="Group_93688" data-name="Group 93688" transform="translate(0 37.911)">
                <path id="Path_77732" data-name="Path 77732" d="M201.175,256.451l-25.543,48.627c-37.813-15.007-46.524-24.242-46.524-24.242l-15.366-4.114L82.2,275.052l-2.71,1.573L60.52,284.619s1.807,20.488,5.388,36.766,6.542,34.08,6.542,34.08c1.3,11.72-7.381,56.682-7.381,56.682h86.817L133.334,356.3a202.714,202.714,0,0,0,5.275-20.7l-3.41-18.863s3.943,2.551,22.389,10.251,32.575,11.022,41.351-11.838l20.513-52.889Z" transform="translate(-60.52 -250.45)" fill="#e32726"/>
              </g>
              <g id="Group_93690" data-name="Group 93690" transform="translate(68.933 94.947)">
                <g id="Group_93689" data-name="Group 93689">
                  <path id="Path_77733" data-name="Path 77733" d="M154.143,343.488a6.345,6.345,0,0,1,.008-1.21c.024-.387.04-.863.032-1.412s.024-1.178-.016-1.871a43.356,43.356,0,0,0-.4-4.856,48.086,48.086,0,0,0-1.218-5.832,46.1,46.1,0,0,0-2.008-5.606,44.144,44.144,0,0,0-2.194-4.348c-.331-.613-.678-1.129-.968-1.605s-.548-.871-.766-1.186a5.851,5.851,0,0,1-.637-1.033,6.5,6.5,0,0,1,.774.936c.242.307.524.686.831,1.153s.678.976,1.024,1.581a38.393,38.393,0,0,1,2.291,4.34,43.765,43.765,0,0,1,2.057,5.655,42.944,42.944,0,0,1,1.194,5.9,38.841,38.841,0,0,1,.307,4.9c.016.7-.032,1.331-.048,1.888s-.065,1.032-.1,1.42A5.987,5.987,0,0,1,154.143,343.488Z" transform="translate(-145.978 -314.529)" fill="#263238"/>
                </g>
              </g>
              <g id="Group_93692" data-name="Group 93692" transform="translate(70.481 89.567)">
                <g id="Group_93691" data-name="Group 93691">
                  <path id="Path_77734" data-name="Path 77734" d="M151.376,307.86a16.694,16.694,0,0,1-1.508,4,21.241,21.241,0,0,1-1.96,3.8,22.515,22.515,0,0,1,1.573-3.969c.484-1.073.944-2.033,1.283-2.726A5.251,5.251,0,0,1,151.376,307.86Z" transform="translate(-147.897 -307.86)" fill="#263238"/>
                </g>
              </g>
              <g id="Group_93694" data-name="Group 93694" transform="translate(114.201 87.232)">
                <g id="Group_93693" data-name="Group 93693">
                  <path id="Path_77735" data-name="Path 77735" d="M191.648,341.42a5.957,5.957,0,0,1-.9-1.662,16.354,16.354,0,0,1-1.008-8.986,5.686,5.686,0,0,1,.508-1.823,22,22,0,0,0,1.4,12.47Z" transform="translate(-189.512 -323.95)" fill="#263238"/>
                </g>
              </g>
            </g>
            <g id="Group_93925" data-name="Group 93925" transform="translate(15.163 5.337)">
              <g id="Group_93905" data-name="Group 93905" transform="translate(30.556 7.017)">
                <g id="Group_93904" data-name="Group 93904">
                  <g id="Group_93903" data-name="Group 93903">
                    <g id="Group_93902" data-name="Group 93902">
                      <g id="Group_93901" data-name="Group 93901">
                        <g id="Group_93900" data-name="Group 93900">
                          <g id="Group_93899" data-name="Group 93899">
                            <g id="Group_93898" data-name="Group 93898">
                              <g id="Group_93897" data-name="Group 93897">
                                <g id="Group_93870" data-name="Group 93870">
                                  <g id="Group_93869" data-name="Group 93869">
                                    <g id="Group_93868" data-name="Group 93868">
                                      <g id="Group_93757" data-name="Group 93757">
                                        <path id="Path_77764" data-name="Path 77764" d="M127.776,200.92c-1.153-8.857-9.389-18.569-26.748-14.535l-17.036,5.542a5.219,5.219,0,0,0-4.307,5.6l6.34,67.079a15.832,15.832,0,0,0,15.761,14.342h0A15.842,15.842,0,0,0,117.6,262.393c-.363-8.058-.637-14.535-.629-14.5,0,0,11.236-2.646,12.6-17.633C130.236,222.82,129.059,210.753,127.776,200.92Z" transform="translate(-79.664 -185.445)" fill="#ffbe9d"/>
                                        <g id="Group_110840" data-name="Group 110840" transform="translate(17.179 17.22)">
                                          <path id="Path_82071" data-name="Path 82071" d="M53.38,31.518a1.964,1.964,0,0,1-1.756,2.1,1.879,1.879,0,0,1-2.139-1.631,1.965,1.965,0,0,1,1.755-2.1,1.879,1.879,0,0,1,2.14,1.632" transform="translate(-25.584 -21.98)" fill="#263238"/>
                                          <path id="Path_82072" data-name="Path 82072" d="M55.756,28.286c-.225.272-1.784-.727-3.892-.58-2.107.116-3.582,1.3-3.828,1.062-.121-.107.1-.585.737-1.12a5.385,5.385,0,0,1,3.043-1.166,5.169,5.169,0,0,1,3.119.78c.682.454.933.9.82,1.024" transform="translate(-25.336 -21.406)" fill="#263238"/>
                                          <path id="Path_82073" data-name="Path 82073" d="M29.112,32.774a1.962,1.962,0,0,1-1.756,2.1,1.878,1.878,0,0,1-2.138-1.631,1.964,1.964,0,0,1,1.755-2.1,1.878,1.878,0,0,1,2.139,1.632" transform="translate(-21.487 -22.192)" fill="#263238"/>
                                          <path id="Path_82074" data-name="Path 82074" d="M30.636,29.649c-.226.272-1.785-.726-3.892-.58-2.108.116-3.582,1.3-3.828,1.062-.12-.107.094-.584.738-1.12A5.383,5.383,0,0,1,26.7,27.845a5.185,5.185,0,0,1,3.119.78c.68.455.932.9.82,1.024" transform="translate(-21.095 -21.636)" fill="#263238"/>
                                          <path id="Path_82075" data-name="Path 82075" d="M42.044,43.981a14,14,0,0,1,3.383-.848c.534-.091,1.036-.233,1.1-.606a2.752,2.752,0,0,0-.466-1.572L44.2,36.964c-2.6-5.689-4.524-10.38-4.294-10.482s2.526,4.424,5.127,10.111q.944,2.106,1.8,4.021a3.122,3.122,0,0,1,.421,2.094,1.354,1.354,0,0,1-.832.847,3.657,3.657,0,0,1-.906.188,13.717,13.717,0,0,1-3.47.238" transform="translate(-23.965 -21.407)" fill="#263238"/>
                                          <path id="Path_82077" data-name="Path 82077" d="M40.56,53.467a3.806,3.806,0,0,0-3.5-1.183,3.475,3.475,0,0,0-2.309,1.445,2.2,2.2,0,0,0,0,2.523,2.554,2.554,0,0,0,2.81.514,8,8,0,0,0,2.587-1.789,2.341,2.341,0,0,0,.56-.663.707.707,0,0,0-.056-.785" transform="translate(-23.031 -25.754)" fill="#eb996e"/>
                                          <path id="Path_82078" data-name="Path 82078" d="M35.081,49.789c.342-.042.5,2.245,2.567,3.738s4.486,1.078,4.526,1.4c.042.141-.514.481-1.541.578a5.709,5.709,0,0,1-3.769-1.036,4.971,4.971,0,0,1-2-3.144c-.152-.951.066-1.534.223-1.532" transform="translate(-23.108 -25.342)" fill="#263238"/>
                                          <path id="Path_82079" data-name="Path 82079" d="M30.291,22.7c-.17.587-2.292.456-4.745.92-2.464.415-4.409,1.273-4.772.78-.163-.236.149-.8.918-1.407a8.4,8.4,0,0,1,7.251-1.3c.932.3,1.42.724,1.348,1" transform="translate(-20.731 -20.544)" fill="#263238"/>
                                          <path id="Path_82080" data-name="Path 82080" d="M54.676,22.327c-.339.5-1.824.1-3.572.2-1.75.032-3.2.538-3.577.06-.165-.234.036-.728.652-1.225a5.178,5.178,0,0,1,5.76-.207c.65.451.886.93.738,1.174" transform="translate(-25.245 -20.377)" fill="#263238"/>
                                        </g>
                                      </g>
                                      <g id="Group_93840" data-name="Group 93840" transform="translate(17.097 58.485)">
                                        <g id="Group_93839" data-name="Group 93839">
                                          <g id="Group_93838" data-name="Group 93838">
                                            <g id="Group_93837" data-name="Group 93837">
                                              <g id="Group_93836" data-name="Group 93836">
                                                <g id="Group_93835" data-name="Group 93835">
                                                  <g id="Group_93834" data-name="Group 93834">
                                                    <g id="Group_93833" data-name="Group 93833">
                                                      <g id="Group_93832" data-name="Group 93832">
                                                        <g id="Group_93831" data-name="Group 93831">
                                                          <g id="Group_93830" data-name="Group 93830">
                                                            <g id="Group_93829" data-name="Group 93829">
                                                              <g id="Group_93828" data-name="Group 93828">
                                                                <path id="Path_77770" data-name="Path 77770" d="M121.066,261.919a37.735,37.735,0,0,1-20.206-3.969s5.711,10.131,20.456,7.744Z" transform="translate(-100.86 -257.95)" fill="#eb996e"/>
                                                              </g>
                                                            </g>
                                                          </g>
                                                        </g>
                                                      </g>
                                                    </g>
                                                  </g>
                                                </g>
                                              </g>
                                            </g>
                                          </g>
                                        </g>
                                      </g>
                                    </g>
                                  </g>
                                </g>
                              </g>
                            </g>
                          </g>
                        </g>
                      </g>
                    </g>
                  </g>
                </g>
              </g>
              <g id="Group_93906" data-name="Group 93906" transform="translate(48.017 2.034)">
                <path id="Path_77775" data-name="Path 77775" d="M101.31,186.319c2.791,4.469,10.438,3.807,15.689,4.186,1.258.089,2.525.04,3.767.234a5.6,5.6,0,0,1,3.347,1.581c1.105,1.218,1.307,2.968,1.944,4.485a8.306,8.306,0,0,0,7.187,4.969,2.367,2.367,0,0,0,2.291-.952,2.707,2.707,0,0,0,.048-1.734c-.75-3.88-1.573-7.832-3.6-11.228a17.916,17.916,0,0,0-10.494-7.994c-4.348-1.194-14.8-.573-18.77,1.565" transform="translate(-101.31 -179.266)" fill="#263238"/>
              </g>
              <g id="Group_93908" data-name="Group 93908" transform="translate(5.339 2.224)">
                <g id="Group_93907" data-name="Group 93907">
                  <path id="Path_77776" data-name="Path 77776" d="M90.474,180.622A18.356,18.356,0,0,1,90,203.667c-3.162,3.557-8.09,6.566-7.994,11.325.1,5.275,6.542,8.615,7.042,13.866.516,5.4-5.388,9.429-6.1,14.8-.573,4.323,2.355,8.332,5.59,11.269s7.034,5.445,9.171,9.252c2.355,4.194,2.291,9.43.823,14.011s-4.219,8.639-7.09,12.5a55.024,55.024,0,0,0-13.713-1.718c.121-1.758.25-3.517.371-5.275.29,2.008-1.234,3.92-3.089,4.735a12.806,12.806,0,0,1-5.985.637,97.763,97.763,0,0,1-18.375-2.92c2.25-2.718,4.533-5.509,5.784-8.808s1.291-7.268-.774-10.131c-1.662-2.3-4.453-3.614-6-5.993-2.331-3.557-1.153-8.478,1.355-11.914s6.114-5.88,9.212-8.8,5.832-6.735,5.695-10.994c-.169-5.517-5.082-10.1-5.049-15.624.032-6.292,6.259-10.72,8.308-16.665,1.484-4.3.831-8.768,3.372-12.535a11.448,11.448,0,0,1,8.591-5.041c3.356-.137,6.308-.508,9.333.976" transform="translate(-48.402 -179.502)" fill="#263238"/>
                </g>
              </g>
              <g id="Group_93910" data-name="Group 93910" transform="translate(20.035 10.99)">
                <g id="Group_93909" data-name="Group 93909">
                  <path id="Path_77777" data-name="Path 77777" d="M97,190.37a1.951,1.951,0,0,1-.024.5,11.5,11.5,0,0,1-.194,1.412,17.207,17.207,0,0,1-1.734,4.953,19.178,19.178,0,0,1-4.928,6.017,17.132,17.132,0,0,1-3.928,2.428,29.409,29.409,0,0,1-4.7,1.525,16.9,16.9,0,0,0-4.525,1.734,7.218,7.218,0,0,0-2.888,3.307c-1.162,2.638-1.331,5.348-2.25,7.4a10.037,10.037,0,0,1-1.557,2.573,5.753,5.753,0,0,1-1.775,1.42,4.4,4.4,0,0,1-1.371.428,2.34,2.34,0,0,1-.5.008,5.461,5.461,0,0,0,1.8-.581,5.932,5.932,0,0,0,1.67-1.428,9.834,9.834,0,0,0,1.46-2.541c.863-2.008.992-4.711,2.17-7.453a7.661,7.661,0,0,1,3.025-3.5,17.076,17.076,0,0,1,4.63-1.783,29.546,29.546,0,0,0,4.646-1.492,17.346,17.346,0,0,0,3.856-2.355,19.1,19.1,0,0,0,4.9-5.856,18.271,18.271,0,0,0,1.831-4.848C96.893,191.056,96.949,190.37,97,190.37Z" transform="translate(-66.62 -190.37)" fill="#455a64"/>
                </g>
              </g>
              <g id="Group_93912" data-name="Group 93912" transform="translate(70.825 15.337)">
                <g id="Group_93911" data-name="Group 93911">
                  <path id="Path_77778" data-name="Path 77778" d="M148.287,206.754a4.127,4.127,0,0,0-.637-.637,3.677,3.677,0,0,0-2.331-.589c-.524.016-1.1.089-1.734.137a14.163,14.163,0,0,1-2.025-.008,13.909,13.909,0,0,1-4.493-1.137,13.543,13.543,0,0,1-6.195-5.542,13.132,13.132,0,0,1-1.057-2.315,3.355,3.355,0,0,1-.226-.9,27.626,27.626,0,0,0,1.533,3.065,13.861,13.861,0,0,0,10.47,6.445,15,15,0,0,0,1.976.048c.621-.032,1.21-.089,1.75-.089a3.675,3.675,0,0,1,2.436.758,1.86,1.86,0,0,1,.452.54C148.279,206.665,148.295,206.746,148.287,206.754Z" transform="translate(-129.586 -195.759)" fill="#455a64"/>
                </g>
              </g>
              <g id="Group_93914" data-name="Group 93914" transform="translate(49.178)">
                <g id="Group_93913" data-name="Group 93913">
                  <path id="Path_77779" data-name="Path 77779" d="M140.6,191.914a1.724,1.724,0,0,1-.468,0,8.434,8.434,0,0,1-1.331-.21,9.6,9.6,0,0,1-4.34-2.339,10.015,10.015,0,0,1-2.057-2.751c-.581-1.089-1.057-2.315-1.637-3.549a10.117,10.117,0,0,0-2.412-3.444,9.654,9.654,0,0,0-3.985-2.065,15.263,15.263,0,0,0-8.687.581,55.425,55.425,0,0,0-6.679,2.88c-1.871.9-3.42,1.589-4.517,1.992-.549.2-.976.347-1.274.428a2.322,2.322,0,0,1-.46.113,1.782,1.782,0,0,1,.428-.194c.323-.129.734-.3,1.242-.5,1.073-.452,2.589-1.162,4.445-2.105a52.315,52.315,0,0,1,6.7-2.976,15.492,15.492,0,0,1,8.913-.621,9.969,9.969,0,0,1,4.154,2.17,10.447,10.447,0,0,1,2.484,3.581c.581,1.258,1.041,2.476,1.589,3.557a9.7,9.7,0,0,0,6.13,5.09C139.952,191.865,140.6,191.865,140.6,191.914Z" transform="translate(-102.75 -176.745)" fill="#455a64"/>
                </g>
              </g>
              <g id="Group_93916" data-name="Group 93916" transform="translate(29.636 4.115)">
                <g id="Group_93915" data-name="Group 93915">
                  <path id="Path_77780" data-name="Path 77780" d="M78.529,189.932a2.985,2.985,0,0,1,.21-.871,9.967,9.967,0,0,1,1.065-2.21,10.7,10.7,0,0,1,14.358-3.622,9.448,9.448,0,0,1,1.984,1.436,3.065,3.065,0,0,1,.6.669,18.069,18.069,0,0,0-2.726-1.847,10.749,10.749,0,0,0-13.979,3.525A18.475,18.475,0,0,0,78.529,189.932Z" transform="translate(-78.523 -181.847)" fill="#455a64"/>
                </g>
              </g>
              <g id="Group_93918" data-name="Group 93918" transform="translate(15.461 27.162)">
                <g id="Group_93917" data-name="Group 93917">
                  <path id="Path_77781" data-name="Path 77781" d="M64.378,292.76c0-.032.347-.024.976-.161a5.986,5.986,0,0,0,2.509-1.218,8.425,8.425,0,0,0,2.589-3.557,9.292,9.292,0,0,0,.621-2.686,11.77,11.77,0,0,0-.234-3.1,21.157,21.157,0,0,0-2.823-6.558c-1.347-2.21-3.033-4.42-4.5-6.969a21.412,21.412,0,0,1-1.863-4.114,15.482,15.482,0,0,1-.7-4.67,17.083,17.083,0,0,1,2.912-9.381,15.933,15.933,0,0,1,3.42-3.7,26.377,26.377,0,0,1,4.186-2.509A21.327,21.327,0,0,0,75.4,241.7a8.571,8.571,0,0,0,2.525-3.533,16.208,16.208,0,0,0,.476-8.1c-.4-2.557-.976-4.92-1.2-7.131a18.311,18.311,0,0,1,.29-5.969,12.69,12.69,0,0,1,1.637-4.2,5.8,5.8,0,0,1,2.049-1.976,3.3,3.3,0,0,1,.686-.3,1.017,1.017,0,0,1,.242-.073c.016.032-.331.1-.879.444a5.925,5.925,0,0,0-1.952,1.992,12.808,12.808,0,0,0-1.549,4.162,18.418,18.418,0,0,0-.226,5.888c.242,2.186.831,4.533,1.25,7.114a16.509,16.509,0,0,1-.46,8.284A8.919,8.919,0,0,1,75.655,242a22.087,22.087,0,0,1-4,2.5,26.388,26.388,0,0,0-4.114,2.476,15.625,15.625,0,0,0-3.323,3.614,16.739,16.739,0,0,0-2.847,9.147,14.967,14.967,0,0,0,.67,4.549,20.886,20.886,0,0,0,1.823,4.049c1.444,2.525,3.122,4.743,4.461,6.985A21.208,21.208,0,0,1,71.138,282a11.592,11.592,0,0,1,.21,3.17,9.165,9.165,0,0,1-.67,2.759,8.463,8.463,0,0,1-2.71,3.6,5.953,5.953,0,0,1-2.6,1.17A4.587,4.587,0,0,1,64.378,292.76Z" transform="translate(-60.95 -210.418)" fill="#455a64"/>
                </g>
              </g>
              <g id="Group_93920" data-name="Group 93920" transform="translate(82.064 26.009)">
                <g id="Group_93919" data-name="Group 93919">
                  <path id="Path_77782" data-name="Path 77782" d="M144.932,268.075a5.694,5.694,0,0,0,1.363-2.13,10.04,10.04,0,0,0-.549-6.784c-.516-1.379-1.21-2.855-1.726-4.541a11.9,11.9,0,0,1-.5-2.694c.016-.476.032-.952.04-1.444.048-.484.169-.96.258-1.452a17.831,17.831,0,0,1,2.694-5.566c1.194-1.783,2.581-3.509,3.856-5.364a17.394,17.394,0,0,0,2.855-5.824,8.876,8.876,0,0,0-.637-5.872,21.3,21.3,0,0,0-3.065-4.566c-1.105-1.347-2.194-2.557-3.033-3.791a15.972,15.972,0,0,1-1.9-3.549,9.219,9.219,0,0,1-.581-2.984,6.329,6.329,0,0,1,.25-1.9,3.513,3.513,0,0,1,.242-.621,8.2,8.2,0,0,0-.331,2.525,9.212,9.212,0,0,0,.637,2.9,16.365,16.365,0,0,0,1.92,3.46c.839,1.21,1.944,2.4,3.057,3.743a21.687,21.687,0,0,1,3.146,4.63,9.265,9.265,0,0,1,.686,6.13,17.7,17.7,0,0,1-2.912,5.969c-1.291,1.871-2.67,3.6-3.864,5.356a17.581,17.581,0,0,0-2.662,5.429c-.081.476-.21.936-.258,1.4-.016.468-.032.928-.048,1.387a11.511,11.511,0,0,0,.468,2.613c.492,1.654,1.17,3.138,1.67,4.541a10.054,10.054,0,0,1,.428,6.945,4.687,4.687,0,0,1-1.016,1.629,3.727,3.727,0,0,1-.371.339A.526.526,0,0,1,144.932,268.075Z" transform="translate(-143.52 -208.99)" fill="#455a64"/>
                </g>
              </g>
              <g id="Group_93922" data-name="Group 93922" transform="translate(0 36.899)">
                <g id="Group_93921" data-name="Group 93921">
                  <path id="Path_77783" data-name="Path 77783" d="M42.3,285.326a2.421,2.421,0,0,1-.323-.669,4.45,4.45,0,0,1-.121-2.113,8,8,0,0,1,1.3-3.089c.71-1.105,1.71-2.218,2.541-3.606A10.309,10.309,0,0,0,47,270.8a47.493,47.493,0,0,0-.452-6.106,18.119,18.119,0,0,1,.274-6.816,14.437,14.437,0,0,1,3.84-6.227,58.639,58.639,0,0,1,5.558-4.759,48.6,48.6,0,0,0,5.058-4.493,24.557,24.557,0,0,0,6.195-9.478,18.717,18.717,0,0,0,.807-4.3,22.652,22.652,0,0,0-.065-3.315c-.048-.452-.089-.855-.129-1.21-.056-.339-.1-.629-.145-.879-.032-.218-.056-.4-.081-.54a.646.646,0,0,1-.016-.186.647.647,0,0,1,.056.177q.048.218.121.532c.048.25.113.54.186.879q.073.532.169,1.21a21.963,21.963,0,0,1,.137,3.348,18.859,18.859,0,0,1-.758,4.38,24.5,24.5,0,0,1-6.195,9.663,47.429,47.429,0,0,1-5.082,4.541,59.737,59.737,0,0,0-5.509,4.735,14.185,14.185,0,0,0-3.743,6.05,17.969,17.969,0,0,0-.282,6.671,47.263,47.263,0,0,1,.419,6.155,10.578,10.578,0,0,1-1.4,5.187c-.871,1.42-1.879,2.509-2.6,3.581a8.079,8.079,0,0,0-1.339,2.985,4.587,4.587,0,0,0,.04,2.065C42.192,285.1,42.321,285.318,42.3,285.326Z" transform="translate(-41.782 -222.49)" fill="#455a64"/>
                </g>
              </g>
              <g id="Group_93924" data-name="Group 93924" transform="translate(31.14 28.607)">
                <g id="Group_93923" data-name="Group 93923">
                  <path id="Path_77784" data-name="Path 77784" d="M91.352,296.519a18.665,18.665,0,0,0,1.9-3.146,15.519,15.519,0,0,0,1.25-4.1,15.355,15.355,0,0,0-2.9-11.874,65.8,65.8,0,0,0-5.235-5.985,24.793,24.793,0,0,1-5.017-7.276,11.861,11.861,0,0,1-.952-4.614,9.844,9.844,0,0,1,1.283-4.678c1.621-2.88,4.025-5.041,5.671-7.582a11.3,11.3,0,0,0,1.726-4.041A12.836,12.836,0,0,0,89.125,239a28.063,28.063,0,0,0-2.46-7.5,66.294,66.294,0,0,1-2.7-6.421,13.733,13.733,0,0,1-.024-9.922,7.645,7.645,0,0,1,1.5-2.3,5.669,5.669,0,0,1,.71-.645c.016.016-.234.234-.645.7a7.859,7.859,0,0,0-1.412,2.307,13.69,13.69,0,0,0,.153,9.76,66.842,66.842,0,0,0,2.734,6.364,28.091,28.091,0,0,1,2.525,7.59,13.446,13.446,0,0,1-.04,4.364,11.686,11.686,0,0,1-1.775,4.186c-1.686,2.6-4.082,4.759-5.654,7.558a9.49,9.49,0,0,0-1.234,4.485,11.309,11.309,0,0,0,.92,4.453,24.671,24.671,0,0,0,4.92,7.171,64.439,64.439,0,0,1,5.227,6.042,15.546,15.546,0,0,1,2.855,12.116,15.24,15.24,0,0,1-1.331,4.13,13.652,13.652,0,0,1-1.428,2.347l-.452.548A1.343,1.343,0,0,1,91.352,296.519Z" transform="translate(-80.388 -212.21)" fill="#455a64"/>
                </g>
              </g>
            </g>
            <g id="Group_93994" data-name="Group 93994" transform="translate(0 93.054)">
              <g id="Group_93951" data-name="Group 93951" transform="translate(42.28 36.806)">
                <g id="Group_93944" data-name="Group 93944">
                  <g id="Group_93931" data-name="Group 93931" transform="translate(0 3.88)">
                    <g id="Group_93928" data-name="Group 93928">
                      <g id="Group_93926" data-name="Group 93926">
                        <path id="Path_77785" data-name="Path 77785" d="M88.209,369.228l13.826-33.3,46.389,21.247-25.893,60.078L75.4,400.121Z" transform="translate(-75.4 -335.93)" fill="#e8505b"/>
                      </g>
                      <g id="Group_93927" data-name="Group 93927" opacity="0.3">
                        <path id="Path_77786" data-name="Path 77786" d="M88.209,369.228l13.826-33.3,46.389,21.247-25.893,60.078L75.4,400.121Z" transform="translate(-75.4 -335.93)"/>
                      </g>
                    </g>
                    <g id="Group_93929" data-name="Group 93929" transform="translate(47.131 21.247)">
                      <path id="Path_77787" data-name="Path 77787" d="M159.723,362.27,133.83,422.348l9.308,3.315,25.538-59.093Z" transform="translate(-133.83 -362.27)" fill="#e8505b"/>
                    </g>
                    <g id="Group_93930" data-name="Group 93930" transform="translate(47.131 21.247)" opacity="0.5">
                      <path id="Path_77788" data-name="Path 77788" d="M159.723,362.27,133.83,422.348l9.308,3.315,25.538-59.093Z" transform="translate(-133.83 -362.27)"/>
                    </g>
                  </g>
                  <g id="Group_93932" data-name="Group 93932" transform="translate(33.338)">
                    <path id="Path_77789" data-name="Path 77789" d="M116.73,337.484l3.17-6.364,43.316,21.013-2.21,5.671Z" transform="translate(-116.73 -331.12)" fill="#e0e0e0"/>
                  </g>
                  <g id="Group_93933" data-name="Group 93933" transform="translate(28.474 1.847)">
                    <path id="Path_77790" data-name="Path 77790" d="M110.7,336.282l1.25-2.872,49.43,23.279-.9,2.517Z" transform="translate(-110.7 -333.41)" fill="#fafafa"/>
                  </g>
                  <g id="Group_93935" data-name="Group 93935" transform="translate(57.042 37.056)">
                    <g id="Group_93934" data-name="Group 93934">
                      <path id="Path_77791" data-name="Path 77791" d="M163.2,377.06c.1.048-3.63,9.2-8.349,20.44s-8.631,20.319-8.736,20.279,3.63-9.2,8.349-20.44S163.1,377.02,163.2,377.06Z" transform="translate(-146.117 -377.06)" fill="#fff"/>
                    </g>
                  </g>
                  <g id="Group_93942" data-name="Group 93942" transform="translate(22.634 17.43)">
                    <g id="Group_93937" data-name="Group 93937">
                      <g id="Group_93936" data-name="Group 93936">
                        <path id="Path_77792" data-name="Path 77792" d="M112.244,352.73c0-.008.048.016.145.056.113.048.258.113.436.186.411.177.976.427,1.7.75,1.516.678,3.7,1.654,6.445,2.872,5.574,2.509,13.422,6.042,22.658,10.2l.177.081-.081.177c-2.726,6.243-5.735,13.116-8.889,20.343l-.081.194-.194-.081-.056-.024c-11.607-4.945-22.327-9.51-30.894-13.156l-.153-.065.065-.153c2.646-6.509,4.816-11.865,6.34-15.616.75-1.831,1.347-3.267,1.758-4.275.194-.468.347-.839.46-1.105a1.865,1.865,0,0,1,.161-.379s-.048.145-.145.411c-.1.282-.25.661-.436,1.153-.4,1.024-.968,2.484-1.694,4.34-1.476,3.743-3.581,9.091-6.138,15.592l-.089-.218c8.574,3.63,19.3,8.163,30.926,13.083l.056.024-.274.113c3.17-7.219,6.179-14.092,8.921-20.327l.1.25c-9.147-4.2-16.931-7.784-22.448-10.317-2.743-1.274-4.928-2.283-6.445-2.984-.734-.347-1.307-.613-1.718-.807-.186-.089-.331-.161-.444-.218A.86.86,0,0,1,112.244,352.73Z" transform="translate(-103.46 -352.728)" fill="#fff"/>
                      </g>
                    </g>
                    <g id="Group_93939" data-name="Group 93939" transform="translate(2.509 14.803)">
                      <g id="Group_93938" data-name="Group 93938">
                        <path id="Path_77793" data-name="Path 77793" d="M136.189,383.389a3.277,3.277,0,0,1-.29-.645c-.186-.484-.419-1.105-.718-1.863-.613-1.678-1.46-3.977-2.46-6.719l.226.113-8.679,2.839-.153.048-.089-.137c-.234-.379-.484-.782-.742-1.194-.936-1.524-1.847-3-2.7-4.388l.25.081c-4.057,1.565-7.6,2.928-10.188,3.928-1.226.46-2.226.831-2.985,1.105a7.28,7.28,0,0,1-1.089.355,6.587,6.587,0,0,1,1.041-.484c.742-.306,1.726-.718,2.936-1.218l10.131-4.065.161-.065.089.145c.855,1.379,1.767,2.855,2.71,4.38.25.411.5.815.734,1.194l-.242-.089c3.178-1.016,6.146-1.968,8.7-2.783l.169-.056.056.161c.952,2.767,1.742,5.074,2.323,6.768.258.774.46,1.412.621,1.9A3.692,3.692,0,0,1,136.189,383.389Z" transform="translate(-106.57 -371.08)" fill="#fff"/>
                      </g>
                    </g>
                    <g id="Group_93941" data-name="Group 93941" transform="translate(19.94 11.956)">
                      <g id="Group_93940" data-name="Group 93940">
                        <path id="Path_77794" data-name="Path 77794" d="M131.9,369.486c-.032,0-.048-.153-.137-.411a1.817,1.817,0,0,0-.645-.871,1.627,1.627,0,0,0-1.5-.194,1.6,1.6,0,0,0-1.016,1.468,1.574,1.574,0,0,0,1.016,1.468,1.6,1.6,0,0,0,1.5-.186,1.717,1.717,0,0,0,.645-.871c.089-.25.1-.4.137-.4.024,0,.065.161.024.452a1.716,1.716,0,0,1-.629,1.065,1.88,1.88,0,0,1-1.815.315,1.94,1.94,0,0,1,0-3.662,1.9,1.9,0,0,1,1.815.315,1.8,1.8,0,0,1,.629,1.065C131.963,369.325,131.923,369.486,131.9,369.486Z" transform="translate(-128.18 -367.551)" fill="#fff"/>
                      </g>
                    </g>
                  </g>
                  <g id="Group_93943" data-name="Group 93943" transform="translate(53.068 18.924)">
                    <path id="Path_77795" data-name="Path 77795" d="M157.29,359.081s-3.162-6.146-8.841-4.073c-2.234.815-7.26,15.963-7.26,15.963l3.251-1.024,2.017,3.364s6.469-15.891,7.445-15.753Z" transform="translate(-141.19 -354.58)" fill="#1794c9"/>
                  </g>
                </g>
                <g id="Group_93946" data-name="Group 93946" transform="translate(19.561 43.459)">
                  <g id="Group_93945" data-name="Group 93945">
                    <path id="Path_77796" data-name="Path 77796" d="M133.552,398.365a10.54,10.54,0,0,1-1.363-.452c-.928-.347-2.162-.807-3.662-1.371-3.081-1.178-7.332-2.823-12.011-4.67s-8.913-3.541-11.962-4.783c-1.476-.613-2.694-1.113-3.606-1.492a10.641,10.641,0,0,1-1.3-.6,9.655,9.655,0,0,1,1.363.452c.928.347,2.162.807,3.662,1.371,3.081,1.178,7.332,2.823,12.011,4.67s8.905,3.533,11.954,4.775c1.476.613,2.694,1.113,3.606,1.492A9.051,9.051,0,0,1,133.552,398.365Z" transform="translate(-99.65 -384.997)" fill="#fff"/>
                  </g>
                </g>
                <g id="Group_93948" data-name="Group 93948" transform="translate(17.665 46.04)">
                  <g id="Group_93947" data-name="Group 93947">
                    <path id="Path_77797" data-name="Path 77797" d="M131.2,401.565a10.531,10.531,0,0,1-1.363-.452c-.928-.347-2.162-.807-3.662-1.371-3.081-1.178-7.332-2.823-12.011-4.67s-8.913-3.541-11.962-4.783c-1.476-.613-2.694-1.113-3.606-1.492a10.64,10.64,0,0,1-1.3-.6,9.659,9.659,0,0,1,1.363.452c.928.347,2.162.807,3.662,1.371,3.081,1.178,7.332,2.823,12.011,4.67s8.905,3.533,11.954,4.775c1.476.613,2.694,1.113,3.606,1.492A11.983,11.983,0,0,1,131.2,401.565Z" transform="translate(-97.3 -388.197)" fill="#fff"/>
                  </g>
                </g>
                <g id="Group_93950" data-name="Group 93950" transform="translate(16.633 49.508)">
                  <g id="Group_93949" data-name="Group 93949">
                    <path id="Path_77798" data-name="Path 77798" d="M129.922,405.865a10.534,10.534,0,0,1-1.363-.452c-.928-.347-2.162-.807-3.662-1.371-3.081-1.178-7.332-2.823-12.011-4.67s-8.913-3.541-11.962-4.783c-1.476-.613-2.694-1.113-3.606-1.492a10.624,10.624,0,0,1-1.3-.6,9.671,9.671,0,0,1,1.363.452c.928.347,2.162.807,3.662,1.371,3.081,1.178,7.332,2.823,12.011,4.67s8.905,3.533,11.954,4.775c1.476.613,2.694,1.113,3.606,1.492A11.965,11.965,0,0,1,129.922,405.865Z" transform="translate(-96.02 -392.497)" fill="#fff"/>
                  </g>
                </g>
              </g>
              <g id="Group_93965" data-name="Group 93965">
                <g id="Group_93963" data-name="Group 93963" transform="translate(65.116 90.189)">
                  <g id="Group_93953" data-name="Group 93953" transform="translate(0)">
                    <g id="Group_93952" data-name="Group 93952">
                      <path id="Path_77799" data-name="Path 77799" d="M109.812,397.32l6.977,3.509s5.558-2.71,8.324-3.114,14.681,1.129,14.681,1.129a3,3,0,0,1-2.065,3.194c-1.065.331-6.929-.04-6.929-.04h0a2.952,2.952,0,0,0,.807,4.961c2.976,1.234,6.437,2.694,6.848,2.96.452.3,4.743-.5,7.937-1.137,1.912-.387,3.291,2.057,1.807,3.331a.975.975,0,0,1-.492.242s2.872,1.718-2.081,3.872c0,0-1.678,3.856-4.767,4.122,0,0-3.614,3.63-5.872,4.227s-16.939-5.009-16.939-5.009l-14.277-7.4Z" transform="translate(-103.722 -397.304)" fill="#ffbe9d"/>
                      <path id="Path_77800" data-name="Path 77800" d="M134.539,424.628c-3.243,0-16.383-5-16.528-5.049l-14.3-7.413.008-.016,6.066-14.85.016.008,6.969,3.5c.258-.121,5.638-2.718,8.316-3.114a9.325,9.325,0,0,1,1.307-.073c4.049,0,13.269,1.186,13.374,1.2h.016v.016a3.03,3.03,0,0,1-2.081,3.21c-1.032.323-6.679-.024-6.929-.032a2.932,2.932,0,0,0,.807,4.92c2.9,1.2,6.437,2.694,6.856,2.96.347.218,3.162-.186,7.921-1.145a1.871,1.871,0,0,1,.411-.04,2.082,2.082,0,0,1,1.839,1.194,1.782,1.782,0,0,1-.428,2.21.977.977,0,0,1-.452.234,1.665,1.665,0,0,1,.79,1.355c-.056.855-1.032,1.7-2.9,2.517a9.609,9.609,0,0,1-1.226,1.96,5.414,5.414,0,0,1-3.549,2.17c-.161.161-3.678,3.646-5.88,4.227A1.421,1.421,0,0,1,134.539,424.628Zm-30.765-12.487,14.261,7.4c.137.056,13.269,5.05,16.5,5.05a2.08,2.08,0,0,0,.428-.04c2.226-.589,5.832-4.186,5.864-4.219l.008-.008h.008a5.331,5.331,0,0,0,3.525-2.154,9.562,9.562,0,0,0,1.226-1.96V416.2h.008c1.863-.807,2.839-1.646,2.888-2.492a1.683,1.683,0,0,0-.815-1.347l-.048-.032.056-.008a.975.975,0,0,0,.476-.234,1.731,1.731,0,0,0,.411-2.162,2,2,0,0,0-2.2-1.129,60.28,60.28,0,0,1-7.494,1.2,1.075,1.075,0,0,1-.452-.064c-.323-.21-2.694-1.234-6.848-2.96a2.982,2.982,0,0,1-.815-5l.008-.008h.008c.056.008,5.872.363,6.921.04a2.761,2.761,0,0,0,1.912-1.855,3.464,3.464,0,0,0,.145-1.3c-.436-.056-9.389-1.2-13.358-1.2a10.784,10.784,0,0,0-1.3.065c-2.726.4-8.26,3.089-8.316,3.114l-.008.008-.008-.008-6.953-3.493Z" transform="translate(-103.71 -397.3)" fill="#eb996e"/>
                    </g>
                  </g>
                  <g id="Group_93956" data-name="Group 93956" transform="translate(26.439 14.386)">
                    <g id="Group_93955" data-name="Group 93955">
                      <g id="Group_93954" data-name="Group 93954">
                        <path id="Path_77801" data-name="Path 77801" d="M136.49,415.147a8.916,8.916,0,0,0,2.275,1.549,14.492,14.492,0,0,0,6.348,2.089,13.45,13.45,0,0,0,6.461-1.694,9.109,9.109,0,0,0,2.339-1.452,12.562,12.562,0,0,0-2.549.992,14.888,14.888,0,0,1-6.227,1.444A16.458,16.458,0,0,1,139,416.252,11.782,11.782,0,0,0,136.49,415.147Z" transform="translate(-136.488 -415.134)" fill="#eb996e"/>
                      </g>
                    </g>
                  </g>
                  <g id="Group_93959" data-name="Group 93959" transform="translate(25.824 18.238)">
                    <g id="Group_93958" data-name="Group 93958">
                      <g id="Group_93957" data-name="Group 93957">
                        <path id="Path_77802" data-name="Path 77802" d="M135.729,419.918c-.065.073.629.774,2,1.533a18.247,18.247,0,0,0,2.484,1.145,8.508,8.508,0,0,0,3.364.637,14.425,14.425,0,0,0,3.291-.75q1.331-.436,2.565-.847a9.4,9.4,0,0,0,2.315-.944,8.6,8.6,0,0,0-2.46.468c-.742.186-1.637.419-2.613.7a17.035,17.035,0,0,1-3.154.669,8.544,8.544,0,0,1-3.1-.548,25.681,25.681,0,0,1-2.476-.976C136.568,420.378,135.794,419.837,135.729,419.918Z" transform="translate(-135.725 -419.91)" fill="#eb996e"/>
                      </g>
                    </g>
                  </g>
                  <g id="Group_93962" data-name="Group 93962" transform="translate(25.486 22.731)">
                    <g id="Group_93961" data-name="Group 93961">
                      <g id="Group_93960" data-name="Group 93960">
                        <path id="Path_77803" data-name="Path 77803" d="M135.309,425.5c-.113.266,2.509,1.274,5.719,2.275a2.725,2.725,0,0,0,1.387.04,9.47,9.47,0,0,0,1.162-.258,11.168,11.168,0,0,0,1.871-.7c1.032-.492,1.557-1,1.5-1.065a9.494,9.494,0,0,0-1.686.6,18.149,18.149,0,0,1-1.839.532,11.037,11.037,0,0,1-1.1.2,2.231,2.231,0,0,1-1.065-.024c-1.637-.524-3.105-.928-4.186-1.218A7.031,7.031,0,0,0,135.309,425.5Z" transform="translate(-135.306 -425.48)" fill="#eb996e"/>
                      </g>
                    </g>
                  </g>
                </g>
                <g id="Group_93964" data-name="Group 93964">
                  <path id="Path_77804" data-name="Path 77804" d="M52.229,285.49s-8.2,5.275-13.083,19.827c-4.162,12.374-12.833,32.346-15.7,46.575-2.089,10.373,2.815,22.634,15.721,26.135l48.962,14.713,7.485-18.375L51.68,352.045,63.723,324.6Z" transform="translate(-22.984 -285.49)" fill="#e32726"/>
                </g>
              </g>
              <g id="Group_93967" data-name="Group 93967" transform="translate(11.83 66.274)">
                <g id="Group_93966" data-name="Group 93966">
                  <path id="Path_77805" data-name="Path 77805" d="M37.65,392.261a1.4,1.4,0,0,1,.274.065c.194.056.452.129.782.218.71.21,1.726.508,3.025.9,2.654.8,6.469,1.952,11.228,3.38,9.559,2.912,22.884,6.977,38.065,11.607l-.25.121c1.533-3.767,3.13-7.687,4.767-11.7.92-2.259,1.831-4.493,2.726-6.679l.1.266c-9.187-4.549-17.681-8.97-25.126-12.817s-13.858-7.131-18.778-9.583l.024.008a9.211,9.211,0,0,0-4.9.363,10.535,10.535,0,0,0-3.227,1.8,9.812,9.812,0,0,0-1.008.887,8.638,8.638,0,0,0-.678.7c-.169.186-.3.331-.4.444a.979.979,0,0,1-.145.145c-.008,0,.032-.056.121-.161.1-.121.218-.274.379-.468a6.931,6.931,0,0,1,.661-.726,9.646,9.646,0,0,1,1-.911,10.539,10.539,0,0,1,3.243-1.879,9.426,9.426,0,0,1,5.017-.411h.008l.016.008c4.953,2.42,11.381,5.646,18.843,9.478s15.955,8.228,25.143,12.761l.177.089-.073.177c-.887,2.178-1.8,4.42-2.718,6.679-1.637,4.009-3.235,7.921-4.767,11.7l-.073.177-.177-.056c-15.165-4.686-28.474-8.8-38.024-11.744-4.743-1.484-8.55-2.678-11.2-3.5l-3.009-.96c-.331-.1-.581-.194-.774-.258A1.92,1.92,0,0,1,37.65,392.261Z" transform="translate(-37.65 -367.652)" fill="#263238"/>
                </g>
              </g>
              <g id="Group_93969" data-name="Group 93969" transform="translate(28.589 24.521)">
                <g id="Group_93968" data-name="Group 93968">
                  <path id="Path_77806" data-name="Path 77806" d="M72.642,315.89a1.77,1.77,0,0,1,.145.436,8.6,8.6,0,0,1,.274,1.283,16.86,16.86,0,0,1,.016,4.832,31.5,31.5,0,0,1-1.888,6.9c-.968,2.517-2.21,5.2-3.452,8.042-2.525,5.638-4.816,10.736-6.5,14.5-.831,1.807-1.516,3.283-2.017,4.372-.226.476-.419.871-.565,1.178a2.263,2.263,0,0,1-.226.4,1.918,1.918,0,0,1,.145-.436c.129-.323.29-.718.492-1.21.468-1.1,1.113-2.6,1.888-4.428,1.654-3.767,3.9-8.889,6.388-14.543,1.25-2.839,2.5-5.517,3.477-8.01a33.061,33.061,0,0,0,1.96-6.808,17.669,17.669,0,0,0,.121-4.759c-.056-.565-.145-.992-.2-1.291A2.767,2.767,0,0,1,72.642,315.89Z" transform="translate(-58.427 -315.89)" fill="#263238"/>
                </g>
              </g>
            </g>
          </g>
        </g>
      </g>
      <g id="Plant" transform="translate(112.7 424.446)">
        <g id="Group_29866" data-name="Group 29866" transform="translate(0 0)">
          <g id="Group_29675" data-name="Group 29675" transform="translate(4.234 70.119)">
            <g id="Group_29674" data-name="Group 29674">
              <g id="Group_29673" data-name="Group 29673">
                <g id="Group_29672" data-name="Group 29672">
                  <path id="Path_42973" data-name="Path 42973" d="M223.9,258.6l5.174,34.339h30.341l7.056-33.751Z" transform="translate(-223.9 -258.6)" fill="#455a64"/>
                </g>
              </g>
            </g>
          </g>
          <g id="Group_29731" data-name="Group 29731" transform="translate(7.526 88.347)">
            <g id="Group_29680" data-name="Group 29680" transform="translate(0.235 3.528)">
              <g id="Group_29679" data-name="Group 29679">
                <g id="Group_29678" data-name="Group 29678">
                  <g id="Group_29677" data-name="Group 29677">
                    <g id="Group_29676" data-name="Group 29676">
                      <path id="Path_42974" data-name="Path 42974" d="M261.71,277.335c0,.118-7.762.235-17.4.235s-17.4-.118-17.4-.235,7.762-.235,17.4-.235C253.948,277.217,261.71,277.335,261.71,277.335Z" transform="translate(-226.9 -277.1)" fill="#fafafa"/>
                    </g>
                  </g>
                </g>
              </g>
            </g>
            <g id="Group_29685" data-name="Group 29685" transform="translate(0.118 1.882)">
              <g id="Group_29684" data-name="Group 29684">
                <g id="Group_29683" data-name="Group 29683">
                  <g id="Group_29682" data-name="Group 29682">
                    <g id="Group_29681" data-name="Group 29681">
                      <path id="Path_42975" data-name="Path 42975" d="M261.845,275.935c0,.118-7.879.235-17.523.235s-17.522-.118-17.522-.235,7.879-.235,17.522-.235S261.845,275.818,261.845,275.935Z" transform="translate(-226.8 -275.7)" fill="#fafafa"/>
                    </g>
                  </g>
                </g>
              </g>
            </g>
            <g id="Group_29690" data-name="Group 29690">
              <g id="Group_29689" data-name="Group 29689">
                <g id="Group_29688" data-name="Group 29688">
                  <g id="Group_29687" data-name="Group 29687">
                    <g id="Group_29686" data-name="Group 29686">
                      <path id="Path_42976" data-name="Path 42976" d="M261.745,274.335c0,.118-7.879.235-17.522.235s-17.523-.118-17.523-.235,7.879-.235,17.523-.235C253.983,274.1,261.745,274.218,261.745,274.335Z" transform="translate(-226.7 -274.1)" fill="#fafafa"/>
                    </g>
                  </g>
                </g>
              </g>
            </g>
            <g id="Group_29695" data-name="Group 29695" transform="translate(3.851 5.41)">
              <g id="Group_29694" data-name="Group 29694">
                <g id="Group_29693" data-name="Group 29693">
                  <g id="Group_29692" data-name="Group 29692">
                    <g id="Group_29691" data-name="Group 29691">
                      <path id="Path_42977" data-name="Path 42977" d="M231.533,287.4a30.813,30.813,0,0,1-.941-4.351A20.017,20.017,0,0,1,230,278.7a30.777,30.777,0,0,1,.941,4.351A38.731,38.731,0,0,1,231.533,287.4Z" transform="translate(-229.975 -278.7)" fill="#fafafa"/>
                    </g>
                  </g>
                </g>
              </g>
            </g>
            <g id="Group_29700" data-name="Group 29700" transform="translate(6.789 5.292)">
              <g id="Group_29699" data-name="Group 29699">
                <g id="Group_29698" data-name="Group 29698">
                  <g id="Group_29697" data-name="Group 29697">
                    <g id="Group_29696" data-name="Group 29696">
                      <path id="Path_42978" data-name="Path 42978" d="M233.093,287.067a25.569,25.569,0,0,1-.353-4.234c-.118-2.352-.353-4.234-.235-4.234a24.486,24.486,0,0,1,.588,4.234A14.089,14.089,0,0,1,233.093,287.067Z" transform="translate(-232.473 -278.6)" fill="#fafafa"/>
                    </g>
                  </g>
                </g>
              </g>
            </g>
            <g id="Group_29705" data-name="Group 29705" transform="translate(10.068 5.057)">
              <g id="Group_29704" data-name="Group 29704">
                <g id="Group_29703" data-name="Group 29703">
                  <g id="Group_29702" data-name="Group 29702">
                    <g id="Group_29701" data-name="Group 29701">
                      <path id="Path_42979" data-name="Path 42979" d="M236.365,287.1a33.06,33.06,0,0,1-1.059-8.7,27.216,27.216,0,0,1,.588,4.351A25.826,25.826,0,0,1,236.365,287.1Z" transform="translate(-235.261 -278.4)" fill="#fafafa"/>
                    </g>
                  </g>
                </g>
              </g>
            </g>
            <g id="Group_29710" data-name="Group 29710" transform="translate(13.358 5.287)">
              <g id="Group_29709" data-name="Group 29709">
                <g id="Group_29708" data-name="Group 29708">
                  <g id="Group_29707" data-name="Group 29707">
                    <g id="Group_29706" data-name="Group 29706">
                      <path id="Path_42980" data-name="Path 42980" d="M238.578,287.3a21.262,21.262,0,0,1-.47-4.351,16.7,16.7,0,0,1,.118-4.351,41.753,41.753,0,0,1,.235,4.351A30.793,30.793,0,0,1,238.578,287.3Z" transform="translate(-238.059 -278.596)" fill="#fafafa"/>
                    </g>
                  </g>
                </g>
              </g>
            </g>
            <g id="Group_29715" data-name="Group 29715" transform="translate(18.022 5.41)">
              <g id="Group_29714" data-name="Group 29714">
                <g id="Group_29713" data-name="Group 29713">
                  <g id="Group_29712" data-name="Group 29712">
                    <g id="Group_29711" data-name="Group 29711">
                      <path id="Path_42981" data-name="Path 42981" d="M242.466,287.05a24.993,24.993,0,0,1-.353-4.116,21.034,21.034,0,0,1,0-4.234,24.993,24.993,0,0,1,.353,4.116A21.044,21.044,0,0,1,242.466,287.05Z" transform="translate(-242.025 -278.7)" fill="#fafafa"/>
                    </g>
                  </g>
                </g>
              </g>
            </g>
            <g id="Group_29720" data-name="Group 29720" transform="translate(21.874 5.292)">
              <g id="Group_29719" data-name="Group 29719">
                <g id="Group_29718" data-name="Group 29718">
                  <g id="Group_29717" data-name="Group 29717">
                    <g id="Group_29716" data-name="Group 29716">
                      <path id="Path_42982" data-name="Path 42982" d="M245.418,287.3a28.122,28.122,0,0,1-.118-4.351,21.77,21.77,0,0,1,.235-4.351,28.127,28.127,0,0,1,.118,4.351C245.535,285.3,245.418,287.3,245.418,287.3Z" transform="translate(-245.3 -278.6)" fill="#fafafa"/>
                    </g>
                  </g>
                </g>
              </g>
            </g>
            <g id="Group_29725" data-name="Group 29725" transform="translate(25.12 4.586)">
              <g id="Group_29724" data-name="Group 29724">
                <g id="Group_29723" data-name="Group 29723">
                  <g id="Group_29722" data-name="Group 29722">
                    <g id="Group_29721" data-name="Group 29721">
                      <path id="Path_42983" data-name="Path 42983" d="M248.107,286.938a24.863,24.863,0,0,1,.235-4.469A27.456,27.456,0,0,1,248.93,278a24.855,24.855,0,0,1-.235,4.469A27.461,27.461,0,0,1,248.107,286.938Z" transform="translate(-248.061 -278)" fill="#fafafa"/>
                    </g>
                  </g>
                </g>
              </g>
            </g>
            <g id="Group_29730" data-name="Group 29730" transform="translate(29.24 5.521)">
              <g id="Group_29729" data-name="Group 29729">
                <g id="Group_29728" data-name="Group 29728">
                  <g id="Group_29727" data-name="Group 29727">
                    <g id="Group_29726" data-name="Group 29726">
                      <path id="Path_42984" data-name="Path 42984" d="M251.606,286.327a12.88,12.88,0,0,1,.47-3.881,11.392,11.392,0,0,1,1.176-3.646,33.129,33.129,0,0,1-.823,3.763A38.017,38.017,0,0,1,251.606,286.327Z" transform="translate(-251.564 -278.795)" fill="#fafafa"/>
                    </g>
                  </g>
                </g>
              </g>
            </g>
          </g>
          <g id="Group_29773" data-name="Group 29773" transform="translate(16.023)">
            <g id="Group_29736" data-name="Group 29736" transform="translate(9.849 2.499)">
              <g id="Group_29735" data-name="Group 29735">
                <g id="Group_29734" data-name="Group 29734">
                  <g id="Group_29733" data-name="Group 29733">
                    <g id="Group_29732" data-name="Group 29732">
                      <path id="Path_42985" data-name="Path 42985" d="M250.3,201.1v.118c0,.118-.118.235-.118.47-.118.47-.353,1.058-.588,1.882s-.588,1.764-.941,2.94-.706,2.47-1.059,3.881-.823,3.058-1.176,4.822c-.47,1.764-.823,3.528-1.176,5.527-.706,3.881-1.411,8.232-1.882,12.818a127.761,127.761,0,0,0-.706,12.936v5.645c0,1.764.118,3.41.235,4.939s.235,2.822.353,4,.235,2.234.235,3.058c.118.823.118,1.411.235,1.882v.47a.707.707,0,0,0-.118-.47c-.118-.47-.118-1.058-.235-1.882s-.235-1.882-.353-3.058-.235-2.587-.353-4c-.118-1.529-.235-3.175-.235-4.939-.118-1.764-.118-3.646-.118-5.645a127.757,127.757,0,0,1,.706-12.936c.47-4.586,1.176-8.938,1.882-12.818.353-2,.823-3.763,1.176-5.527s.823-3.293,1.176-4.822c.353-1.411.823-2.7,1.176-3.881s.706-2.117.941-2.94.47-1.411.588-1.882a.889.889,0,0,0,.118-.47Z" transform="translate(-242.3 -201.1)" fill="#455a64"/>
                    </g>
                  </g>
                </g>
              </g>
            </g>
            <g id="Group_29740" data-name="Group 29740" transform="translate(11.731 17.173)">
              <g id="Group_29739" data-name="Group 29739">
                <g id="Group_29738" data-name="Group 29738">
                  <g id="Group_29737" data-name="Group 29737">
                    <path id="Path_42986" data-name="Path 42986" d="M244.488,220.19a11.312,11.312,0,0,1,4.7-6,2.692,2.692,0,0,1,2.47-.47c1.058.47,1.176,2,.823,3.175a8.647,8.647,0,0,1-3.41,4.7,7.325,7.325,0,0,1-5.174,1.294" transform="translate(-243.9 -213.578)" fill="#d2e7bb"/>
                  </g>
                </g>
              </g>
            </g>
            <g id="Group_29744" data-name="Group 29744" transform="translate(10.437 28.209)">
              <g id="Group_29743" data-name="Group 29743">
                <g id="Group_29742" data-name="Group 29742">
                  <g id="Group_29741" data-name="Group 29741">
                    <path id="Path_42987" data-name="Path 42987" d="M242.918,232.767c.823-2.94,3.175-7.174,5.645-9.055a4.568,4.568,0,0,1,1.294-.706,1.546,1.546,0,0,1,1.411.353,2.328,2.328,0,0,1,.353,2,11.978,11.978,0,0,1-8.82,8.938" transform="translate(-242.8 -222.962)" fill="#d2e7bb"/>
                  </g>
                </g>
              </g>
            </g>
            <g id="Group_29748" data-name="Group 29748" transform="translate(9.967 42.931)">
              <g id="Group_29747" data-name="Group 29747">
                <g id="Group_29746" data-name="Group 29746">
                  <g id="Group_29745" data-name="Group 29745">
                    <path id="Path_42988" data-name="Path 42988" d="M242.4,243.265a16.6,16.6,0,0,1,5.645-7.056,2.633,2.633,0,0,1,2-.706,2.294,2.294,0,0,1,1.411,2.587c-.235,2.234-1.882,4-3.646,5.41a21.435,21.435,0,0,1-5.174,2.7" transform="translate(-242.4 -235.481)" fill="#d2e7bb"/>
                  </g>
                </g>
              </g>
            </g>
            <g id="Group_29752" data-name="Group 29752" transform="translate(10.319 53.625)">
              <g id="Group_29751" data-name="Group 29751">
                <g id="Group_29750" data-name="Group 29750">
                  <g id="Group_29749" data-name="Group 29749">
                    <path id="Path_42989" data-name="Path 42989" d="M242.7,250.72a18.2,18.2,0,0,1,4.822-5.527,2.444,2.444,0,0,1,1.411-.588,1.431,1.431,0,0,1,1.411.588c.47.706,0,1.646-.47,2.352a13.955,13.955,0,0,1-6.821,5.057" transform="translate(-242.7 -244.574)" fill="#d2e7bb"/>
                  </g>
                </g>
              </g>
            </g>
            <g id="Group_29756" data-name="Group 29756" transform="translate(1.264 48.522)">
              <g id="Group_29755" data-name="Group 29755">
                <g id="Group_29754" data-name="Group 29754">
                  <g id="Group_29753" data-name="Group 29753">
                    <path id="Path_42990" data-name="Path 42990" d="M243.82,247.838A55.4,55.4,0,0,0,237,240.782c-.353-.353-.941-.706-1.411-.47a.931.931,0,0,0-.588.941,4.185,4.185,0,0,0,.235,1.176,13.265,13.265,0,0,0,8.82,7.409" transform="translate(-235 -240.235)" fill="#d2e7bb"/>
                  </g>
                </g>
              </g>
            </g>
            <g id="Group_29760" data-name="Group 29760" transform="translate(0 35.705)">
              <g id="Group_29759" data-name="Group 29759">
                <g id="Group_29758" data-name="Group 29758">
                  <g id="Group_29757" data-name="Group 29757">
                    <path id="Path_42991" data-name="Path 42991" d="M244.244,237.878c-1.764-2.234-3.646-4.351-5.41-6.586a5.9,5.9,0,0,0-1.764-1.646,2.394,2.394,0,0,0-2.352,0,1.9,1.9,0,0,0-.706,2.117,4.516,4.516,0,0,0,1.058,2.117,18.9,18.9,0,0,0,3.881,4.234,6.9,6.9,0,0,0,4.939,1.529" transform="translate(-233.925 -229.336)" fill="#d2e7bb"/>
                  </g>
                </g>
              </g>
            </g>
            <g id="Group_29764" data-name="Group 29764" transform="translate(1.569 21.984)">
              <g id="Group_29763" data-name="Group 29763">
                <g id="Group_29762" data-name="Group 29762">
                  <g id="Group_29761" data-name="Group 29761">
                    <path id="Path_42992" data-name="Path 42992" d="M244.715,226.643a18.328,18.328,0,0,0-5.41-8.114,3.438,3.438,0,0,0-1.411-.823,2.37,2.37,0,0,0-2.47,1.764A4.631,4.631,0,0,0,235.9,223a9.379,9.379,0,0,0,2.587,2.7,22.9,22.9,0,0,0,6,3.293" transform="translate(-235.259 -217.669)" fill="#d2e7bb"/>
                  </g>
                </g>
              </g>
            </g>
            <g id="Group_29768" data-name="Group 29768" transform="translate(4.91 7.776)">
              <g id="Group_29767" data-name="Group 29767">
                <g id="Group_29766" data-name="Group 29766">
                  <g id="Group_29765" data-name="Group 29765">
                    <path id="Path_42993" data-name="Path 42993" d="M246.332,216.892c-.47-3.763-2.47-6.938-4.822-10.114a2.183,2.183,0,0,0-2-1.176,1.868,1.868,0,0,0-1.176.941,3.473,3.473,0,0,0-.235,1.529,11.991,11.991,0,0,0,7.644,10.584" transform="translate(-238.1 -205.587)" fill="#d2e7bb"/>
                  </g>
                </g>
              </g>
            </g>
            <g id="Group_29772" data-name="Group 29772" transform="translate(14.389)">
              <g id="Group_29771" data-name="Group 29771">
                <g id="Group_29770" data-name="Group 29770">
                  <g id="Group_29769" data-name="Group 29769">
                    <path id="Path_42994" data-name="Path 42994" d="M246.442,212.058a32.8,32.8,0,0,1-.235-5.88,10.534,10.534,0,0,1,2-5.527,3.7,3.7,0,0,1,2-1.529,2.378,2.378,0,0,1,2.352.353,2.667,2.667,0,0,1,.823,2.117,6.961,6.961,0,0,1-.588,2.234c-1.411,3.41-3.763,7.291-6.35,8.232" transform="translate(-246.161 -198.975)" fill="#d2e7bb"/>
                  </g>
                </g>
              </g>
            </g>
          </g>
          <g id="Group_29815" data-name="Group 29815" transform="translate(0 15.458)">
            <g id="Group_29778" data-name="Group 29778" transform="translate(6.821 2.211)">
              <g id="Group_29777" data-name="Group 29777">
                <g id="Group_29776" data-name="Group 29776">
                  <g id="Group_29775" data-name="Group 29775">
                    <g id="Group_29774" data-name="Group 29774">
                      <path id="Path_42995" data-name="Path 42995" d="M226.453,214v4.116a26.6,26.6,0,0,0,.118,2.94c.118,2.117.353,4.7.588,7.526.353,2.822.823,5.88,1.529,9.055s1.529,6.233,2.234,8.938c.823,2.7,1.646,5.174,2.47,7.174.353,1.058.706,1.882,1.058,2.7s.588,1.411.823,2a13.807,13.807,0,0,0,.588,1.294c.118.235.235.47.118.47a1.286,1.286,0,0,1-.235-.47c-.118-.353-.353-.706-.588-1.294s-.588-1.176-.941-2-.706-1.646-1.176-2.7c-.823-2-1.646-4.469-2.47-7.174s-1.646-5.762-2.352-8.938-1.176-6.35-1.529-9.173-.47-5.41-.588-7.526v-6.586C226.453,214.118,226.453,214,226.453,214Z" transform="translate(-226.1 -214)" fill="#263238"/>
                    </g>
                  </g>
                </g>
              </g>
            </g>
            <g id="Group_29782" data-name="Group 29782" transform="translate(8.114 11.836)">
              <g id="Group_29781" data-name="Group 29781">
                <g id="Group_29780" data-name="Group 29780">
                  <g id="Group_29779" data-name="Group 29779">
                    <path id="Path_42996" data-name="Path 42996" d="M227.2,228.083a7.9,7.9,0,0,1,1.882-5.057c.47-.47.941-.941,1.646-.823.823.118,1.176,1.058,1.294,2a6.416,6.416,0,0,1-1.294,3.881,5.468,5.468,0,0,1-3.175,2" transform="translate(-227.2 -222.184)" fill="#b8d39b"/>
                  </g>
                </g>
              </g>
            </g>
            <g id="Group_29786" data-name="Group 29786" transform="translate(9.866 19.774)">
              <g id="Group_29785" data-name="Group 29785">
                <g id="Group_29784" data-name="Group 29784">
                  <g id="Group_29783" data-name="Group 29783">
                    <path id="Path_42997" data-name="Path 42997" d="M228.7,237.126a13.013,13.013,0,0,1,1.882-7.291c.235-.235.47-.588.706-.706a.944.944,0,0,1,.941-.118,1.379,1.379,0,0,1,.588,1.294,8.758,8.758,0,0,1-4.116,8" transform="translate(-228.689 -228.934)" fill="#b8d39b"/>
                  </g>
                </g>
              </g>
            </g>
            <g id="Group_29790" data-name="Group 29790" transform="translate(12.23 29.719)">
              <g id="Group_29789" data-name="Group 29789">
                <g id="Group_29788" data-name="Group 29788">
                  <g id="Group_29787" data-name="Group 29787">
                    <path id="Path_42998" data-name="Path 42998" d="M230.7,244.34a12.625,12.625,0,0,1,2.352-6,2.224,2.224,0,0,1,1.176-.941c.823-.118,1.411.706,1.529,1.411.353,1.529-.47,3.175-1.294,4.469a15.839,15.839,0,0,1-2.94,2.94" transform="translate(-230.7 -237.39)" fill="#b8d39b"/>
                  </g>
                </g>
              </g>
            </g>
            <g id="Group_29794" data-name="Group 29794" transform="translate(14.465 37.297)">
              <g id="Group_29793" data-name="Group 29793">
                <g id="Group_29792" data-name="Group 29792">
                  <g id="Group_29791" data-name="Group 29791">
                    <path id="Path_42999" data-name="Path 42999" d="M232.6,249.321a11.4,11.4,0,0,1,2.117-4.7,1.581,1.581,0,0,1,.823-.706,1.1,1.1,0,0,1,1.058.118c.47.353.353,1.176.118,1.646a10.666,10.666,0,0,1-3.528,4.939" transform="translate(-232.6 -243.834)" fill="#b8d39b"/>
                  </g>
                </g>
              </g>
            </g>
            <g id="Group_29798" data-name="Group 29798" transform="translate(5.834 36.885)">
              <g id="Group_29797" data-name="Group 29797">
                <g id="Group_29796" data-name="Group 29796">
                  <g id="Group_29795" data-name="Group 29795">
                    <path id="Path_43000" data-name="Path 43000" d="M232.833,246.913a39.336,39.336,0,0,0-6.233-3.293,1.124,1.124,0,0,0-1.058,0,.565.565,0,0,0-.235.705,2.46,2.46,0,0,0,.47.706,9.71,9.71,0,0,0,7.644,3.175" transform="translate(-225.261 -243.485)" fill="#b8d39b"/>
                  </g>
                </g>
              </g>
            </g>
            <g id="Group_29802" data-name="Group 29802" transform="translate(2.675 28.159)">
              <g id="Group_29801" data-name="Group 29801">
                <g id="Group_29800" data-name="Group 29800">
                  <g id="Group_29799" data-name="Group 29799">
                    <path id="Path_43001" data-name="Path 43001" d="M230.954,240.1c-1.646-1.058-3.41-2.234-5.057-3.293a3.645,3.645,0,0,0-1.529-.706,1.469,1.469,0,0,0-1.529.47,1.413,1.413,0,0,0,0,1.646,4.069,4.069,0,0,0,1.176,1.294,10.532,10.532,0,0,0,3.528,2,4.882,4.882,0,0,0,3.646,0" transform="translate(-222.575 -236.064)" fill="#b8d39b"/>
                  </g>
                </g>
              </g>
            </g>
            <g id="Group_29806" data-name="Group 29806" transform="translate(0.823 18.408)">
              <g id="Group_29805" data-name="Group 29805">
                <g id="Group_29804" data-name="Group 29804">
                  <g id="Group_29803" data-name="Group 29803">
                    <path id="Path_43002" data-name="Path 43002" d="M228.879,232.391a13.889,13.889,0,0,0-5.41-4.351,1.933,1.933,0,0,0-1.176-.235A1.677,1.677,0,0,0,221,229.569a3.382,3.382,0,0,0,1.058,2.352,9.191,9.191,0,0,0,2.352,1.294,16.7,16.7,0,0,0,4.822.941" transform="translate(-221 -227.773)" fill="#b8d39b"/>
                  </g>
                </g>
              </g>
            </g>
            <g id="Group_29810" data-name="Group 29810" transform="translate(0 8.063)">
              <g id="Group_29809" data-name="Group 29809">
                <g id="Group_29808" data-name="Group 29808">
                  <g id="Group_29807" data-name="Group 29807">
                    <path id="Path_43003" data-name="Path 43003" d="M227.944,225.355a16.173,16.173,0,0,0-5.41-5.88c-.47-.353-1.058-.706-1.646-.353-.353.118-.47.588-.588.941a3.432,3.432,0,0,0,.235,1.058,8.564,8.564,0,0,0,7.526,5.527" transform="translate(-220.3 -218.976)" fill="#b8d39b"/>
                  </g>
                </g>
              </g>
            </g>
            <g id="Group_29814" data-name="Group 29814" transform="translate(5.746)">
              <g id="Group_29813" data-name="Group 29813">
                <g id="Group_29812" data-name="Group 29812">
                  <g id="Group_29811" data-name="Group 29811">
                    <path id="Path_43004" data-name="Path 43004" d="M226.849,222.21a23.009,23.009,0,0,1-1.411-4,6.994,6.994,0,0,1,.118-4.116,4.15,4.15,0,0,1,.941-1.529,1.911,1.911,0,0,1,1.764-.353,2.366,2.366,0,0,1,1.058,1.294,7.76,7.76,0,0,1,.118,1.646c-.353,2.7-1.176,5.762-2.587,7.056" transform="translate(-225.186 -212.119)" fill="#b8d39b"/>
                  </g>
                </g>
              </g>
            </g>
          </g>
          <g id="Group_29857" data-name="Group 29857" transform="translate(34.016 15.105)">
            <g id="Group_29820" data-name="Group 29820" transform="translate(1.617 2.211)">
              <g id="Group_29819" data-name="Group 29819">
                <g id="Group_29818" data-name="Group 29818">
                  <g id="Group_29817" data-name="Group 29817">
                    <g id="Group_29816" data-name="Group 29816">
                      <path id="Path_43005" data-name="Path 43005" d="M260.478,213.7v7.056c-.118,2.117-.235,4.7-.588,7.526s-.823,5.88-1.529,9.173c-.706,3.175-1.529,6.233-2.352,8.938s-1.764,5.174-2.47,7.174c-.353,1.058-.823,1.882-1.176,2.7a16.17,16.17,0,0,1-.941,2,11.477,11.477,0,0,0-.588,1.294l-.235.47a1.854,1.854,0,0,1,.118-.47c.118-.353.353-.706.588-1.294a17.323,17.323,0,0,0,.823-2c.353-.823.706-1.646,1.058-2.7.823-2,1.646-4.469,2.47-7.174a82.606,82.606,0,0,0,2.234-8.938c.706-3.175,1.176-6.35,1.529-9.055a63.721,63.721,0,0,0,.588-7.526,25.568,25.568,0,0,0,.118-2.94v-3.646C260.478,213.818,260.478,213.7,260.478,213.7Z" transform="translate(-250.6 -213.7)" fill="#455a64"/>
                    </g>
                  </g>
                </g>
              </g>
            </g>
            <g id="Group_29824" data-name="Group 29824" transform="translate(5.851 11.954)">
              <g id="Group_29823" data-name="Group 29823">
                <g id="Group_29822" data-name="Group 29822">
                  <g id="Group_29821" data-name="Group 29821">
                    <path id="Path_43006" data-name="Path 43006" d="M259.022,227.883a7.9,7.9,0,0,0-1.882-5.057c-.47-.47-.941-.941-1.646-.823-.823.118-1.176,1.058-1.294,2a6.416,6.416,0,0,0,1.294,3.881,5.467,5.467,0,0,0,3.175,2" transform="translate(-254.2 -221.984)" fill="#d2e7bb"/>
                  </g>
                </g>
              </g>
            </g>
            <g id="Group_29828" data-name="Group 29828" transform="translate(4.77 19.774)">
              <g id="Group_29827" data-name="Group 29827">
                <g id="Group_29826" data-name="Group 29826">
                  <g id="Group_29825" data-name="Group 29825">
                    <path id="Path_43007" data-name="Path 43007" d="M257.419,236.826a13.013,13.013,0,0,0-1.882-7.291c-.235-.235-.47-.588-.706-.706a.944.944,0,0,0-.941-.118,1.379,1.379,0,0,0-.588,1.294,8.758,8.758,0,0,0,4.116,8" transform="translate(-253.281 -228.634)" fill="#d2e7bb"/>
                  </g>
                </g>
              </g>
            </g>
            <g id="Group_29832" data-name="Group 29832" transform="translate(1.298 29.719)">
              <g id="Group_29831" data-name="Group 29831">
                <g id="Group_29830" data-name="Group 29830">
                  <g id="Group_29829" data-name="Group 29829">
                    <path id="Path_43008" data-name="Path 43008" d="M255.469,244.04a12.626,12.626,0,0,0-2.352-6,2.224,2.224,0,0,0-1.176-.941c-.823-.118-1.411.706-1.529,1.411-.353,1.529.47,3.175,1.294,4.469a15.84,15.84,0,0,0,2.94,2.94" transform="translate(-250.329 -237.09)" fill="#d2e7bb"/>
                  </g>
                </g>
              </g>
            </g>
            <g id="Group_29836" data-name="Group 29836" transform="translate(0 37.297)">
              <g id="Group_29835" data-name="Group 29835">
                <g id="Group_29834" data-name="Group 29834">
                  <g id="Group_29833" data-name="Group 29833">
                    <path id="Path_43009" data-name="Path 43009" d="M253.547,249.021a11.4,11.4,0,0,0-2.117-4.7,1.581,1.581,0,0,0-.823-.706,1.1,1.1,0,0,0-1.058.118c-.47.353-.353,1.176-.118,1.646a10.665,10.665,0,0,0,3.528,4.939" transform="translate(-249.225 -243.534)" fill="#d2e7bb"/>
                  </g>
                </g>
              </g>
            </g>
            <g id="Group_29840" data-name="Group 29840" transform="translate(4.675 36.886)">
              <g id="Group_29839" data-name="Group 29839">
                <g id="Group_29838" data-name="Group 29838">
                  <g id="Group_29837" data-name="Group 29837">
                    <path id="Path_43010" data-name="Path 43010" d="M253.788,246.613a39.346,39.346,0,0,1,6.233-3.293,1.124,1.124,0,0,1,1.058,0,.675.675,0,0,1,.235.823,1.5,1.5,0,0,1-.47.706,9.71,9.71,0,0,1-7.644,3.175" transform="translate(-253.2 -243.185)" fill="#d2e7bb"/>
                  </g>
                </g>
              </g>
            </g>
            <g id="Group_29844" data-name="Group 29844" transform="translate(7.497 28.159)">
              <g id="Group_29843" data-name="Group 29843">
                <g id="Group_29842" data-name="Group 29842">
                  <g id="Group_29841" data-name="Group 29841">
                    <path id="Path_43011" data-name="Path 43011" d="M255.835,239.8c1.646-1.059,3.411-2.234,5.057-3.293a3.645,3.645,0,0,1,1.529-.706,1.469,1.469,0,0,1,1.529.47,1.413,1.413,0,0,1,0,1.646,4.068,4.068,0,0,1-1.176,1.294,10.534,10.534,0,0,1-3.528,2,4.882,4.882,0,0,1-3.646,0" transform="translate(-255.6 -235.764)" fill="#d2e7bb"/>
                  </g>
                </g>
              </g>
            </g>
            <g id="Group_29848" data-name="Group 29848" transform="translate(9.731 18.408)">
              <g id="Group_29847" data-name="Group 29847">
                <g id="Group_29846" data-name="Group 29846">
                  <g id="Group_29845" data-name="Group 29845">
                    <path id="Path_43012" data-name="Path 43012" d="M257.853,232.091a13.889,13.889,0,0,1,5.41-4.351,1.935,1.935,0,0,1,1.176-.235,1.677,1.677,0,0,1,1.294,1.764,3.382,3.382,0,0,1-1.058,2.352,9.188,9.188,0,0,1-2.352,1.294,16.7,16.7,0,0,1-4.822.941" transform="translate(-257.5 -227.473)" fill="#d2e7bb"/>
                  </g>
                </g>
              </g>
            </g>
            <g id="Group_29852" data-name="Group 29852" transform="translate(11.025 8.063)">
              <g id="Group_29851" data-name="Group 29851">
                <g id="Group_29850" data-name="Group 29850">
                  <g id="Group_29849" data-name="Group 29849">
                    <path id="Path_43013" data-name="Path 43013" d="M258.718,225.055a16.174,16.174,0,0,1,5.409-5.88c.47-.353,1.059-.706,1.646-.353.353.118.47.588.588.941a3.431,3.431,0,0,1-.235,1.058,8.564,8.564,0,0,1-7.526,5.527" transform="translate(-258.6 -218.676)" fill="#d2e7bb"/>
                  </g>
                </g>
              </g>
            </g>
            <g id="Group_29856" data-name="Group 29856" transform="translate(8.791)">
              <g id="Group_29855" data-name="Group 29855">
                <g id="Group_29854" data-name="Group 29854">
                  <g id="Group_29853" data-name="Group 29853">
                    <path id="Path_43014" data-name="Path 43014" d="M259.287,221.91a23.018,23.018,0,0,0,1.411-4,7,7,0,0,0-.118-4.116,4.149,4.149,0,0,0-.941-1.529,1.912,1.912,0,0,0-1.764-.353,2.366,2.366,0,0,0-1.058,1.294,7.76,7.76,0,0,0-.118,1.646c.353,2.7,1.058,5.762,2.587,7.056" transform="translate(-256.7 -211.819)" fill="#d2e7bb"/>
                  </g>
                </g>
              </g>
            </g>
          </g>
          <g id="Group_29861" data-name="Group 29861" transform="translate(0.706 63.416)">
            <g id="Group_29860" data-name="Group 29860">
              <g id="Group_29859" data-name="Group 29859">
                <g id="Group_29858" data-name="Group 29858">
                  <path id="Path_43015" data-name="Path 43015" d="M220.9,252.9v6.468a2.484,2.484,0,0,0,2.47,2.47h43.865a2.484,2.484,0,0,0,2.47-2.47V252.9Z" transform="translate(-220.9 -252.9)" fill="#455a64"/>
                </g>
              </g>
            </g>
          </g>
          <g id="Group_29865" data-name="Group 29865" transform="translate(4.586 72.354)" opacity="0.4">
            <g id="Group_29864" data-name="Group 29864">
              <g id="Group_29863" data-name="Group 29863">
                <g id="Group_29862" data-name="Group 29862">
                  <path id="Path_43016" data-name="Path 43016" d="M224.2,260.5l.353,2,40.455,2.94,1.058-4.939Z" transform="translate(-224.2 -260.5)"/>
                </g>
              </g>
            </g>
          </g>
        </g>
      </g>
      <g id="Group_110859" data-name="Group 110859" transform="translate(2653.764 42.31)">
        <path id="Path_80215" data-name="Path 80215" d="M-2255.406,442.811c-1.839,1.839-48.456,39.769-48.456,39.769h14.069l36.98-30.446s1.744-1.462,1.348-5.743S-2253.567,440.972-2255.406,442.811Z" transform="translate(-10.464 0.115)" fill="#959b9d"/>
        <path id="Path_80216" data-name="Path 80216" d="M0,0H43.168V3.754H0Z" transform="translate(-2331 482.695)" fill="#959b9d"/>
        <line id="Line_3" data-name="Line 3" x1="43.793" y2="35.66" transform="translate(-2306.594 446.035)" fill="none" stroke="#263238" stroke-linecap="round" stroke-width="0.4"/>
        <path id="Path_80217" data-name="Path 80217" d="M-2250.984,501.93h4.261l-8.478-18.5-3.385,2.932Z" transform="translate(-27.11 -15.482)" fill="#959b9d"/>
      </g>
    </g>
  </g>
</svg>
