<svg xmlns="http://www.w3.org/2000/svg" xmlns:xlink="http://www.w3.org/1999/xlink" width="326" height="136" viewBox="0 0 326 136">
  <defs>
    <clipPath id="clip-path">
      <rect id="Rectangle_19546" data-name="Rectangle 19546" width="326" height="136" transform="translate(522.664 3538.753)" fill="#fff" stroke="#707070" stroke-width="1"/>
    </clipPath>
  </defs>
  <g id="Mask_Group_865" data-name="Mask Group 865" transform="translate(-522.664 -3538.753)" clip-path="url(#clip-path)">
    <g id="_4566999" data-name="4566999" transform="translate(488.419 3353.559)">
      <g id="Planet" transform="translate(34.147 188.452)">
        <g id="Group_64592" data-name="Group 64592" transform="translate(0)">
          <g id="Group_64591" data-name="Group 64591">
            <path id="Path_61310" data-name="Path 61310" d="M284.31,429.071c-.131-1.8,1.38-3.4,3.045-4.171,1.665-.794,3.539-1.033,5.258-1.727.678-.285,1.434-.771,1.457-1.5,0-1.079-1.511-1.519-1.9-2.521-.416-1.133.756-2.19,1.249-3.292,1.064-2.521-1.588-5.065-4.163-6.1-2.552-1.025-5.644-1.773-6.839-4.248a14.4,14.4,0,0,1-.833-3.678c-.6-3.115-2.914-6.122-6.083-6.638-3.2-.517-6.738,2.29-6.214,5.428.308,1.727,1.611,3.061,2.313,4.657.725,1.6.524,3.963-1.141,4.479-2.729.825-5.358-4.117-7.648-2.421.933,3.161,1.843,6.33,2.783,9.522-3.593,1.8-7.88-1.465-9.414-5.173-1.534-3.678-1.588-7.9-3.408-11.449-1.82-3.577-6.738-6.23-9.861-3.708-.154,4.58,5.96,6.43,8.666,10.139,1.951,2.675,1.665,7.024-1.226,8.72-2.86,1.7-7.409-1.257-6.322-4.372.393-1.079,1.3-1.981,1.4-3.138.1-1.442-1.118-2.6-2.236-3.523-1.742-1.465-3.485-2.907-5.227-4.348a10.905,10.905,0,0,0-3.724-2.313c-3.593-1.025-7.178,1.85-9.075,5.019-1.9,3.192-2.968,6.923-5.59,9.576-3.77,3.863-10.925,4.094-14.464.054-3.562-4.04-1.742-11.6,3.485-13.068,1.974-.54,4.472-.486,5.513-2.213,1.819-3.061-3.385-6.97-1.588-10.061,1.38-2.367,5.019-1.288,7.671-2.082,2.629-.794,4.109-3.423,5.667-5.69,1.534-2.236,3.955-4.5,6.661-3.909a8.154,8.154,0,0,1,.285-4.68c.7-1.442,2.675-2.367,3.978-1.442-1.326,2.159.262,5.173,2.575,6.253s5.019.825,7.571.54c2.552-.308,5.752-1.234,5.96-3.755.077-.825-.231-1.7.077-2.467,1.118-3.007,6.738,1.133,8.9-1.288,1.249-1.264-.131-3.5-1.874-3.909-1.719-.44-3.508.208-5.281.254-1.766.077-3.924-.848-4.009-2.6-.077-1.727,1.873-2.961,2.082-4.657.339-2.883-4.6-3.631-6.345-1.288-1.719,2.344-1.118,5.559-.6,8.411.547,2.853.809,6.23-1.326,8.234-.91,1.365-3.277.64-4.055-.794-.81-1.442-.625-3.192-.756-4.811-.131-1.65-.856-3.5-2.467-3.94-1.118-.308-2.313.231-3.462.385-4.526.54-7.671-5.25-6.245-9.522,1.4-4.294,5.513-7.055,9.5-9.236,2.914-1.6,6.53-3.092,9.414-1.465,1.349.748,2.29,2.035,3.616,2.806,2.29,1.334,5.127.848,7.748.9a18.145,18.145,0,0,1,11.31,4.348c1.172,1.056,2.267,2.806,1.357,4.063-.987,1.342-3.824,1.619-3.331,3.192a5.64,5.64,0,0,0,7.078-4.5,4.685,4.685,0,0,1,2.729,3.809c3.3-3.323,9.653-2.83,12.359,1a10.472,10.472,0,0,0,2.29,2.907c1.041.671,2.86.332,2.991-.879a2.413,2.413,0,0,0-.208-1.133c-.624-1.75-1.272-3.469-1.9-5.2,2.421-1.288,5.281.717,6.916,2.883,6.083,8.057,10.432,3.215,19.013,4.526,5.8.871,8.35,4.557,11.627,9.005C340.083,384.97,353.352,396.2,362.48,410.5c.964,1.5,1.85,3.007,2.675,4.557-.154-.386-.285-.771-.439-1.156a157.914,157.914,0,0,0-13.269-26.684c-1.118-1.8-2.267-3.577-3.431-5.327-.725-1.079-1.48-2.19-2.236-3.246-.964-1.388-1.974-2.729-2.991-4.063-.81-1.079-1.611-2.136-2.444-3.169-.571-.717-1.172-1.442-1.766-2.159-.624-.825-1.3-1.619-2.028-2.421l-2.182-2.5a9.055,9.055,0,0,0-.7-.771c-.756-.871-1.557-1.727-2.367-2.575a.8.8,0,0,0-.231-.254c-.208-.231-.44-.463-.679-.694-.648-.717-1.349-1.419-2.028-2.113-1.118-1.133-2.267-2.267-3.431-3.346-.964-.948-1.951-1.85-2.968-2.752-.887-.794-1.766-1.6-2.683-2.367-.887-.771-1.766-1.519-2.683-2.267-1.095-.925-2.213-1.827-3.354-2.729h-.023c-3.146-2.5-6.4-4.865-9.73-7.078-.833-.563-1.642-1.11-2.475-1.65-.833-.563-1.688-1.079-2.521-1.6-.856-.517-1.688-1.056-2.552-1.542-.856-.54-1.719-1.033-2.575-1.519-.7-.409-1.38-.794-2.082-1.156-.362-.231-.7-.409-1.064-.594-1.48-.825-2.991-1.619-4.5-2.367-.756-.385-1.511-.771-2.29-1.133-.964-.486-1.951-.948-2.938-1.388a2.56,2.56,0,0,0-.439-.208c-.887-.409-1.766-.825-2.683-1.21-1.272-.54-2.552-1.079-3.824-1.6-1.457-.594-2.914-1.187-4.395-1.727-1.642-.617-3.277-1.21-4.942-1.75-1.665-.563-3.354-1.11-5.05-1.619s-3.385-.979-5.1-1.442c-3.377-.9-6.816-1.7-10.277-2.39a1.645,1.645,0,0,1-.185-.054c-1.326-.254-2.652-.517-3.978-.717a1.326,1.326,0,0,0-.262-.054c-.571-.1-1.172-.208-1.766-.285-2.475-.409-4.965-.748-7.494-1.025a8.445,8.445,0,0,0-.91-.1c-.725-.1-1.457-.154-2.213-.231-1.665-.154-3.331-.285-5.019-.385-1.742-.131-3.508-.208-5.281-.254-1.843-.077-3.693-.1-5.543-.1q-7.332,0-14.518.64c-1.141.077-2.259.177-3.385.308-1.172.131-2.344.254-3.508.409s-2.344.308-3.485.486c-1.172.177-2.313.362-3.485.563-.987.154-2,.331-2.991.54q-3.666.694-7.255,1.542c-1.118.254-2.236.54-3.354.848-1.118.285-2.236.594-3.331.9-1.85.517-3.639,1.079-5.436,1.642h-.023c-1.457.486-2.937.979-4.372,1.465a.2.2,0,0,0-.108.054c-1.48.517-2.914,1.056-4.371,1.619-.077.023-.154.054-.231.077-1.326.517-2.652,1.056-3.955,1.6-1.642.671-3.254,1.388-4.842,2.113-1.349.617-2.675,1.234-3.978,1.881-1.4.694-2.806,1.388-4.186,2.112-.054.023-.108.054-.154.077-1.326.694-2.652,1.411-3.955,2.159-1.349.748-2.675,1.519-4.009,2.344h-.023c-1.249.748-2.467,1.5-3.693,2.267-.47.285-.91.594-1.38.9-1.3.825-2.552,1.673-3.824,2.544-1.557,1.056-3.069,2.159-4.58,3.269-1.326.979-2.629,1.982-3.9,2.984A162.667,162.667,0,0,0,88.355,363.8c-2.213,2.421-4.294,4.888-6.322,7.409-1.719,2.159-3.385,4.348-4.965,6.615.416-.054.833-.1,1.249-.131,2.344-.177,4.811-.1,6.916-1.1,1.951-.948,3.331-2.675,5.1-3.909,4.526-3.192,11.943-3.786,13.161-9.136.416-1.8-.077-3.755.6-5.482,1.272-3.215,5.621-3.678,9.105-3.631,1.48,0,3.223.208,3.9,1.5a3.649,3.649,0,0,1-.154,2.984A28.037,28.037,0,0,1,105,373.421c-4.526,2.729-10.431,4.834-11.681,9.93.624,1.727,3.8,1.6,4.055,3.4.185,1.442-1.688,2.19-2.367,3.477-.987,1.881,1.272,4.171,3.431,4.063s3.955-1.65,5.543-3.092c4.734-4.348,9.7-9.028,11.418-15.2.725-2.544.987-5.536,3.069-7.232,2.475-2,6.893-.617,7.725,2.444,2.059-1.133,5.25-1.981,6.322.131a10.563,10.563,0,0,1,.439,2.421c.678,3.292,5.227,4.788,5.7,8.1.547,3.832-4.425,5.813-8.3,6.407-3.516.54-7.024,1.079-10.532,1.65a9.8,9.8,0,0,0-4.371,1.388c-1.249.925-2.028,2.675-1.3,4.04a10.315,10.315,0,0,0,1.82,1.85c2.914,2.883.517,8.828-3.593,8.951-1.4.054-2.783-.463-4.186-.517-4.163-.177-7.463,3.446-9.445,7.078s-3.462,7.772-6.792,10.239c-5.358,3.986-14.595,3.061-17.193,9.182-1.041,2.467-.493,5.25-.077,7.9.069.416.123.848.17,1.272H189.2c2.382-.941,4.965-1.642,7-3.153,4.68-3.47,5.3-10.092,8.257-15.088s12.2-7.109,13.562-1.48c9.776-20.7,31.379,10.054,44.224,7.741,3.732-.671,7.378-2.444,11.133-1.927,6.469.894,9.876,7.787,12.135,13.909h5.366c-.617-2.136-.586-4.495-1.843-6.322C287.617,432.88,284.518,431.646,284.31,429.071Zm-87.2-91.864c-1.01,2.328-.555,5.227-2.1,7.247-1.234,1.6-3.369,2.166-5.343,2.629q-6.21,1.457-12.428,2.922a18.684,18.684,0,0,0-5.343,1.843c-3.254,1.927-4.988,5.559-7.5,8.373s-7.016,4.819-9.984,2.475a6.756,6.756,0,0,1-2.228-4.788,12.174,12.174,0,0,1,1.766-7.448c1.419-2.282,3.577-4.079,4.772-6.476s.956-5.914-1.5-7.039c-1.326-.609-3-.37-4.179-1.234-2.12-1.542-.6-5.2,1.858-6.114s5.2-.208,7.818-.039c9.529.6,16.53-5.574,23.693-10.694,5.567-3.986,17.432-8.7,23.885-4.626,2.575,1.627,3.577,5.806,1.156,7.641-1.087.825-2.583,1-3.593,1.912-1.21,1.087-1.38,2.883-2.074,4.348C203.988,331.949,198.784,333.337,197.111,337.208Z" transform="translate(-49.713 -309.29)" fill="#d7e8f5"/>
            <g id="Group_64590" data-name="Group 64590" transform="translate(0 3.377)" opacity="0.3">
              <path id="Path_61311" data-name="Path 61311" d="M218.138,345.458c1.557-2.02,1.1-4.919,2.1-7.247,1.673-3.87,6.877-5.258,8.681-9.075.694-1.465.864-3.261,2.074-4.348,1.01-.91,2.506-1.095,3.593-1.912,2.421-1.835,1.419-6.014-1.157-7.641-6.445-4.071-18.311.632-23.885,4.626-7.162,5.127-14.171,11.295-23.693,10.694-2.629-.162-5.358-.879-7.818.039s-3.978,4.572-1.858,6.114c1.18.856,2.853.617,4.179,1.234,2.459,1.126,2.7,4.641,1.5,7.039s-3.362,4.194-4.772,6.476a12.122,12.122,0,0,0-1.766,7.448,6.771,6.771,0,0,0,2.228,4.788c2.968,2.344,7.471.339,9.984-2.475s4.24-6.446,7.5-8.373A18.917,18.917,0,0,1,200.382,351q6.21-1.457,12.428-2.922C214.769,347.624,216.9,347.054,218.138,345.458Z" transform="translate(-72.845 -313.67)"/>
              <path id="Path_61312" data-name="Path 61312" d="M307.587,458.656c-3.755-.517-7.4,1.257-11.133,1.927-12.845,2.313-34.448-28.434-44.224-7.741-1.365-5.628-10.609-3.516-13.562,1.48s-3.577,11.619-8.257,15.088c-2.043,1.511-4.618,2.213-7,3.153h96.32C317.471,466.435,314.055,459.55,307.587,458.656Z" transform="translate(-83.892 -343.894)"/>
              <path id="Path_61313" data-name="Path 61313" d="M131.415,395.291c-.47-3.323-5.019-4.811-5.7-8.1a11,11,0,0,0-.439-2.421c-1.064-2.112-4.264-1.264-6.322-.131-.833-3.061-5.25-4.449-7.725-2.444-2.082,1.7-2.344,4.68-3.069,7.232-1.719,6.176-6.684,10.855-11.418,15.2-1.588,1.442-3.385,2.984-5.543,3.092s-4.425-2.19-3.431-4.063c.678-1.288,2.552-2.035,2.367-3.477-.262-1.8-3.431-1.673-4.055-3.4,1.249-5.1,7.155-7.2,11.681-9.93a28.037,28.037,0,0,0,11.943-14.51,3.651,3.651,0,0,0,.154-2.984c-.678-1.288-2.421-1.5-3.9-1.5-3.485-.054-7.826.409-9.105,3.631-.678,1.727-.185,3.678-.6,5.482-1.226,5.351-8.635,5.944-13.161,9.136-1.766,1.234-3.146,2.961-5.1,3.909-2.1,1-4.58.925-6.916,1.1-.416.023-.833.077-1.249.131-1.426,1.966-2.806,3.978-4.14,6.014s-2.614,4.109-3.847,6.206a159.743,159.743,0,0,0-14.256,31.441q-1.908,5.771-3.377,11.727-.983,4.013-1.758,8.1h.779c.524-1.781.9-3.577,1.234-5.135.085-.393.162-.771.239-1.133.856-3.886,2.136-7.949,5.173-10.547,3.069-2.6,8.373-2.907,10.74.332,1.688,2.313,1.3,5.482.856,8.311q-.648,4.082-1.3,8.172h7.455c-.046-.432-.1-.856-.17-1.272-.416-2.652-.964-5.428.077-7.9,2.6-6.122,11.835-5.2,17.193-9.183,3.331-2.467,4.811-6.615,6.792-10.239s5.281-7.255,9.445-7.078c1.4.054,2.783.563,4.186.517,4.109-.131,6.5-6.075,3.593-8.951a10.07,10.07,0,0,1-1.82-1.85c-.725-1.365.054-3.115,1.3-4.04a9.8,9.8,0,0,1,4.372-1.388q5.262-.844,10.532-1.65C126.989,401.112,131.954,399.13,131.415,395.291Z" transform="translate(-42.45 -326.079)"/>
              <path id="Path_61314" data-name="Path 61314" d="M407.671,437.576c-.609-2.12-1.264-4.225-1.951-6.314s-1.426-4.156-2.205-6.214v-.023h0c-.833-1.542-1.719-3.061-2.675-4.557-9.128-14.3-22.4-25.527-32.436-39.212-3.277-4.449-5.829-8.134-11.627-9.005-8.581-1.311-12.929,3.523-19.013-4.526-1.634-2.159-4.5-4.171-6.916-2.883.624,1.727,1.272,3.446,1.9,5.2a2.41,2.41,0,0,1,.208,1.133c-.131,1.211-1.951,1.542-2.991.879-1.041-.694-1.557-1.9-2.29-2.907-2.706-3.832-9.051-4.325-12.359-1a4.7,4.7,0,0,0-2.729-3.809,5.64,5.64,0,0,1-7.078,4.5c-.493-1.573,2.344-1.85,3.331-3.192.91-1.264-.185-3.007-1.357-4.063a18.145,18.145,0,0,0-11.31-4.348c-2.629-.054-5.466.44-7.748-.9-1.326-.771-2.267-2.059-3.616-2.806-2.891-1.619-6.5-.131-9.414,1.465-3.978,2.19-8.088,4.942-9.5,9.237-1.426,4.271,1.719,10.061,6.245,9.522,1.141-.154,2.344-.694,3.462-.385,1.611.439,2.344,2.29,2.467,3.94.131,1.619-.054,3.369.756,4.811.779,1.442,3.146,2.159,4.055.794,2.136-2,1.874-5.381,1.326-8.234-.517-2.853-1.118-6.075.6-8.411,1.742-2.344,6.684-1.6,6.345,1.288-.208,1.7-2.159,2.93-2.082,4.657.077,1.75,2.236,2.675,4.009,2.6,1.766-.054,3.562-.694,5.281-.254,1.742.409,3.123,2.652,1.874,3.909-2.159,2.421-7.779-1.727-8.9,1.288-.308.771,0,1.65-.077,2.467-.208,2.521-3.408,3.446-5.96,3.755-2.552.285-5.25.54-7.571-.54s-3.9-4.094-2.575-6.253c-1.3-.925-3.277,0-3.978,1.442a8.157,8.157,0,0,0-.285,4.68c-2.706-.594-5.127,1.673-6.661,3.909-1.557,2.267-3.045,4.888-5.667,5.69-2.652.8-6.291-.285-7.671,2.082-1.8,3.092,3.408,7,1.588,10.061-1.041,1.727-3.539,1.673-5.513,2.213-5.227,1.465-7.047,9.028-3.485,13.068,3.539,4.04,10.694,3.809,14.464-.054,2.629-2.652,3.693-6.384,5.59-9.576,1.9-3.161,5.49-6.045,9.075-5.019a11.052,11.052,0,0,1,3.724,2.313c1.742,1.442,3.485,2.883,5.227,4.348,1.118.925,2.344,2.082,2.236,3.523-.108,1.156-1.018,2.059-1.4,3.138-1.095,3.115,3.462,6.075,6.322,4.372,2.891-1.7,3.177-6.044,1.226-8.72-2.706-3.708-8.82-5.559-8.666-10.138,3.122-2.521,8.041.131,9.861,3.708,1.819,3.554,1.873,7.772,3.408,11.449,1.534,3.7,5.829,6.97,9.414,5.173-.941-3.192-1.85-6.353-2.783-9.522,2.29-1.7,4.919,3.246,7.648,2.421,1.665-.517,1.874-2.883,1.141-4.479-.7-1.6-2-2.93-2.313-4.657-.517-3.138,3.015-5.944,6.214-5.428,3.169.517,5.489,3.523,6.083,6.638a14.4,14.4,0,0,0,.833,3.678c1.2,2.467,4.294,3.215,6.839,4.248,2.575,1.033,5.227,3.577,4.163,6.1-.493,1.11-1.665,2.159-1.249,3.292.393,1,1.9,1.442,1.9,2.521-.023.717-.779,1.21-1.457,1.5-1.719.694-3.593.925-5.258,1.727-1.665.771-3.177,2.367-3.045,4.171.208,2.575,3.3,3.809,4.757,5.944,1.257,1.82,1.226,4.179,1.843,6.322h19.043c-.686-1.372-1.357-2.729-2.051-4.109,1.534-1.288,3.978-.748,5.567.517a17.986,17.986,0,0,1,3,3.593h56.1Q409.591,444.333,407.671,437.576Z" transform="translate(-88.065 -322.636)"/>
            </g>
            <path id="Path_61315" data-name="Path 61315" d="M228.924,329.146c.694-1.465.864-3.261,2.074-4.348,1.01-.91,2.506-1.095,3.593-1.912,2.421-1.835,1.419-6.014-1.156-7.641-6.445-4.071-18.311.632-23.885,4.626-7.163,5.127-14.171,11.3-23.693,10.694-2.629-.162-5.358-.879-7.818.039s-3.978,4.572-1.858,6.114c1.18.856,2.853.617,4.179,1.234,2.459,1.126,2.7,4.641,1.5,7.039s-3.362,4.194-4.772,6.476a12.122,12.122,0,0,0-1.766,7.448,6.771,6.771,0,0,0,2.228,4.788c2.968,2.344,7.471.339,9.984-2.475s4.24-6.445,7.5-8.373a18.915,18.915,0,0,1,5.343-1.843q6.21-1.457,12.428-2.922c1.974-.463,4.109-1.033,5.343-2.629,1.557-2.02,1.1-4.919,2.1-7.247C221.916,334.343,227.12,332.955,228.924,329.146Z" transform="translate(-72.845 -310.295)" fill="#b5d485"/>
            <path id="Path_61316" data-name="Path 61316" d="M307.587,458.656c-3.755-.517-7.4,1.257-11.133,1.927-12.845,2.313-34.448-28.434-44.224-7.741-1.365-5.628-10.609-3.516-13.562,1.48s-3.577,11.619-8.257,15.088c-2.043,1.511-4.618,2.213-7,3.153h96.32C317.471,466.435,314.055,459.55,307.587,458.656Z" transform="translate(-83.892 -340.517)" fill="#b5d485"/>
            <path id="Path_61317" data-name="Path 61317" d="M405.711,431.261c-.694-2.089-1.426-4.156-2.205-6.214v-.023h0c-.833-1.542-1.719-3.061-2.675-4.557-9.129-14.3-22.4-25.527-32.436-39.212-3.277-4.449-5.829-8.134-11.627-9.005-8.581-1.311-12.929,3.523-19.013-4.526-1.635-2.159-4.5-4.171-6.916-2.883.624,1.727,1.272,3.446,1.9,5.2a2.411,2.411,0,0,1,.208,1.133c-.131,1.211-1.951,1.542-2.991.879-1.041-.694-1.557-1.9-2.29-2.907-2.706-3.832-9.051-4.325-12.359-1a4.7,4.7,0,0,0-2.729-3.809,5.64,5.64,0,0,1-7.078,4.5c-.493-1.573,2.344-1.85,3.331-3.192.91-1.264-.185-3.007-1.357-4.063a18.144,18.144,0,0,0-11.31-4.348c-2.629-.054-5.466.44-7.748-.9-1.326-.771-2.267-2.059-3.616-2.806-2.891-1.619-6.5-.131-9.414,1.465-3.978,2.19-8.088,4.942-9.5,9.237-1.426,4.271,1.719,10.061,6.245,9.522,1.141-.154,2.344-.694,3.462-.385,1.611.439,2.344,2.29,2.467,3.94.131,1.619-.054,3.369.756,4.811.779,1.442,3.146,2.159,4.055.794,2.136-2,1.874-5.381,1.326-8.234-.517-2.853-1.118-6.075.6-8.411,1.742-2.344,6.684-1.6,6.345,1.288-.208,1.7-2.159,2.93-2.082,4.657.077,1.75,2.236,2.675,4.009,2.6,1.766-.054,3.562-.694,5.281-.254,1.742.409,3.122,2.652,1.873,3.909-2.159,2.421-7.779-1.727-8.9,1.288-.308.771,0,1.65-.077,2.467-.208,2.521-3.408,3.446-5.96,3.755-2.552.285-5.25.54-7.571-.54s-3.9-4.094-2.575-6.253c-1.3-.925-3.277,0-3.978,1.442a8.156,8.156,0,0,0-.285,4.68c-2.706-.594-5.127,1.673-6.661,3.909-1.557,2.267-3.045,4.888-5.667,5.69-2.652.8-6.291-.285-7.671,2.082-1.8,3.092,3.408,7,1.588,10.061-1.041,1.727-3.539,1.673-5.513,2.213-5.227,1.465-7.047,9.028-3.485,13.068,3.539,4.04,10.694,3.809,14.464-.054,2.629-2.652,3.693-6.384,5.59-9.576,1.9-3.161,5.489-6.045,9.075-5.019a11.052,11.052,0,0,1,3.724,2.313c1.742,1.442,3.485,2.883,5.227,4.348,1.118.925,2.344,2.082,2.236,3.523-.108,1.156-1.018,2.059-1.4,3.138-1.095,3.115,3.462,6.075,6.322,4.372,2.891-1.7,3.176-6.044,1.226-8.72-2.706-3.708-8.82-5.559-8.666-10.138,3.122-2.521,8.041.131,9.861,3.708,1.819,3.554,1.874,7.772,3.408,11.449,1.534,3.7,5.829,6.97,9.414,5.173-.941-3.192-1.85-6.353-2.783-9.522,2.29-1.7,4.919,3.246,7.648,2.421,1.665-.517,1.874-2.883,1.141-4.479-.7-1.6-2-2.93-2.313-4.657-.517-3.138,3.015-5.944,6.214-5.428,3.169.517,5.489,3.523,6.083,6.638a14.4,14.4,0,0,0,.833,3.678c1.2,2.467,4.294,3.215,6.839,4.248,2.575,1.033,5.227,3.577,4.163,6.1-.493,1.11-1.665,2.159-1.249,3.292.393,1,1.9,1.442,1.9,2.521-.023.717-.779,1.21-1.457,1.5-1.719.694-3.593.925-5.258,1.727-1.665.771-3.177,2.367-3.045,4.171.208,2.575,3.3,3.809,4.757,5.944,1.257,1.82,1.226,4.179,1.843,6.322h19.051c-.686-1.372-1.357-2.729-2.051-4.109,1.534-1.288,3.978-.748,5.567.517a17.983,17.983,0,0,1,3,3.593h56.1c-.887-4.641-1.974-9.229-3.261-13.732C407.052,435.455,406.4,433.351,405.711,431.261Z" transform="translate(-88.063 -319.259)" fill="#b5d485"/>
            <path id="Path_61318" data-name="Path 61318" d="M382.9,475.527c-1.588-1.264-4.032-1.8-5.567-.517.694,1.372,1.372,2.737,2.051,4.109H385.9A17.482,17.482,0,0,0,382.9,475.527Z" transform="translate(-119.141 -347.073)" fill="#455a64"/>
          </g>
          <path id="Path_61319" data-name="Path 61319" d="M67.533,445.579c2.6-6.122,11.835-5.2,17.193-9.182,3.331-2.467,4.811-6.615,6.792-10.239s5.281-7.255,9.445-7.078c1.4.054,2.783.563,4.186.517,4.109-.131,6.5-6.076,3.593-8.951a10.073,10.073,0,0,1-1.82-1.85c-.725-1.365.054-3.115,1.3-4.04a9.8,9.8,0,0,1,4.372-1.388q5.262-.844,10.532-1.65c3.878-.594,8.843-2.575,8.3-6.407-.47-3.323-5.019-4.811-5.7-8.1a10.992,10.992,0,0,0-.439-2.421c-1.064-2.113-4.264-1.264-6.322-.131-.833-3.061-5.25-4.449-7.725-2.444-2.082,1.7-2.344,4.68-3.069,7.232-1.719,6.176-6.684,10.856-11.418,15.2-1.588,1.442-3.385,2.984-5.543,3.092s-4.425-2.19-3.431-4.063c.678-1.288,2.552-2.035,2.367-3.477-.262-1.8-3.431-1.673-4.055-3.4,1.249-5.1,7.155-7.2,11.681-9.93a28.036,28.036,0,0,0,11.943-14.51,3.651,3.651,0,0,0,.154-2.984c-.678-1.288-2.421-1.5-3.9-1.5-3.485-.054-7.826.409-9.105,3.631-.678,1.727-.185,3.678-.6,5.482-1.226,5.351-8.635,5.944-13.161,9.136-1.766,1.234-3.146,2.961-5.1,3.909-2.1,1-4.58.925-6.916,1.1-.416.023-.833.077-1.249.131-1.426,1.966-2.806,3.978-4.14,6.014s-2.614,4.109-3.847,6.206a159.744,159.744,0,0,0-14.256,31.441q-1.908,5.771-3.377,11.727-.983,4.013-1.758,8.1h.779c.524-1.781.9-3.577,1.234-5.135.085-.393.162-.771.239-1.133.856-3.886,2.136-7.949,5.173-10.547,3.069-2.6,8.373-2.907,10.74.332,1.688,2.313,1.3,5.482.856,8.311q-.648,4.083-1.3,8.173h7.455c-.046-.432-.1-.856-.17-1.272C67.031,450.822,66.492,448.046,67.533,445.579Z" transform="translate(-42.452 -322.707)" fill="#b5d485"/>
          <path id="Path_61320" data-name="Path 61320" d="M60.836,458.481c-2.367-3.238-7.671-2.93-10.74-.331-3.045,2.6-4.318,6.661-5.173,10.547-.077.362-.154.74-.239,1.133-.332,1.557-.709,3.354-1.234,5.135H60.4q.659-4.083,1.3-8.173C62.139,463.962,62.524,460.794,60.836,458.481Z" transform="translate(-42.679 -342.917)" fill="#d7e8f5"/>
        </g>
        <g id="Group_64593" data-name="Group 64593" transform="translate(76.505 92.562)">
          <path id="Path_61321" data-name="Path 61321" d="M188.356,440.513c.355-2.591-3.3-4.726-6.052-4.95a15.741,15.741,0,0,1-3.917-.339c-2.691-.941-3.762-4.418-6.391-5.52-1.966-.825-4.225-.093-6.129.863s-3.786,2.166-5.914,2.3c-1.85.116-3.855-.571-5.474.339-1.2.671-1.835,2.066-2.945,2.884a7.069,7.069,0,0,1-3.855,1.049,10.9,10.9,0,0,0-3.971.648,3.14,3.14,0,0,0-1.989,3.184Z" transform="translate(-141.679 -429.346)" fill="#fafafa"/>
        </g>
        <g id="Group_64594" data-name="Group 64594" transform="translate(103.218 77.592)">
          <path id="Path_61322" data-name="Path 61322" d="M208.287,417.57c.247-1.773-2.259-3.238-4.14-3.385a10.739,10.739,0,0,1-2.683-.231c-1.843-.64-2.575-3.022-4.379-3.778-1.341-.57-2.891-.062-4.194.594a10.938,10.938,0,0,1-4.048,1.573c-1.264.085-2.644-.385-3.747.231-.825.463-1.257,1.411-2.02,1.974a4.877,4.877,0,0,1-2.637.717,7.5,7.5,0,0,0-2.722.447,2.158,2.158,0,0,0-1.365,2.182Z" transform="translate(-176.327 -409.929)" fill="#fafafa"/>
        </g>
      </g>
    </g>
  </g>
</svg>
